  0
SECTION
  2
HEADER
  9
$ACADVER
  1
AC1009
  9
$FILLMODE
 70
0
  9
$EXTMIN
 10
-0.0063
 20
0.0319
 30
0.0000
  9
$EXTMAX
 10
112.0187
 20
64.3545
 30
0.0000
  0
ENDSEC
  0
SECTION
  2
TABLES
  0
TABLE
  2
LTYPE
 70
1
  0
LTYPE
  2
CONTINUOUS
 70
64
  3
Solid line
 72
65
 73
0
 40
0
  0
ENDTAB
  0
TABLE
  2
LAYER
 70
255
  0
LAYER
  2
20
 70
64
 62
30
  6
CONTINUOUS
  0
LAYER
  2
49
 70
64
 62
253
  6
CONTINUOUS
  0
ENDTAB
  0
ENDSEC
  0
SECTION
  2
BLOCKS
  0
BLOCK
  8
0
  2
RECT
 70
64
 10
0.0000
 20
0.0000
 30
0.0000
  3
RECT
  0
SOLID
  8
0
 10
-0.5000
 20
-0.5000
 30
0.0000
 11
0.5000
 21
-0.5000
 31
0.0000
 12
-0.5000
 22
0.5000
 32
0.0000
 13
0.5000
 23
0.5000
 33
0.0000
  0
ENDBLK
  8
0
  0
BLOCK
  8
0
  2
PIE
 70
64
 10
0.0000
 20
0.0000
 30
0.0000
  3
PIE
  0
CIRCLE
  8
0
 10
0.0000
 20
0.0000
 30
0.0000
 40
0.5000
  0
ENDBLK
  8
0
  0
BLOCK
  8
0
  2
OCTAGONP
 70
64
 10
0.0000
 20
0.0000
 30
0.0000
  3
OCTAGONP
  0
POLYLINE
  8
0
 66
1
 10
0.0000
 20
0.0000
 30
0.0000
 40
0.0000
 41
0.0000
 70
1
  0
VERTEX
  8
0
 10
-0.5000
 20
-0.2071
 30
0.0000
  0
VERTEX
  8
0
 10
-0.5000
 20
0.2071
 30
0.0000
  0
VERTEX
  8
0
 10
-0.2071
 20
0.5000
 30
0.0000
  0
VERTEX
  8
0
 10
0.2071
 20
0.5000
 30
0.0000
  0
VERTEX
  8
0
 10
0.5000
 20
0.2071
 30
0.0000
  0
VERTEX
  8
0
 10
0.5000
 20
-0.2071
 30
0.0000
  0
VERTEX
  8
0
 10
0.2071
 20
-0.5000
 30
0.0000
  0
VERTEX
  8
0
 10
-0.2071
 20
-0.5000
 30
0.0000
  0
SEQEND
  8
0
  0
ENDBLK
  8
0
  0
BLOCK
  8
0
  2
SQUAREP
 70
64
 10
0.0000
 20
0.0000
 30
0.0000
  3
SQUAREP
  0
SOLID
  8
0
 10
-0.5000
 20
-0.5000
 30
0.0000
 11
0.5000
 21
-0.5000
 31
0.0000
 12
-0.5000
 22
0.5000
 32
0.0000
 13
0.5000
 23
0.5000
 33
0.0000
  0
ENDBLK
  8
0
  0
BLOCK
  8
0
  2
ROUNDP
 70
64
 10
0.0000
 20
0.0000
 30
0.0000
  3
ROUNDP
  0
CIRCLE
  8
0
 10
0.0000
 20
0.0000
 30
0.0000
 40
0.5000
  0
ENDBLK
  8
0
  0
BLOCK
  8
0
  2
ANNULUSP
 70
64
 10
0.0000
 20
0.0000
 30
0.0000
  3
ANNULUSP
  0
CIRCLE
  8
0
 10
0.0000
 20
0.0000
 30
0.0000
 40
0.5000
  0
ENDBLK
  8
0
  0
BLOCK
  8
0
  2
THERMALP
 70
64
 10
0.0000
 20
0.0000
 30
0.0000
  3
THERMALP
  0
LINE
  8
0
 10
-0.2379
 20
0.4500
 30
0.0000
 11
0.2379
 21
0.4500
 31
0.0000
  0
LINE
  8
0
 10
0.4500
 20
0.2379
 30
0.0000
 11
0.4500
 21
-0.2379
 31
0.0000
  0
LINE
  8
0
 10
0.2379
 20
-0.4500
 30
0.0000
 11
-0.2379
 21
-0.4500
 31
0.0000
  0
LINE
  8
0
 10
-0.4500
 20
-0.2379
 30
0.0000
 11
-0.4500
 21
0.2379
 31
0.0000
  0
ENDBLK
  8
0
  0
BLOCK
  8
0
  2
OCTAGONV
 70
64
 10
0.0000
 20
0.0000
 30
0.0000
  3
OCTAGONV
  0
POLYLINE
  8
0
 66
1
 10
0.0000
 20
0.0000
 30
0.0000
 40
0.0000
 41
0.0000
 70
1
  0
VERTEX
  8
0
 10
-0.5000
 20
-0.2071
 30
0.0000
  0
VERTEX
  8
0
 10
-0.5000
 20
0.2071
 30
0.0000
  0
VERTEX
  8
0
 10
-0.2071
 20
0.5000
 30
0.0000
  0
VERTEX
  8
0
 10
0.2071
 20
0.5000
 30
0.0000
  0
VERTEX
  8
0
 10
0.5000
 20
0.2071
 30
0.0000
  0
VERTEX
  8
0
 10
0.5000
 20
-0.2071
 30
0.0000
  0
VERTEX
  8
0
 10
0.2071
 20
-0.5000
 30
0.0000
  0
VERTEX
  8
0
 10
-0.2071
 20
-0.5000
 30
0.0000
  0
SEQEND
  8
0
  0
ENDBLK
  8
0
  0
BLOCK
  8
0
  2
SQUAREV
 70
64
 10
0.0000
 20
0.0000
 30
0.0000
  3
SQUAREV
  0
SOLID
  8
0
 10
-0.5000
 20
-0.5000
 30
0.0000
 11
0.5000
 21
-0.5000
 31
0.0000
 12
-0.5000
 22
0.5000
 32
0.0000
 13
0.5000
 23
0.5000
 33
0.0000
  0
ENDBLK
  8
0
  0
BLOCK
  8
0
  2
ROUNDV
 70
64
 10
0.0000
 20
0.0000
 30
0.0000
  3
ROUNDV
  0
CIRCLE
  8
0
 10
0.0000
 20
0.0000
 30
0.0000
 40
0.5000
  0
ENDBLK
  8
0
  0
BLOCK
  8
0
  2
ANNULUSV
 70
64
 10
0.0000
 20
0.0000
 30
0.0000
  3
ANNULUSV
  0
CIRCLE
  8
0
 10
0.0000
 20
0.0000
 30
0.0000
 40
0.5000
  0
ENDBLK
  8
0
  0
BLOCK
  8
0
  2
THERMALV
 70
64
 10
0.0000
 20
0.0000
 30
0.0000
  3
THERMALV
  0
LINE
  8
0
 10
-0.2379
 20
0.4500
 30
0.0000
 11
0.2379
 21
0.4500
 31
0.0000
  0
LINE
  8
0
 10
0.4500
 20
0.2379
 30
0.0000
 11
0.4500
 21
-0.2379
 31
0.0000
  0
LINE
  8
0
 10
0.2379
 20
-0.4500
 30
0.0000
 11
-0.2379
 21
-0.4500
 31
0.0000
  0
LINE
  8
0
 10
-0.4500
 20
-0.2379
 30
0.0000
 11
-0.4500
 21
0.2379
 31
0.0000
  0
ENDBLK
  8
0
  0
ENDSEC
  0
SECTION
  2
ENTITIES
  0
LINE
  8
20
 10
1.5716
 20
0.8699
 30
0.0000
 11
2.0058
 21
0.5804
 31
0.0000
  0
LINE
  8
20
 10
5.5060
 20
5.5435
 30
0.0000
 11
5.5060
 21
2.5413
 31
0.0000
  0
LINE
  8
20
 10
3.4844
 20
0.0775
 30
0.0000
 11
4.0053
 21
0.0444
 31
0.0000
  0
LINE
  8
20
 10
2.9704
 20
0.1791
 30
0.0000
 11
3.4844
 21
0.0775
 31
0.0000
  0
LINE
  8
20
 10
2.4757
 20
0.3492
 30
0.0000
 11
2.9704
 21
0.1791
 31
0.0000
  0
LINE
  8
20
 10
2.0058
 20
0.5804
 30
0.0000
 11
2.4757
 21
0.3492
 31
0.0000
  0
LINE
  8
20
 10
1.1776
 20
1.2154
 30
0.0000
 11
1.5716
 21
0.8699
 31
0.0000
  0
LINE
  8
20
 10
0.8331
 20
1.6065
 30
0.0000
 11
1.1776
 21
1.2154
 31
0.0000
  0
LINE
  8
20
 10
0.5423
 20
2.0409
 30
0.0000
 11
0.8331
 21
1.6065
 31
0.0000
  0
LINE
  8
20
 10
0.3108
 20
2.5133
 30
0.0000
 11
0.5423
 21
2.0409
 31
0.0000
  0
LINE
  8
20
 10
0.1426
 20
3.0086
 30
0.0000
 11
0.3108
 21
2.5133
 31
0.0000
  0
LINE
  8
20
 10
0.0393
 20
3.5192
 30
0.0000
 11
0.1426
 21
3.0086
 31
0.0000
  0
LINE
  8
20
 10
0.0062
 20
4.0424
 30
0.0000
 11
0.0393
 21
3.5192
 31
0.0000
  0
LINE
  8
20
 10
0.0062
 20
60.3440
 30
0.0000
 11
0.0062
 21
4.0424
 31
0.0000
  0
LINE
  8
20
 10
52.0066
 20
64.3420
 30
0.0000
 11
4.0053
 21
64.3420
 31
0.0000
  0
LINE
  8
20
 10
2.5060
 20
2.5413
 30
0.0000
 11
2.5060
 21
5.5435
 31
0.0000
  0
LINE
  8
20
 10
5.5060
 20
2.5413
 30
0.0000
 11
2.5060
 21
2.5413
 31
0.0000
  0
LINE
  8
20
 10
2.5060
 20
5.5435
 30
0.0000
 11
5.5060
 21
5.5435
 31
0.0000
  0
LINE
  8
20
 10
10.5055
 20
13.9433
 30
0.0000
 11
10.5055
 21
10.9410
 31
0.0000
  0
LINE
  8
20
 10
7.5055
 20
13.9433
 30
0.0000
 11
10.5055
 21
13.9433
 31
0.0000
  0
LINE
  8
20
 10
7.5055
 20
10.9410
 30
0.0000
 11
7.5055
 21
13.9433
 31
0.0000
  0
LINE
  8
20
 10
10.5055
 20
10.9410
 30
0.0000
 11
7.5055
 21
10.9410
 31
0.0000
  0
LINE
  8
20
 10
7.5055
 20
50.4431
 30
0.0000
 11
7.5055
 21
53.4454
 31
0.0000
  0
LINE
  8
20
 10
10.5055
 20
50.4431
 30
0.0000
 11
7.5055
 21
50.4431
 31
0.0000
  0
LINE
  8
20
 10
10.5055
 20
53.4454
 30
0.0000
 11
10.5055
 21
50.4431
 31
0.0000
  0
LINE
  8
20
 10
7.5055
 20
53.4454
 30
0.0000
 11
10.5055
 21
53.4454
 31
0.0000
  0
LINE
  8
20
 10
95.5923
 20
61.2458
 30
0.0000
 11
95.5923
 21
61.7436
 31
0.0000
  0
LINE
  8
20
 10
94.9913
 20
60.2450
 30
0.0000
 11
95.5923
 21
61.2458
 31
0.0000
  0
LINE
  8
20
 10
94.4925
 20
61.2458
 30
0.0000
 11
94.9913
 21
60.2450
 31
0.0000
  0
LINE
  8
20
 10
94.4925
 20
61.7436
 30
0.0000
 11
94.4925
 21
61.2458
 31
0.0000
  0
LINE
  8
20
 10
93.0924
 20
61.7436
 30
0.0000
 11
94.4925
 21
61.7436
 31
0.0000
  0
LINE
  8
20
 10
93.0924
 20
61.2458
 30
0.0000
 11
93.0924
 21
61.7436
 31
0.0000
  0
LINE
  8
20
 10
92.4917
 20
60.2450
 30
0.0000
 11
93.0924
 21
61.2458
 31
0.0000
  0
LINE
  8
20
 10
91.9913
 20
61.2458
 30
0.0000
 11
92.4917
 21
60.2450
 31
0.0000
  0
LINE
  8
20
 10
91.9913
 20
61.7436
 30
0.0000
 11
91.9913
 21
61.2458
 31
0.0000
  0
LINE
  8
20
 10
90.5928
 20
61.7436
 30
0.0000
 11
91.9913
 21
61.7436
 31
0.0000
  0
LINE
  8
20
 10
90.5928
 20
61.2458
 30
0.0000
 11
90.5928
 21
61.7436
 31
0.0000
  0
LINE
  8
20
 10
89.9918
 20
60.2450
 30
0.0000
 11
90.5928
 21
61.2458
 31
0.0000
  0
LINE
  8
20
 10
89.4915
 20
61.2458
 30
0.0000
 11
89.9918
 21
60.2450
 31
0.0000
  0
LINE
  8
20
 10
89.4915
 20
61.7436
 30
0.0000
 11
89.4915
 21
61.2458
 31
0.0000
  0
LINE
  8
20
 10
88.0917
 20
61.7436
 30
0.0000
 11
89.4915
 21
61.7436
 31
0.0000
  0
LINE
  8
20
 10
88.0917
 20
61.2458
 30
0.0000
 11
88.0917
 21
61.7436
 31
0.0000
  0
LINE
  8
20
 10
87.4920
 20
60.2450
 30
0.0000
 11
88.0917
 21
61.2458
 31
0.0000
  0
LINE
  8
20
 10
86.9918
 20
61.2458
 30
0.0000
 11
87.4920
 21
60.2450
 31
0.0000
  0
LINE
  8
20
 10
86.9918
 20
61.7436
 30
0.0000
 11
86.9918
 21
61.2458
 31
0.0000
  0
LINE
  8
20
 10
85.5918
 20
61.7436
 30
0.0000
 11
86.9918
 21
61.7436
 31
0.0000
  0
LINE
  8
20
 10
85.5918
 20
61.2458
 30
0.0000
 11
85.5918
 21
61.7436
 31
0.0000
  0
LINE
  8
20
 10
84.9921
 20
60.2450
 30
0.0000
 11
85.5918
 21
61.2458
 31
0.0000
  0
LINE
  8
20
 10
84.4920
 20
61.2458
 30
0.0000
 11
84.9921
 21
60.2450
 31
0.0000
  0
LINE
  8
20
 10
83.0922
 20
61.7436
 30
0.0000
 11
84.4920
 21
61.7436
 31
0.0000
  0
LINE
  8
20
 10
82.4925
 20
60.2450
 30
0.0000
 11
83.0922
 21
61.2458
 31
0.0000
  0
LINE
  8
20
 10
81.9921
 20
61.2458
 30
0.0000
 11
82.4925
 21
60.2450
 31
0.0000
  0
LINE
  8
20
 10
80.5923
 20
61.7436
 30
0.0000
 11
81.9921
 21
61.7436
 31
0.0000
  0
LINE
  8
20
 10
79.9926
 20
60.2450
 30
0.0000
 11
80.5923
 21
61.2458
 31
0.0000
  0
LINE
  8
20
 10
79.4928
 20
61.2458
 30
0.0000
 11
79.9926
 21
60.2450
 31
0.0000
  0
LINE
  8
20
 10
78.0924
 20
61.7436
 30
0.0000
 11
79.4928
 21
61.7436
 31
0.0000
  0
LINE
  8
20
 10
77.4917
 20
60.2450
 30
0.0000
 11
78.0924
 21
61.2458
 31
0.0000
  0
LINE
  8
20
 10
76.9929
 20
61.2458
 30
0.0000
 11
77.4917
 21
60.2450
 31
0.0000
  0
LINE
  8
20
 10
75.5928
 20
61.7436
 30
0.0000
 11
76.9929
 21
61.7436
 31
0.0000
  0
LINE
  8
20
 10
74.9921
 20
60.2450
 30
0.0000
 11
75.5928
 21
61.2458
 31
0.0000
  0
LINE
  8
20
 10
74.4917
 20
61.2458
 30
0.0000
 11
74.9921
 21
60.2450
 31
0.0000
  0
LINE
  8
20
 10
73.0930
 20
61.7436
 30
0.0000
 11
74.4917
 21
61.7436
 31
0.0000
  0
LINE
  8
20
 10
72.4923
 20
60.2450
 30
0.0000
 11
73.0930
 21
61.2458
 31
0.0000
  0
LINE
  8
20
 10
71.9919
 20
61.2458
 30
0.0000
 11
72.4923
 21
60.2450
 31
0.0000
  0
LINE
  8
20
 10
69.0925
 20
61.7436
 30
0.0000
 11
71.9919
 21
61.7436
 31
0.0000
  0
LINE
  8
20
 10
69.0925
 20
61.2458
 30
0.0000
 11
69.0925
 21
61.7436
 31
0.0000
  0
LINE
  8
20
 10
68.4918
 20
60.2450
 30
0.0000
 11
69.0925
 21
61.2458
 31
0.0000
  0
LINE
  8
20
 10
68.4918
 20
4.1466
 30
0.0000
 11
68.4918
 21
60.2450
 31
0.0000
  0
LINE
  8
20
 10
69.0925
 20
3.1433
 30
0.0000
 11
68.4918
 21
4.1466
 31
0.0000
  0
LINE
  8
20
 10
69.0925
 20
2.6480
 30
0.0000
 11
69.0925
 21
3.1433
 31
0.0000
  0
LINE
  8
20
 10
71.9919
 20
2.6480
 30
0.0000
 11
69.0925
 21
2.6480
 31
0.0000
  0
LINE
  8
20
 10
72.4923
 20
4.1466
 30
0.0000
 11
71.9919
 21
3.1433
 31
0.0000
  0
LINE
  8
20
 10
73.0930
 20
3.1433
 30
0.0000
 11
72.4923
 21
4.1466
 31
0.0000
  0
LINE
  8
20
 10
74.4917
 20
2.6480
 30
0.0000
 11
73.0930
 21
2.6480
 31
0.0000
  0
LINE
  8
20
 10
74.9921
 20
4.1466
 30
0.0000
 11
74.4917
 21
3.1433
 31
0.0000
  0
LINE
  8
20
 10
75.5928
 20
3.1433
 30
0.0000
 11
74.9921
 21
4.1466
 31
0.0000
  0
LINE
  8
20
 10
76.9929
 20
2.6480
 30
0.0000
 11
75.5928
 21
2.6480
 31
0.0000
  0
LINE
  8
20
 10
77.4917
 20
4.1466
 30
0.0000
 11
76.9929
 21
3.1433
 31
0.0000
  0
LINE
  8
20
 10
78.0924
 20
3.1433
 30
0.0000
 11
77.4917
 21
4.1466
 31
0.0000
  0
LINE
  8
20
 10
79.4928
 20
2.6480
 30
0.0000
 11
78.0924
 21
2.6480
 31
0.0000
  0
LINE
  8
20
 10
79.9926
 20
4.1466
 30
0.0000
 11
79.4928
 21
3.1433
 31
0.0000
  0
LINE
  8
20
 10
80.5923
 20
3.1433
 30
0.0000
 11
79.9926
 21
4.1466
 31
0.0000
  0
LINE
  8
20
 10
81.9921
 20
2.6480
 30
0.0000
 11
80.5923
 21
2.6480
 31
0.0000
  0
LINE
  8
20
 10
82.4925
 20
4.1466
 30
0.0000
 11
81.9921
 21
3.1433
 31
0.0000
  0
LINE
  8
20
 10
83.0922
 20
3.1433
 30
0.0000
 11
82.4925
 21
4.1466
 31
0.0000
  0
LINE
  8
20
 10
84.4920
 20
2.6480
 30
0.0000
 11
83.0922
 21
2.6480
 31
0.0000
  0
LINE
  8
20
 10
84.9921
 20
4.1466
 30
0.0000
 11
84.4920
 21
3.1433
 31
0.0000
  0
LINE
  8
20
 10
85.5918
 20
3.1433
 30
0.0000
 11
84.9921
 21
4.1466
 31
0.0000
  0
LINE
  8
20
 10
85.5918
 20
2.6480
 30
0.0000
 11
85.5918
 21
3.1433
 31
0.0000
  0
LINE
  8
20
 10
86.9918
 20
2.6480
 30
0.0000
 11
85.5918
 21
2.6480
 31
0.0000
  0
LINE
  8
20
 10
86.9918
 20
3.1433
 30
0.0000
 11
86.9918
 21
2.6480
 31
0.0000
  0
LINE
  8
20
 10
87.4920
 20
4.1466
 30
0.0000
 11
86.9918
 21
3.1433
 31
0.0000
  0
LINE
  8
20
 10
88.0917
 20
3.1433
 30
0.0000
 11
87.4920
 21
4.1466
 31
0.0000
  0
LINE
  8
20
 10
88.0917
 20
2.6480
 30
0.0000
 11
88.0917
 21
3.1433
 31
0.0000
  0
LINE
  8
20
 10
89.4915
 20
2.6480
 30
0.0000
 11
88.0917
 21
2.6480
 31
0.0000
  0
LINE
  8
20
 10
89.4915
 20
3.1433
 30
0.0000
 11
89.4915
 21
2.6480
 31
0.0000
  0
LINE
  8
20
 10
89.9918
 20
4.1466
 30
0.0000
 11
89.4915
 21
3.1433
 31
0.0000
  0
LINE
  8
20
 10
90.5928
 20
3.1433
 30
0.0000
 11
89.9918
 21
4.1466
 31
0.0000
  0
LINE
  8
20
 10
90.5928
 20
2.6480
 30
0.0000
 11
90.5928
 21
3.1433
 31
0.0000
  0
LINE
  8
20
 10
91.9913
 20
2.6480
 30
0.0000
 11
90.5928
 21
2.6480
 31
0.0000
  0
LINE
  8
20
 10
91.9913
 20
3.1433
 30
0.0000
 11
91.9913
 21
2.6480
 31
0.0000
  0
LINE
  8
20
 10
92.4917
 20
4.1466
 30
0.0000
 11
91.9913
 21
3.1433
 31
0.0000
  0
LINE
  8
20
 10
93.0924
 20
3.1433
 30
0.0000
 11
92.4917
 21
4.1466
 31
0.0000
  0
LINE
  8
20
 10
93.0924
 20
2.6480
 30
0.0000
 11
93.0924
 21
3.1433
 31
0.0000
  0
LINE
  8
20
 10
94.4925
 20
2.6480
 30
0.0000
 11
93.0924
 21
2.6480
 31
0.0000
  0
LINE
  8
20
 10
94.4925
 20
3.1433
 30
0.0000
 11
94.4925
 21
2.6480
 31
0.0000
  0
LINE
  8
20
 10
94.9913
 20
4.1466
 30
0.0000
 11
94.4925
 21
3.1433
 31
0.0000
  0
LINE
  8
20
 10
95.5923
 20
3.1433
 30
0.0000
 11
94.9913
 21
4.1466
 31
0.0000
  0
LINE
  8
20
 10
95.5923
 20
2.6480
 30
0.0000
 11
95.5923
 21
3.1433
 31
0.0000
  0
LINE
  8
20
 10
96.9923
 20
2.6480
 30
0.0000
 11
95.5923
 21
2.6480
 31
0.0000
  0
LINE
  8
20
 10
96.9923
 20
3.1433
 30
0.0000
 11
96.9923
 21
2.6480
 31
0.0000
  0
LINE
  8
20
 10
97.4925
 20
4.1466
 30
0.0000
 11
96.9923
 21
3.1433
 31
0.0000
  0
LINE
  8
20
 10
97.4925
 20
60.2450
 30
0.0000
 11
97.4925
 21
4.1466
 31
0.0000
  0
LINE
  8
20
 10
96.9923
 20
61.2458
 30
0.0000
 11
97.4925
 21
60.2450
 31
0.0000
  0
LINE
  8
20
 10
96.9923
 20
61.7436
 30
0.0000
 11
96.9923
 21
61.2458
 31
0.0000
  0
LINE
  8
20
 10
95.5923
 20
61.7436
 30
0.0000
 11
96.9923
 21
61.7436
 31
0.0000
  0
LINE
  8
20
 10
52.5273
 20
0.0775
 30
0.0000
 11
52.0066
 21
0.0444
 31
0.0000
  0
LINE
  8
20
 10
53.5362
 20
0.3492
 30
0.0000
 11
53.0412
 21
0.1791
 31
0.0000
  0
LINE
  8
20
 10
54.8341
 20
1.2154
 30
0.0000
 11
54.4399
 21
0.8699
 31
0.0000
  0
LINE
  8
20
 10
53.0412
 20
0.1791
 30
0.0000
 11
52.5273
 21
0.0775
 31
0.0000
  0
LINE
  8
20
 10
80.5923
 20
3.1433
 30
0.0000
 11
80.5923
 21
2.6480
 31
0.0000
  0
LINE
  8
20
 10
83.0922
 20
61.7436
 30
0.0000
 11
83.0922
 21
61.2458
 31
0.0000
  0
LINE
  8
20
 10
75.5928
 20
61.7436
 30
0.0000
 11
75.5928
 21
61.2458
 31
0.0000
  0
LINE
  8
20
 10
74.4917
 20
2.6480
 30
0.0000
 11
74.4917
 21
3.1433
 31
0.0000
  0
LINE
  8
20
 10
73.0930
 20
61.7436
 30
0.0000
 11
73.0930
 21
61.2458
 31
0.0000
  0
LINE
  8
20
 10
80.5923
 20
61.7436
 30
0.0000
 11
80.5923
 21
61.2458
 31
0.0000
  0
LINE
  8
20
 10
76.9929
 20
61.2458
 30
0.0000
 11
76.9929
 21
61.7436
 31
0.0000
  0
LINE
  8
20
 10
78.0924
 20
3.1433
 30
0.0000
 11
78.0924
 21
2.6480
 31
0.0000
  0
LINE
  8
20
 10
84.4920
 20
61.2458
 30
0.0000
 11
84.4920
 21
61.7436
 31
0.0000
  0
LINE
  8
20
 10
54.0061
 20
0.5804
 30
0.0000
 11
53.5362
 21
0.3492
 31
0.0000
  0
LINE
  8
20
 10
84.4920
 20
2.6480
 30
0.0000
 11
84.4920
 21
3.1433
 31
0.0000
  0
LINE
  8
20
 10
55.1801
 20
1.6065
 30
0.0000
 11
54.8341
 21
1.2154
 31
0.0000
  0
LINE
  8
20
 10
54.4399
 20
0.8699
 30
0.0000
 11
54.0061
 21
0.5804
 31
0.0000
  0
LINE
  8
20
 10
74.4917
 20
61.2458
 30
0.0000
 11
74.4917
 21
61.7436
 31
0.0000
  0
LINE
  8
20
 10
83.0922
 20
3.1433
 30
0.0000
 11
83.0922
 21
2.6480
 31
0.0000
  0
LINE
  8
20
 10
0.0062
 20
60.3440
 30
0.0000
 11
0.0393
 21
60.8673
 31
0.0000
  0
LINE
  8
20
 10
5.5060
 20
61.8452
 30
0.0000
 11
2.5060
 21
61.8452
 31
0.0000
  0
LINE
  8
20
 10
54.0061
 20
63.8061
 30
0.0000
 11
54.4399
 21
63.5165
 31
0.0000
  0
LINE
  8
20
 10
2.5060
 20
58.8429
 30
0.0000
 11
5.5060
 21
58.8429
 31
0.0000
  0
LINE
  8
20
 10
55.9726
 20
3.5192
 30
0.0000
 11
55.8692
 21
3.0086
 31
0.0000
  0
LINE
  8
20
 10
54.8341
 20
63.1711
 30
0.0000
 11
55.1801
 21
62.7799
 31
0.0000
  0
LINE
  8
20
 10
54.4399
 20
63.5165
 30
0.0000
 11
54.8341
 21
63.1711
 31
0.0000
  0
LINE
  8
20
 10
55.4694
 20
2.0409
 30
0.0000
 11
55.1801
 21
1.6065
 31
0.0000
  0
LINE
  8
20
 10
50.5060
 20
58.8429
 30
0.0000
 11
53.5060
 21
58.8429
 31
0.0000
  0
LINE
  8
20
 10
53.5060
 20
58.8429
 30
0.0000
 11
53.5060
 21
61.8452
 31
0.0000
  0
LINE
  8
20
 10
0.0393
 20
60.8673
 30
0.0000
 11
0.1426
 21
61.3778
 31
0.0000
  0
LINE
  8
20
 10
50.5060
 20
61.8452
 30
0.0000
 11
50.5060
 21
58.8429
 31
0.0000
  0
LINE
  8
20
 10
0.1426
 20
61.3778
 30
0.0000
 11
0.3108
 21
61.8731
 31
0.0000
  0
LINE
  8
20
 10
56.0056
 20
4.0424
 30
0.0000
 11
56.0056
 21
60.3440
 31
0.0000
  0
LINE
  8
20
 10
0.8331
 20
62.7799
 30
0.0000
 11
1.1776
 21
63.1711
 31
0.0000
  0
LINE
  8
20
 10
55.8692
 20
61.3778
 30
0.0000
 11
55.9726
 21
60.8673
 31
0.0000
  0
LINE
  8
20
 10
52.5273
 20
64.3064
 30
0.0000
 11
53.0412
 21
64.2074
 31
0.0000
  0
LINE
  8
20
 10
55.7008
 20
2.5133
 30
0.0000
 11
55.4694
 21
2.0409
 31
0.0000
  0
LINE
  8
20
 10
53.5060
 20
2.5413
 30
0.0000
 11
53.5060
 21
5.5435
 31
0.0000
  0
LINE
  8
20
 10
2.5060
 20
61.8452
 30
0.0000
 11
2.5060
 21
58.8429
 31
0.0000
  0
LINE
  8
20
 10
55.8692
 20
3.0086
 30
0.0000
 11
55.7008
 21
2.5133
 31
0.0000
  0
LINE
  8
20
 10
53.5060
 20
61.8452
 30
0.0000
 11
50.5060
 21
61.8452
 31
0.0000
  0
LINE
  8
20
 10
56.0056
 20
4.0424
 30
0.0000
 11
55.9726
 21
3.5192
 31
0.0000
  0
LINE
  8
20
 10
0.5423
 20
62.3405
 30
0.0000
 11
0.8331
 21
62.7799
 31
0.0000
  0
LINE
  8
20
 10
1.1776
 20
63.1711
 30
0.0000
 11
1.5716
 21
63.5165
 31
0.0000
  0
LINE
  8
20
 10
55.1801
 20
62.7799
 30
0.0000
 11
55.4694
 21
62.3405
 31
0.0000
  0
LINE
  8
20
 10
50.5060
 20
2.5413
 30
0.0000
 11
53.5060
 21
2.5413
 31
0.0000
  0
LINE
  8
20
 10
50.5060
 20
5.5435
 30
0.0000
 11
50.5060
 21
2.5413
 31
0.0000
  0
LINE
  8
20
 10
55.9726
 20
60.8673
 30
0.0000
 11
56.0056
 21
60.3440
 31
0.0000
  0
LINE
  8
20
 10
55.7008
 20
61.8731
 30
0.0000
 11
55.8692
 21
61.3778
 31
0.0000
  0
LINE
  8
20
 10
55.4694
 20
62.3405
 30
0.0000
 11
55.7008
 21
61.8731
 31
0.0000
  0
LINE
  8
20
 10
53.5362
 20
64.0397
 30
0.0000
 11
54.0061
 21
63.8061
 31
0.0000
  0
LINE
  8
20
 10
53.0412
 20
64.2074
 30
0.0000
 11
53.5362
 21
64.0397
 31
0.0000
  0
LINE
  8
20
 10
52.0066
 20
64.3420
 30
0.0000
 11
52.5273
 21
64.3064
 31
0.0000
  0
LINE
  8
20
 10
3.4844
 20
64.3064
 30
0.0000
 11
4.0053
 21
64.3420
 31
0.0000
  0
LINE
  8
20
 10
2.9704
 20
64.2074
 30
0.0000
 11
3.4844
 21
64.3064
 31
0.0000
  0
LINE
  8
20
 10
2.4757
 20
64.0397
 30
0.0000
 11
2.9704
 21
64.2074
 31
0.0000
  0
LINE
  8
20
 10
2.0058
 20
63.8061
 30
0.0000
 11
2.4757
 21
64.0397
 31
0.0000
  0
LINE
  8
20
 10
1.5716
 20
63.5165
 30
0.0000
 11
2.0058
 21
63.8061
 31
0.0000
  0
LINE
  8
20
 10
0.3108
 20
61.8731
 30
0.0000
 11
0.5423
 21
62.3405
 31
0.0000
  0
LINE
  8
20
 10
5.5060
 20
58.8429
 30
0.0000
 11
5.5060
 21
61.8452
 31
0.0000
  0
LINE
  8
20
 10
45.5062
 20
50.4431
 30
0.0000
 11
48.5062
 21
50.4431
 31
0.0000
  0
LINE
  8
20
 10
45.5062
 20
53.4454
 30
0.0000
 11
45.5062
 21
50.4431
 31
0.0000
  0
LINE
  8
20
 10
48.5062
 20
53.4454
 30
0.0000
 11
45.5062
 21
53.4454
 31
0.0000
  0
LINE
  8
20
 10
48.5062
 20
50.4431
 30
0.0000
 11
48.5062
 21
53.4454
 31
0.0000
  0
LINE
  8
20
 10
48.5062
 20
10.9410
 30
0.0000
 11
48.5062
 21
13.9433
 31
0.0000
  0
LINE
  8
20
 10
45.5062
 20
10.9410
 30
0.0000
 11
48.5062
 21
10.9410
 31
0.0000
  0
LINE
  8
20
 10
45.5062
 20
13.9433
 30
0.0000
 11
45.5062
 21
10.9410
 31
0.0000
  0
LINE
  8
20
 10
48.5062
 20
13.9433
 30
0.0000
 11
45.5062
 21
13.9433
 31
0.0000
  0
LINE
  8
20
 10
53.5060
 20
5.5435
 30
0.0000
 11
50.5060
 21
5.5435
 31
0.0000
  0
LINE
  8
20
 10
81.9921
 20
2.6480
 30
0.0000
 11
81.9921
 21
3.1433
 31
0.0000
  0
LINE
  8
20
 10
79.4928
 20
2.6480
 30
0.0000
 11
79.4928
 21
3.1433
 31
0.0000
  0
LINE
  8
20
 10
76.9929
 20
2.6480
 30
0.0000
 11
76.9929
 21
3.1433
 31
0.0000
  0
LINE
  8
20
 10
75.5928
 20
3.1433
 30
0.0000
 11
75.5928
 21
2.6480
 31
0.0000
  0
LINE
  8
20
 10
73.0930
 20
3.1433
 30
0.0000
 11
73.0930
 21
2.6480
 31
0.0000
  0
LINE
  8
20
 10
71.9919
 20
2.6480
 30
0.0000
 11
71.9919
 21
3.1433
 31
0.0000
  0
LINE
  8
20
 10
71.9919
 20
61.2458
 30
0.0000
 11
71.9919
 21
61.7436
 31
0.0000
  0
LINE
  8
20
 10
78.0924
 20
61.7436
 30
0.0000
 11
78.0924
 21
61.2458
 31
0.0000
  0
LINE
  8
20
 10
79.4928
 20
61.2458
 30
0.0000
 11
79.4928
 21
61.7436
 31
0.0000
  0
LINE
  8
20
 10
81.9921
 20
61.2458
 30
0.0000
 11
81.9921
 21
61.7436
 31
0.0000
  0
LINE
  8
20
 10
108.0057
 20
0.0444
 30
0.0000
 11
60.0061
 21
0.0444
 31
0.0000
  0
LINE
  8
20
 10
52.0066
 20
0.0444
 30
0.0000
 11
4.0053
 21
0.0444
 31
0.0000
  0
LINE
  8
20
 10
112.0062
 20
60.3440
 30
0.0000
 11
112.0062
 21
4.0424
 31
0.0000
  0
LINE
  8
20
 10
22.0918
 20
61.7436
 30
0.0000
 11
23.4918
 21
61.7436
 31
0.0000
  0
LINE
  8
20
 10
20.9920
 20
61.2458
 30
0.0000
 11
21.4921
 21
60.2450
 31
0.0000
  0
LINE
  8
20
 10
21.4921
 20
60.2450
 30
0.0000
 11
22.0918
 21
61.2458
 31
0.0000
  0
LINE
  8
20
 10
18.4921
 20
61.2458
 30
0.0000
 11
18.9925
 21
60.2450
 31
0.0000
  0
LINE
  8
20
 10
22.0918
 20
3.1433
 30
0.0000
 11
21.4921
 21
4.1466
 31
0.0000
  0
LINE
  8
20
 10
37.0918
 20
2.6480
 30
0.0000
 11
37.0918
 21
3.1433
 31
0.0000
  0
LINE
  8
20
 10
38.4918
 20
2.6480
 30
0.0000
 11
37.0918
 21
2.6480
 31
0.0000
  0
LINE
  8
20
 10
33.4923
 20
3.1433
 30
0.0000
 11
33.4923
 21
2.6480
 31
0.0000
  0
LINE
  8
20
 10
39.5914
 20
3.1433
 30
0.0000
 11
38.9922
 21
4.1466
 31
0.0000
  0
LINE
  8
20
 10
32.0920
 20
3.1433
 30
0.0000
 11
31.4913
 21
4.1466
 31
0.0000
  0
LINE
  8
20
 10
37.0918
 20
3.1433
 30
0.0000
 11
36.4923
 21
4.1466
 31
0.0000
  0
LINE
  8
20
 10
39.5914
 20
2.6480
 30
0.0000
 11
39.5914
 21
3.1433
 31
0.0000
  0
LINE
  8
20
 10
41.4918
 20
4.1466
 30
0.0000
 11
40.9917
 21
3.1433
 31
0.0000
  0
LINE
  8
20
 10
41.4918
 20
60.2450
 30
0.0000
 11
41.4918
 21
4.1466
 31
0.0000
  0
LINE
  8
20
 10
32.0920
 20
2.6480
 30
0.0000
 11
32.0920
 21
3.1433
 31
0.0000
  0
LINE
  8
20
 10
40.9917
 20
61.2458
 30
0.0000
 11
41.4918
 21
60.2450
 31
0.0000
  0
LINE
  8
20
 10
40.9917
 20
61.7436
 30
0.0000
 11
40.9917
 21
61.2458
 31
0.0000
  0
LINE
  8
20
 10
23.4918
 20
2.6480
 30
0.0000
 11
22.0918
 21
2.6480
 31
0.0000
  0
LINE
  8
20
 10
39.5914
 20
61.7436
 30
0.0000
 11
40.9917
 21
61.7436
 31
0.0000
  0
LINE
  8
20
 10
20.9920
 20
2.6480
 30
0.0000
 11
19.5922
 21
2.6480
 31
0.0000
  0
LINE
  8
20
 10
23.9920
 20
4.1466
 30
0.0000
 11
23.4918
 21
3.1433
 31
0.0000
  0
LINE
  8
20
 10
26.4918
 20
4.1466
 30
0.0000
 11
25.9915
 21
3.1433
 31
0.0000
  0
LINE
  8
20
 10
12.4924
 20
4.1466
 30
0.0000
 11
12.4924
 21
60.2450
 31
0.0000
  0
LINE
  8
20
 10
29.5924
 20
2.6480
 30
0.0000
 11
29.5924
 21
3.1433
 31
0.0000
  0
LINE
  8
20
 10
34.5919
 20
2.6480
 30
0.0000
 11
34.5919
 21
3.1433
 31
0.0000
  0
LINE
  8
20
 10
36.4923
 20
4.1466
 30
0.0000
 11
35.9920
 21
3.1433
 31
0.0000
  0
LINE
  8
20
 10
38.9922
 20
4.1466
 30
0.0000
 11
38.4918
 21
3.1433
 31
0.0000
  0
LINE
  8
20
 10
40.9917
 20
3.1433
 30
0.0000
 11
40.9917
 21
2.6480
 31
0.0000
  0
LINE
  8
20
 10
18.9925
 20
4.1466
 30
0.0000
 11
18.4921
 21
3.1433
 31
0.0000
  0
LINE
  8
20
 10
35.9920
 20
2.6480
 30
0.0000
 11
34.5919
 21
2.6480
 31
0.0000
  0
LINE
  8
20
 10
40.9917
 20
2.6480
 30
0.0000
 11
39.5914
 21
2.6480
 31
0.0000
  0
LINE
  8
20
 10
31.4913
 20
4.1466
 30
0.0000
 11
30.9925
 21
3.1433
 31
0.0000
  0
LINE
  8
20
 10
12.4924
 20
60.2450
 30
0.0000
 11
13.0918
 21
61.2458
 31
0.0000
  0
LINE
  8
20
 10
15.9928
 20
2.6480
 30
0.0000
 11
13.0918
 21
2.6480
 31
0.0000
  0
LINE
  8
20
 10
16.4926
 20
4.1466
 30
0.0000
 11
15.9928
 21
3.1433
 31
0.0000
  0
LINE
  8
20
 10
29.5924
 20
3.1433
 30
0.0000
 11
28.9915
 21
4.1466
 31
0.0000
  0
LINE
  8
20
 10
33.4923
 20
2.6480
 30
0.0000
 11
32.0920
 21
2.6480
 31
0.0000
  0
LINE
  8
20
 10
27.0926
 20
3.1433
 30
0.0000
 11
26.4918
 21
4.1466
 31
0.0000
  0
LINE
  8
20
 10
33.9925
 20
4.1466
 30
0.0000
 11
33.4923
 21
3.1433
 31
0.0000
  0
LINE
  8
20
 10
34.5919
 20
3.1433
 30
0.0000
 11
33.9925
 21
4.1466
 31
0.0000
  0
LINE
  8
20
 10
19.5922
 20
3.1433
 30
0.0000
 11
18.9925
 21
4.1466
 31
0.0000
  0
LINE
  8
20
 10
38.4918
 20
3.1433
 30
0.0000
 11
38.4918
 21
2.6480
 31
0.0000
  0
LINE
  8
20
 10
13.0918
 20
61.7436
 30
0.0000
 11
15.9928
 21
61.7436
 31
0.0000
  0
LINE
  8
20
 10
13.0918
 20
2.6480
 30
0.0000
 11
13.0918
 21
3.1433
 31
0.0000
  0
LINE
  8
20
 10
24.5917
 20
3.1433
 30
0.0000
 11
23.9920
 21
4.1466
 31
0.0000
  0
LINE
  8
20
 10
17.0923
 20
3.1433
 30
0.0000
 11
16.4926
 21
4.1466
 31
0.0000
  0
LINE
  8
20
 10
21.4921
 20
4.1466
 30
0.0000
 11
20.9920
 21
3.1433
 31
0.0000
  0
LINE
  8
20
 10
13.0918
 20
61.2458
 30
0.0000
 11
13.0918
 21
61.7436
 31
0.0000
  0
LINE
  8
20
 10
25.9915
 20
2.6480
 30
0.0000
 11
24.5917
 21
2.6480
 31
0.0000
  0
LINE
  8
20
 10
18.4921
 20
2.6480
 30
0.0000
 11
17.0923
 21
2.6480
 31
0.0000
  0
LINE
  8
20
 10
13.0918
 20
3.1433
 30
0.0000
 11
12.4924
 21
4.1466
 31
0.0000
  0
LINE
  8
20
 10
28.9915
 20
4.1466
 30
0.0000
 11
28.4913
 21
3.1433
 31
0.0000
  0
LINE
  8
20
 10
30.9925
 20
2.6480
 30
0.0000
 11
29.5924
 21
2.6480
 31
0.0000
  0
LINE
  8
20
 10
30.9925
 20
3.1433
 30
0.0000
 11
30.9925
 21
2.6480
 31
0.0000
  0
LINE
  8
20
 10
35.9920
 20
3.1433
 30
0.0000
 11
35.9920
 21
2.6480
 31
0.0000
  0
LINE
  8
20
 10
28.4913
 20
2.6480
 30
0.0000
 11
27.0926
 21
2.6480
 31
0.0000
  0
LINE
  8
20
 10
61.5054
 20
2.5413
 30
0.0000
 11
58.5055
 21
2.5413
 31
0.0000
  0
LINE
  8
20
 10
111.8698
 20
61.3778
 30
0.0000
 11
111.9717
 21
60.8673
 31
0.0000
  0
LINE
  8
20
 10
108.0057
 20
64.3420
 30
0.0000
 11
108.5282
 21
64.3064
 31
0.0000
  0
LINE
  8
20
 10
112.0062
 20
4.0424
 30
0.0000
 11
111.9717
 21
3.5192
 31
0.0000
  0
LINE
  8
20
 10
110.4406
 20
0.8699
 30
0.0000
 11
110.0055
 21
0.5804
 31
0.0000
  0
LINE
  8
20
 10
111.4700
 20
2.0409
 30
0.0000
 11
111.1795
 21
1.6065
 31
0.0000
  0
LINE
  8
20
 10
109.5368
 20
0.3492
 30
0.0000
 11
109.0408
 21
0.1791
 31
0.0000
  0
LINE
  8
20
 10
66.5062
 20
13.9433
 30
0.0000
 11
66.5062
 21
10.9410
 31
0.0000
  0
LINE
  8
20
 10
66.5062
 20
10.9410
 30
0.0000
 11
63.5060
 21
10.9410
 31
0.0000
  0
LINE
  8
20
 10
63.5060
 20
10.9410
 30
0.0000
 11
63.5060
 21
13.9433
 31
0.0000
  0
LINE
  8
20
 10
58.9710
 20
64.2074
 30
0.0000
 11
59.4836
 21
64.3064
 31
0.0000
  0
LINE
  8
20
 10
63.5060
 20
13.9433
 30
0.0000
 11
66.5062
 21
13.9433
 31
0.0000
  0
LINE
  8
20
 10
63.5060
 20
50.4431
 30
0.0000
 11
63.5060
 21
53.4454
 31
0.0000
  0
LINE
  8
20
 10
63.5060
 20
53.4454
 30
0.0000
 11
66.5062
 21
53.4454
 31
0.0000
  0
LINE
  8
20
 10
66.5062
 20
53.4454
 30
0.0000
 11
66.5062
 21
50.4431
 31
0.0000
  0
LINE
  8
20
 10
66.5062
 20
50.4431
 30
0.0000
 11
63.5060
 21
50.4431
 31
0.0000
  0
LINE
  8
20
 10
56.3101
 20
61.8731
 30
0.0000
 11
56.5415
 21
62.3405
 31
0.0000
  0
LINE
  8
20
 10
111.8698
 20
3.0086
 30
0.0000
 11
111.7019
 21
2.5133
 31
0.0000
  0
LINE
  8
20
 10
111.7019
 20
61.8731
 30
0.0000
 11
111.8698
 21
61.3778
 31
0.0000
  0
LINE
  8
20
 10
110.8350
 20
63.1711
 30
0.0000
 11
111.1795
 21
62.7799
 31
0.0000
  0
LINE
  8
20
 10
56.8321
 20
62.7799
 30
0.0000
 11
57.1783
 21
63.1711
 31
0.0000
  0
LINE
  8
20
 10
111.1795
 20
1.6065
 30
0.0000
 11
110.8350
 21
1.2154
 31
0.0000
  0
LINE
  8
20
 10
58.0066
 20
63.8061
 30
0.0000
 11
58.4752
 21
64.0397
 31
0.0000
  0
LINE
  8
20
 10
56.5415
 20
62.3405
 30
0.0000
 11
56.8321
 21
62.7799
 31
0.0000
  0
LINE
  8
20
 10
56.0399
 20
3.5192
 30
0.0000
 11
56.1417
 21
3.0086
 31
0.0000
  0
LINE
  8
20
 10
56.0399
 20
60.8673
 30
0.0000
 11
56.1417
 21
61.3778
 31
0.0000
  0
LINE
  8
20
 10
111.1795
 20
62.7799
 30
0.0000
 11
111.4700
 21
62.3405
 31
0.0000
  0
LINE
  8
20
 10
56.5415
 20
2.0409
 30
0.0000
 11
56.8321
 21
1.6065
 31
0.0000
  0
LINE
  8
20
 10
108.5282
 20
0.0775
 30
0.0000
 11
108.0057
 21
0.0444
 31
0.0000
  0
LINE
  8
20
 10
110.8350
 20
1.2154
 30
0.0000
 11
110.4406
 21
0.8699
 31
0.0000
  0
LINE
  8
20
 10
59.4836
 20
0.0775
 30
0.0000
 11
60.0061
 21
0.0444
 31
0.0000
  0
LINE
  8
20
 10
109.0408
 20
0.1791
 30
0.0000
 11
108.5282
 21
0.0775
 31
0.0000
  0
LINE
  8
20
 10
109.0408
 20
64.2074
 30
0.0000
 11
109.5368
 21
64.0397
 31
0.0000
  0
LINE
  8
20
 10
108.5282
 20
64.3064
 30
0.0000
 11
109.0408
 21
64.2074
 31
0.0000
  0
LINE
  8
20
 10
58.4752
 20
64.0397
 30
0.0000
 11
58.9710
 21
64.2074
 31
0.0000
  0
LINE
  8
20
 10
57.5710
 20
63.5165
 30
0.0000
 11
58.0066
 21
63.8061
 31
0.0000
  0
LINE
  8
20
 10
56.0056
 20
4.0424
 30
0.0000
 11
56.0399
 21
3.5192
 31
0.0000
  0
LINE
  8
20
 10
56.1417
 20
3.0086
 30
0.0000
 11
56.3101
 21
2.5133
 31
0.0000
  0
LINE
  8
20
 10
56.8321
 20
1.6065
 30
0.0000
 11
57.1783
 21
1.2154
 31
0.0000
  0
LINE
  8
20
 10
57.1783
 20
1.2154
 30
0.0000
 11
57.5710
 21
0.8699
 31
0.0000
  0
LINE
  8
20
 10
58.0066
 20
0.5804
 30
0.0000
 11
58.4752
 21
0.3492
 31
0.0000
  0
LINE
  8
20
 10
58.9710
 20
0.1791
 30
0.0000
 11
59.4836
 21
0.0775
 31
0.0000
  0
LINE
  8
20
 10
111.9717
 20
60.8673
 30
0.0000
 11
112.0062
 21
60.3440
 31
0.0000
  0
LINE
  8
20
 10
59.4836
 20
64.3064
 30
0.0000
 11
60.0061
 21
64.3420
 31
0.0000
  0
LINE
  8
20
 10
57.1783
 20
63.1711
 30
0.0000
 11
57.5710
 21
63.5165
 31
0.0000
  0
LINE
  8
20
 10
56.3101
 20
2.5133
 30
0.0000
 11
56.5415
 21
2.0409
 31
0.0000
  0
LINE
  8
20
 10
58.4752
 20
0.3492
 30
0.0000
 11
58.9710
 21
0.1791
 31
0.0000
  0
LINE
  8
20
 10
58.5055
 20
2.5413
 30
0.0000
 11
58.5055
 21
5.5435
 31
0.0000
  0
LINE
  8
20
 10
56.0056
 20
60.3440
 30
0.0000
 11
56.0399
 21
60.8673
 31
0.0000
  0
LINE
  8
20
 10
109.5368
 20
64.0397
 30
0.0000
 11
110.0055
 21
63.8061
 31
0.0000
  0
LINE
  8
20
 10
111.9717
 20
3.5192
 30
0.0000
 11
111.8698
 21
3.0086
 31
0.0000
  0
LINE
  8
20
 10
58.5055
 20
5.5435
 30
0.0000
 11
61.5054
 21
5.5435
 31
0.0000
  0
LINE
  8
20
 10
61.5054
 20
5.5435
 30
0.0000
 11
61.5054
 21
2.5413
 31
0.0000
  0
LINE
  8
20
 10
110.4406
 20
63.5165
 30
0.0000
 11
110.8350
 21
63.1711
 31
0.0000
  0
LINE
  8
20
 10
110.0055
 20
63.8061
 30
0.0000
 11
110.4406
 21
63.5165
 31
0.0000
  0
LINE
  8
20
 10
111.4700
 20
62.3405
 30
0.0000
 11
111.7019
 21
61.8731
 31
0.0000
  0
LINE
  8
20
 10
57.5710
 20
0.8699
 30
0.0000
 11
58.0066
 21
0.5804
 31
0.0000
  0
LINE
  8
20
 10
111.7019
 20
2.5133
 30
0.0000
 11
111.4700
 21
2.0409
 31
0.0000
  0
LINE
  8
20
 10
108.0057
 20
64.3420
 30
0.0000
 11
60.0061
 21
64.3420
 31
0.0000
  0
LINE
  8
20
 10
110.0055
 20
0.5804
 30
0.0000
 11
109.5368
 21
0.3492
 31
0.0000
  0
LINE
  8
20
 10
56.1417
 20
61.3778
 30
0.0000
 11
56.3101
 21
61.8731
 31
0.0000
  0
LINE
  8
20
 10
104.5056
 20
13.9433
 30
0.0000
 11
101.5056
 21
13.9433
 31
0.0000
  0
LINE
  8
20
 10
58.5055
 20
61.8452
 30
0.0000
 11
58.5055
 21
58.8429
 31
0.0000
  0
LINE
  8
20
 10
106.5051
 20
58.8429
 30
0.0000
 11
109.5066
 21
58.8429
 31
0.0000
  0
LINE
  8
20
 10
58.5055
 20
58.8429
 30
0.0000
 11
61.5054
 21
58.8429
 31
0.0000
  0
LINE
  8
20
 10
61.5054
 20
58.8429
 30
0.0000
 11
61.5054
 21
61.8452
 31
0.0000
  0
LINE
  8
20
 10
106.5051
 20
61.8452
 30
0.0000
 11
106.5051
 21
58.8429
 31
0.0000
  0
LINE
  8
20
 10
106.5051
 20
2.5413
 30
0.0000
 11
109.5066
 21
2.5413
 31
0.0000
  0
LINE
  8
20
 10
106.5051
 20
5.5435
 30
0.0000
 11
106.5051
 21
2.5413
 31
0.0000
  0
LINE
  8
20
 10
61.5054
 20
61.8452
 30
0.0000
 11
58.5055
 21
61.8452
 31
0.0000
  0
LINE
  8
20
 10
101.5056
 20
50.4431
 30
0.0000
 11
104.5056
 21
50.4431
 31
0.0000
  0
LINE
  8
20
 10
101.5056
 20
10.9410
 30
0.0000
 11
104.5056
 21
10.9410
 31
0.0000
  0
LINE
  8
20
 10
104.5056
 20
53.4454
 30
0.0000
 11
101.5056
 21
53.4454
 31
0.0000
  0
LINE
  8
20
 10
104.5056
 20
10.9410
 30
0.0000
 11
104.5056
 21
13.9433
 31
0.0000
  0
LINE
  8
20
 10
101.5056
 20
53.4454
 30
0.0000
 11
101.5056
 21
50.4431
 31
0.0000
  0
LINE
  8
20
 10
109.5066
 20
2.5413
 30
0.0000
 11
109.5066
 21
5.5435
 31
0.0000
  0
LINE
  8
20
 10
101.5056
 20
13.9433
 30
0.0000
 11
101.5056
 21
10.9410
 31
0.0000
  0
LINE
  8
20
 10
109.5066
 20
58.8429
 30
0.0000
 11
109.5066
 21
61.8452
 31
0.0000
  0
LINE
  8
20
 10
109.5066
 20
61.8452
 30
0.0000
 11
106.5051
 21
61.8452
 31
0.0000
  0
LINE
  8
20
 10
109.5066
 20
5.5435
 30
0.0000
 11
106.5051
 21
5.5435
 31
0.0000
  0
LINE
  8
20
 10
104.5056
 20
50.4431
 30
0.0000
 11
104.5056
 21
53.4454
 31
0.0000
  0
LINE
  8
20
 10
35.9920
 20
61.7436
 30
0.0000
 11
35.9920
 21
61.2458
 31
0.0000
  0
LINE
  8
20
 10
32.0920
 20
61.7436
 30
0.0000
 11
33.4923
 21
61.7436
 31
0.0000
  0
LINE
  8
20
 10
29.5924
 20
61.7436
 30
0.0000
 11
30.9925
 21
61.7436
 31
0.0000
  0
LINE
  8
20
 10
38.4918
 20
61.7436
 30
0.0000
 11
38.4918
 21
61.2458
 31
0.0000
  0
LINE
  8
20
 10
37.0918
 20
61.7436
 30
0.0000
 11
38.4918
 21
61.7436
 31
0.0000
  0
LINE
  8
20
 10
33.4923
 20
61.7436
 30
0.0000
 11
33.4923
 21
61.2458
 31
0.0000
  0
LINE
  8
20
 10
30.9925
 20
61.7436
 30
0.0000
 11
30.9925
 21
61.2458
 31
0.0000
  0
LINE
  8
20
 10
34.5919
 20
61.7436
 30
0.0000
 11
35.9920
 21
61.7436
 31
0.0000
  0
LINE
  8
20
 10
28.4913
 20
2.6480
 30
0.0000
 11
28.4913
 21
3.1433
 31
0.0000
  0
LINE
  8
20
 10
22.0918
 20
61.7436
 30
0.0000
 11
22.0918
 21
61.2458
 31
0.0000
  0
LINE
  8
20
 10
24.5917
 20
61.7436
 30
0.0000
 11
25.9915
 21
61.7436
 31
0.0000
  0
LINE
  8
20
 10
17.0923
 20
61.7436
 30
0.0000
 11
17.0923
 21
61.2458
 31
0.0000
  0
LINE
  8
20
 10
17.0923
 20
61.7436
 30
0.0000
 11
18.4921
 21
61.7436
 31
0.0000
  0
LINE
  8
20
 10
18.4921
 20
2.6480
 30
0.0000
 11
18.4921
 21
3.1433
 31
0.0000
  0
LINE
  8
20
 10
19.5922
 20
61.7436
 30
0.0000
 11
19.5922
 21
61.2458
 31
0.0000
  0
LINE
  8
20
 10
25.9915
 20
2.6480
 30
0.0000
 11
25.9915
 21
3.1433
 31
0.0000
  0
LINE
  8
20
 10
27.0926
 20
61.7436
 30
0.0000
 11
27.0926
 21
61.2458
 31
0.0000
  0
LINE
  8
20
 10
20.9920
 20
2.6480
 30
0.0000
 11
20.9920
 21
3.1433
 31
0.0000
  0
LINE
  8
20
 10
27.0926
 20
61.7436
 30
0.0000
 11
28.4913
 21
61.7436
 31
0.0000
  0
LINE
  8
20
 10
19.5922
 20
61.7436
 30
0.0000
 11
20.9920
 21
61.7436
 31
0.0000
  0
LINE
  8
20
 10
24.5917
 20
61.7436
 30
0.0000
 11
24.5917
 21
61.2458
 31
0.0000
  0
LINE
  8
20
 10
23.4918
 20
2.6480
 30
0.0000
 11
23.4918
 21
3.1433
 31
0.0000
  0
LINE
  8
20
 10
15.9928
 20
2.6480
 30
0.0000
 11
15.9928
 21
3.1433
 31
0.0000
  0
LINE
  8
20
 10
23.4918
 20
61.2458
 30
0.0000
 11
23.4918
 21
61.7436
 31
0.0000
  0
LINE
  8
20
 10
15.9928
 20
61.2458
 30
0.0000
 11
15.9928
 21
61.7436
 31
0.0000
  0
LINE
  8
20
 10
19.5922
 20
3.1433
 30
0.0000
 11
19.5922
 21
2.6480
 31
0.0000
  0
LINE
  8
20
 10
15.9928
 20
61.2458
 30
0.0000
 11
16.4926
 21
60.2450
 31
0.0000
  0
LINE
  8
20
 10
29.5924
 20
61.2458
 30
0.0000
 11
29.5924
 21
61.7436
 31
0.0000
  0
LINE
  8
20
 10
28.4913
 20
61.2458
 30
0.0000
 11
28.9915
 21
60.2450
 31
0.0000
  0
LINE
  8
20
 10
33.4923
 20
61.2458
 30
0.0000
 11
33.9925
 21
60.2450
 31
0.0000
  0
LINE
  8
20
 10
20.9920
 20
61.2458
 30
0.0000
 11
20.9920
 21
61.7436
 31
0.0000
  0
LINE
  8
20
 10
23.4918
 20
61.2458
 30
0.0000
 11
23.9920
 21
60.2450
 31
0.0000
  0
LINE
  8
20
 10
38.4918
 20
61.2458
 30
0.0000
 11
38.9922
 21
60.2450
 31
0.0000
  0
LINE
  8
20
 10
17.0923
 20
3.1433
 30
0.0000
 11
17.0923
 21
2.6480
 31
0.0000
  0
LINE
  8
20
 10
35.9920
 20
61.2458
 30
0.0000
 11
36.4923
 21
60.2450
 31
0.0000
  0
LINE
  8
20
 10
18.4921
 20
61.2458
 30
0.0000
 11
18.4921
 21
61.7436
 31
0.0000
  0
LINE
  8
20
 10
22.0918
 20
3.1433
 30
0.0000
 11
22.0918
 21
2.6480
 31
0.0000
  0
LINE
  8
20
 10
25.9915
 20
61.2458
 30
0.0000
 11
25.9915
 21
61.7436
 31
0.0000
  0
LINE
  8
20
 10
37.0918
 20
61.2458
 30
0.0000
 11
37.0918
 21
61.7436
 31
0.0000
  0
LINE
  8
20
 10
30.9925
 20
61.2458
 30
0.0000
 11
31.4913
 21
60.2450
 31
0.0000
  0
LINE
  8
20
 10
28.4913
 20
61.2458
 30
0.0000
 11
28.4913
 21
61.7436
 31
0.0000
  0
LINE
  8
20
 10
32.0920
 20
61.2458
 30
0.0000
 11
32.0920
 21
61.7436
 31
0.0000
  0
LINE
  8
20
 10
27.0926
 20
3.1433
 30
0.0000
 11
27.0926
 21
2.6480
 31
0.0000
  0
LINE
  8
20
 10
24.5917
 20
3.1433
 30
0.0000
 11
24.5917
 21
2.6480
 31
0.0000
  0
LINE
  8
20
 10
34.5919
 20
61.2458
 30
0.0000
 11
34.5919
 21
61.7436
 31
0.0000
  0
LINE
  8
20
 10
39.5914
 20
61.2458
 30
0.0000
 11
39.5914
 21
61.7436
 31
0.0000
  0
LINE
  8
20
 10
25.9915
 20
61.2458
 30
0.0000
 11
26.4918
 21
60.2450
 31
0.0000
  0
LINE
  8
20
 10
18.9925
 20
60.2450
 30
0.0000
 11
19.5922
 21
61.2458
 31
0.0000
  0
LINE
  8
20
 10
16.4926
 20
60.2450
 30
0.0000
 11
17.0923
 21
61.2458
 31
0.0000
  0
LINE
  8
20
 10
23.9920
 20
60.2450
 30
0.0000
 11
24.5917
 21
61.2458
 31
0.0000
  0
LINE
  8
20
 10
26.4918
 20
60.2450
 30
0.0000
 11
27.0926
 21
61.2458
 31
0.0000
  0
LINE
  8
20
 10
28.9915
 20
60.2450
 30
0.0000
 11
29.5924
 21
61.2458
 31
0.0000
  0
LINE
  8
20
 10
33.9925
 20
60.2450
 30
0.0000
 11
34.5919
 21
61.2458
 31
0.0000
  0
LINE
  8
20
 10
36.4923
 20
60.2450
 30
0.0000
 11
37.0918
 21
61.2458
 31
0.0000
  0
LINE
  8
20
 10
38.9922
 20
60.2450
 30
0.0000
 11
39.5914
 21
61.2458
 31
0.0000
  0
LINE
  8
20
 10
31.4913
 20
60.2450
 30
0.0000
 11
32.0920
 21
61.2458
 31
0.0000
  0
ENDSEC
  0
EOF
