  0
SECTION
  2
HEADER
  9
$ACADVER
  1
AC1009
  9
$FILLMODE
 70
1
  9
$EXTMIN
 10
0.0018
 20
0.0394
 30
0.0000
  9
$EXTMAX
 10
103.1274
 20
59.3642
 30
0.0000
  0
ENDSEC
  0
SECTION
  2
TABLES
  0
TABLE
  2
LTYPE
 70
1
  0
LTYPE
  2
CONTINUOUS
 70
64
  3
Solid line
 72
65
 73
0
 40
0
  0
ENDTAB
  0
TABLE
  2
LAYER
 70
255
  0
LAYER
  2
1
 70
64
 62
22
  6
CONTINUOUS
  0
LAYER
  2
16
 70
64
 62
175
  6
CONTINUOUS
  0
LAYER
  2
17
 70
64
 62
82
  6
CONTINUOUS
  0
LAYER
  2
18
 70
64
 62
82
  6
CONTINUOUS
  0
LAYER
  2
19
 70
64
 62
53
  6
CONTINUOUS
  0
LAYER
  2
20
 70
64
 62
253
  6
CONTINUOUS
  0
LAYER
  2
21
 70
64
 62
7
  6
CONTINUOUS
  0
LAYER
  2
22
 70
64
 62
2
  6
CONTINUOUS
  0
LAYER
  2
23
 70
64
 62
7
  6
CONTINUOUS
  0
LAYER
  2
24
 70
64
 62
7
  6
CONTINUOUS
  0
LAYER
  2
45
 70
64
 62
253
  6
CONTINUOUS
  0
LAYER
  2
46
 70
64
 62
140
  6
CONTINUOUS
  0
LAYER
  2
51
 70
64
 62
53
  6
CONTINUOUS
  0
ENDTAB
  0
ENDSEC
  0
SECTION
  2
BLOCKS
  0
BLOCK
  8
0
  2
RECT
 70
64
 10
0.0000
 20
0.0000
 30
0.0000
  3
RECT
  0
SOLID
  8
0
 10
-0.5000
 20
-0.5000
 30
0.0000
 11
0.5000
 21
-0.5000
 31
0.0000
 12
-0.5000
 22
0.5000
 32
0.0000
 13
0.5000
 23
0.5000
 33
0.0000
  0
ENDBLK
  8
0
  0
BLOCK
  8
0
  2
PIE
 70
64
 10
0.0000
 20
0.0000
 30
0.0000
  3
PIE
  0
POLYLINE
  8
0
 66
1
 10
0.0000
 20
0.0000
 30
0.0000
 40
0.5000
 41
0.5000
 70
0
  0
VERTEX
  8
0
 10
0.0000
 20
-0.2500
 30
0.0000
 42
1.0000
  0
VERTEX
  8
0
 10
0.0000
 20
0.2500
 30
0.0000
 42
1.0000
  0
VERTEX
  8
0
 10
0.0000
 20
-0.2500
 30
0.0000
  0
SEQEND
  8
0
  0
ENDBLK
  8
0
  0
BLOCK
  8
0
  2
OCTAGONP
 70
64
 10
0.0000
 20
0.0000
 30
0.0000
  3
OCTAGONP
  0
POLYLINE
  8
0
 66
1
 10
0.0000
 20
0.0000
 30
0.0000
 40
0.5000
 41
0.5000
 70
0
  0
VERTEX
  8
0
 10
-0.2500
 20
-0.1036
 30
0.0000
  0
VERTEX
  8
0
 10
-0.2500
 20
0.1036
 30
0.0000
  0
VERTEX
  8
0
 10
-0.1036
 20
0.2500
 30
0.0000
  0
VERTEX
  8
0
 10
0.1036
 20
0.2500
 30
0.0000
  0
VERTEX
  8
0
 10
0.2500
 20
0.1036
 30
0.0000
  0
VERTEX
  8
0
 10
0.2500
 20
-0.1036
 30
0.0000
  0
VERTEX
  8
0
 10
0.1036
 20
-0.2500
 30
0.0000
  0
VERTEX
  8
0
 10
-0.1036
 20
-0.2500
 30
0.0000
  0
VERTEX
  8
0
 10
-0.2500
 20
-0.1036
 30
0.0000
  0
VERTEX
  8
0
 10
-0.2500
 20
0.1036
 30
0.0000
  0
SEQEND
  8
0
  0
ENDBLK
  8
0
  0
BLOCK
  8
0
  2
SQUAREP
 70
64
 10
0.0000
 20
0.0000
 30
0.0000
  3
SQUAREP
  0
SOLID
  8
0
 10
-0.5000
 20
-0.5000
 30
0.0000
 11
0.5000
 21
-0.5000
 31
0.0000
 12
-0.5000
 22
0.5000
 32
0.0000
 13
0.5000
 23
0.5000
 33
0.0000
  0
ENDBLK
  8
0
  0
BLOCK
  8
0
  2
ROUNDP
 70
64
 10
0.0000
 20
0.0000
 30
0.0000
  3
ROUNDP
  0
POLYLINE
  8
0
 66
1
 10
0.0000
 20
0.0000
 30
0.0000
 40
0.5000
 41
0.5000
 70
0
  0
VERTEX
  8
0
 10
0.0000
 20
-0.2500
 30
0.0000
 42
1.0000
  0
VERTEX
  8
0
 10
0.0000
 20
0.2500
 30
0.0000
 42
1.0000
  0
VERTEX
  8
0
 10
0.0000
 20
-0.2500
 30
0.0000
  0
SEQEND
  8
0
  0
ENDBLK
  8
0
  0
BLOCK
  8
0
  2
ANNULUSP
 70
64
 10
0.0000
 20
0.0000
 30
0.0000
  3
ANNULUSP
  0
POLYLINE
  8
0
 66
1
 10
0.0000
 20
0.0000
 30
0.0000
 40
0.5000
 41
0.5000
 70
0
  0
VERTEX
  8
0
 10
0.0000
 20
-0.2500
 30
0.0000
 42
1.0000
  0
VERTEX
  8
0
 10
0.0000
 20
0.2500
 30
0.0000
 42
1.0000
  0
VERTEX
  8
0
 10
0.0000
 20
-0.2500
 30
0.0000
  0
SEQEND
  8
0
  0
ENDBLK
  8
0
  0
BLOCK
  8
0
  2
THERMALP
 70
64
 10
0.0000
 20
0.0000
 30
0.0000
  3
THERMALP
  0
POLYLINE
  8
0
 66
1
 10
0.0000
 20
0.0000
 30
0.0000
 40
0.1000
 41
0.1000
 70
0
  0
VERTEX
  8
0
 10
-0.2379
 20
0.4500
 30
0.0000
  0
VERTEX
  8
0
 10
0.2379
 20
0.4500
 30
0.0000
  0
SEQEND
  8
0
  0
POLYLINE
  8
0
 66
1
 10
0.0000
 20
0.0000
 30
0.0000
 40
0.0500
 41
0.0500
 70
0
  0
VERTEX
  8
0
 10
0.2379
 20
0.4250
 30
0.0000
 42
1.0000
  0
VERTEX
  8
0
 10
0.2379
 20
0.4750
 30
0.0000
  0
SEQEND
  8
0
  0
POLYLINE
  8
0
 66
1
 10
0.0000
 20
0.0000
 30
0.0000
 40
0.0500
 41
0.0500
 70
0
  0
VERTEX
  8
0
 10
-0.2379
 20
0.4750
 30
0.0000
 42
1.0000
  0
VERTEX
  8
0
 10
-0.2379
 20
0.4250
 30
0.0000
  0
SEQEND
  8
0
  0
POLYLINE
  8
0
 66
1
 10
0.0000
 20
0.0000
 30
0.0000
 40
0.1000
 41
0.1000
 70
0
  0
VERTEX
  8
0
 10
0.4500
 20
0.2379
 30
0.0000
  0
VERTEX
  8
0
 10
0.4500
 20
-0.2379
 30
0.0000
  0
SEQEND
  8
0
  0
POLYLINE
  8
0
 66
1
 10
0.0000
 20
0.0000
 30
0.0000
 40
0.0500
 41
0.0500
 70
0
  0
VERTEX
  8
0
 10
0.4250
 20
-0.2379
 30
0.0000
 42
1.0000
  0
VERTEX
  8
0
 10
0.4750
 20
-0.2379
 30
0.0000
  0
SEQEND
  8
0
  0
POLYLINE
  8
0
 66
1
 10
0.0000
 20
0.0000
 30
0.0000
 40
0.0500
 41
0.0500
 70
0
  0
VERTEX
  8
0
 10
0.4750
 20
0.2379
 30
0.0000
 42
1.0000
  0
VERTEX
  8
0
 10
0.4250
 20
0.2379
 30
0.0000
  0
SEQEND
  8
0
  0
POLYLINE
  8
0
 66
1
 10
0.0000
 20
0.0000
 30
0.0000
 40
0.1000
 41
0.1000
 70
0
  0
VERTEX
  8
0
 10
0.2379
 20
-0.4500
 30
0.0000
  0
VERTEX
  8
0
 10
-0.2379
 20
-0.4500
 30
0.0000
  0
SEQEND
  8
0
  0
POLYLINE
  8
0
 66
1
 10
0.0000
 20
0.0000
 30
0.0000
 40
0.0500
 41
0.0500
 70
0
  0
VERTEX
  8
0
 10
-0.2379
 20
-0.4250
 30
0.0000
 42
1.0000
  0
VERTEX
  8
0
 10
-0.2379
 20
-0.4750
 30
0.0000
  0
SEQEND
  8
0
  0
POLYLINE
  8
0
 66
1
 10
0.0000
 20
0.0000
 30
0.0000
 40
0.0500
 41
0.0500
 70
0
  0
VERTEX
  8
0
 10
0.2379
 20
-0.4750
 30
0.0000
 42
1.0000
  0
VERTEX
  8
0
 10
0.2379
 20
-0.4250
 30
0.0000
  0
SEQEND
  8
0
  0
POLYLINE
  8
0
 66
1
 10
0.0000
 20
0.0000
 30
0.0000
 40
0.1000
 41
0.1000
 70
0
  0
VERTEX
  8
0
 10
-0.4500
 20
-0.2379
 30
0.0000
  0
VERTEX
  8
0
 10
-0.4500
 20
0.2379
 30
0.0000
  0
SEQEND
  8
0
  0
POLYLINE
  8
0
 66
1
 10
0.0000
 20
0.0000
 30
0.0000
 40
0.0500
 41
0.0500
 70
0
  0
VERTEX
  8
0
 10
-0.4250
 20
0.2379
 30
0.0000
 42
1.0000
  0
VERTEX
  8
0
 10
-0.4750
 20
0.2379
 30
0.0000
  0
SEQEND
  8
0
  0
POLYLINE
  8
0
 66
1
 10
0.0000
 20
0.0000
 30
0.0000
 40
0.0500
 41
0.0500
 70
0
  0
VERTEX
  8
0
 10
-0.4750
 20
-0.2379
 30
0.0000
 42
1.0000
  0
VERTEX
  8
0
 10
-0.4250
 20
-0.2379
 30
0.0000
  0
SEQEND
  8
0
  0
ENDBLK
  8
0
  0
BLOCK
  8
0
  2
OCTAGONV
 70
64
 10
0.0000
 20
0.0000
 30
0.0000
  3
OCTAGONV
  0
POLYLINE
  8
0
 66
1
 10
0.0000
 20
0.0000
 30
0.0000
 40
0.5000
 41
0.5000
 70
0
  0
VERTEX
  8
0
 10
-0.2500
 20
-0.1036
 30
0.0000
  0
VERTEX
  8
0
 10
-0.2500
 20
0.1036
 30
0.0000
  0
VERTEX
  8
0
 10
-0.1036
 20
0.2500
 30
0.0000
  0
VERTEX
  8
0
 10
0.1036
 20
0.2500
 30
0.0000
  0
VERTEX
  8
0
 10
0.2500
 20
0.1036
 30
0.0000
  0
VERTEX
  8
0
 10
0.2500
 20
-0.1036
 30
0.0000
  0
VERTEX
  8
0
 10
0.1036
 20
-0.2500
 30
0.0000
  0
VERTEX
  8
0
 10
-0.1036
 20
-0.2500
 30
0.0000
  0
VERTEX
  8
0
 10
-0.2500
 20
-0.1036
 30
0.0000
  0
VERTEX
  8
0
 10
-0.2500
 20
0.1036
 30
0.0000
  0
SEQEND
  8
0
  0
ENDBLK
  8
0
  0
BLOCK
  8
0
  2
SQUAREV
 70
64
 10
0.0000
 20
0.0000
 30
0.0000
  3
SQUAREV
  0
SOLID
  8
0
 10
-0.5000
 20
-0.5000
 30
0.0000
 11
0.5000
 21
-0.5000
 31
0.0000
 12
-0.5000
 22
0.5000
 32
0.0000
 13
0.5000
 23
0.5000
 33
0.0000
  0
ENDBLK
  8
0
  0
BLOCK
  8
0
  2
ROUNDV
 70
64
 10
0.0000
 20
0.0000
 30
0.0000
  3
ROUNDV
  0
POLYLINE
  8
0
 66
1
 10
0.0000
 20
0.0000
 30
0.0000
 40
0.5000
 41
0.5000
 70
0
  0
VERTEX
  8
0
 10
0.0000
 20
-0.2500
 30
0.0000
 42
1.0000
  0
VERTEX
  8
0
 10
0.0000
 20
0.2500
 30
0.0000
 42
1.0000
  0
VERTEX
  8
0
 10
0.0000
 20
-0.2500
 30
0.0000
  0
SEQEND
  8
0
  0
ENDBLK
  8
0
  0
BLOCK
  8
0
  2
ANNULUSV
 70
64
 10
0.0000
 20
0.0000
 30
0.0000
  3
ANNULUSV
  0
POLYLINE
  8
0
 66
1
 10
0.0000
 20
0.0000
 30
0.0000
 40
0.5000
 41
0.5000
 70
0
  0
VERTEX
  8
0
 10
0.0000
 20
-0.2500
 30
0.0000
 42
1.0000
  0
VERTEX
  8
0
 10
0.0000
 20
0.2500
 30
0.0000
 42
1.0000
  0
VERTEX
  8
0
 10
0.0000
 20
-0.2500
 30
0.0000
  0
SEQEND
  8
0
  0
ENDBLK
  8
0
  0
BLOCK
  8
0
  2
THERMALV
 70
64
 10
0.0000
 20
0.0000
 30
0.0000
  3
THERMALV
  0
POLYLINE
  8
0
 66
1
 10
0.0000
 20
0.0000
 30
0.0000
 40
0.1000
 41
0.1000
 70
0
  0
VERTEX
  8
0
 10
-0.2379
 20
0.4500
 30
0.0000
  0
VERTEX
  8
0
 10
0.2379
 20
0.4500
 30
0.0000
  0
SEQEND
  8
0
  0
POLYLINE
  8
0
 66
1
 10
0.0000
 20
0.0000
 30
0.0000
 40
0.0500
 41
0.0500
 70
0
  0
VERTEX
  8
0
 10
0.2379
 20
0.4250
 30
0.0000
 42
1.0000
  0
VERTEX
  8
0
 10
0.2379
 20
0.4750
 30
0.0000
  0
SEQEND
  8
0
  0
POLYLINE
  8
0
 66
1
 10
0.0000
 20
0.0000
 30
0.0000
 40
0.0500
 41
0.0500
 70
0
  0
VERTEX
  8
0
 10
-0.2379
 20
0.4750
 30
0.0000
 42
1.0000
  0
VERTEX
  8
0
 10
-0.2379
 20
0.4250
 30
0.0000
  0
SEQEND
  8
0
  0
POLYLINE
  8
0
 66
1
 10
0.0000
 20
0.0000
 30
0.0000
 40
0.1000
 41
0.1000
 70
0
  0
VERTEX
  8
0
 10
0.4500
 20
0.2379
 30
0.0000
  0
VERTEX
  8
0
 10
0.4500
 20
-0.2379
 30
0.0000
  0
SEQEND
  8
0
  0
POLYLINE
  8
0
 66
1
 10
0.0000
 20
0.0000
 30
0.0000
 40
0.0500
 41
0.0500
 70
0
  0
VERTEX
  8
0
 10
0.4250
 20
-0.2379
 30
0.0000
 42
1.0000
  0
VERTEX
  8
0
 10
0.4750
 20
-0.2379
 30
0.0000
  0
SEQEND
  8
0
  0
POLYLINE
  8
0
 66
1
 10
0.0000
 20
0.0000
 30
0.0000
 40
0.0500
 41
0.0500
 70
0
  0
VERTEX
  8
0
 10
0.4750
 20
0.2379
 30
0.0000
 42
1.0000
  0
VERTEX
  8
0
 10
0.4250
 20
0.2379
 30
0.0000
  0
SEQEND
  8
0
  0
POLYLINE
  8
0
 66
1
 10
0.0000
 20
0.0000
 30
0.0000
 40
0.1000
 41
0.1000
 70
0
  0
VERTEX
  8
0
 10
0.2379
 20
-0.4500
 30
0.0000
  0
VERTEX
  8
0
 10
-0.2379
 20
-0.4500
 30
0.0000
  0
SEQEND
  8
0
  0
POLYLINE
  8
0
 66
1
 10
0.0000
 20
0.0000
 30
0.0000
 40
0.0500
 41
0.0500
 70
0
  0
VERTEX
  8
0
 10
-0.2379
 20
-0.4250
 30
0.0000
 42
1.0000
  0
VERTEX
  8
0
 10
-0.2379
 20
-0.4750
 30
0.0000
  0
SEQEND
  8
0
  0
POLYLINE
  8
0
 66
1
 10
0.0000
 20
0.0000
 30
0.0000
 40
0.0500
 41
0.0500
 70
0
  0
VERTEX
  8
0
 10
0.2379
 20
-0.4750
 30
0.0000
 42
1.0000
  0
VERTEX
  8
0
 10
0.2379
 20
-0.4250
 30
0.0000
  0
SEQEND
  8
0
  0
POLYLINE
  8
0
 66
1
 10
0.0000
 20
0.0000
 30
0.0000
 40
0.1000
 41
0.1000
 70
0
  0
VERTEX
  8
0
 10
-0.4500
 20
-0.2379
 30
0.0000
  0
VERTEX
  8
0
 10
-0.4500
 20
0.2379
 30
0.0000
  0
SEQEND
  8
0
  0
POLYLINE
  8
0
 66
1
 10
0.0000
 20
0.0000
 30
0.0000
 40
0.0500
 41
0.0500
 70
0
  0
VERTEX
  8
0
 10
-0.4250
 20
0.2379
 30
0.0000
 42
1.0000
  0
VERTEX
  8
0
 10
-0.4750
 20
0.2379
 30
0.0000
  0
SEQEND
  8
0
  0
POLYLINE
  8
0
 66
1
 10
0.0000
 20
0.0000
 30
0.0000
 40
0.0500
 41
0.0500
 70
0
  0
VERTEX
  8
0
 10
-0.4750
 20
-0.2379
 30
0.0000
 42
1.0000
  0
VERTEX
  8
0
 10
-0.4250
 20
-0.2379
 30
0.0000
  0
SEQEND
  8
0
  0
ENDBLK
  8
0
  0
ENDSEC
  0
SECTION
  2
ENTITIES
  0
POLYLINE
  8
20
 66
1
 10
0.0000
 20
0.0000
 30
0.0000
 40
0.0250
 41
0.0250
 70
0
  0
VERTEX
  8
20
 10
0.0143
 20
2.0516
 30
0.0000
  0
VERTEX
  8
20
 10
0.0143
 20
57.3522
 30
0.0000
  0
SEQEND
  8
0
  0
POLYLINE
  8
20
 66
1
 10
0.0000
 20
0.0000
 30
0.0000
 40
0.0125
 41
0.0125
 70
0
  0
VERTEX
  8
20
 10
0.0205
 20
57.3522
 30
0.0000
 42
1.0000
  0
VERTEX
  8
20
 10
0.0080
 20
57.3522
 30
0.0000
  0
SEQEND
  8
0
  0
POLYLINE
  8
20
 66
1
 10
0.0000
 20
0.0000
 30
0.0000
 40
0.0125
 41
0.0125
 70
0
  0
VERTEX
  8
20
 10
0.0080
 20
2.0516
 30
0.0000
 42
1.0000
  0
VERTEX
  8
20
 10
0.0205
 20
2.0516
 30
0.0000
  0
SEQEND
  8
0
  0
POLYLINE
  8
20
 66
1
 10
0.0000
 20
0.0000
 30
0.0000
 40
0.0250
 41
0.0250
 70
0
  0
VERTEX
  8
20
 10
95.5150
 20
0.0519
 30
0.0000
  0
VERTEX
  8
20
 10
103.1149
 20
0.6513
 30
0.0000
  0
SEQEND
  8
0
  0
POLYLINE
  8
20
 66
1
 10
0.0000
 20
0.0000
 30
0.0000
 40
0.0125
 41
0.0125
 70
0
  0
VERTEX
  8
20
 10
103.1154
 20
0.6451
 30
0.0000
 42
1.0000
  0
VERTEX
  8
20
 10
103.1144
 20
0.6575
 30
0.0000
  0
SEQEND
  8
0
  0
POLYLINE
  8
20
 66
1
 10
0.0000
 20
0.0000
 30
0.0000
 40
0.0125
 41
0.0125
 70
0
  0
VERTEX
  8
20
 10
95.5145
 20
0.0581
 30
0.0000
 42
1.0000
  0
VERTEX
  8
20
 10
95.5155
 20
0.0456
 30
0.0000
  0
SEQEND
  8
0
  0
POLYLINE
  8
20
 66
1
 10
0.0000
 20
0.0000
 30
0.0000
 40
0.0250
 41
0.0250
 70
0
  0
VERTEX
  8
20
 10
103.1149
 20
0.6513
 30
0.0000
  0
VERTEX
  8
20
 10
103.1149
 20
58.7523
 30
0.0000
  0
SEQEND
  8
0
  0
POLYLINE
  8
20
 66
1
 10
0.0000
 20
0.0000
 30
0.0000
 40
0.0125
 41
0.0125
 70
0
  0
VERTEX
  8
20
 10
103.1212
 20
58.7523
 30
0.0000
 42
1.0000
  0
VERTEX
  8
20
 10
103.1087
 20
58.7523
 30
0.0000
  0
SEQEND
  8
0
  0
POLYLINE
  8
20
 66
1
 10
0.0000
 20
0.0000
 30
0.0000
 40
0.0125
 41
0.0125
 70
0
  0
VERTEX
  8
20
 10
103.1087
 20
0.6513
 30
0.0000
 42
1.0000
  0
VERTEX
  8
20
 10
103.1212
 20
0.6513
 30
0.0000
  0
SEQEND
  8
0
  0
POLYLINE
  8
20
 66
1
 10
0.0000
 20
0.0000
 30
0.0000
 40
0.0250
 41
0.0250
 70
0
  0
VERTEX
  8
20
 10
0.0445
 20
1.7044
 30
0.0000
  0
VERTEX
  8
20
 10
0.0143
 20
2.0516
 30
0.0000
  0
SEQEND
  8
0
  0
POLYLINE
  8
20
 66
1
 10
0.0000
 20
0.0000
 30
0.0000
 40
0.0125
 41
0.0125
 70
0
  0
VERTEX
  8
20
 10
0.0205
 20
2.0521
 30
0.0000
 42
1.0000
  0
VERTEX
  8
20
 10
0.0080
 20
2.0511
 30
0.0000
  0
SEQEND
  8
0
  0
POLYLINE
  8
20
 66
1
 10
0.0000
 20
0.0000
 30
0.0000
 40
0.0125
 41
0.0125
 70
0
  0
VERTEX
  8
20
 10
0.0383
 20
1.7038
 30
0.0000
 42
1.0000
  0
VERTEX
  8
20
 10
0.0507
 20
1.7049
 30
0.0000
  0
SEQEND
  8
0
  0
POLYLINE
  8
20
 66
1
 10
0.0000
 20
0.0000
 30
0.0000
 40
0.0250
 41
0.0250
 70
0
  0
VERTEX
  8
20
 10
0.0445
 20
57.6995
 30
0.0000
  0
VERTEX
  8
20
 10
0.1354
 20
58.0355
 30
0.0000
  0
SEQEND
  8
0
  0
POLYLINE
  8
20
 66
1
 10
0.0000
 20
0.0000
 30
0.0000
 40
0.0125
 41
0.0125
 70
0
  0
VERTEX
  8
20
 10
0.1415
 20
58.0339
 30
0.0000
 42
1.0000
  0
VERTEX
  8
20
 10
0.1294
 20
58.0371
 30
0.0000
  0
SEQEND
  8
0
  0
POLYLINE
  8
20
 66
1
 10
0.0000
 20
0.0000
 30
0.0000
 40
0.0125
 41
0.0125
 70
0
  0
VERTEX
  8
20
 10
0.0385
 20
57.7011
 30
0.0000
 42
1.0000
  0
VERTEX
  8
20
 10
0.0505
 20
57.6978
 30
0.0000
  0
SEQEND
  8
0
  0
POLYLINE
  8
20
 66
1
 10
0.0000
 20
0.0000
 30
0.0000
 40
0.0250
 41
0.0250
 70
0
  0
VERTEX
  8
20
 10
1.3305
 20
0.1718
 30
0.0000
  0
VERTEX
  8
20
 10
1.0148
 20
0.3193
 30
0.0000
  0
SEQEND
  8
0
  0
POLYLINE
  8
20
 66
1
 10
0.0000
 20
0.0000
 30
0.0000
 40
0.0125
 41
0.0125
 70
0
  0
VERTEX
  8
20
 10
1.0174
 20
0.3250
 30
0.0000
 42
1.0000
  0
VERTEX
  8
20
 10
1.0121
 20
0.3137
 30
0.0000
  0
SEQEND
  8
0
  0
POLYLINE
  8
20
 66
1
 10
0.0000
 20
0.0000
 30
0.0000
 40
0.0125
 41
0.0125
 70
0
  0
VERTEX
  8
20
 10
1.3279
 20
0.1661
 30
0.0000
 42
1.0000
  0
VERTEX
  8
20
 10
1.3331
 20
0.1774
 30
0.0000
  0
SEQEND
  8
0
  0
POLYLINE
  8
20
 66
1
 10
0.0000
 20
0.0000
 30
0.0000
 40
0.0250
 41
0.0250
 70
0
  0
VERTEX
  8
20
 10
2.0138
 20
0.0519
 30
0.0000
  0
VERTEX
  8
20
 10
1.6681
 20
0.0823
 30
0.0000
  0
SEQEND
  8
0
  0
POLYLINE
  8
20
 66
1
 10
0.0000
 20
0.0000
 30
0.0000
 40
0.0125
 41
0.0125
 70
0
  0
VERTEX
  8
20
 10
1.6686
 20
0.0886
 30
0.0000
 42
1.0000
  0
VERTEX
  8
20
 10
1.6675
 20
0.0761
 30
0.0000
  0
SEQEND
  8
0
  0
POLYLINE
  8
20
 66
1
 10
0.0000
 20
0.0000
 30
0.0000
 40
0.0125
 41
0.0125
 70
0
  0
VERTEX
  8
20
 10
2.0132
 20
0.0456
 30
0.0000
 42
1.0000
  0
VERTEX
  8
20
 10
2.0143
 20
0.0581
 30
0.0000
  0
SEQEND
  8
0
  0
POLYLINE
  8
20
 66
1
 10
0.0000
 20
0.0000
 30
0.0000
 40
0.0250
 41
0.0250
 70
0
  0
VERTEX
  8
20
 10
0.2815
 20
1.0511
 30
0.0000
  0
VERTEX
  8
20
 10
0.1354
 20
1.3678
 30
0.0000
  0
SEQEND
  8
0
  0
POLYLINE
  8
20
 66
1
 10
0.0000
 20
0.0000
 30
0.0000
 40
0.0125
 41
0.0125
 70
0
  0
VERTEX
  8
20
 10
0.1411
 20
1.3704
 30
0.0000
 42
1.0000
  0
VERTEX
  8
20
 10
0.1298
 20
1.3652
 30
0.0000
  0
SEQEND
  8
0
  0
POLYLINE
  8
20
 66
1
 10
0.0000
 20
0.0000
 30
0.0000
 40
0.0125
 41
0.0125
 70
0
  0
VERTEX
  8
20
 10
0.2758
 20
1.0485
 30
0.0000
 42
1.0000
  0
VERTEX
  8
20
 10
0.2872
 20
1.0537
 30
0.0000
  0
SEQEND
  8
0
  0
POLYLINE
  8
20
 66
1
 10
0.0000
 20
0.0000
 30
0.0000
 40
0.0250
 41
0.0250
 70
0
  0
VERTEX
  8
20
 10
95.5150
 20
59.3517
 30
0.0000
  0
VERTEX
  8
20
 10
103.1149
 20
58.7523
 30
0.0000
  0
SEQEND
  8
0
  0
POLYLINE
  8
20
 66
1
 10
0.0000
 20
0.0000
 30
0.0000
 40
0.0125
 41
0.0125
 70
0
  0
VERTEX
  8
20
 10
103.1144
 20
58.7461
 30
0.0000
 42
1.0000
  0
VERTEX
  8
20
 10
103.1154
 20
58.7585
 30
0.0000
  0
SEQEND
  8
0
  0
POLYLINE
  8
20
 66
1
 10
0.0000
 20
0.0000
 30
0.0000
 40
0.0125
 41
0.0125
 70
0
  0
VERTEX
  8
20
 10
95.5155
 20
59.3579
 30
0.0000
 42
1.0000
  0
VERTEX
  8
20
 10
95.5145
 20
59.3455
 30
0.0000
  0
SEQEND
  8
0
  0
POLYLINE
  8
20
 66
1
 10
0.0000
 20
0.0000
 30
0.0000
 40
0.0250
 41
0.0250
 70
0
  0
VERTEX
  8
20
 10
1.0148
 20
0.3193
 30
0.0000
  0
VERTEX
  8
20
 10
0.7295
 20
0.5190
 30
0.0000
  0
SEQEND
  8
0
  0
POLYLINE
  8
20
 66
1
 10
0.0000
 20
0.0000
 30
0.0000
 40
0.0125
 41
0.0125
 70
0
  0
VERTEX
  8
20
 10
0.7331
 20
0.5241
 30
0.0000
 42
1.0000
  0
VERTEX
  8
20
 10
0.7259
 20
0.5138
 30
0.0000
  0
SEQEND
  8
0
  0
POLYLINE
  8
20
 66
1
 10
0.0000
 20
0.0000
 30
0.0000
 40
0.0125
 41
0.0125
 70
0
  0
VERTEX
  8
20
 10
1.0112
 20
0.3142
 30
0.0000
 42
1.0000
  0
VERTEX
  8
20
 10
1.0184
 20
0.3244
 30
0.0000
  0
SEQEND
  8
0
  0
POLYLINE
  8
20
 66
1
 10
0.0000
 20
0.0000
 30
0.0000
 40
0.0250
 41
0.0250
 70
0
  0
VERTEX
  8
20
 10
0.4826
 20
0.7656
 30
0.0000
  0
VERTEX
  8
20
 10
0.2815
 20
1.0511
 30
0.0000
  0
SEQEND
  8
0
  0
POLYLINE
  8
20
 66
1
 10
0.0000
 20
0.0000
 30
0.0000
 40
0.0125
 41
0.0125
 70
0
  0
VERTEX
  8
20
 10
0.2866
 20
1.0547
 30
0.0000
 42
1.0000
  0
VERTEX
  8
20
 10
0.2764
 20
1.0475
 30
0.0000
  0
SEQEND
  8
0
  0
POLYLINE
  8
20
 66
1
 10
0.0000
 20
0.0000
 30
0.0000
 40
0.0125
 41
0.0125
 70
0
  0
VERTEX
  8
20
 10
0.4775
 20
0.7620
 30
0.0000
 42
1.0000
  0
VERTEX
  8
20
 10
0.4877
 20
0.7692
 30
0.0000
  0
SEQEND
  8
0
  0
POLYLINE
  8
20
 66
1
 10
0.0000
 20
0.0000
 30
0.0000
 40
0.0250
 41
0.0250
 70
0
  0
VERTEX
  8
20
 10
1.6681
 20
0.0823
 30
0.0000
  0
VERTEX
  8
20
 10
1.3305
 20
0.1718
 30
0.0000
  0
SEQEND
  8
0
  0
POLYLINE
  8
20
 66
1
 10
0.0000
 20
0.0000
 30
0.0000
 40
0.0125
 41
0.0125
 70
0
  0
VERTEX
  8
20
 10
1.3321
 20
0.1778
 30
0.0000
 42
1.0000
  0
VERTEX
  8
20
 10
1.3289
 20
0.1657
 30
0.0000
  0
SEQEND
  8
0
  0
POLYLINE
  8
20
 66
1
 10
0.0000
 20
0.0000
 30
0.0000
 40
0.0125
 41
0.0125
 70
0
  0
VERTEX
  8
20
 10
1.6665
 20
0.0763
 30
0.0000
 42
1.0000
  0
VERTEX
  8
20
 10
1.6697
 20
0.0884
 30
0.0000
  0
SEQEND
  8
0
  0
POLYLINE
  8
20
 66
1
 10
0.0000
 20
0.0000
 30
0.0000
 40
0.0250
 41
0.0250
 70
0
  0
VERTEX
  8
20
 10
2.0138
 20
0.0519
 30
0.0000
  0
VERTEX
  8
20
 10
95.5150
 20
0.0519
 30
0.0000
  0
SEQEND
  8
0
  0
POLYLINE
  8
20
 66
1
 10
0.0000
 20
0.0000
 30
0.0000
 40
0.0125
 41
0.0125
 70
0
  0
VERTEX
  8
20
 10
95.5150
 20
0.0456
 30
0.0000
 42
1.0000
  0
VERTEX
  8
20
 10
95.5150
 20
0.0581
 30
0.0000
  0
SEQEND
  8
0
  0
POLYLINE
  8
20
 66
1
 10
0.0000
 20
0.0000
 30
0.0000
 40
0.0125
 41
0.0125
 70
0
  0
VERTEX
  8
20
 10
2.0138
 20
0.0581
 30
0.0000
 42
1.0000
  0
VERTEX
  8
20
 10
2.0138
 20
0.0456
 30
0.0000
  0
SEQEND
  8
0
  0
POLYLINE
  8
20
 66
1
 10
0.0000
 20
0.0000
 30
0.0000
 40
0.0250
 41
0.0250
 70
0
  0
VERTEX
  8
20
 10
0.7295
 20
0.5190
 30
0.0000
  0
VERTEX
  8
20
 10
0.4826
 20
0.7656
 30
0.0000
  0
SEQEND
  8
0
  0
POLYLINE
  8
20
 66
1
 10
0.0000
 20
0.0000
 30
0.0000
 40
0.0125
 41
0.0125
 70
0
  0
VERTEX
  8
20
 10
0.4871
 20
0.7700
 30
0.0000
 42
1.0000
  0
VERTEX
  8
20
 10
0.4782
 20
0.7612
 30
0.0000
  0
SEQEND
  8
0
  0
POLYLINE
  8
20
 66
1
 10
0.0000
 20
0.0000
 30
0.0000
 40
0.0125
 41
0.0125
 70
0
  0
VERTEX
  8
20
 10
0.7251
 20
0.5145
 30
0.0000
 42
1.0000
  0
VERTEX
  8
20
 10
0.7339
 20
0.5234
 30
0.0000
  0
SEQEND
  8
0
  0
POLYLINE
  8
20
 66
1
 10
0.0000
 20
0.0000
 30
0.0000
 40
0.0250
 41
0.0250
 70
0
  0
VERTEX
  8
20
 10
0.1354
 20
1.3678
 30
0.0000
  0
VERTEX
  8
20
 10
0.0445
 20
1.7044
 30
0.0000
  0
SEQEND
  8
0
  0
POLYLINE
  8
20
 66
1
 10
0.0000
 20
0.0000
 30
0.0000
 40
0.0125
 41
0.0125
 70
0
  0
VERTEX
  8
20
 10
0.0505
 20
1.7060
 30
0.0000
 42
1.0000
  0
VERTEX
  8
20
 10
0.0385
 20
1.7028
 30
0.0000
  0
SEQEND
  8
0
  0
POLYLINE
  8
20
 66
1
 10
0.0000
 20
0.0000
 30
0.0000
 40
0.0125
 41
0.0125
 70
0
  0
VERTEX
  8
20
 10
0.1294
 20
1.3662
 30
0.0000
 42
1.0000
  0
VERTEX
  8
20
 10
0.1415
 20
1.3695
 30
0.0000
  0
SEQEND
  8
0
  0
POLYLINE
  8
20
 66
1
 10
0.0000
 20
0.0000
 30
0.0000
 40
0.0250
 41
0.0250
 70
0
  0
VERTEX
  8
20
 10
0.0143
 20
57.3522
 30
0.0000
  0
VERTEX
  8
20
 10
0.0445
 20
57.6995
 30
0.0000
  0
SEQEND
  8
0
  0
POLYLINE
  8
20
 66
1
 10
0.0000
 20
0.0000
 30
0.0000
 40
0.0125
 41
0.0125
 70
0
  0
VERTEX
  8
20
 10
0.0507
 20
57.6989
 30
0.0000
 42
1.0000
  0
VERTEX
  8
20
 10
0.0383
 20
57.7000
 30
0.0000
  0
SEQEND
  8
0
  0
POLYLINE
  8
20
 66
1
 10
0.0000
 20
0.0000
 30
0.0000
 40
0.0125
 41
0.0125
 70
0
  0
VERTEX
  8
20
 10
0.0080
 20
57.3528
 30
0.0000
 42
1.0000
  0
VERTEX
  8
20
 10
0.0205
 20
57.3517
 30
0.0000
  0
SEQEND
  8
0
  0
POLYLINE
  8
20
 66
1
 10
0.0000
 20
0.0000
 30
0.0000
 40
0.0250
 41
0.0250
 70
0
  0
VERTEX
  8
20
 10
1.0148
 20
59.0843
 30
0.0000
  0
VERTEX
  8
20
 10
1.3305
 20
59.2318
 30
0.0000
  0
SEQEND
  8
0
  0
POLYLINE
  8
20
 66
1
 10
0.0000
 20
0.0000
 30
0.0000
 40
0.0125
 41
0.0125
 70
0
  0
VERTEX
  8
20
 10
1.3331
 20
59.2262
 30
0.0000
 42
1.0000
  0
VERTEX
  8
20
 10
1.3279
 20
59.2375
 30
0.0000
  0
SEQEND
  8
0
  0
POLYLINE
  8
20
 66
1
 10
0.0000
 20
0.0000
 30
0.0000
 40
0.0125
 41
0.0125
 70
0
  0
VERTEX
  8
20
 10
1.0121
 20
59.0899
 30
0.0000
 42
1.0000
  0
VERTEX
  8
20
 10
1.0174
 20
59.0786
 30
0.0000
  0
SEQEND
  8
0
  0
POLYLINE
  8
20
 66
1
 10
0.0000
 20
0.0000
 30
0.0000
 40
0.0250
 41
0.0250
 70
0
  0
VERTEX
  8
20
 10
0.7295
 20
58.8833
 30
0.0000
  0
VERTEX
  8
20
 10
1.0148
 20
59.0843
 30
0.0000
  0
SEQEND
  8
0
  0
POLYLINE
  8
20
 66
1
 10
0.0000
 20
0.0000
 30
0.0000
 40
0.0125
 41
0.0125
 70
0
  0
VERTEX
  8
20
 10
1.0184
 20
59.0791
 30
0.0000
 42
1.0000
  0
VERTEX
  8
20
 10
1.0112
 20
59.0894
 30
0.0000
  0
SEQEND
  8
0
  0
POLYLINE
  8
20
 66
1
 10
0.0000
 20
0.0000
 30
0.0000
 40
0.0125
 41
0.0125
 70
0
  0
VERTEX
  8
20
 10
0.7259
 20
58.8885
 30
0.0000
 42
1.0000
  0
VERTEX
  8
20
 10
0.7331
 20
58.8782
 30
0.0000
  0
SEQEND
  8
0
  0
POLYLINE
  8
20
 66
1
 10
0.0000
 20
0.0000
 30
0.0000
 40
0.0250
 41
0.0250
 70
0
  0
VERTEX
  8
20
 10
0.1354
 20
58.0355
 30
0.0000
  0
VERTEX
  8
20
 10
0.2815
 20
58.3512
 30
0.0000
  0
SEQEND
  8
0
  0
POLYLINE
  8
20
 66
1
 10
0.0000
 20
0.0000
 30
0.0000
 40
0.0125
 41
0.0125
 70
0
  0
VERTEX
  8
20
 10
0.2872
 20
58.3486
 30
0.0000
 42
1.0000
  0
VERTEX
  8
20
 10
0.2758
 20
58.3538
 30
0.0000
  0
SEQEND
  8
0
  0
POLYLINE
  8
20
 66
1
 10
0.0000
 20
0.0000
 30
0.0000
 40
0.0125
 41
0.0125
 70
0
  0
VERTEX
  8
20
 10
0.1298
 20
58.0381
 30
0.0000
 42
1.0000
  0
VERTEX
  8
20
 10
0.1411
 20
58.0329
 30
0.0000
  0
SEQEND
  8
0
  0
POLYLINE
  8
20
 66
1
 10
0.0000
 20
0.0000
 30
0.0000
 40
0.0250
 41
0.0250
 70
0
  0
VERTEX
  8
20
 10
1.6681
 20
59.3215
 30
0.0000
  0
VERTEX
  8
20
 10
2.0138
 20
59.3517
 30
0.0000
  0
SEQEND
  8
0
  0
POLYLINE
  8
20
 66
1
 10
0.0000
 20
0.0000
 30
0.0000
 40
0.0125
 41
0.0125
 70
0
  0
VERTEX
  8
20
 10
2.0143
 20
59.3455
 30
0.0000
 42
1.0000
  0
VERTEX
  8
20
 10
2.0132
 20
59.3579
 30
0.0000
  0
SEQEND
  8
0
  0
POLYLINE
  8
20
 66
1
 10
0.0000
 20
0.0000
 30
0.0000
 40
0.0125
 41
0.0125
 70
0
  0
VERTEX
  8
20
 10
1.6675
 20
59.3277
 30
0.0000
 42
1.0000
  0
VERTEX
  8
20
 10
1.6686
 20
59.3153
 30
0.0000
  0
SEQEND
  8
0
  0
POLYLINE
  8
20
 66
1
 10
0.0000
 20
0.0000
 30
0.0000
 40
0.0250
 41
0.0250
 70
0
  0
VERTEX
  8
20
 10
2.0138
 20
59.3517
 30
0.0000
  0
VERTEX
  8
20
 10
95.5150
 20
59.3517
 30
0.0000
  0
SEQEND
  8
0
  0
POLYLINE
  8
20
 66
1
 10
0.0000
 20
0.0000
 30
0.0000
 40
0.0125
 41
0.0125
 70
0
  0
VERTEX
  8
20
 10
95.5150
 20
59.3455
 30
0.0000
 42
1.0000
  0
VERTEX
  8
20
 10
95.5150
 20
59.3580
 30
0.0000
  0
SEQEND
  8
0
  0
POLYLINE
  8
20
 66
1
 10
0.0000
 20
0.0000
 30
0.0000
 40
0.0125
 41
0.0125
 70
0
  0
VERTEX
  8
20
 10
2.0138
 20
59.3580
 30
0.0000
 42
1.0000
  0
VERTEX
  8
20
 10
2.0138
 20
59.3455
 30
0.0000
  0
SEQEND
  8
0
  0
POLYLINE
  8
20
 66
1
 10
0.0000
 20
0.0000
 30
0.0000
 40
0.0250
 41
0.0250
 70
0
  0
VERTEX
  8
20
 10
1.3305
 20
59.2318
 30
0.0000
  0
VERTEX
  8
20
 10
1.6681
 20
59.3215
 30
0.0000
  0
SEQEND
  8
0
  0
POLYLINE
  8
20
 66
1
 10
0.0000
 20
0.0000
 30
0.0000
 40
0.0125
 41
0.0125
 70
0
  0
VERTEX
  8
20
 10
1.6697
 20
59.3155
 30
0.0000
 42
1.0000
  0
VERTEX
  8
20
 10
1.6665
 20
59.3275
 30
0.0000
  0
SEQEND
  8
0
  0
POLYLINE
  8
20
 66
1
 10
0.0000
 20
0.0000
 30
0.0000
 40
0.0125
 41
0.0125
 70
0
  0
VERTEX
  8
20
 10
1.3289
 20
59.2379
 30
0.0000
 42
1.0000
  0
VERTEX
  8
20
 10
1.3321
 20
59.2258
 30
0.0000
  0
SEQEND
  8
0
  0
POLYLINE
  8
20
 66
1
 10
0.0000
 20
0.0000
 30
0.0000
 40
0.0250
 41
0.0250
 70
0
  0
VERTEX
  8
20
 10
0.4826
 20
58.6377
 30
0.0000
  0
VERTEX
  8
20
 10
0.7295
 20
58.8833
 30
0.0000
  0
SEQEND
  8
0
  0
POLYLINE
  8
20
 66
1
 10
0.0000
 20
0.0000
 30
0.0000
 40
0.0125
 41
0.0125
 70
0
  0
VERTEX
  8
20
 10
0.7339
 20
58.8789
 30
0.0000
 42
1.0000
  0
VERTEX
  8
20
 10
0.7251
 20
58.8878
 30
0.0000
  0
SEQEND
  8
0
  0
POLYLINE
  8
20
 66
1
 10
0.0000
 20
0.0000
 30
0.0000
 40
0.0125
 41
0.0125
 70
0
  0
VERTEX
  8
20
 10
0.4782
 20
58.6421
 30
0.0000
 42
1.0000
  0
VERTEX
  8
20
 10
0.4870
 20
58.6333
 30
0.0000
  0
SEQEND
  8
0
  0
POLYLINE
  8
20
 66
1
 10
0.0000
 20
0.0000
 30
0.0000
 40
0.0250
 41
0.0250
 70
0
  0
VERTEX
  8
20
 10
0.2815
 20
58.3512
 30
0.0000
  0
VERTEX
  8
20
 10
0.4826
 20
58.6377
 30
0.0000
  0
SEQEND
  8
0
  0
POLYLINE
  8
20
 66
1
 10
0.0000
 20
0.0000
 30
0.0000
 40
0.0125
 41
0.0125
 70
0
  0
VERTEX
  8
20
 10
0.4878
 20
58.6341
 30
0.0000
 42
1.0000
  0
VERTEX
  8
20
 10
0.4775
 20
58.6413
 30
0.0000
  0
SEQEND
  8
0
  0
POLYLINE
  8
20
 66
1
 10
0.0000
 20
0.0000
 30
0.0000
 40
0.0125
 41
0.0125
 70
0
  0
VERTEX
  8
20
 10
0.2764
 20
58.3548
 30
0.0000
 42
1.0000
  0
VERTEX
  8
20
 10
0.2866
 20
58.3476
 30
0.0000
  0
SEQEND
  8
0
  0
POLYLINE
  8
46
 66
1
 10
0.0000
 20
0.0000
 30
0.0000
 40
0.0250
 41
0.0250
 70
0
  0
VERTEX
  8
46
 10
76.2115
 20
27.5491
 30
0.0000
  0
VERTEX
  8
46
 10
76.2115
 20
28.6256
 30
0.0000
  0
SEQEND
  8
0
  0
POLYLINE
  8
46
 66
1
 10
0.0000
 20
0.0000
 30
0.0000
 40
0.0125
 41
0.0125
 70
0
  0
VERTEX
  8
46
 10
76.2177
 20
28.6256
 30
0.0000
 42
1.0000
  0
VERTEX
  8
46
 10
76.2052
 20
28.6256
 30
0.0000
  0
SEQEND
  8
0
  0
POLYLINE
  8
46
 66
1
 10
0.0000
 20
0.0000
 30
0.0000
 40
0.0125
 41
0.0125
 70
0
  0
VERTEX
  8
46
 10
76.2052
 20
27.5491
 30
0.0000
 42
1.0000
  0
VERTEX
  8
46
 10
76.2177
 20
27.5491
 30
0.0000
  0
SEQEND
  8
0
  0
POLYLINE
  8
46
 66
1
 10
0.0000
 20
0.0000
 30
0.0000
 40
0.0250
 41
0.0250
 70
0
  0
VERTEX
  8
46
 10
76.2115
 20
28.6256
 30
0.0000
  0
VERTEX
  8
46
 10
76.2115
 20
29.4922
 30
0.0000
  0
SEQEND
  8
0
  0
POLYLINE
  8
46
 66
1
 10
0.0000
 20
0.0000
 30
0.0000
 40
0.0125
 41
0.0125
 70
0
  0
VERTEX
  8
46
 10
76.2177
 20
29.4922
 30
0.0000
 42
1.0000
  0
VERTEX
  8
46
 10
76.2052
 20
29.4922
 30
0.0000
  0
SEQEND
  8
0
  0
POLYLINE
  8
46
 66
1
 10
0.0000
 20
0.0000
 30
0.0000
 40
0.0125
 41
0.0125
 70
0
  0
VERTEX
  8
46
 10
76.2052
 20
28.6256
 30
0.0000
 42
1.0000
  0
VERTEX
  8
46
 10
76.2177
 20
28.6256
 30
0.0000
  0
SEQEND
  8
0
  0
POLYLINE
  8
46
 66
1
 10
0.0000
 20
0.0000
 30
0.0000
 40
0.0250
 41
0.0250
 70
0
  0
VERTEX
  8
46
 10
77.2877
 20
29.9113
 30
0.0000
  0
VERTEX
  8
46
 10
77.2877
 20
31.5552
 30
0.0000
  0
SEQEND
  8
0
  0
POLYLINE
  8
46
 66
1
 10
0.0000
 20
0.0000
 30
0.0000
 40
0.0125
 41
0.0125
 70
0
  0
VERTEX
  8
46
 10
77.2939
 20
31.5552
 30
0.0000
 42
1.0000
  0
VERTEX
  8
46
 10
77.2814
 20
31.5552
 30
0.0000
  0
SEQEND
  8
0
  0
POLYLINE
  8
46
 66
1
 10
0.0000
 20
0.0000
 30
0.0000
 40
0.0125
 41
0.0125
 70
0
  0
VERTEX
  8
46
 10
77.2814
 20
29.9113
 30
0.0000
 42
1.0000
  0
VERTEX
  8
46
 10
77.2939
 20
29.9113
 30
0.0000
  0
SEQEND
  8
0
  0
POLYLINE
  8
46
 66
1
 10
0.0000
 20
0.0000
 30
0.0000
 40
0.0250
 41
0.0250
 70
0
  0
VERTEX
  8
46
 10
76.2115
 20
29.9113
 30
0.0000
  0
VERTEX
  8
46
 10
76.2115
 20
30.7782
 30
0.0000
  0
SEQEND
  8
0
  0
POLYLINE
  8
46
 66
1
 10
0.0000
 20
0.0000
 30
0.0000
 40
0.0125
 41
0.0125
 70
0
  0
VERTEX
  8
46
 10
76.2177
 20
30.7782
 30
0.0000
 42
1.0000
  0
VERTEX
  8
46
 10
76.2052
 20
30.7782
 30
0.0000
  0
SEQEND
  8
0
  0
POLYLINE
  8
46
 66
1
 10
0.0000
 20
0.0000
 30
0.0000
 40
0.0125
 41
0.0125
 70
0
  0
VERTEX
  8
46
 10
76.2052
 20
29.9113
 30
0.0000
 42
1.0000
  0
VERTEX
  8
46
 10
76.2177
 20
29.9113
 30
0.0000
  0
SEQEND
  8
0
  0
POLYLINE
  8
46
 66
1
 10
0.0000
 20
0.0000
 30
0.0000
 40
0.0250
 41
0.0250
 70
0
  0
VERTEX
  8
46
 10
76.2115
 20
30.7782
 30
0.0000
  0
VERTEX
  8
46
 10
76.2115
 20
31.8542
 30
0.0000
  0
SEQEND
  8
0
  0
POLYLINE
  8
46
 66
1
 10
0.0000
 20
0.0000
 30
0.0000
 40
0.0125
 41
0.0125
 70
0
  0
VERTEX
  8
46
 10
76.2177
 20
31.8542
 30
0.0000
 42
1.0000
  0
VERTEX
  8
46
 10
76.2052
 20
31.8542
 30
0.0000
  0
SEQEND
  8
0
  0
POLYLINE
  8
46
 66
1
 10
0.0000
 20
0.0000
 30
0.0000
 40
0.0125
 41
0.0125
 70
0
  0
VERTEX
  8
46
 10
76.2052
 20
30.7782
 30
0.0000
 42
1.0000
  0
VERTEX
  8
46
 10
76.2177
 20
30.7782
 30
0.0000
  0
SEQEND
  8
0
  0
POLYLINE
  8
46
 66
1
 10
0.0000
 20
0.0000
 30
0.0000
 40
0.0250
 41
0.0250
 70
0
  0
VERTEX
  8
46
 10
75.1368
 20
31.1666
 30
0.0000
  0
VERTEX
  8
46
 10
75.1368
 20
30.7782
 30
0.0000
  0
SEQEND
  8
0
  0
POLYLINE
  8
46
 66
1
 10
0.0000
 20
0.0000
 30
0.0000
 40
0.0125
 41
0.0125
 70
0
  0
VERTEX
  8
46
 10
75.1306
 20
30.7782
 30
0.0000
 42
1.0000
  0
VERTEX
  8
46
 10
75.1431
 20
30.7782
 30
0.0000
  0
SEQEND
  8
0
  0
POLYLINE
  8
46
 66
1
 10
0.0000
 20
0.0000
 30
0.0000
 40
0.0125
 41
0.0125
 70
0
  0
VERTEX
  8
46
 10
75.1431
 20
31.1666
 30
0.0000
 42
1.0000
  0
VERTEX
  8
46
 10
75.1306
 20
31.1666
 30
0.0000
  0
SEQEND
  8
0
  0
POLYLINE
  8
46
 66
1
 10
0.0000
 20
0.0000
 30
0.0000
 40
0.0250
 41
0.0250
 70
0
  0
VERTEX
  8
46
 10
75.1368
 20
30.7782
 30
0.0000
  0
VERTEX
  8
46
 10
75.1368
 20
29.9113
 30
0.0000
  0
SEQEND
  8
0
  0
POLYLINE
  8
46
 66
1
 10
0.0000
 20
0.0000
 30
0.0000
 40
0.0125
 41
0.0125
 70
0
  0
VERTEX
  8
46
 10
75.1306
 20
29.9113
 30
0.0000
 42
1.0000
  0
VERTEX
  8
46
 10
75.1431
 20
29.9113
 30
0.0000
  0
SEQEND
  8
0
  0
POLYLINE
  8
46
 66
1
 10
0.0000
 20
0.0000
 30
0.0000
 40
0.0125
 41
0.0125
 70
0
  0
VERTEX
  8
46
 10
75.1431
 20
30.7782
 30
0.0000
 42
1.0000
  0
VERTEX
  8
46
 10
75.1306
 20
30.7782
 30
0.0000
  0
SEQEND
  8
0
  0
POLYLINE
  8
46
 66
1
 10
0.0000
 20
0.0000
 30
0.0000
 40
0.0250
 41
0.0250
 70
0
  0
VERTEX
  8
46
 10
77.2877
 20
27.8499
 30
0.0000
  0
VERTEX
  8
46
 10
77.2877
 20
29.4922
 30
0.0000
  0
SEQEND
  8
0
  0
POLYLINE
  8
46
 66
1
 10
0.0000
 20
0.0000
 30
0.0000
 40
0.0125
 41
0.0125
 70
0
  0
VERTEX
  8
46
 10
77.2939
 20
29.4922
 30
0.0000
 42
1.0000
  0
VERTEX
  8
46
 10
77.2814
 20
29.4922
 30
0.0000
  0
SEQEND
  8
0
  0
POLYLINE
  8
46
 66
1
 10
0.0000
 20
0.0000
 30
0.0000
 40
0.0125
 41
0.0125
 70
0
  0
VERTEX
  8
46
 10
77.2814
 20
27.8499
 30
0.0000
 42
1.0000
  0
VERTEX
  8
46
 10
77.2939
 20
27.8499
 30
0.0000
  0
SEQEND
  8
0
  0
POLYLINE
  8
46
 66
1
 10
0.0000
 20
0.0000
 30
0.0000
 40
0.0250
 41
0.0250
 70
0
  0
VERTEX
  8
46
 10
75.1368
 20
28.6256
 30
0.0000
  0
VERTEX
  8
46
 10
76.0022
 20
28.6256
 30
0.0000
  0
SEQEND
  8
0
  0
POLYLINE
  8
46
 66
1
 10
0.0000
 20
0.0000
 30
0.0000
 40
0.0125
 41
0.0125
 70
0
  0
VERTEX
  8
46
 10
76.0022
 20
28.6193
 30
0.0000
 42
1.0000
  0
VERTEX
  8
46
 10
76.0022
 20
28.6318
 30
0.0000
  0
SEQEND
  8
0
  0
POLYLINE
  8
46
 66
1
 10
0.0000
 20
0.0000
 30
0.0000
 40
0.0125
 41
0.0125
 70
0
  0
VERTEX
  8
46
 10
75.1368
 20
28.6318
 30
0.0000
 42
1.0000
  0
VERTEX
  8
46
 10
75.1368
 20
28.6193
 30
0.0000
  0
SEQEND
  8
0
  0
POLYLINE
  8
46
 66
1
 10
0.0000
 20
0.0000
 30
0.0000
 40
0.0250
 41
0.0250
 70
0
  0
VERTEX
  8
46
 10
76.2115
 20
28.6256
 30
0.0000
  0
VERTEX
  8
46
 10
77.0354
 20
28.6256
 30
0.0000
  0
SEQEND
  8
0
  0
POLYLINE
  8
46
 66
1
 10
0.0000
 20
0.0000
 30
0.0000
 40
0.0125
 41
0.0125
 70
0
  0
VERTEX
  8
46
 10
77.0354
 20
28.6193
 30
0.0000
 42
1.0000
  0
VERTEX
  8
46
 10
77.0354
 20
28.6318
 30
0.0000
  0
SEQEND
  8
0
  0
POLYLINE
  8
46
 66
1
 10
0.0000
 20
0.0000
 30
0.0000
 40
0.0125
 41
0.0125
 70
0
  0
VERTEX
  8
46
 10
76.2115
 20
28.6318
 30
0.0000
 42
1.0000
  0
VERTEX
  8
46
 10
76.2115
 20
28.6193
 30
0.0000
  0
SEQEND
  8
0
  0
POLYLINE
  8
46
 66
1
 10
0.0000
 20
0.0000
 30
0.0000
 40
0.0250
 41
0.0250
 70
0
  0
VERTEX
  8
46
 10
74.1018
 20
30.1219
 30
0.0000
  0
VERTEX
  8
46
 10
74.2244
 20
30.5260
 30
0.0000
  0
SEQEND
  8
0
  0
POLYLINE
  8
46
 66
1
 10
0.0000
 20
0.0000
 30
0.0000
 40
0.0125
 41
0.0125
 70
0
  0
VERTEX
  8
46
 10
74.2304
 20
30.5242
 30
0.0000
 42
1.0000
  0
VERTEX
  8
46
 10
74.2185
 20
30.5278
 30
0.0000
  0
SEQEND
  8
0
  0
POLYLINE
  8
46
 66
1
 10
0.0000
 20
0.0000
 30
0.0000
 40
0.0125
 41
0.0125
 70
0
  0
VERTEX
  8
46
 10
74.0958
 20
30.1237
 30
0.0000
 42
1.0000
  0
VERTEX
  8
46
 10
74.1077
 20
30.1201
 30
0.0000
  0
SEQEND
  8
0
  0
POLYLINE
  8
46
 66
1
 10
0.0000
 20
0.0000
 30
0.0000
 40
0.0250
 41
0.0250
 70
0
  0
VERTEX
  8
46
 10
74.2244
 20
30.5260
 30
0.0000
  0
VERTEX
  8
46
 10
74.3593
 20
30.7782
 30
0.0000
  0
SEQEND
  8
0
  0
POLYLINE
  8
46
 66
1
 10
0.0000
 20
0.0000
 30
0.0000
 40
0.0125
 41
0.0125
 70
0
  0
VERTEX
  8
46
 10
74.3648
 20
30.7753
 30
0.0000
 42
1.0000
  0
VERTEX
  8
46
 10
74.3538
 20
30.7812
 30
0.0000
  0
SEQEND
  8
0
  0
POLYLINE
  8
46
 66
1
 10
0.0000
 20
0.0000
 30
0.0000
 40
0.0125
 41
0.0125
 70
0
  0
VERTEX
  8
46
 10
74.2189
 20
30.5290
 30
0.0000
 42
1.0000
  0
VERTEX
  8
46
 10
74.2299
 20
30.5231
 30
0.0000
  0
SEQEND
  8
0
  0
POLYLINE
  8
46
 66
1
 10
0.0000
 20
0.0000
 30
0.0000
 40
0.0250
 41
0.0250
 70
0
  0
VERTEX
  8
46
 10
74.4228
 20
30.8966
 30
0.0000
  0
VERTEX
  8
46
 10
74.6903
 20
31.2230
 30
0.0000
  0
SEQEND
  8
0
  0
POLYLINE
  8
46
 66
1
 10
0.0000
 20
0.0000
 30
0.0000
 40
0.0125
 41
0.0125
 70
0
  0
VERTEX
  8
46
 10
74.6951
 20
31.2190
 30
0.0000
 42
1.0000
  0
VERTEX
  8
46
 10
74.6854
 20
31.2270
 30
0.0000
  0
SEQEND
  8
0
  0
POLYLINE
  8
46
 66
1
 10
0.0000
 20
0.0000
 30
0.0000
 40
0.0125
 41
0.0125
 70
0
  0
VERTEX
  8
46
 10
74.4180
 20
30.9006
 30
0.0000
 42
1.0000
  0
VERTEX
  8
46
 10
74.4276
 20
30.8926
 30
0.0000
  0
SEQEND
  8
0
  0
POLYLINE
  8
46
 66
1
 10
0.0000
 20
0.0000
 30
0.0000
 40
0.0250
 41
0.0250
 70
0
  0
VERTEX
  8
46
 10
74.6903
 20
31.2230
 30
0.0000
  0
VERTEX
  8
46
 10
74.8541
 20
31.3569
 30
0.0000
  0
SEQEND
  8
0
  0
POLYLINE
  8
46
 66
1
 10
0.0000
 20
0.0000
 30
0.0000
 40
0.0125
 41
0.0125
 70
0
  0
VERTEX
  8
46
 10
74.8581
 20
31.3520
 30
0.0000
 42
1.0000
  0
VERTEX
  8
46
 10
74.8501
 20
31.3617
 30
0.0000
  0
SEQEND
  8
0
  0
POLYLINE
  8
46
 66
1
 10
0.0000
 20
0.0000
 30
0.0000
 40
0.0125
 41
0.0125
 70
0
  0
VERTEX
  8
46
 10
74.6863
 20
31.2278
 30
0.0000
 42
1.0000
  0
VERTEX
  8
46
 10
74.6942
 20
31.2182
 30
0.0000
  0
SEQEND
  8
0
  0
POLYLINE
  8
46
 66
1
 10
0.0000
 20
0.0000
 30
0.0000
 40
0.0250
 41
0.0250
 70
0
  0
VERTEX
  8
46
 10
75.0169
 20
31.4905
 30
0.0000
  0
VERTEX
  8
46
 10
75.1368
 20
31.5552
 30
0.0000
  0
SEQEND
  8
0
  0
POLYLINE
  8
46
 66
1
 10
0.0000
 20
0.0000
 30
0.0000
 40
0.0125
 41
0.0125
 70
0
  0
VERTEX
  8
46
 10
75.1398
 20
31.5497
 30
0.0000
 42
1.0000
  0
VERTEX
  8
46
 10
75.1338
 20
31.5607
 30
0.0000
  0
SEQEND
  8
0
  0
POLYLINE
  8
46
 66
1
 10
0.0000
 20
0.0000
 30
0.0000
 40
0.0125
 41
0.0125
 70
0
  0
VERTEX
  8
46
 10
75.0139
 20
31.4960
 30
0.0000
 42
1.0000
  0
VERTEX
  8
46
 10
75.0199
 20
31.4850
 30
0.0000
  0
SEQEND
  8
0
  0
POLYLINE
  8
46
 66
1
 10
0.0000
 20
0.0000
 30
0.0000
 40
0.0250
 41
0.0250
 70
0
  0
VERTEX
  8
46
 10
75.3888
 20
31.6904
 30
0.0000
  0
VERTEX
  8
46
 10
75.7911
 20
31.8115
 30
0.0000
  0
SEQEND
  8
0
  0
POLYLINE
  8
46
 66
1
 10
0.0000
 20
0.0000
 30
0.0000
 40
0.0125
 41
0.0125
 70
0
  0
VERTEX
  8
46
 10
75.7929
 20
31.8055
 30
0.0000
 42
1.0000
  0
VERTEX
  8
46
 10
75.7893
 20
31.8175
 30
0.0000
  0
SEQEND
  8
0
  0
POLYLINE
  8
46
 66
1
 10
0.0000
 20
0.0000
 30
0.0000
 40
0.0125
 41
0.0125
 70
0
  0
VERTEX
  8
46
 10
75.3870
 20
31.6963
 30
0.0000
 42
1.0000
  0
VERTEX
  8
46
 10
75.3906
 20
31.6844
 30
0.0000
  0
SEQEND
  8
0
  0
POLYLINE
  8
46
 66
1
 10
0.0000
 20
0.0000
 30
0.0000
 40
0.0250
 41
0.0250
 70
0
  0
VERTEX
  8
46
 10
75.7911
 20
31.8115
 30
0.0000
  0
VERTEX
  8
46
 10
76.0022
 20
31.8336
 30
0.0000
  0
SEQEND
  8
0
  0
POLYLINE
  8
46
 66
1
 10
0.0000
 20
0.0000
 30
0.0000
 40
0.0125
 41
0.0125
 70
0
  0
VERTEX
  8
46
 10
76.0028
 20
31.8274
 30
0.0000
 42
1.0000
  0
VERTEX
  8
46
 10
76.0015
 20
31.8398
 30
0.0000
  0
SEQEND
  8
0
  0
POLYLINE
  8
46
 66
1
 10
0.0000
 20
0.0000
 30
0.0000
 40
0.0125
 41
0.0125
 70
0
  0
VERTEX
  8
46
 10
75.7904
 20
31.8177
 30
0.0000
 42
1.0000
  0
VERTEX
  8
46
 10
75.7918
 20
31.8053
 30
0.0000
  0
SEQEND
  8
0
  0
POLYLINE
  8
46
 66
1
 10
0.0000
 20
0.0000
 30
0.0000
 40
0.0250
 41
0.0250
 70
0
  0
VERTEX
  8
46
 10
76.2115
 20
31.8542
 30
0.0000
  0
VERTEX
  8
46
 10
76.6318
 20
31.8115
 30
0.0000
  0
SEQEND
  8
0
  0
POLYLINE
  8
46
 66
1
 10
0.0000
 20
0.0000
 30
0.0000
 40
0.0125
 41
0.0125
 70
0
  0
VERTEX
  8
46
 10
76.6312
 20
31.8053
 30
0.0000
 42
1.0000
  0
VERTEX
  8
46
 10
76.6325
 20
31.8177
 30
0.0000
  0
SEQEND
  8
0
  0
POLYLINE
  8
46
 66
1
 10
0.0000
 20
0.0000
 30
0.0000
 40
0.0125
 41
0.0125
 70
0
  0
VERTEX
  8
46
 10
76.2121
 20
31.8604
 30
0.0000
 42
1.0000
  0
VERTEX
  8
46
 10
76.2108
 20
31.8480
 30
0.0000
  0
SEQEND
  8
0
  0
POLYLINE
  8
46
 66
1
 10
0.0000
 20
0.0000
 30
0.0000
 40
0.0250
 41
0.0250
 70
0
  0
VERTEX
  8
46
 10
76.6318
 20
31.8115
 30
0.0000
  0
VERTEX
  8
46
 10
77.0354
 20
31.6904
 30
0.0000
  0
SEQEND
  8
0
  0
POLYLINE
  8
46
 66
1
 10
0.0000
 20
0.0000
 30
0.0000
 40
0.0125
 41
0.0125
 70
0
  0
VERTEX
  8
46
 10
77.0337
 20
31.6844
 30
0.0000
 42
1.0000
  0
VERTEX
  8
46
 10
77.0372
 20
31.6963
 30
0.0000
  0
SEQEND
  8
0
  0
POLYLINE
  8
46
 66
1
 10
0.0000
 20
0.0000
 30
0.0000
 40
0.0125
 41
0.0125
 70
0
  0
VERTEX
  8
46
 10
76.6336
 20
31.8175
 30
0.0000
 42
1.0000
  0
VERTEX
  8
46
 10
76.6300
 20
31.8055
 30
0.0000
  0
SEQEND
  8
0
  0
POLYLINE
  8
46
 66
1
 10
0.0000
 20
0.0000
 30
0.0000
 40
0.0250
 41
0.0250
 70
0
  0
VERTEX
  8
46
 10
77.0354
 20
31.6904
 30
0.0000
  0
VERTEX
  8
46
 10
77.2877
 20
31.5552
 30
0.0000
  0
SEQEND
  8
0
  0
POLYLINE
  8
46
 66
1
 10
0.0000
 20
0.0000
 30
0.0000
 40
0.0125
 41
0.0125
 70
0
  0
VERTEX
  8
46
 10
77.2847
 20
31.5497
 30
0.0000
 42
1.0000
  0
VERTEX
  8
46
 10
77.2906
 20
31.5607
 30
0.0000
  0
SEQEND
  8
0
  0
POLYLINE
  8
46
 66
1
 10
0.0000
 20
0.0000
 30
0.0000
 40
0.0125
 41
0.0125
 70
0
  0
VERTEX
  8
46
 10
77.0384
 20
31.6959
 30
0.0000
 42
1.0000
  0
VERTEX
  8
46
 10
77.0325
 20
31.6848
 30
0.0000
  0
SEQEND
  8
0
  0
POLYLINE
  8
46
 66
1
 10
0.0000
 20
0.0000
 30
0.0000
 40
0.0250
 41
0.0250
 70
0
  0
VERTEX
  8
46
 10
75.0169
 20
27.9134
 30
0.0000
  0
VERTEX
  8
46
 10
74.8541
 20
28.0467
 30
0.0000
  0
SEQEND
  8
0
  0
POLYLINE
  8
46
 66
1
 10
0.0000
 20
0.0000
 30
0.0000
 40
0.0125
 41
0.0125
 70
0
  0
VERTEX
  8
46
 10
74.8581
 20
28.0516
 30
0.0000
 42
1.0000
  0
VERTEX
  8
46
 10
74.8501
 20
28.0419
 30
0.0000
  0
SEQEND
  8
0
  0
POLYLINE
  8
46
 66
1
 10
0.0000
 20
0.0000
 30
0.0000
 40
0.0125
 41
0.0125
 70
0
  0
VERTEX
  8
46
 10
75.0129
 20
27.9085
 30
0.0000
 42
1.0000
  0
VERTEX
  8
46
 10
75.0209
 20
27.9182
 30
0.0000
  0
SEQEND
  8
0
  0
POLYLINE
  8
46
 66
1
 10
0.0000
 20
0.0000
 30
0.0000
 40
0.0250
 41
0.0250
 70
0
  0
VERTEX
  8
46
 10
78.0004
 20
30.8966
 30
0.0000
  0
VERTEX
  8
46
 10
78.0649
 20
30.7782
 30
0.0000
  0
SEQEND
  8
0
  0
POLYLINE
  8
46
 66
1
 10
0.0000
 20
0.0000
 30
0.0000
 40
0.0125
 41
0.0125
 70
0
  0
VERTEX
  8
46
 10
78.0594
 20
30.7752
 30
0.0000
 42
1.0000
  0
VERTEX
  8
46
 10
78.0704
 20
30.7812
 30
0.0000
  0
SEQEND
  8
0
  0
POLYLINE
  8
46
 66
1
 10
0.0000
 20
0.0000
 30
0.0000
 40
0.0125
 41
0.0125
 70
0
  0
VERTEX
  8
46
 10
78.0059
 20
30.8996
 30
0.0000
 42
1.0000
  0
VERTEX
  8
46
 10
77.9949
 20
30.8936
 30
0.0000
  0
SEQEND
  8
0
  0
POLYLINE
  8
46
 66
1
 10
0.0000
 20
0.0000
 30
0.0000
 40
0.0250
 41
0.0250
 70
0
  0
VERTEX
  8
46
 10
78.0649
 20
28.6256
 30
0.0000
  0
VERTEX
  8
46
 10
78.0004
 20
28.5057
 30
0.0000
  0
SEQEND
  8
0
  0
POLYLINE
  8
46
 66
1
 10
0.0000
 20
0.0000
 30
0.0000
 40
0.0125
 41
0.0125
 70
0
  0
VERTEX
  8
46
 10
77.9949
 20
28.5087
 30
0.0000
 42
1.0000
  0
VERTEX
  8
46
 10
78.0059
 20
28.5027
 30
0.0000
  0
SEQEND
  8
0
  0
POLYLINE
  8
46
 66
1
 10
0.0000
 20
0.0000
 30
0.0000
 40
0.0125
 41
0.0125
 70
0
  0
VERTEX
  8
46
 10
78.0704
 20
28.6226
 30
0.0000
 42
1.0000
  0
VERTEX
  8
46
 10
78.0594
 20
28.6286
 30
0.0000
  0
SEQEND
  8
0
  0
POLYLINE
  8
46
 66
1
 10
0.0000
 20
0.0000
 30
0.0000
 40
0.0250
 41
0.0250
 70
0
  0
VERTEX
  8
46
 10
74.3593
 20
30.7782
 30
0.0000
  0
VERTEX
  8
46
 10
74.4228
 20
30.8966
 30
0.0000
  0
SEQEND
  8
0
  0
POLYLINE
  8
46
 66
1
 10
0.0000
 20
0.0000
 30
0.0000
 40
0.0125
 41
0.0125
 70
0
  0
VERTEX
  8
46
 10
74.4283
 20
30.8936
 30
0.0000
 42
1.0000
  0
VERTEX
  8
46
 10
74.4173
 20
30.8996
 30
0.0000
  0
SEQEND
  8
0
  0
POLYLINE
  8
46
 66
1
 10
0.0000
 20
0.0000
 30
0.0000
 40
0.0125
 41
0.0125
 70
0
  0
VERTEX
  8
46
 10
74.3538
 20
30.7812
 30
0.0000
 42
1.0000
  0
VERTEX
  8
46
 10
74.3648
 20
30.7753
 30
0.0000
  0
SEQEND
  8
0
  0
POLYLINE
  8
46
 66
1
 10
0.0000
 20
0.0000
 30
0.0000
 40
0.0250
 41
0.0250
 70
0
  0
VERTEX
  8
46
 10
77.7329
 20
31.2230
 30
0.0000
  0
VERTEX
  8
46
 10
78.0004
 20
30.8966
 30
0.0000
  0
SEQEND
  8
0
  0
POLYLINE
  8
46
 66
1
 10
0.0000
 20
0.0000
 30
0.0000
 40
0.0125
 41
0.0125
 70
0
  0
VERTEX
  8
46
 10
77.9956
 20
30.8926
 30
0.0000
 42
1.0000
  0
VERTEX
  8
46
 10
78.0052
 20
30.9006
 30
0.0000
  0
SEQEND
  8
0
  0
POLYLINE
  8
46
 66
1
 10
0.0000
 20
0.0000
 30
0.0000
 40
0.0125
 41
0.0125
 70
0
  0
VERTEX
  8
46
 10
77.7378
 20
31.2270
 30
0.0000
 42
1.0000
  0
VERTEX
  8
46
 10
77.7281
 20
31.2190
 30
0.0000
  0
SEQEND
  8
0
  0
POLYLINE
  8
46
 66
1
 10
0.0000
 20
0.0000
 30
0.0000
 40
0.0250
 41
0.0250
 70
0
  0
VERTEX
  8
46
 10
74.3593
 20
30.7782
 30
0.0000
  0
VERTEX
  8
46
 10
74.6062
 20
30.7782
 30
0.0000
  0
SEQEND
  8
0
  0
POLYLINE
  8
46
 66
1
 10
0.0000
 20
0.0000
 30
0.0000
 40
0.0125
 41
0.0125
 70
0
  0
VERTEX
  8
46
 10
74.6062
 20
30.7720
 30
0.0000
 42
1.0000
  0
VERTEX
  8
46
 10
74.6062
 20
30.7845
 30
0.0000
  0
SEQEND
  8
0
  0
POLYLINE
  8
46
 66
1
 10
0.0000
 20
0.0000
 30
0.0000
 40
0.0125
 41
0.0125
 70
0
  0
VERTEX
  8
46
 10
74.3593
 20
30.7845
 30
0.0000
 42
1.0000
  0
VERTEX
  8
46
 10
74.3593
 20
30.7720
 30
0.0000
  0
SEQEND
  8
0
  0
POLYLINE
  8
46
 66
1
 10
0.0000
 20
0.0000
 30
0.0000
 40
0.0250
 41
0.0250
 70
0
  0
VERTEX
  8
46
 10
77.0354
 20
27.7132
 30
0.0000
  0
VERTEX
  8
46
 10
76.6318
 20
27.5918
 30
0.0000
  0
SEQEND
  8
0
  0
POLYLINE
  8
46
 66
1
 10
0.0000
 20
0.0000
 30
0.0000
 40
0.0125
 41
0.0125
 70
0
  0
VERTEX
  8
46
 10
76.6300
 20
27.5978
 30
0.0000
 42
1.0000
  0
VERTEX
  8
46
 10
76.6336
 20
27.5858
 30
0.0000
  0
SEQEND
  8
0
  0
POLYLINE
  8
46
 66
1
 10
0.0000
 20
0.0000
 30
0.0000
 40
0.0125
 41
0.0125
 70
0
  0
VERTEX
  8
46
 10
77.0373
 20
27.7072
 30
0.0000
 42
1.0000
  0
VERTEX
  8
46
 10
77.0336
 20
27.7192
 30
0.0000
  0
SEQEND
  8
0
  0
POLYLINE
  8
46
 66
1
 10
0.0000
 20
0.0000
 30
0.0000
 40
0.0250
 41
0.0250
 70
0
  0
VERTEX
  8
46
 10
77.7329
 20
28.1803
 30
0.0000
  0
VERTEX
  8
46
 10
77.4076
 20
27.9134
 30
0.0000
  0
SEQEND
  8
0
  0
POLYLINE
  8
46
 66
1
 10
0.0000
 20
0.0000
 30
0.0000
 40
0.0125
 41
0.0125
 70
0
  0
VERTEX
  8
46
 10
77.4036
 20
27.9182
 30
0.0000
 42
1.0000
  0
VERTEX
  8
46
 10
77.4115
 20
27.9085
 30
0.0000
  0
SEQEND
  8
0
  0
POLYLINE
  8
46
 66
1
 10
0.0000
 20
0.0000
 30
0.0000
 40
0.0125
 41
0.0125
 70
0
  0
VERTEX
  8
46
 10
77.7369
 20
28.1755
 30
0.0000
 42
1.0000
  0
VERTEX
  8
46
 10
77.7290
 20
28.1852
 30
0.0000
  0
SEQEND
  8
0
  0
POLYLINE
  8
46
 66
1
 10
0.0000
 20
0.0000
 30
0.0000
 40
0.0250
 41
0.0250
 70
0
  0
VERTEX
  8
46
 10
74.4228
 20
28.5057
 30
0.0000
  0
VERTEX
  8
46
 10
74.3593
 20
28.6256
 30
0.0000
  0
SEQEND
  8
0
  0
POLYLINE
  8
46
 66
1
 10
0.0000
 20
0.0000
 30
0.0000
 40
0.0125
 41
0.0125
 70
0
  0
VERTEX
  8
46
 10
74.3648
 20
28.6285
 30
0.0000
 42
1.0000
  0
VERTEX
  8
46
 10
74.3538
 20
28.6227
 30
0.0000
  0
SEQEND
  8
0
  0
POLYLINE
  8
46
 66
1
 10
0.0000
 20
0.0000
 30
0.0000
 40
0.0125
 41
0.0125
 70
0
  0
VERTEX
  8
46
 10
74.4173
 20
28.5028
 30
0.0000
 42
1.0000
  0
VERTEX
  8
46
 10
74.4283
 20
28.5086
 30
0.0000
  0
SEQEND
  8
0
  0
POLYLINE
  8
46
 66
1
 10
0.0000
 20
0.0000
 30
0.0000
 40
0.0250
 41
0.0250
 70
0
  0
VERTEX
  8
46
 10
78.2000
 20
28.8791
 30
0.0000
  0
VERTEX
  8
46
 10
78.0649
 20
28.6256
 30
0.0000
  0
SEQEND
  8
0
  0
POLYLINE
  8
46
 66
1
 10
0.0000
 20
0.0000
 30
0.0000
 40
0.0125
 41
0.0125
 70
0
  0
VERTEX
  8
46
 10
78.0594
 20
28.6285
 30
0.0000
 42
1.0000
  0
VERTEX
  8
46
 10
78.0704
 20
28.6227
 30
0.0000
  0
SEQEND
  8
0
  0
POLYLINE
  8
46
 66
1
 10
0.0000
 20
0.0000
 30
0.0000
 40
0.0125
 41
0.0125
 70
0
  0
VERTEX
  8
46
 10
78.2056
 20
28.8761
 30
0.0000
 42
1.0000
  0
VERTEX
  8
46
 10
78.1945
 20
28.8820
 30
0.0000
  0
SEQEND
  8
0
  0
POLYLINE
  8
46
 66
1
 10
0.0000
 20
0.0000
 30
0.0000
 40
0.0250
 41
0.0250
 70
0
  0
VERTEX
  8
46
 10
75.1368
 20
31.5552
 30
0.0000
  0
VERTEX
  8
46
 10
75.3888
 20
31.6904
 30
0.0000
  0
SEQEND
  8
0
  0
POLYLINE
  8
46
 66
1
 10
0.0000
 20
0.0000
 30
0.0000
 40
0.0125
 41
0.0125
 70
0
  0
VERTEX
  8
46
 10
75.3917
 20
31.6848
 30
0.0000
 42
1.0000
  0
VERTEX
  8
46
 10
75.3858
 20
31.6959
 30
0.0000
  0
SEQEND
  8
0
  0
POLYLINE
  8
46
 66
1
 10
0.0000
 20
0.0000
 30
0.0000
 40
0.0125
 41
0.0125
 70
0
  0
VERTEX
  8
46
 10
75.1338
 20
31.5607
 30
0.0000
 42
1.0000
  0
VERTEX
  8
46
 10
75.1398
 20
31.5497
 30
0.0000
  0
SEQEND
  8
0
  0
POLYLINE
  8
46
 66
1
 10
0.0000
 20
0.0000
 30
0.0000
 40
0.0250
 41
0.0250
 70
0
  0
VERTEX
  8
46
 10
74.3593
 20
28.6256
 30
0.0000
  0
VERTEX
  8
46
 10
74.2244
 20
28.8791
 30
0.0000
  0
SEQEND
  8
0
  0
POLYLINE
  8
46
 66
1
 10
0.0000
 20
0.0000
 30
0.0000
 40
0.0125
 41
0.0125
 70
0
  0
VERTEX
  8
46
 10
74.2299
 20
28.8820
 30
0.0000
 42
1.0000
  0
VERTEX
  8
46
 10
74.2189
 20
28.8761
 30
0.0000
  0
SEQEND
  8
0
  0
POLYLINE
  8
46
 66
1
 10
0.0000
 20
0.0000
 30
0.0000
 40
0.0125
 41
0.0125
 70
0
  0
VERTEX
  8
46
 10
74.3538
 20
28.6227
 30
0.0000
 42
1.0000
  0
VERTEX
  8
46
 10
74.3648
 20
28.6285
 30
0.0000
  0
SEQEND
  8
0
  0
POLYLINE
  8
46
 66
1
 10
0.0000
 20
0.0000
 30
0.0000
 40
0.0250
 41
0.0250
 70
0
  0
VERTEX
  8
46
 10
76.6318
 20
27.5918
 30
0.0000
  0
VERTEX
  8
46
 10
76.2115
 20
27.5491
 30
0.0000
  0
SEQEND
  8
0
  0
POLYLINE
  8
46
 66
1
 10
0.0000
 20
0.0000
 30
0.0000
 40
0.0125
 41
0.0125
 70
0
  0
VERTEX
  8
46
 10
76.2108
 20
27.5554
 30
0.0000
 42
1.0000
  0
VERTEX
  8
46
 10
76.2121
 20
27.5429
 30
0.0000
  0
SEQEND
  8
0
  0
POLYLINE
  8
46
 66
1
 10
0.0000
 20
0.0000
 30
0.0000
 40
0.0125
 41
0.0125
 70
0
  0
VERTEX
  8
46
 10
76.6325
 20
27.5856
 30
0.0000
 42
1.0000
  0
VERTEX
  8
46
 10
76.6312
 20
27.5980
 30
0.0000
  0
SEQEND
  8
0
  0
POLYLINE
  8
46
 66
1
 10
0.0000
 20
0.0000
 30
0.0000
 40
0.0250
 41
0.0250
 70
0
  0
VERTEX
  8
46
 10
74.3593
 20
28.6256
 30
0.0000
  0
VERTEX
  8
46
 10
74.6062
 20
28.6256
 30
0.0000
  0
SEQEND
  8
0
  0
POLYLINE
  8
46
 66
1
 10
0.0000
 20
0.0000
 30
0.0000
 40
0.0125
 41
0.0125
 70
0
  0
VERTEX
  8
46
 10
74.6062
 20
28.6193
 30
0.0000
 42
1.0000
  0
VERTEX
  8
46
 10
74.6062
 20
28.6318
 30
0.0000
  0
SEQEND
  8
0
  0
POLYLINE
  8
46
 66
1
 10
0.0000
 20
0.0000
 30
0.0000
 40
0.0125
 41
0.0125
 70
0
  0
VERTEX
  8
46
 10
74.3593
 20
28.6318
 30
0.0000
 42
1.0000
  0
VERTEX
  8
46
 10
74.3593
 20
28.6193
 30
0.0000
  0
SEQEND
  8
0
  0
POLYLINE
  8
46
 66
1
 10
0.0000
 20
0.0000
 30
0.0000
 40
0.0250
 41
0.0250
 70
0
  0
VERTEX
  8
46
 10
77.2877
 20
31.5552
 30
0.0000
  0
VERTEX
  8
46
 10
77.4076
 20
31.4905
 30
0.0000
  0
SEQEND
  8
0
  0
POLYLINE
  8
46
 66
1
 10
0.0000
 20
0.0000
 30
0.0000
 40
0.0125
 41
0.0125
 70
0
  0
VERTEX
  8
46
 10
77.4046
 20
31.4850
 30
0.0000
 42
1.0000
  0
VERTEX
  8
46
 10
77.4105
 20
31.4960
 30
0.0000
  0
SEQEND
  8
0
  0
POLYLINE
  8
46
 66
1
 10
0.0000
 20
0.0000
 30
0.0000
 40
0.0125
 41
0.0125
 70
0
  0
VERTEX
  8
46
 10
77.2906
 20
31.5607
 30
0.0000
 42
1.0000
  0
VERTEX
  8
46
 10
77.2847
 20
31.5497
 30
0.0000
  0
SEQEND
  8
0
  0
POLYLINE
  8
46
 66
1
 10
0.0000
 20
0.0000
 30
0.0000
 40
0.0250
 41
0.0250
 70
0
  0
VERTEX
  8
46
 10
75.7911
 20
27.5918
 30
0.0000
  0
VERTEX
  8
46
 10
75.3888
 20
27.7132
 30
0.0000
  0
SEQEND
  8
0
  0
POLYLINE
  8
46
 66
1
 10
0.0000
 20
0.0000
 30
0.0000
 40
0.0125
 41
0.0125
 70
0
  0
VERTEX
  8
46
 10
75.3906
 20
27.7192
 30
0.0000
 42
1.0000
  0
VERTEX
  8
46
 10
75.3870
 20
27.7072
 30
0.0000
  0
SEQEND
  8
0
  0
POLYLINE
  8
46
 66
1
 10
0.0000
 20
0.0000
 30
0.0000
 40
0.0125
 41
0.0125
 70
0
  0
VERTEX
  8
46
 10
75.7893
 20
27.5858
 30
0.0000
 42
1.0000
  0
VERTEX
  8
46
 10
75.7929
 20
27.5978
 30
0.0000
  0
SEQEND
  8
0
  0
POLYLINE
  8
46
 66
1
 10
0.0000
 20
0.0000
 30
0.0000
 40
0.0250
 41
0.0250
 70
0
  0
VERTEX
  8
46
 10
78.0649
 20
30.7782
 30
0.0000
  0
VERTEX
  8
46
 10
78.2000
 20
30.5260
 30
0.0000
  0
SEQEND
  8
0
  0
POLYLINE
  8
46
 66
1
 10
0.0000
 20
0.0000
 30
0.0000
 40
0.0125
 41
0.0125
 70
0
  0
VERTEX
  8
46
 10
78.1945
 20
30.5231
 30
0.0000
 42
1.0000
  0
VERTEX
  8
46
 10
78.2055
 20
30.5290
 30
0.0000
  0
SEQEND
  8
0
  0
POLYLINE
  8
46
 66
1
 10
0.0000
 20
0.0000
 30
0.0000
 40
0.0125
 41
0.0125
 70
0
  0
VERTEX
  8
46
 10
78.0704
 20
30.7812
 30
0.0000
 42
1.0000
  0
VERTEX
  8
46
 10
78.0594
 20
30.7753
 30
0.0000
  0
SEQEND
  8
0
  0
POLYLINE
  8
46
 66
1
 10
0.0000
 20
0.0000
 30
0.0000
 40
0.0250
 41
0.0250
 70
0
  0
VERTEX
  8
46
 10
78.2000
 20
30.5260
 30
0.0000
  0
VERTEX
  8
46
 10
78.2854
 20
30.2393
 30
0.0000
  0
SEQEND
  8
0
  0
POLYLINE
  8
46
 66
1
 10
0.0000
 20
0.0000
 30
0.0000
 40
0.0125
 41
0.0125
 70
0
  0
VERTEX
  8
46
 10
78.2794
 20
30.2375
 30
0.0000
 42
1.0000
  0
VERTEX
  8
46
 10
78.2914
 20
30.2410
 30
0.0000
  0
SEQEND
  8
0
  0
POLYLINE
  8
46
 66
1
 10
0.0000
 20
0.0000
 30
0.0000
 40
0.0125
 41
0.0125
 70
0
  0
VERTEX
  8
46
 10
78.2060
 20
30.5278
 30
0.0000
 42
1.0000
  0
VERTEX
  8
46
 10
78.1941
 20
30.5242
 30
0.0000
  0
SEQEND
  8
0
  0
POLYLINE
  8
46
 66
1
 10
0.0000
 20
0.0000
 30
0.0000
 40
0.0250
 41
0.0250
 70
0
  0
VERTEX
  8
46
 10
75.3888
 20
27.7132
 30
0.0000
  0
VERTEX
  8
46
 10
75.1368
 20
27.8499
 30
0.0000
  0
SEQEND
  8
0
  0
POLYLINE
  8
46
 66
1
 10
0.0000
 20
0.0000
 30
0.0000
 40
0.0125
 41
0.0125
 70
0
  0
VERTEX
  8
46
 10
75.1398
 20
27.8554
 30
0.0000
 42
1.0000
  0
VERTEX
  8
46
 10
75.1338
 20
27.8444
 30
0.0000
  0
SEQEND
  8
0
  0
POLYLINE
  8
46
 66
1
 10
0.0000
 20
0.0000
 30
0.0000
 40
0.0125
 41
0.0125
 70
0
  0
VERTEX
  8
46
 10
75.3858
 20
27.7077
 30
0.0000
 42
1.0000
  0
VERTEX
  8
46
 10
75.3917
 20
27.7187
 30
0.0000
  0
SEQEND
  8
0
  0
POLYLINE
  8
46
 66
1
 10
0.0000
 20
0.0000
 30
0.0000
 40
0.0250
 41
0.0250
 70
0
  0
VERTEX
  8
46
 10
77.2877
 20
27.8499
 30
0.0000
  0
VERTEX
  8
46
 10
77.0354
 20
27.7132
 30
0.0000
  0
SEQEND
  8
0
  0
POLYLINE
  8
46
 66
1
 10
0.0000
 20
0.0000
 30
0.0000
 40
0.0125
 41
0.0125
 70
0
  0
VERTEX
  8
46
 10
77.0325
 20
27.7187
 30
0.0000
 42
1.0000
  0
VERTEX
  8
46
 10
77.0384
 20
27.7077
 30
0.0000
  0
SEQEND
  8
0
  0
POLYLINE
  8
46
 66
1
 10
0.0000
 20
0.0000
 30
0.0000
 40
0.0125
 41
0.0125
 70
0
  0
VERTEX
  8
46
 10
77.2906
 20
27.8444
 30
0.0000
 42
1.0000
  0
VERTEX
  8
46
 10
77.2847
 20
27.8554
 30
0.0000
  0
SEQEND
  8
0
  0
POLYLINE
  8
46
 66
1
 10
0.0000
 20
0.0000
 30
0.0000
 40
0.0250
 41
0.0250
 70
0
  0
VERTEX
  8
46
 10
77.4076
 20
27.9134
 30
0.0000
  0
VERTEX
  8
46
 10
77.2877
 20
27.8499
 30
0.0000
  0
SEQEND
  8
0
  0
POLYLINE
  8
46
 66
1
 10
0.0000
 20
0.0000
 30
0.0000
 40
0.0125
 41
0.0125
 70
0
  0
VERTEX
  8
46
 10
77.2847
 20
27.8554
 30
0.0000
 42
1.0000
  0
VERTEX
  8
46
 10
77.2906
 20
27.8443
 30
0.0000
  0
SEQEND
  8
0
  0
POLYLINE
  8
46
 66
1
 10
0.0000
 20
0.0000
 30
0.0000
 40
0.0125
 41
0.0125
 70
0
  0
VERTEX
  8
46
 10
77.4105
 20
27.9078
 30
0.0000
 42
1.0000
  0
VERTEX
  8
46
 10
77.4046
 20
27.9189
 30
0.0000
  0
SEQEND
  8
0
  0
POLYLINE
  8
46
 66
1
 10
0.0000
 20
0.0000
 30
0.0000
 40
0.0250
 41
0.0250
 70
0
  0
VERTEX
  8
46
 10
78.0004
 20
28.5057
 30
0.0000
  0
VERTEX
  8
46
 10
77.7329
 20
28.1803
 30
0.0000
  0
SEQEND
  8
0
  0
POLYLINE
  8
46
 66
1
 10
0.0000
 20
0.0000
 30
0.0000
 40
0.0125
 41
0.0125
 70
0
  0
VERTEX
  8
46
 10
77.7281
 20
28.1843
 30
0.0000
 42
1.0000
  0
VERTEX
  8
46
 10
77.7378
 20
28.1764
 30
0.0000
  0
SEQEND
  8
0
  0
POLYLINE
  8
46
 66
1
 10
0.0000
 20
0.0000
 30
0.0000
 40
0.0125
 41
0.0125
 70
0
  0
VERTEX
  8
46
 10
78.0052
 20
28.5017
 30
0.0000
 42
1.0000
  0
VERTEX
  8
46
 10
77.9956
 20
28.5097
 30
0.0000
  0
SEQEND
  8
0
  0
POLYLINE
  8
46
 66
1
 10
0.0000
 20
0.0000
 30
0.0000
 40
0.0250
 41
0.0250
 70
0
  0
VERTEX
  8
46
 10
74.2244
 20
28.8791
 30
0.0000
  0
VERTEX
  8
46
 10
74.1018
 20
29.2814
 30
0.0000
  0
SEQEND
  8
0
  0
POLYLINE
  8
46
 66
1
 10
0.0000
 20
0.0000
 30
0.0000
 40
0.0125
 41
0.0125
 70
0
  0
VERTEX
  8
46
 10
74.1077
 20
29.2832
 30
0.0000
 42
1.0000
  0
VERTEX
  8
46
 10
74.0958
 20
29.2796
 30
0.0000
  0
SEQEND
  8
0
  0
POLYLINE
  8
46
 66
1
 10
0.0000
 20
0.0000
 30
0.0000
 40
0.0125
 41
0.0125
 70
0
  0
VERTEX
  8
46
 10
74.2185
 20
28.8773
 30
0.0000
 42
1.0000
  0
VERTEX
  8
46
 10
74.2304
 20
28.8809
 30
0.0000
  0
SEQEND
  8
0
  0
POLYLINE
  8
46
 66
1
 10
0.0000
 20
0.0000
 30
0.0000
 40
0.0250
 41
0.0250
 70
0
  0
VERTEX
  8
46
 10
74.6903
 20
28.1803
 30
0.0000
  0
VERTEX
  8
46
 10
74.4228
 20
28.5057
 30
0.0000
  0
SEQEND
  8
0
  0
POLYLINE
  8
46
 66
1
 10
0.0000
 20
0.0000
 30
0.0000
 40
0.0125
 41
0.0125
 70
0
  0
VERTEX
  8
46
 10
74.4276
 20
28.5097
 30
0.0000
 42
1.0000
  0
VERTEX
  8
46
 10
74.4180
 20
28.5017
 30
0.0000
  0
SEQEND
  8
0
  0
POLYLINE
  8
46
 66
1
 10
0.0000
 20
0.0000
 30
0.0000
 40
0.0125
 41
0.0125
 70
0
  0
VERTEX
  8
46
 10
74.6854
 20
28.1764
 30
0.0000
 42
1.0000
  0
VERTEX
  8
46
 10
74.6951
 20
28.1843
 30
0.0000
  0
SEQEND
  8
0
  0
POLYLINE
  8
46
 66
1
 10
0.0000
 20
0.0000
 30
0.0000
 40
0.0250
 41
0.0250
 70
0
  0
VERTEX
  8
46
 10
75.1368
 20
27.8499
 30
0.0000
  0
VERTEX
  8
46
 10
75.0169
 20
27.9134
 30
0.0000
  0
SEQEND
  8
0
  0
POLYLINE
  8
46
 66
1
 10
0.0000
 20
0.0000
 30
0.0000
 40
0.0125
 41
0.0125
 70
0
  0
VERTEX
  8
46
 10
75.0198
 20
27.9189
 30
0.0000
 42
1.0000
  0
VERTEX
  8
46
 10
75.0140
 20
27.9078
 30
0.0000
  0
SEQEND
  8
0
  0
POLYLINE
  8
46
 66
1
 10
0.0000
 20
0.0000
 30
0.0000
 40
0.0125
 41
0.0125
 70
0
  0
VERTEX
  8
46
 10
75.1339
 20
27.8443
 30
0.0000
 42
1.0000
  0
VERTEX
  8
46
 10
75.1397
 20
27.8554
 30
0.0000
  0
SEQEND
  8
0
  0
POLYLINE
  8
46
 66
1
 10
0.0000
 20
0.0000
 30
0.0000
 40
0.0250
 41
0.0250
 70
0
  0
VERTEX
  8
46
 10
77.4076
 20
31.4905
 30
0.0000
  0
VERTEX
  8
46
 10
77.7329
 20
31.2230
 30
0.0000
  0
SEQEND
  8
0
  0
POLYLINE
  8
46
 66
1
 10
0.0000
 20
0.0000
 30
0.0000
 40
0.0125
 41
0.0125
 70
0
  0
VERTEX
  8
46
 10
77.7290
 20
31.2182
 30
0.0000
 42
1.0000
  0
VERTEX
  8
46
 10
77.7369
 20
31.2278
 30
0.0000
  0
SEQEND
  8
0
  0
POLYLINE
  8
46
 66
1
 10
0.0000
 20
0.0000
 30
0.0000
 40
0.0125
 41
0.0125
 70
0
  0
VERTEX
  8
46
 10
77.4115
 20
31.4953
 30
0.0000
 42
1.0000
  0
VERTEX
  8
46
 10
77.4036
 20
31.4856
 30
0.0000
  0
SEQEND
  8
0
  0
POLYLINE
  8
46
 66
1
 10
0.0000
 20
0.0000
 30
0.0000
 40
0.0250
 41
0.0250
 70
0
  0
VERTEX
  8
46
 10
78.2854
 20
29.1631
 30
0.0000
  0
VERTEX
  8
46
 10
78.2000
 20
28.8791
 30
0.0000
  0
SEQEND
  8
0
  0
POLYLINE
  8
46
 66
1
 10
0.0000
 20
0.0000
 30
0.0000
 40
0.0125
 41
0.0125
 70
0
  0
VERTEX
  8
46
 10
78.1941
 20
28.8809
 30
0.0000
 42
1.0000
  0
VERTEX
  8
46
 10
78.2060
 20
28.8773
 30
0.0000
  0
SEQEND
  8
0
  0
POLYLINE
  8
46
 66
1
 10
0.0000
 20
0.0000
 30
0.0000
 40
0.0125
 41
0.0125
 70
0
  0
VERTEX
  8
46
 10
78.2914
 20
29.1613
 30
0.0000
 42
1.0000
  0
VERTEX
  8
46
 10
78.2794
 20
29.1648
 30
0.0000
  0
SEQEND
  8
0
  0
POLYLINE
  8
46
 66
1
 10
0.0000
 20
0.0000
 30
0.0000
 40
0.0250
 41
0.0250
 70
0
  0
VERTEX
  8
46
 10
75.1368
 20
29.4922
 30
0.0000
  0
VERTEX
  8
46
 10
75.1368
 20
28.6256
 30
0.0000
  0
SEQEND
  8
0
  0
POLYLINE
  8
46
 66
1
 10
0.0000
 20
0.0000
 30
0.0000
 40
0.0125
 41
0.0125
 70
0
  0
VERTEX
  8
46
 10
75.1306
 20
28.6256
 30
0.0000
 42
1.0000
  0
VERTEX
  8
46
 10
75.1431
 20
28.6256
 30
0.0000
  0
SEQEND
  8
0
  0
POLYLINE
  8
46
 66
1
 10
0.0000
 20
0.0000
 30
0.0000
 40
0.0125
 41
0.0125
 70
0
  0
VERTEX
  8
46
 10
75.1431
 20
29.4922
 30
0.0000
 42
1.0000
  0
VERTEX
  8
46
 10
75.1306
 20
29.4922
 30
0.0000
  0
SEQEND
  8
0
  0
POLYLINE
  8
46
 66
1
 10
0.0000
 20
0.0000
 30
0.0000
 40
0.0250
 41
0.0250
 70
0
  0
VERTEX
  8
46
 10
74.8541
 20
28.0467
 30
0.0000
  0
VERTEX
  8
46
 10
74.6903
 20
28.1803
 30
0.0000
  0
SEQEND
  8
0
  0
POLYLINE
  8
46
 66
1
 10
0.0000
 20
0.0000
 30
0.0000
 40
0.0125
 41
0.0125
 70
0
  0
VERTEX
  8
46
 10
74.6942
 20
28.1852
 30
0.0000
 42
1.0000
  0
VERTEX
  8
46
 10
74.6863
 20
28.1755
 30
0.0000
  0
SEQEND
  8
0
  0
POLYLINE
  8
46
 66
1
 10
0.0000
 20
0.0000
 30
0.0000
 40
0.0125
 41
0.0125
 70
0
  0
VERTEX
  8
46
 10
74.8501
 20
28.0419
 30
0.0000
 42
1.0000
  0
VERTEX
  8
46
 10
74.8581
 20
28.0516
 30
0.0000
  0
SEQEND
  8
0
  0
POLYLINE
  8
46
 66
1
 10
0.0000
 20
0.0000
 30
0.0000
 40
0.0250
 41
0.0250
 70
0
  0
VERTEX
  8
46
 10
74.8541
 20
31.3569
 30
0.0000
  0
VERTEX
  8
46
 10
75.0169
 20
31.4905
 30
0.0000
  0
SEQEND
  8
0
  0
POLYLINE
  8
46
 66
1
 10
0.0000
 20
0.0000
 30
0.0000
 40
0.0125
 41
0.0125
 70
0
  0
VERTEX
  8
46
 10
75.0209
 20
31.4856
 30
0.0000
 42
1.0000
  0
VERTEX
  8
46
 10
75.0129
 20
31.4953
 30
0.0000
  0
SEQEND
  8
0
  0
POLYLINE
  8
46
 66
1
 10
0.0000
 20
0.0000
 30
0.0000
 40
0.0125
 41
0.0125
 70
0
  0
VERTEX
  8
46
 10
74.8501
 20
31.3617
 30
0.0000
 42
1.0000
  0
VERTEX
  8
46
 10
74.8581
 20
31.3520
 30
0.0000
  0
SEQEND
  8
0
  0
POLYLINE
  8
46
 66
1
 10
0.0000
 20
0.0000
 30
0.0000
 40
0.0250
 41
0.0250
 70
0
  0
VERTEX
  8
46
 10
74.8541
 20
28.0467
 30
0.0000
  0
VERTEX
  8
46
 10
74.8541
 20
29.4922
 30
0.0000
  0
SEQEND
  8
0
  0
POLYLINE
  8
46
 66
1
 10
0.0000
 20
0.0000
 30
0.0000
 40
0.0125
 41
0.0125
 70
0
  0
VERTEX
  8
46
 10
74.8603
 20
29.4922
 30
0.0000
 42
1.0000
  0
VERTEX
  8
46
 10
74.8479
 20
29.4922
 30
0.0000
  0
SEQEND
  8
0
  0
POLYLINE
  8
46
 66
1
 10
0.0000
 20
0.0000
 30
0.0000
 40
0.0125
 41
0.0125
 70
0
  0
VERTEX
  8
46
 10
74.8479
 20
28.0467
 30
0.0000
 42
1.0000
  0
VERTEX
  8
46
 10
74.8603
 20
28.0467
 30
0.0000
  0
SEQEND
  8
0
  0
POLYLINE
  8
46
 66
1
 10
0.0000
 20
0.0000
 30
0.0000
 40
0.0250
 41
0.0250
 70
0
  0
VERTEX
  8
46
 10
76.0022
 20
27.5700
 30
0.0000
  0
VERTEX
  8
46
 10
75.7911
 20
27.5918
 30
0.0000
  0
SEQEND
  8
0
  0
POLYLINE
  8
46
 66
1
 10
0.0000
 20
0.0000
 30
0.0000
 40
0.0125
 41
0.0125
 70
0
  0
VERTEX
  8
46
 10
75.7917
 20
27.5980
 30
0.0000
 42
1.0000
  0
VERTEX
  8
46
 10
75.7905
 20
27.5856
 30
0.0000
  0
SEQEND
  8
0
  0
POLYLINE
  8
46
 66
1
 10
0.0000
 20
0.0000
 30
0.0000
 40
0.0125
 41
0.0125
 70
0
  0
VERTEX
  8
46
 10
76.0015
 20
27.5638
 30
0.0000
 42
1.0000
  0
VERTEX
  8
46
 10
76.0028
 20
27.5762
 30
0.0000
  0
SEQEND
  8
0
  0
POLYLINE
  8
46
 66
1
 10
0.0000
 20
0.0000
 30
0.0000
 40
0.0250
 41
0.0250
 70
0
  0
VERTEX
  8
46
 10
76.0022
 20
27.5700
 30
0.0000
  0
VERTEX
  8
46
 10
76.0022
 20
28.6256
 30
0.0000
  0
SEQEND
  8
0
  0
POLYLINE
  8
46
 66
1
 10
0.0000
 20
0.0000
 30
0.0000
 40
0.0125
 41
0.0125
 70
0
  0
VERTEX
  8
46
 10
76.0084
 20
28.6256
 30
0.0000
 42
1.0000
  0
VERTEX
  8
46
 10
75.9959
 20
28.6256
 30
0.0000
  0
SEQEND
  8
0
  0
POLYLINE
  8
46
 66
1
 10
0.0000
 20
0.0000
 30
0.0000
 40
0.0125
 41
0.0125
 70
0
  0
VERTEX
  8
46
 10
75.9959
 20
27.5700
 30
0.0000
 42
1.0000
  0
VERTEX
  8
46
 10
76.0084
 20
27.5700
 30
0.0000
  0
SEQEND
  8
0
  0
POLYLINE
  8
46
 66
1
 10
0.0000
 20
0.0000
 30
0.0000
 40
0.0250
 41
0.0250
 70
0
  0
VERTEX
  8
46
 10
76.0022
 20
30.7782
 30
0.0000
  0
VERTEX
  8
46
 10
75.1368
 20
30.7782
 30
0.0000
  0
SEQEND
  8
0
  0
POLYLINE
  8
46
 66
1
 10
0.0000
 20
0.0000
 30
0.0000
 40
0.0125
 41
0.0125
 70
0
  0
VERTEX
  8
46
 10
75.1368
 20
30.7845
 30
0.0000
 42
1.0000
  0
VERTEX
  8
46
 10
75.1368
 20
30.7720
 30
0.0000
  0
SEQEND
  8
0
  0
POLYLINE
  8
46
 66
1
 10
0.0000
 20
0.0000
 30
0.0000
 40
0.0125
 41
0.0125
 70
0
  0
VERTEX
  8
46
 10
76.0022
 20
30.7720
 30
0.0000
 42
1.0000
  0
VERTEX
  8
46
 10
76.0022
 20
30.7845
 30
0.0000
  0
SEQEND
  8
0
  0
POLYLINE
  8
46
 66
1
 10
0.0000
 20
0.0000
 30
0.0000
 40
0.0250
 41
0.0250
 70
0
  0
VERTEX
  8
46
 10
76.0022
 20
30.7782
 30
0.0000
  0
VERTEX
  8
46
 10
76.0022
 20
31.8336
 30
0.0000
  0
SEQEND
  8
0
  0
POLYLINE
  8
46
 66
1
 10
0.0000
 20
0.0000
 30
0.0000
 40
0.0125
 41
0.0125
 70
0
  0
VERTEX
  8
46
 10
76.0084
 20
31.8336
 30
0.0000
 42
1.0000
  0
VERTEX
  8
46
 10
75.9959
 20
31.8336
 30
0.0000
  0
SEQEND
  8
0
  0
POLYLINE
  8
46
 66
1
 10
0.0000
 20
0.0000
 30
0.0000
 40
0.0125
 41
0.0125
 70
0
  0
VERTEX
  8
46
 10
75.9959
 20
30.7782
 30
0.0000
 42
1.0000
  0
VERTEX
  8
46
 10
76.0084
 20
30.7782
 30
0.0000
  0
SEQEND
  8
0
  0
POLYLINE
  8
46
 66
1
 10
0.0000
 20
0.0000
 30
0.0000
 40
0.0250
 41
0.0250
 70
0
  0
VERTEX
  8
46
 10
77.0354
 20
30.7782
 30
0.0000
  0
VERTEX
  8
46
 10
76.2115
 20
30.7782
 30
0.0000
  0
SEQEND
  8
0
  0
POLYLINE
  8
46
 66
1
 10
0.0000
 20
0.0000
 30
0.0000
 40
0.0125
 41
0.0125
 70
0
  0
VERTEX
  8
46
 10
76.2115
 20
30.7845
 30
0.0000
 42
1.0000
  0
VERTEX
  8
46
 10
76.2115
 20
30.7720
 30
0.0000
  0
SEQEND
  8
0
  0
POLYLINE
  8
46
 66
1
 10
0.0000
 20
0.0000
 30
0.0000
 40
0.0125
 41
0.0125
 70
0
  0
VERTEX
  8
46
 10
77.0354
 20
30.7720
 30
0.0000
 42
1.0000
  0
VERTEX
  8
46
 10
77.0354
 20
30.7845
 30
0.0000
  0
SEQEND
  8
0
  0
POLYLINE
  8
46
 66
1
 10
0.0000
 20
0.0000
 30
0.0000
 40
0.0250
 41
0.0250
 70
0
  0
VERTEX
  8
46
 10
74.0603
 20
29.7018
 30
0.0000
  0
VERTEX
  8
46
 10
78.3626
 20
29.7018
 30
0.0000
  0
SEQEND
  8
0
  0
POLYLINE
  8
46
 66
1
 10
0.0000
 20
0.0000
 30
0.0000
 40
0.0125
 41
0.0125
 70
0
  0
VERTEX
  8
46
 10
78.3626
 20
29.6955
 30
0.0000
 42
1.0000
  0
VERTEX
  8
46
 10
78.3626
 20
29.7080
 30
0.0000
  0
SEQEND
  8
0
  0
POLYLINE
  8
46
 66
1
 10
0.0000
 20
0.0000
 30
0.0000
 40
0.0125
 41
0.0125
 70
0
  0
VERTEX
  8
46
 10
74.0603
 20
29.7080
 30
0.0000
 42
1.0000
  0
VERTEX
  8
46
 10
74.0603
 20
29.6955
 30
0.0000
  0
SEQEND
  8
0
  0
POLYLINE
  8
46
 66
1
 10
0.0000
 20
0.0000
 30
0.0000
 40
0.0250
 41
0.0250
 70
0
  0
VERTEX
  8
46
 10
77.0354
 20
28.6256
 30
0.0000
  0
VERTEX
  8
46
 10
77.0354
 20
29.4922
 30
0.0000
  0
SEQEND
  8
0
  0
POLYLINE
  8
46
 66
1
 10
0.0000
 20
0.0000
 30
0.0000
 40
0.0125
 41
0.0125
 70
0
  0
VERTEX
  8
46
 10
77.0417
 20
29.4922
 30
0.0000
 42
1.0000
  0
VERTEX
  8
46
 10
77.0292
 20
29.4922
 30
0.0000
  0
SEQEND
  8
0
  0
POLYLINE
  8
46
 66
1
 10
0.0000
 20
0.0000
 30
0.0000
 40
0.0125
 41
0.0125
 70
0
  0
VERTEX
  8
46
 10
77.0292
 20
28.6256
 30
0.0000
 42
1.0000
  0
VERTEX
  8
46
 10
77.0417
 20
28.6256
 30
0.0000
  0
SEQEND
  8
0
  0
POLYLINE
  8
46
 66
1
 10
0.0000
 20
0.0000
 30
0.0000
 40
0.0250
 41
0.0250
 70
0
  0
VERTEX
  8
46
 10
77.0354
 20
30.7782
 30
0.0000
  0
VERTEX
  8
46
 10
77.0354
 20
31.1666
 30
0.0000
  0
SEQEND
  8
0
  0
POLYLINE
  8
46
 66
1
 10
0.0000
 20
0.0000
 30
0.0000
 40
0.0125
 41
0.0125
 70
0
  0
VERTEX
  8
46
 10
77.0417
 20
31.1666
 30
0.0000
 42
1.0000
  0
VERTEX
  8
46
 10
77.0292
 20
31.1666
 30
0.0000
  0
SEQEND
  8
0
  0
POLYLINE
  8
46
 66
1
 10
0.0000
 20
0.0000
 30
0.0000
 40
0.0125
 41
0.0125
 70
0
  0
VERTEX
  8
46
 10
77.0292
 20
30.7782
 30
0.0000
 42
1.0000
  0
VERTEX
  8
46
 10
77.0417
 20
30.7782
 30
0.0000
  0
SEQEND
  8
0
  0
POLYLINE
  8
46
 66
1
 10
0.0000
 20
0.0000
 30
0.0000
 40
0.0250
 41
0.0250
 70
0
  0
VERTEX
  8
46
 10
74.6062
 20
28.6256
 30
0.0000
  0
VERTEX
  8
46
 10
74.6062
 20
29.4922
 30
0.0000
  0
SEQEND
  8
0
  0
POLYLINE
  8
46
 66
1
 10
0.0000
 20
0.0000
 30
0.0000
 40
0.0125
 41
0.0125
 70
0
  0
VERTEX
  8
46
 10
74.6124
 20
29.4922
 30
0.0000
 42
1.0000
  0
VERTEX
  8
46
 10
74.5999
 20
29.4922
 30
0.0000
  0
SEQEND
  8
0
  0
POLYLINE
  8
46
 66
1
 10
0.0000
 20
0.0000
 30
0.0000
 40
0.0125
 41
0.0125
 70
0
  0
VERTEX
  8
46
 10
74.5999
 20
28.6256
 30
0.0000
 42
1.0000
  0
VERTEX
  8
46
 10
74.6124
 20
28.6256
 30
0.0000
  0
SEQEND
  8
0
  0
POLYLINE
  8
46
 66
1
 10
0.0000
 20
0.0000
 30
0.0000
 40
0.0250
 41
0.0250
 70
0
  0
VERTEX
  8
46
 10
74.8541
 20
29.9113
 30
0.0000
  0
VERTEX
  8
46
 10
74.8541
 20
31.3569
 30
0.0000
  0
SEQEND
  8
0
  0
POLYLINE
  8
46
 66
1
 10
0.0000
 20
0.0000
 30
0.0000
 40
0.0125
 41
0.0125
 70
0
  0
VERTEX
  8
46
 10
74.8603
 20
31.3569
 30
0.0000
 42
1.0000
  0
VERTEX
  8
46
 10
74.8479
 20
31.3569
 30
0.0000
  0
SEQEND
  8
0
  0
POLYLINE
  8
46
 66
1
 10
0.0000
 20
0.0000
 30
0.0000
 40
0.0125
 41
0.0125
 70
0
  0
VERTEX
  8
46
 10
74.8479
 20
29.9113
 30
0.0000
 42
1.0000
  0
VERTEX
  8
46
 10
74.8603
 20
29.9113
 30
0.0000
  0
SEQEND
  8
0
  0
POLYLINE
  8
46
 66
1
 10
0.0000
 20
0.0000
 30
0.0000
 40
0.0250
 41
0.0250
 70
0
  0
VERTEX
  8
46
 10
74.6062
 20
29.9113
 30
0.0000
  0
VERTEX
  8
46
 10
74.6062
 20
30.7782
 30
0.0000
  0
SEQEND
  8
0
  0
POLYLINE
  8
46
 66
1
 10
0.0000
 20
0.0000
 30
0.0000
 40
0.0125
 41
0.0125
 70
0
  0
VERTEX
  8
46
 10
74.6124
 20
30.7782
 30
0.0000
 42
1.0000
  0
VERTEX
  8
46
 10
74.5999
 20
30.7782
 30
0.0000
  0
SEQEND
  8
0
  0
POLYLINE
  8
46
 66
1
 10
0.0000
 20
0.0000
 30
0.0000
 40
0.0125
 41
0.0125
 70
0
  0
VERTEX
  8
46
 10
74.5999
 20
29.9113
 30
0.0000
 42
1.0000
  0
VERTEX
  8
46
 10
74.6124
 20
29.9113
 30
0.0000
  0
SEQEND
  8
0
  0
POLYLINE
  8
46
 66
1
 10
0.0000
 20
0.0000
 30
0.0000
 40
0.0250
 41
0.0250
 70
0
  0
VERTEX
  8
46
 10
75.1368
 20
28.2372
 30
0.0000
  0
VERTEX
  8
46
 10
75.1368
 20
28.6256
 30
0.0000
  0
SEQEND
  8
0
  0
POLYLINE
  8
46
 66
1
 10
0.0000
 20
0.0000
 30
0.0000
 40
0.0125
 41
0.0125
 70
0
  0
VERTEX
  8
46
 10
75.1431
 20
28.6256
 30
0.0000
 42
1.0000
  0
VERTEX
  8
46
 10
75.1306
 20
28.6256
 30
0.0000
  0
SEQEND
  8
0
  0
POLYLINE
  8
46
 66
1
 10
0.0000
 20
0.0000
 30
0.0000
 40
0.0125
 41
0.0125
 70
0
  0
VERTEX
  8
46
 10
75.1306
 20
28.2372
 30
0.0000
 42
1.0000
  0
VERTEX
  8
46
 10
75.1431
 20
28.2372
 30
0.0000
  0
SEQEND
  8
0
  0
POLYLINE
  8
46
 66
1
 10
0.0000
 20
0.0000
 30
0.0000
 40
0.0250
 41
0.0250
 70
0
  0
VERTEX
  8
46
 10
77.0354
 20
28.2372
 30
0.0000
  0
VERTEX
  8
46
 10
77.0354
 20
28.6256
 30
0.0000
  0
SEQEND
  8
0
  0
POLYLINE
  8
46
 66
1
 10
0.0000
 20
0.0000
 30
0.0000
 40
0.0125
 41
0.0125
 70
0
  0
VERTEX
  8
46
 10
77.0417
 20
28.6256
 30
0.0000
 42
1.0000
  0
VERTEX
  8
46
 10
77.0292
 20
28.6256
 30
0.0000
  0
SEQEND
  8
0
  0
POLYLINE
  8
46
 66
1
 10
0.0000
 20
0.0000
 30
0.0000
 40
0.0125
 41
0.0125
 70
0
  0
VERTEX
  8
46
 10
77.0292
 20
28.2372
 30
0.0000
 42
1.0000
  0
VERTEX
  8
46
 10
77.0417
 20
28.2372
 30
0.0000
  0
SEQEND
  8
0
  0
POLYLINE
  8
46
 66
1
 10
0.0000
 20
0.0000
 30
0.0000
 40
0.0250
 41
0.0250
 70
0
  0
VERTEX
  8
46
 10
77.0354
 20
29.9113
 30
0.0000
  0
VERTEX
  8
46
 10
77.0354
 20
30.7782
 30
0.0000
  0
SEQEND
  8
0
  0
POLYLINE
  8
46
 66
1
 10
0.0000
 20
0.0000
 30
0.0000
 40
0.0125
 41
0.0125
 70
0
  0
VERTEX
  8
46
 10
77.0417
 20
30.7782
 30
0.0000
 42
1.0000
  0
VERTEX
  8
46
 10
77.0292
 20
30.7782
 30
0.0000
  0
SEQEND
  8
0
  0
POLYLINE
  8
46
 66
1
 10
0.0000
 20
0.0000
 30
0.0000
 40
0.0125
 41
0.0125
 70
0
  0
VERTEX
  8
46
 10
77.0292
 20
29.9113
 30
0.0000
 42
1.0000
  0
VERTEX
  8
46
 10
77.0417
 20
29.9113
 30
0.0000
  0
SEQEND
  8
0
  0
POLYLINE
  8
46
 66
1
 10
0.0000
 20
0.0000
 30
0.0000
 40
0.0250
 41
0.0250
 70
0
  0
VERTEX
  8
46
 10
77.5333
 20
29.9113
 30
0.0000
  0
VERTEX
  8
46
 10
77.5333
 20
30.7782
 30
0.0000
  0
SEQEND
  8
0
  0
POLYLINE
  8
46
 66
1
 10
0.0000
 20
0.0000
 30
0.0000
 40
0.0125
 41
0.0125
 70
0
  0
VERTEX
  8
46
 10
77.5395
 20
30.7782
 30
0.0000
 42
1.0000
  0
VERTEX
  8
46
 10
77.5270
 20
30.7782
 30
0.0000
  0
SEQEND
  8
0
  0
POLYLINE
  8
46
 66
1
 10
0.0000
 20
0.0000
 30
0.0000
 40
0.0125
 41
0.0125
 70
0
  0
VERTEX
  8
46
 10
77.5270
 20
29.9113
 30
0.0000
 42
1.0000
  0
VERTEX
  8
46
 10
77.5395
 20
29.9113
 30
0.0000
  0
SEQEND
  8
0
  0
POLYLINE
  8
46
 66
1
 10
0.0000
 20
0.0000
 30
0.0000
 40
0.0250
 41
0.0250
 70
0
  0
VERTEX
  8
46
 10
77.5333
 20
28.6256
 30
0.0000
  0
VERTEX
  8
46
 10
77.5333
 20
29.4922
 30
0.0000
  0
SEQEND
  8
0
  0
POLYLINE
  8
46
 66
1
 10
0.0000
 20
0.0000
 30
0.0000
 40
0.0125
 41
0.0125
 70
0
  0
VERTEX
  8
46
 10
77.5395
 20
29.4922
 30
0.0000
 42
1.0000
  0
VERTEX
  8
46
 10
77.5270
 20
29.4922
 30
0.0000
  0
SEQEND
  8
0
  0
POLYLINE
  8
46
 66
1
 10
0.0000
 20
0.0000
 30
0.0000
 40
0.0125
 41
0.0125
 70
0
  0
VERTEX
  8
46
 10
77.5270
 20
28.6256
 30
0.0000
 42
1.0000
  0
VERTEX
  8
46
 10
77.5395
 20
28.6256
 30
0.0000
  0
SEQEND
  8
0
  0
POLYLINE
  8
46
 66
1
 10
0.0000
 20
0.0000
 30
0.0000
 40
0.0250
 41
0.0250
 70
0
  0
VERTEX
  8
46
 10
77.5333
 20
30.7782
 30
0.0000
  0
VERTEX
  8
46
 10
78.0649
 20
30.7782
 30
0.0000
  0
SEQEND
  8
0
  0
POLYLINE
  8
46
 66
1
 10
0.0000
 20
0.0000
 30
0.0000
 40
0.0125
 41
0.0125
 70
0
  0
VERTEX
  8
46
 10
78.0649
 20
30.7720
 30
0.0000
 42
1.0000
  0
VERTEX
  8
46
 10
78.0649
 20
30.7845
 30
0.0000
  0
SEQEND
  8
0
  0
POLYLINE
  8
46
 66
1
 10
0.0000
 20
0.0000
 30
0.0000
 40
0.0125
 41
0.0125
 70
0
  0
VERTEX
  8
46
 10
77.5333
 20
30.7845
 30
0.0000
 42
1.0000
  0
VERTEX
  8
46
 10
77.5333
 20
30.7720
 30
0.0000
  0
SEQEND
  8
0
  0
POLYLINE
  8
46
 66
1
 10
0.0000
 20
0.0000
 30
0.0000
 40
0.0250
 41
0.0250
 70
0
  0
VERTEX
  8
46
 10
77.5333
 20
28.6256
 30
0.0000
  0
VERTEX
  8
46
 10
78.0649
 20
28.6256
 30
0.0000
  0
SEQEND
  8
0
  0
POLYLINE
  8
46
 66
1
 10
0.0000
 20
0.0000
 30
0.0000
 40
0.0125
 41
0.0125
 70
0
  0
VERTEX
  8
46
 10
78.0649
 20
28.6193
 30
0.0000
 42
1.0000
  0
VERTEX
  8
46
 10
78.0649
 20
28.6318
 30
0.0000
  0
SEQEND
  8
0
  0
POLYLINE
  8
46
 66
1
 10
0.0000
 20
0.0000
 30
0.0000
 40
0.0125
 41
0.0125
 70
0
  0
VERTEX
  8
46
 10
77.5333
 20
28.6318
 30
0.0000
 42
1.0000
  0
VERTEX
  8
46
 10
77.5333
 20
28.6193
 30
0.0000
  0
SEQEND
  8
0
  0
ENDSEC
  0
EOF
