  0
SECTION
  2
HEADER
  9
$ACADVER
  1
AC1009
  9
$FILLMODE
 70
1
  9
$EXTMIN
 10
-0.2032
 20
-0.5500
 30
0.0000
  9
$EXTMAX
 10
48.8100
 20
45.9232
 30
0.0000
  0
ENDSEC
  0
SECTION
  2
TABLES
  0
TABLE
  2
LTYPE
 70
1
  0
LTYPE
  2
CONTINUOUS
 70
64
  3
Solid line
 72
65
 73
0
 40
0
  0
ENDTAB
  0
TABLE
  2
LAYER
 70
255
  0
LAYER
  2
50
 70
64
 62
40
  6
CONTINUOUS
  0
ENDTAB
  0
ENDSEC
  0
SECTION
  2
BLOCKS
  0
BLOCK
  8
0
  2
RECT
 70
64
 10
0.0000
 20
0.0000
 30
0.0000
  3
RECT
  0
SOLID
  8
0
 10
-0.5000
 20
-0.5000
 30
0.0000
 11
0.5000
 21
-0.5000
 31
0.0000
 12
-0.5000
 22
0.5000
 32
0.0000
 13
0.5000
 23
0.5000
 33
0.0000
  0
ENDBLK
  8
0
  0
BLOCK
  8
0
  2
PIE
 70
64
 10
0.0000
 20
0.0000
 30
0.0000
  3
PIE
  0
POLYLINE
  8
0
 66
1
 10
0.0000
 20
0.0000
 30
0.0000
 40
0.5000
 41
0.5000
 70
0
  0
VERTEX
  8
0
 10
0.0000
 20
-0.2500
 30
0.0000
 42
1.0000
  0
VERTEX
  8
0
 10
0.0000
 20
0.2500
 30
0.0000
 42
1.0000
  0
VERTEX
  8
0
 10
0.0000
 20
-0.2500
 30
0.0000
  0
SEQEND
  8
0
  0
ENDBLK
  8
0
  0
BLOCK
  8
0
  2
OCTAGONP
 70
64
 10
0.0000
 20
0.0000
 30
0.0000
  3
OCTAGONP
  0
POLYLINE
  8
0
 66
1
 10
0.0000
 20
0.0000
 30
0.0000
 40
0.5000
 41
0.5000
 70
0
  0
VERTEX
  8
0
 10
-0.2500
 20
-0.1036
 30
0.0000
  0
VERTEX
  8
0
 10
-0.2500
 20
0.1036
 30
0.0000
  0
VERTEX
  8
0
 10
-0.1036
 20
0.2500
 30
0.0000
  0
VERTEX
  8
0
 10
0.1036
 20
0.2500
 30
0.0000
  0
VERTEX
  8
0
 10
0.2500
 20
0.1036
 30
0.0000
  0
VERTEX
  8
0
 10
0.2500
 20
-0.1036
 30
0.0000
  0
VERTEX
  8
0
 10
0.1036
 20
-0.2500
 30
0.0000
  0
VERTEX
  8
0
 10
-0.1036
 20
-0.2500
 30
0.0000
  0
VERTEX
  8
0
 10
-0.2500
 20
-0.1036
 30
0.0000
  0
VERTEX
  8
0
 10
-0.2500
 20
0.1036
 30
0.0000
  0
SEQEND
  8
0
  0
ENDBLK
  8
0
  0
BLOCK
  8
0
  2
SQUAREP
 70
64
 10
0.0000
 20
0.0000
 30
0.0000
  3
SQUAREP
  0
SOLID
  8
0
 10
-0.5000
 20
-0.5000
 30
0.0000
 11
0.5000
 21
-0.5000
 31
0.0000
 12
-0.5000
 22
0.5000
 32
0.0000
 13
0.5000
 23
0.5000
 33
0.0000
  0
ENDBLK
  8
0
  0
BLOCK
  8
0
  2
ROUNDP
 70
64
 10
0.0000
 20
0.0000
 30
0.0000
  3
ROUNDP
  0
POLYLINE
  8
0
 66
1
 10
0.0000
 20
0.0000
 30
0.0000
 40
0.5000
 41
0.5000
 70
0
  0
VERTEX
  8
0
 10
0.0000
 20
-0.2500
 30
0.0000
 42
1.0000
  0
VERTEX
  8
0
 10
0.0000
 20
0.2500
 30
0.0000
 42
1.0000
  0
VERTEX
  8
0
 10
0.0000
 20
-0.2500
 30
0.0000
  0
SEQEND
  8
0
  0
ENDBLK
  8
0
  0
BLOCK
  8
0
  2
ANNULUSP
 70
64
 10
0.0000
 20
0.0000
 30
0.0000
  3
ANNULUSP
  0
POLYLINE
  8
0
 66
1
 10
0.0000
 20
0.0000
 30
0.0000
 40
0.5000
 41
0.5000
 70
0
  0
VERTEX
  8
0
 10
0.0000
 20
-0.2500
 30
0.0000
 42
1.0000
  0
VERTEX
  8
0
 10
0.0000
 20
0.2500
 30
0.0000
 42
1.0000
  0
VERTEX
  8
0
 10
0.0000
 20
-0.2500
 30
0.0000
  0
SEQEND
  8
0
  0
ENDBLK
  8
0
  0
BLOCK
  8
0
  2
THERMALP
 70
64
 10
0.0000
 20
0.0000
 30
0.0000
  3
THERMALP
  0
POLYLINE
  8
0
 66
1
 10
0.0000
 20
0.0000
 30
0.0000
 40
0.1000
 41
0.1000
 70
0
  0
VERTEX
  8
0
 10
-0.2379
 20
0.4500
 30
0.0000
  0
VERTEX
  8
0
 10
0.2379
 20
0.4500
 30
0.0000
  0
SEQEND
  8
0
  0
POLYLINE
  8
0
 66
1
 10
0.0000
 20
0.0000
 30
0.0000
 40
0.0500
 41
0.0500
 70
0
  0
VERTEX
  8
0
 10
0.2379
 20
0.4250
 30
0.0000
 42
1.0000
  0
VERTEX
  8
0
 10
0.2379
 20
0.4750
 30
0.0000
  0
SEQEND
  8
0
  0
POLYLINE
  8
0
 66
1
 10
0.0000
 20
0.0000
 30
0.0000
 40
0.0500
 41
0.0500
 70
0
  0
VERTEX
  8
0
 10
-0.2379
 20
0.4750
 30
0.0000
 42
1.0000
  0
VERTEX
  8
0
 10
-0.2379
 20
0.4250
 30
0.0000
  0
SEQEND
  8
0
  0
POLYLINE
  8
0
 66
1
 10
0.0000
 20
0.0000
 30
0.0000
 40
0.1000
 41
0.1000
 70
0
  0
VERTEX
  8
0
 10
0.4500
 20
0.2379
 30
0.0000
  0
VERTEX
  8
0
 10
0.4500
 20
-0.2379
 30
0.0000
  0
SEQEND
  8
0
  0
POLYLINE
  8
0
 66
1
 10
0.0000
 20
0.0000
 30
0.0000
 40
0.0500
 41
0.0500
 70
0
  0
VERTEX
  8
0
 10
0.4250
 20
-0.2379
 30
0.0000
 42
1.0000
  0
VERTEX
  8
0
 10
0.4750
 20
-0.2379
 30
0.0000
  0
SEQEND
  8
0
  0
POLYLINE
  8
0
 66
1
 10
0.0000
 20
0.0000
 30
0.0000
 40
0.0500
 41
0.0500
 70
0
  0
VERTEX
  8
0
 10
0.4750
 20
0.2379
 30
0.0000
 42
1.0000
  0
VERTEX
  8
0
 10
0.4250
 20
0.2379
 30
0.0000
  0
SEQEND
  8
0
  0
POLYLINE
  8
0
 66
1
 10
0.0000
 20
0.0000
 30
0.0000
 40
0.1000
 41
0.1000
 70
0
  0
VERTEX
  8
0
 10
0.2379
 20
-0.4500
 30
0.0000
  0
VERTEX
  8
0
 10
-0.2379
 20
-0.4500
 30
0.0000
  0
SEQEND
  8
0
  0
POLYLINE
  8
0
 66
1
 10
0.0000
 20
0.0000
 30
0.0000
 40
0.0500
 41
0.0500
 70
0
  0
VERTEX
  8
0
 10
-0.2379
 20
-0.4250
 30
0.0000
 42
1.0000
  0
VERTEX
  8
0
 10
-0.2379
 20
-0.4750
 30
0.0000
  0
SEQEND
  8
0
  0
POLYLINE
  8
0
 66
1
 10
0.0000
 20
0.0000
 30
0.0000
 40
0.0500
 41
0.0500
 70
0
  0
VERTEX
  8
0
 10
0.2379
 20
-0.4750
 30
0.0000
 42
1.0000
  0
VERTEX
  8
0
 10
0.2379
 20
-0.4250
 30
0.0000
  0
SEQEND
  8
0
  0
POLYLINE
  8
0
 66
1
 10
0.0000
 20
0.0000
 30
0.0000
 40
0.1000
 41
0.1000
 70
0
  0
VERTEX
  8
0
 10
-0.4500
 20
-0.2379
 30
0.0000
  0
VERTEX
  8
0
 10
-0.4500
 20
0.2379
 30
0.0000
  0
SEQEND
  8
0
  0
POLYLINE
  8
0
 66
1
 10
0.0000
 20
0.0000
 30
0.0000
 40
0.0500
 41
0.0500
 70
0
  0
VERTEX
  8
0
 10
-0.4250
 20
0.2379
 30
0.0000
 42
1.0000
  0
VERTEX
  8
0
 10
-0.4750
 20
0.2379
 30
0.0000
  0
SEQEND
  8
0
  0
POLYLINE
  8
0
 66
1
 10
0.0000
 20
0.0000
 30
0.0000
 40
0.0500
 41
0.0500
 70
0
  0
VERTEX
  8
0
 10
-0.4750
 20
-0.2379
 30
0.0000
 42
1.0000
  0
VERTEX
  8
0
 10
-0.4250
 20
-0.2379
 30
0.0000
  0
SEQEND
  8
0
  0
ENDBLK
  8
0
  0
BLOCK
  8
0
  2
OCTAGONV
 70
64
 10
0.0000
 20
0.0000
 30
0.0000
  3
OCTAGONV
  0
POLYLINE
  8
0
 66
1
 10
0.0000
 20
0.0000
 30
0.0000
 40
0.5000
 41
0.5000
 70
0
  0
VERTEX
  8
0
 10
-0.2500
 20
-0.1036
 30
0.0000
  0
VERTEX
  8
0
 10
-0.2500
 20
0.1036
 30
0.0000
  0
VERTEX
  8
0
 10
-0.1036
 20
0.2500
 30
0.0000
  0
VERTEX
  8
0
 10
0.1036
 20
0.2500
 30
0.0000
  0
VERTEX
  8
0
 10
0.2500
 20
0.1036
 30
0.0000
  0
VERTEX
  8
0
 10
0.2500
 20
-0.1036
 30
0.0000
  0
VERTEX
  8
0
 10
0.1036
 20
-0.2500
 30
0.0000
  0
VERTEX
  8
0
 10
-0.1036
 20
-0.2500
 30
0.0000
  0
VERTEX
  8
0
 10
-0.2500
 20
-0.1036
 30
0.0000
  0
VERTEX
  8
0
 10
-0.2500
 20
0.1036
 30
0.0000
  0
SEQEND
  8
0
  0
ENDBLK
  8
0
  0
BLOCK
  8
0
  2
SQUAREV
 70
64
 10
0.0000
 20
0.0000
 30
0.0000
  3
SQUAREV
  0
SOLID
  8
0
 10
-0.5000
 20
-0.5000
 30
0.0000
 11
0.5000
 21
-0.5000
 31
0.0000
 12
-0.5000
 22
0.5000
 32
0.0000
 13
0.5000
 23
0.5000
 33
0.0000
  0
ENDBLK
  8
0
  0
BLOCK
  8
0
  2
ROUNDV
 70
64
 10
0.0000
 20
0.0000
 30
0.0000
  3
ROUNDV
  0
POLYLINE
  8
0
 66
1
 10
0.0000
 20
0.0000
 30
0.0000
 40
0.5000
 41
0.5000
 70
0
  0
VERTEX
  8
0
 10
0.0000
 20
-0.2500
 30
0.0000
 42
1.0000
  0
VERTEX
  8
0
 10
0.0000
 20
0.2500
 30
0.0000
 42
1.0000
  0
VERTEX
  8
0
 10
0.0000
 20
-0.2500
 30
0.0000
  0
SEQEND
  8
0
  0
ENDBLK
  8
0
  0
BLOCK
  8
0
  2
ANNULUSV
 70
64
 10
0.0000
 20
0.0000
 30
0.0000
  3
ANNULUSV
  0
POLYLINE
  8
0
 66
1
 10
0.0000
 20
0.0000
 30
0.0000
 40
0.5000
 41
0.5000
 70
0
  0
VERTEX
  8
0
 10
0.0000
 20
-0.2500
 30
0.0000
 42
1.0000
  0
VERTEX
  8
0
 10
0.0000
 20
0.2500
 30
0.0000
 42
1.0000
  0
VERTEX
  8
0
 10
0.0000
 20
-0.2500
 30
0.0000
  0
SEQEND
  8
0
  0
ENDBLK
  8
0
  0
BLOCK
  8
0
  2
THERMALV
 70
64
 10
0.0000
 20
0.0000
 30
0.0000
  3
THERMALV
  0
POLYLINE
  8
0
 66
1
 10
0.0000
 20
0.0000
 30
0.0000
 40
0.1000
 41
0.1000
 70
0
  0
VERTEX
  8
0
 10
-0.2379
 20
0.4500
 30
0.0000
  0
VERTEX
  8
0
 10
0.2379
 20
0.4500
 30
0.0000
  0
SEQEND
  8
0
  0
POLYLINE
  8
0
 66
1
 10
0.0000
 20
0.0000
 30
0.0000
 40
0.0500
 41
0.0500
 70
0
  0
VERTEX
  8
0
 10
0.2379
 20
0.4250
 30
0.0000
 42
1.0000
  0
VERTEX
  8
0
 10
0.2379
 20
0.4750
 30
0.0000
  0
SEQEND
  8
0
  0
POLYLINE
  8
0
 66
1
 10
0.0000
 20
0.0000
 30
0.0000
 40
0.0500
 41
0.0500
 70
0
  0
VERTEX
  8
0
 10
-0.2379
 20
0.4750
 30
0.0000
 42
1.0000
  0
VERTEX
  8
0
 10
-0.2379
 20
0.4250
 30
0.0000
  0
SEQEND
  8
0
  0
POLYLINE
  8
0
 66
1
 10
0.0000
 20
0.0000
 30
0.0000
 40
0.1000
 41
0.1000
 70
0
  0
VERTEX
  8
0
 10
0.4500
 20
0.2379
 30
0.0000
  0
VERTEX
  8
0
 10
0.4500
 20
-0.2379
 30
0.0000
  0
SEQEND
  8
0
  0
POLYLINE
  8
0
 66
1
 10
0.0000
 20
0.0000
 30
0.0000
 40
0.0500
 41
0.0500
 70
0
  0
VERTEX
  8
0
 10
0.4250
 20
-0.2379
 30
0.0000
 42
1.0000
  0
VERTEX
  8
0
 10
0.4750
 20
-0.2379
 30
0.0000
  0
SEQEND
  8
0
  0
POLYLINE
  8
0
 66
1
 10
0.0000
 20
0.0000
 30
0.0000
 40
0.0500
 41
0.0500
 70
0
  0
VERTEX
  8
0
 10
0.4750
 20
0.2379
 30
0.0000
 42
1.0000
  0
VERTEX
  8
0
 10
0.4250
 20
0.2379
 30
0.0000
  0
SEQEND
  8
0
  0
POLYLINE
  8
0
 66
1
 10
0.0000
 20
0.0000
 30
0.0000
 40
0.1000
 41
0.1000
 70
0
  0
VERTEX
  8
0
 10
0.2379
 20
-0.4500
 30
0.0000
  0
VERTEX
  8
0
 10
-0.2379
 20
-0.4500
 30
0.0000
  0
SEQEND
  8
0
  0
POLYLINE
  8
0
 66
1
 10
0.0000
 20
0.0000
 30
0.0000
 40
0.0500
 41
0.0500
 70
0
  0
VERTEX
  8
0
 10
-0.2379
 20
-0.4250
 30
0.0000
 42
1.0000
  0
VERTEX
  8
0
 10
-0.2379
 20
-0.4750
 30
0.0000
  0
SEQEND
  8
0
  0
POLYLINE
  8
0
 66
1
 10
0.0000
 20
0.0000
 30
0.0000
 40
0.0500
 41
0.0500
 70
0
  0
VERTEX
  8
0
 10
0.2379
 20
-0.4750
 30
0.0000
 42
1.0000
  0
VERTEX
  8
0
 10
0.2379
 20
-0.4250
 30
0.0000
  0
SEQEND
  8
0
  0
POLYLINE
  8
0
 66
1
 10
0.0000
 20
0.0000
 30
0.0000
 40
0.1000
 41
0.1000
 70
0
  0
VERTEX
  8
0
 10
-0.4500
 20
-0.2379
 30
0.0000
  0
VERTEX
  8
0
 10
-0.4500
 20
0.2379
 30
0.0000
  0
SEQEND
  8
0
  0
POLYLINE
  8
0
 66
1
 10
0.0000
 20
0.0000
 30
0.0000
 40
0.0500
 41
0.0500
 70
0
  0
VERTEX
  8
0
 10
-0.4250
 20
0.2379
 30
0.0000
 42
1.0000
  0
VERTEX
  8
0
 10
-0.4750
 20
0.2379
 30
0.0000
  0
SEQEND
  8
0
  0
POLYLINE
  8
0
 66
1
 10
0.0000
 20
0.0000
 30
0.0000
 40
0.0500
 41
0.0500
 70
0
  0
VERTEX
  8
0
 10
-0.4750
 20
-0.2379
 30
0.0000
 42
1.0000
  0
VERTEX
  8
0
 10
-0.4250
 20
-0.2379
 30
0.0000
  0
SEQEND
  8
0
  0
ENDBLK
  8
0
  0
ENDSEC
  0
SECTION
  2
ENTITIES
  0
POLYLINE
  8
50
 66
1
 10
0.0000
 20
0.0000
 30
0.0000
 40
0.0010
 41
0.0010
 70
0
  0
VERTEX
  8
50
 10
0.2600
 20
0.0000
 30
0.0000
  0
VERTEX
  8
50
 10
47.7600
 20
0.0000
 30
0.0000
  0
SEQEND
  8
0
  0
POLYLINE
  8
50
 66
1
 10
0.0000
 20
0.0000
 30
0.0000
 40
0.0005
 41
0.0005
 70
0
  0
VERTEX
  8
50
 10
47.7600
 20
-0.0003
 30
0.0000
 42
1.0000
  0
VERTEX
  8
50
 10
47.7600
 20
0.0003
 30
0.0000
  0
SEQEND
  8
0
  0
POLYLINE
  8
50
 66
1
 10
0.0000
 20
0.0000
 30
0.0000
 40
0.0005
 41
0.0005
 70
0
  0
VERTEX
  8
50
 10
0.2600
 20
0.0003
 30
0.0000
 42
1.0000
  0
VERTEX
  8
50
 10
0.2600
 20
-0.0003
 30
0.0000
  0
SEQEND
  8
0
  0
POLYLINE
  8
50
 66
1
 10
0.0000
 20
0.0000
 30
0.0000
 40
0.0010
 41
0.0010
 70
0
  0
VERTEX
  8
50
 10
47.7600
 20
0.0000
 30
0.0000
  0
VERTEX
  8
50
 10
47.7600
 20
45.0000
 30
0.0000
  0
SEQEND
  8
0
  0
POLYLINE
  8
50
 66
1
 10
0.0000
 20
0.0000
 30
0.0000
 40
0.0005
 41
0.0005
 70
0
  0
VERTEX
  8
50
 10
47.7603
 20
45.0000
 30
0.0000
 42
1.0000
  0
VERTEX
  8
50
 10
47.7598
 20
45.0000
 30
0.0000
  0
SEQEND
  8
0
  0
POLYLINE
  8
50
 66
1
 10
0.0000
 20
0.0000
 30
0.0000
 40
0.0005
 41
0.0005
 70
0
  0
VERTEX
  8
50
 10
47.7598
 20
0.0000
 30
0.0000
 42
1.0000
  0
VERTEX
  8
50
 10
47.7603
 20
0.0000
 30
0.0000
  0
SEQEND
  8
0
  0
POLYLINE
  8
50
 66
1
 10
0.0000
 20
0.0000
 30
0.0000
 40
0.0010
 41
0.0010
 70
0
  0
VERTEX
  8
50
 10
47.7600
 20
45.0000
 30
0.0000
  0
VERTEX
  8
50
 10
0.2600
 20
45.0000
 30
0.0000
  0
SEQEND
  8
0
  0
POLYLINE
  8
50
 66
1
 10
0.0000
 20
0.0000
 30
0.0000
 40
0.0005
 41
0.0005
 70
0
  0
VERTEX
  8
50
 10
0.2600
 20
45.0003
 30
0.0000
 42
1.0000
  0
VERTEX
  8
50
 10
0.2600
 20
44.9997
 30
0.0000
  0
SEQEND
  8
0
  0
POLYLINE
  8
50
 66
1
 10
0.0000
 20
0.0000
 30
0.0000
 40
0.0005
 41
0.0005
 70
0
  0
VERTEX
  8
50
 10
47.7600
 20
44.9997
 30
0.0000
 42
1.0000
  0
VERTEX
  8
50
 10
47.7600
 20
45.0003
 30
0.0000
  0
SEQEND
  8
0
  0
POLYLINE
  8
50
 66
1
 10
0.0000
 20
0.0000
 30
0.0000
 40
0.0010
 41
0.0010
 70
0
  0
VERTEX
  8
50
 10
0.2600
 20
45.0000
 30
0.0000
  0
VERTEX
  8
50
 10
0.2600
 20
0.0000
 30
0.0000
  0
SEQEND
  8
0
  0
POLYLINE
  8
50
 66
1
 10
0.0000
 20
0.0000
 30
0.0000
 40
0.0005
 41
0.0005
 70
0
  0
VERTEX
  8
50
 10
0.2598
 20
0.0000
 30
0.0000
 42
1.0000
  0
VERTEX
  8
50
 10
0.2602
 20
0.0000
 30
0.0000
  0
SEQEND
  8
0
  0
POLYLINE
  8
50
 66
1
 10
0.0000
 20
0.0000
 30
0.0000
 40
0.0005
 41
0.0005
 70
0
  0
VERTEX
  8
50
 10
0.2602
 20
45.0000
 30
0.0000
 42
1.0000
  0
VERTEX
  8
50
 10
0.2598
 20
45.0000
 30
0.0000
  0
SEQEND
  8
0
  0
POLYLINE
  8
50
 66
1
 10
0.0000
 20
0.0000
 30
0.0000
 40
0.0010
 41
0.0010
 70
0
  0
VERTEX
  8
50
 10
9.7790
 20
37.0840
 30
0.0000
  0
VERTEX
  8
50
 10
9.7790
 20
35.1155
 30
0.0000
  0
SEQEND
  8
0
  0
POLYLINE
  8
50
 66
1
 10
0.0000
 20
0.0000
 30
0.0000
 40
0.0005
 41
0.0005
 70
0
  0
VERTEX
  8
50
 10
9.7788
 20
35.1155
 30
0.0000
 42
1.0000
  0
VERTEX
  8
50
 10
9.7792
 20
35.1155
 30
0.0000
  0
SEQEND
  8
0
  0
POLYLINE
  8
50
 66
1
 10
0.0000
 20
0.0000
 30
0.0000
 40
0.0005
 41
0.0005
 70
0
  0
VERTEX
  8
50
 10
9.7792
 20
37.0840
 30
0.0000
 42
1.0000
  0
VERTEX
  8
50
 10
9.7788
 20
37.0840
 30
0.0000
  0
SEQEND
  8
0
  0
POLYLINE
  8
50
 66
1
 10
0.0000
 20
0.0000
 30
0.0000
 40
0.0010
 41
0.0010
 70
0
  0
VERTEX
  8
50
 10
9.7790
 20
35.1155
 30
0.0000
  0
VERTEX
  8
50
 10
19.1770
 20
35.1155
 30
0.0000
  0
SEQEND
  8
0
  0
POLYLINE
  8
50
 66
1
 10
0.0000
 20
0.0000
 30
0.0000
 40
0.0005
 41
0.0005
 70
0
  0
VERTEX
  8
50
 10
19.1770
 20
35.1153
 30
0.0000
 42
1.0000
  0
VERTEX
  8
50
 10
19.1770
 20
35.1158
 30
0.0000
  0
SEQEND
  8
0
  0
POLYLINE
  8
50
 66
1
 10
0.0000
 20
0.0000
 30
0.0000
 40
0.0005
 41
0.0005
 70
0
  0
VERTEX
  8
50
 10
9.7790
 20
35.1158
 30
0.0000
 42
1.0000
  0
VERTEX
  8
50
 10
9.7790
 20
35.1153
 30
0.0000
  0
SEQEND
  8
0
  0
POLYLINE
  8
50
 66
1
 10
0.0000
 20
0.0000
 30
0.0000
 40
0.0010
 41
0.0010
 70
0
  0
VERTEX
  8
50
 10
19.1770
 20
35.1155
 30
0.0000
  0
VERTEX
  8
50
 10
19.1770
 20
37.0840
 30
0.0000
  0
SEQEND
  8
0
  0
POLYLINE
  8
50
 66
1
 10
0.0000
 20
0.0000
 30
0.0000
 40
0.0005
 41
0.0005
 70
0
  0
VERTEX
  8
50
 10
19.1773
 20
37.0840
 30
0.0000
 42
1.0000
  0
VERTEX
  8
50
 10
19.1767
 20
37.0840
 30
0.0000
  0
SEQEND
  8
0
  0
POLYLINE
  8
50
 66
1
 10
0.0000
 20
0.0000
 30
0.0000
 40
0.0005
 41
0.0005
 70
0
  0
VERTEX
  8
50
 10
19.1767
 20
35.1155
 30
0.0000
 42
1.0000
  0
VERTEX
  8
50
 10
19.1773
 20
35.1155
 30
0.0000
  0
SEQEND
  8
0
  0
POLYLINE
  8
50
 66
1
 10
0.0000
 20
0.0000
 30
0.0000
 40
0.0010
 41
0.0010
 70
0
  0
VERTEX
  8
50
 10
19.1770
 20
37.0840
 30
0.0000
  0
VERTEX
  8
50
 10
9.7790
 20
37.0840
 30
0.0000
  0
SEQEND
  8
0
  0
POLYLINE
  8
50
 66
1
 10
0.0000
 20
0.0000
 30
0.0000
 40
0.0005
 41
0.0005
 70
0
  0
VERTEX
  8
50
 10
9.7790
 20
37.0843
 30
0.0000
 42
1.0000
  0
VERTEX
  8
50
 10
9.7790
 20
37.0838
 30
0.0000
  0
SEQEND
  8
0
  0
POLYLINE
  8
50
 66
1
 10
0.0000
 20
0.0000
 30
0.0000
 40
0.0005
 41
0.0005
 70
0
  0
VERTEX
  8
50
 10
19.1770
 20
37.0838
 30
0.0000
 42
1.0000
  0
VERTEX
  8
50
 10
19.1770
 20
37.0843
 30
0.0000
  0
SEQEND
  8
0
  0
POLYLINE
  8
50
 66
1
 10
0.0000
 20
0.0000
 30
0.0000
 40
0.0010
 41
0.0010
 70
0
  0
VERTEX
  8
50
 10
3.7541
 20
33.5864
 30
0.0000
  0
VERTEX
  8
50
 10
3.7541
 20
31.6179
 30
0.0000
  0
SEQEND
  8
0
  0
POLYLINE
  8
50
 66
1
 10
0.0000
 20
0.0000
 30
0.0000
 40
0.0005
 41
0.0005
 70
0
  0
VERTEX
  8
50
 10
3.7539
 20
31.6179
 30
0.0000
 42
1.0000
  0
VERTEX
  8
50
 10
3.7544
 20
31.6179
 30
0.0000
  0
SEQEND
  8
0
  0
POLYLINE
  8
50
 66
1
 10
0.0000
 20
0.0000
 30
0.0000
 40
0.0005
 41
0.0005
 70
0
  0
VERTEX
  8
50
 10
3.7544
 20
33.5864
 30
0.0000
 42
1.0000
  0
VERTEX
  8
50
 10
3.7539
 20
33.5864
 30
0.0000
  0
SEQEND
  8
0
  0
POLYLINE
  8
50
 66
1
 10
0.0000
 20
0.0000
 30
0.0000
 40
0.0010
 41
0.0010
 70
0
  0
VERTEX
  8
50
 10
3.7541
 20
31.6179
 30
0.0000
  0
VERTEX
  8
50
 10
13.1521
 20
31.6179
 30
0.0000
  0
SEQEND
  8
0
  0
POLYLINE
  8
50
 66
1
 10
0.0000
 20
0.0000
 30
0.0000
 40
0.0005
 41
0.0005
 70
0
  0
VERTEX
  8
50
 10
13.1521
 20
31.6177
 30
0.0000
 42
1.0000
  0
VERTEX
  8
50
 10
13.1521
 20
31.6182
 30
0.0000
  0
SEQEND
  8
0
  0
POLYLINE
  8
50
 66
1
 10
0.0000
 20
0.0000
 30
0.0000
 40
0.0005
 41
0.0005
 70
0
  0
VERTEX
  8
50
 10
3.7541
 20
31.6182
 30
0.0000
 42
1.0000
  0
VERTEX
  8
50
 10
3.7541
 20
31.6177
 30
0.0000
  0
SEQEND
  8
0
  0
POLYLINE
  8
50
 66
1
 10
0.0000
 20
0.0000
 30
0.0000
 40
0.0010
 41
0.0010
 70
0
  0
VERTEX
  8
50
 10
13.1521
 20
31.6179
 30
0.0000
  0
VERTEX
  8
50
 10
13.1521
 20
33.5864
 30
0.0000
  0
SEQEND
  8
0
  0
POLYLINE
  8
50
 66
1
 10
0.0000
 20
0.0000
 30
0.0000
 40
0.0005
 41
0.0005
 70
0
  0
VERTEX
  8
50
 10
13.1524
 20
33.5864
 30
0.0000
 42
1.0000
  0
VERTEX
  8
50
 10
13.1519
 20
33.5864
 30
0.0000
  0
SEQEND
  8
0
  0
POLYLINE
  8
50
 66
1
 10
0.0000
 20
0.0000
 30
0.0000
 40
0.0005
 41
0.0005
 70
0
  0
VERTEX
  8
50
 10
13.1519
 20
31.6179
 30
0.0000
 42
1.0000
  0
VERTEX
  8
50
 10
13.1524
 20
31.6179
 30
0.0000
  0
SEQEND
  8
0
  0
POLYLINE
  8
50
 66
1
 10
0.0000
 20
0.0000
 30
0.0000
 40
0.0010
 41
0.0010
 70
0
  0
VERTEX
  8
50
 10
13.1521
 20
33.5864
 30
0.0000
  0
VERTEX
  8
50
 10
3.7541
 20
33.5864
 30
0.0000
  0
SEQEND
  8
0
  0
POLYLINE
  8
50
 66
1
 10
0.0000
 20
0.0000
 30
0.0000
 40
0.0005
 41
0.0005
 70
0
  0
VERTEX
  8
50
 10
3.7541
 20
33.5867
 30
0.0000
 42
1.0000
  0
VERTEX
  8
50
 10
3.7541
 20
33.5862
 30
0.0000
  0
SEQEND
  8
0
  0
POLYLINE
  8
50
 66
1
 10
0.0000
 20
0.0000
 30
0.0000
 40
0.0005
 41
0.0005
 70
0
  0
VERTEX
  8
50
 10
13.1521
 20
33.5862
 30
0.0000
 42
1.0000
  0
VERTEX
  8
50
 10
13.1521
 20
33.5867
 30
0.0000
  0
SEQEND
  8
0
  0
POLYLINE
  8
50
 66
1
 10
0.0000
 20
0.0000
 30
0.0000
 40
0.0010
 41
0.0010
 70
0
  0
VERTEX
  8
50
 10
9.7536
 20
28.6106
 30
0.0000
  0
VERTEX
  8
50
 10
9.7536
 20
26.6421
 30
0.0000
  0
SEQEND
  8
0
  0
POLYLINE
  8
50
 66
1
 10
0.0000
 20
0.0000
 30
0.0000
 40
0.0005
 41
0.0005
 70
0
  0
VERTEX
  8
50
 10
9.7534
 20
26.6421
 30
0.0000
 42
1.0000
  0
VERTEX
  8
50
 10
9.7538
 20
26.6421
 30
0.0000
  0
SEQEND
  8
0
  0
POLYLINE
  8
50
 66
1
 10
0.0000
 20
0.0000
 30
0.0000
 40
0.0005
 41
0.0005
 70
0
  0
VERTEX
  8
50
 10
9.7538
 20
28.6106
 30
0.0000
 42
1.0000
  0
VERTEX
  8
50
 10
9.7534
 20
28.6106
 30
0.0000
  0
SEQEND
  8
0
  0
POLYLINE
  8
50
 66
1
 10
0.0000
 20
0.0000
 30
0.0000
 40
0.0010
 41
0.0010
 70
0
  0
VERTEX
  8
50
 10
9.7536
 20
26.6421
 30
0.0000
  0
VERTEX
  8
50
 10
19.1516
 20
26.6421
 30
0.0000
  0
SEQEND
  8
0
  0
POLYLINE
  8
50
 66
1
 10
0.0000
 20
0.0000
 30
0.0000
 40
0.0005
 41
0.0005
 70
0
  0
VERTEX
  8
50
 10
19.1516
 20
26.6418
 30
0.0000
 42
1.0000
  0
VERTEX
  8
50
 10
19.1516
 20
26.6423
 30
0.0000
  0
SEQEND
  8
0
  0
POLYLINE
  8
50
 66
1
 10
0.0000
 20
0.0000
 30
0.0000
 40
0.0005
 41
0.0005
 70
0
  0
VERTEX
  8
50
 10
9.7536
 20
26.6423
 30
0.0000
 42
1.0000
  0
VERTEX
  8
50
 10
9.7536
 20
26.6418
 30
0.0000
  0
SEQEND
  8
0
  0
POLYLINE
  8
50
 66
1
 10
0.0000
 20
0.0000
 30
0.0000
 40
0.0010
 41
0.0010
 70
0
  0
VERTEX
  8
50
 10
19.1516
 20
26.6421
 30
0.0000
  0
VERTEX
  8
50
 10
19.1516
 20
28.6106
 30
0.0000
  0
SEQEND
  8
0
  0
POLYLINE
  8
50
 66
1
 10
0.0000
 20
0.0000
 30
0.0000
 40
0.0005
 41
0.0005
 70
0
  0
VERTEX
  8
50
 10
19.1519
 20
28.6106
 30
0.0000
 42
1.0000
  0
VERTEX
  8
50
 10
19.1514
 20
28.6106
 30
0.0000
  0
SEQEND
  8
0
  0
POLYLINE
  8
50
 66
1
 10
0.0000
 20
0.0000
 30
0.0000
 40
0.0005
 41
0.0005
 70
0
  0
VERTEX
  8
50
 10
19.1514
 20
26.6421
 30
0.0000
 42
1.0000
  0
VERTEX
  8
50
 10
19.1519
 20
26.6421
 30
0.0000
  0
SEQEND
  8
0
  0
POLYLINE
  8
50
 66
1
 10
0.0000
 20
0.0000
 30
0.0000
 40
0.0010
 41
0.0010
 70
0
  0
VERTEX
  8
50
 10
19.1516
 20
28.6106
 30
0.0000
  0
VERTEX
  8
50
 10
9.7536
 20
28.6106
 30
0.0000
  0
SEQEND
  8
0
  0
POLYLINE
  8
50
 66
1
 10
0.0000
 20
0.0000
 30
0.0000
 40
0.0005
 41
0.0005
 70
0
  0
VERTEX
  8
50
 10
9.7536
 20
28.6108
 30
0.0000
 42
1.0000
  0
VERTEX
  8
50
 10
9.7536
 20
28.6103
 30
0.0000
  0
SEQEND
  8
0
  0
POLYLINE
  8
50
 66
1
 10
0.0000
 20
0.0000
 30
0.0000
 40
0.0005
 41
0.0005
 70
0
  0
VERTEX
  8
50
 10
19.1516
 20
28.6103
 30
0.0000
 42
1.0000
  0
VERTEX
  8
50
 10
19.1516
 20
28.6108
 30
0.0000
  0
SEQEND
  8
0
  0
POLYLINE
  8
50
 66
1
 10
0.0000
 20
0.0000
 30
0.0000
 40
0.0010
 41
0.0010
 70
0
  0
VERTEX
  8
50
 10
3.7541
 20
26.0960
 30
0.0000
  0
VERTEX
  8
50
 10
3.7541
 20
24.1275
 30
0.0000
  0
SEQEND
  8
0
  0
POLYLINE
  8
50
 66
1
 10
0.0000
 20
0.0000
 30
0.0000
 40
0.0005
 41
0.0005
 70
0
  0
VERTEX
  8
50
 10
3.7539
 20
24.1275
 30
0.0000
 42
1.0000
  0
VERTEX
  8
50
 10
3.7544
 20
24.1275
 30
0.0000
  0
SEQEND
  8
0
  0
POLYLINE
  8
50
 66
1
 10
0.0000
 20
0.0000
 30
0.0000
 40
0.0005
 41
0.0005
 70
0
  0
VERTEX
  8
50
 10
3.7544
 20
26.0960
 30
0.0000
 42
1.0000
  0
VERTEX
  8
50
 10
3.7539
 20
26.0960
 30
0.0000
  0
SEQEND
  8
0
  0
POLYLINE
  8
50
 66
1
 10
0.0000
 20
0.0000
 30
0.0000
 40
0.0010
 41
0.0010
 70
0
  0
VERTEX
  8
50
 10
3.7541
 20
24.1275
 30
0.0000
  0
VERTEX
  8
50
 10
13.1521
 20
24.1275
 30
0.0000
  0
SEQEND
  8
0
  0
POLYLINE
  8
50
 66
1
 10
0.0000
 20
0.0000
 30
0.0000
 40
0.0005
 41
0.0005
 70
0
  0
VERTEX
  8
50
 10
13.1521
 20
24.1272
 30
0.0000
 42
1.0000
  0
VERTEX
  8
50
 10
13.1521
 20
24.1277
 30
0.0000
  0
SEQEND
  8
0
  0
POLYLINE
  8
50
 66
1
 10
0.0000
 20
0.0000
 30
0.0000
 40
0.0005
 41
0.0005
 70
0
  0
VERTEX
  8
50
 10
3.7541
 20
24.1277
 30
0.0000
 42
1.0000
  0
VERTEX
  8
50
 10
3.7541
 20
24.1272
 30
0.0000
  0
SEQEND
  8
0
  0
POLYLINE
  8
50
 66
1
 10
0.0000
 20
0.0000
 30
0.0000
 40
0.0010
 41
0.0010
 70
0
  0
VERTEX
  8
50
 10
13.1521
 20
24.1275
 30
0.0000
  0
VERTEX
  8
50
 10
13.1521
 20
26.0960
 30
0.0000
  0
SEQEND
  8
0
  0
POLYLINE
  8
50
 66
1
 10
0.0000
 20
0.0000
 30
0.0000
 40
0.0005
 41
0.0005
 70
0
  0
VERTEX
  8
50
 10
13.1524
 20
26.0960
 30
0.0000
 42
1.0000
  0
VERTEX
  8
50
 10
13.1519
 20
26.0960
 30
0.0000
  0
SEQEND
  8
0
  0
POLYLINE
  8
50
 66
1
 10
0.0000
 20
0.0000
 30
0.0000
 40
0.0005
 41
0.0005
 70
0
  0
VERTEX
  8
50
 10
13.1519
 20
24.1275
 30
0.0000
 42
1.0000
  0
VERTEX
  8
50
 10
13.1524
 20
24.1275
 30
0.0000
  0
SEQEND
  8
0
  0
POLYLINE
  8
50
 66
1
 10
0.0000
 20
0.0000
 30
0.0000
 40
0.0010
 41
0.0010
 70
0
  0
VERTEX
  8
50
 10
13.1521
 20
26.0960
 30
0.0000
  0
VERTEX
  8
50
 10
3.7541
 20
26.0960
 30
0.0000
  0
SEQEND
  8
0
  0
POLYLINE
  8
50
 66
1
 10
0.0000
 20
0.0000
 30
0.0000
 40
0.0005
 41
0.0005
 70
0
  0
VERTEX
  8
50
 10
3.7541
 20
26.0962
 30
0.0000
 42
1.0000
  0
VERTEX
  8
50
 10
3.7541
 20
26.0957
 30
0.0000
  0
SEQEND
  8
0
  0
POLYLINE
  8
50
 66
1
 10
0.0000
 20
0.0000
 30
0.0000
 40
0.0005
 41
0.0005
 70
0
  0
VERTEX
  8
50
 10
13.1521
 20
26.0957
 30
0.0000
 42
1.0000
  0
VERTEX
  8
50
 10
13.1521
 20
26.0962
 30
0.0000
  0
SEQEND
  8
0
  0
POLYLINE
  8
50
 66
1
 10
0.0000
 20
0.0000
 30
0.0000
 40
0.0010
 41
0.0010
 70
0
  0
VERTEX
  8
50
 10
3.7617
 20
18.5852
 30
0.0000
  0
VERTEX
  8
50
 10
3.7617
 20
16.6167
 30
0.0000
  0
SEQEND
  8
0
  0
POLYLINE
  8
50
 66
1
 10
0.0000
 20
0.0000
 30
0.0000
 40
0.0005
 41
0.0005
 70
0
  0
VERTEX
  8
50
 10
3.7615
 20
16.6167
 30
0.0000
 42
1.0000
  0
VERTEX
  8
50
 10
3.7620
 20
16.6167
 30
0.0000
  0
SEQEND
  8
0
  0
POLYLINE
  8
50
 66
1
 10
0.0000
 20
0.0000
 30
0.0000
 40
0.0005
 41
0.0005
 70
0
  0
VERTEX
  8
50
 10
3.7620
 20
18.5852
 30
0.0000
 42
1.0000
  0
VERTEX
  8
50
 10
3.7615
 20
18.5852
 30
0.0000
  0
SEQEND
  8
0
  0
POLYLINE
  8
50
 66
1
 10
0.0000
 20
0.0000
 30
0.0000
 40
0.0010
 41
0.0010
 70
0
  0
VERTEX
  8
50
 10
3.7617
 20
16.6167
 30
0.0000
  0
VERTEX
  8
50
 10
13.1597
 20
16.6167
 30
0.0000
  0
SEQEND
  8
0
  0
POLYLINE
  8
50
 66
1
 10
0.0000
 20
0.0000
 30
0.0000
 40
0.0005
 41
0.0005
 70
0
  0
VERTEX
  8
50
 10
13.1597
 20
16.6164
 30
0.0000
 42
1.0000
  0
VERTEX
  8
50
 10
13.1597
 20
16.6169
 30
0.0000
  0
SEQEND
  8
0
  0
POLYLINE
  8
50
 66
1
 10
0.0000
 20
0.0000
 30
0.0000
 40
0.0005
 41
0.0005
 70
0
  0
VERTEX
  8
50
 10
3.7617
 20
16.6169
 30
0.0000
 42
1.0000
  0
VERTEX
  8
50
 10
3.7617
 20
16.6164
 30
0.0000
  0
SEQEND
  8
0
  0
POLYLINE
  8
50
 66
1
 10
0.0000
 20
0.0000
 30
0.0000
 40
0.0010
 41
0.0010
 70
0
  0
VERTEX
  8
50
 10
13.1597
 20
16.6167
 30
0.0000
  0
VERTEX
  8
50
 10
13.1597
 20
18.5852
 30
0.0000
  0
SEQEND
  8
0
  0
POLYLINE
  8
50
 66
1
 10
0.0000
 20
0.0000
 30
0.0000
 40
0.0005
 41
0.0005
 70
0
  0
VERTEX
  8
50
 10
13.1600
 20
18.5852
 30
0.0000
 42
1.0000
  0
VERTEX
  8
50
 10
13.1595
 20
18.5852
 30
0.0000
  0
SEQEND
  8
0
  0
POLYLINE
  8
50
 66
1
 10
0.0000
 20
0.0000
 30
0.0000
 40
0.0005
 41
0.0005
 70
0
  0
VERTEX
  8
50
 10
13.1595
 20
16.6167
 30
0.0000
 42
1.0000
  0
VERTEX
  8
50
 10
13.1600
 20
16.6167
 30
0.0000
  0
SEQEND
  8
0
  0
POLYLINE
  8
50
 66
1
 10
0.0000
 20
0.0000
 30
0.0000
 40
0.0010
 41
0.0010
 70
0
  0
VERTEX
  8
50
 10
13.1597
 20
18.5852
 30
0.0000
  0
VERTEX
  8
50
 10
3.7617
 20
18.5852
 30
0.0000
  0
SEQEND
  8
0
  0
POLYLINE
  8
50
 66
1
 10
0.0000
 20
0.0000
 30
0.0000
 40
0.0005
 41
0.0005
 70
0
  0
VERTEX
  8
50
 10
3.7617
 20
18.5854
 30
0.0000
 42
1.0000
  0
VERTEX
  8
50
 10
3.7617
 20
18.5849
 30
0.0000
  0
SEQEND
  8
0
  0
POLYLINE
  8
50
 66
1
 10
0.0000
 20
0.0000
 30
0.0000
 40
0.0005
 41
0.0005
 70
0
  0
VERTEX
  8
50
 10
13.1597
 20
18.5849
 30
0.0000
 42
1.0000
  0
VERTEX
  8
50
 10
13.1597
 20
18.5854
 30
0.0000
  0
SEQEND
  8
0
  0
POLYLINE
  8
50
 66
1
 10
0.0000
 20
0.0000
 30
0.0000
 40
0.0010
 41
0.0010
 70
0
  0
VERTEX
  8
50
 10
3.7262
 20
11.0744
 30
0.0000
  0
VERTEX
  8
50
 10
3.7262
 20
9.1059
 30
0.0000
  0
SEQEND
  8
0
  0
POLYLINE
  8
50
 66
1
 10
0.0000
 20
0.0000
 30
0.0000
 40
0.0005
 41
0.0005
 70
0
  0
VERTEX
  8
50
 10
3.7259
 20
9.1059
 30
0.0000
 42
1.0000
  0
VERTEX
  8
50
 10
3.7264
 20
9.1059
 30
0.0000
  0
SEQEND
  8
0
  0
POLYLINE
  8
50
 66
1
 10
0.0000
 20
0.0000
 30
0.0000
 40
0.0005
 41
0.0005
 70
0
  0
VERTEX
  8
50
 10
3.7264
 20
11.0744
 30
0.0000
 42
1.0000
  0
VERTEX
  8
50
 10
3.7259
 20
11.0744
 30
0.0000
  0
SEQEND
  8
0
  0
POLYLINE
  8
50
 66
1
 10
0.0000
 20
0.0000
 30
0.0000
 40
0.0010
 41
0.0010
 70
0
  0
VERTEX
  8
50
 10
3.7262
 20
9.1059
 30
0.0000
  0
VERTEX
  8
50
 10
13.1242
 20
9.1059
 30
0.0000
  0
SEQEND
  8
0
  0
POLYLINE
  8
50
 66
1
 10
0.0000
 20
0.0000
 30
0.0000
 40
0.0005
 41
0.0005
 70
0
  0
VERTEX
  8
50
 10
13.1242
 20
9.1057
 30
0.0000
 42
1.0000
  0
VERTEX
  8
50
 10
13.1242
 20
9.1061
 30
0.0000
  0
SEQEND
  8
0
  0
POLYLINE
  8
50
 66
1
 10
0.0000
 20
0.0000
 30
0.0000
 40
0.0005
 41
0.0005
 70
0
  0
VERTEX
  8
50
 10
3.7262
 20
9.1061
 30
0.0000
 42
1.0000
  0
VERTEX
  8
50
 10
3.7262
 20
9.1057
 30
0.0000
  0
SEQEND
  8
0
  0
POLYLINE
  8
50
 66
1
 10
0.0000
 20
0.0000
 30
0.0000
 40
0.0010
 41
0.0010
 70
0
  0
VERTEX
  8
50
 10
13.1242
 20
9.1059
 30
0.0000
  0
VERTEX
  8
50
 10
13.1242
 20
11.0744
 30
0.0000
  0
SEQEND
  8
0
  0
POLYLINE
  8
50
 66
1
 10
0.0000
 20
0.0000
 30
0.0000
 40
0.0005
 41
0.0005
 70
0
  0
VERTEX
  8
50
 10
13.1244
 20
11.0744
 30
0.0000
 42
1.0000
  0
VERTEX
  8
50
 10
13.1239
 20
11.0744
 30
0.0000
  0
SEQEND
  8
0
  0
POLYLINE
  8
50
 66
1
 10
0.0000
 20
0.0000
 30
0.0000
 40
0.0005
 41
0.0005
 70
0
  0
VERTEX
  8
50
 10
13.1239
 20
9.1059
 30
0.0000
 42
1.0000
  0
VERTEX
  8
50
 10
13.1244
 20
9.1059
 30
0.0000
  0
SEQEND
  8
0
  0
POLYLINE
  8
50
 66
1
 10
0.0000
 20
0.0000
 30
0.0000
 40
0.0010
 41
0.0010
 70
0
  0
VERTEX
  8
50
 10
13.1242
 20
11.0744
 30
0.0000
  0
VERTEX
  8
50
 10
3.7262
 20
11.0744
 30
0.0000
  0
SEQEND
  8
0
  0
POLYLINE
  8
50
 66
1
 10
0.0000
 20
0.0000
 30
0.0000
 40
0.0005
 41
0.0005
 70
0
  0
VERTEX
  8
50
 10
3.7262
 20
11.0747
 30
0.0000
 42
1.0000
  0
VERTEX
  8
50
 10
3.7262
 20
11.0742
 30
0.0000
  0
SEQEND
  8
0
  0
POLYLINE
  8
50
 66
1
 10
0.0000
 20
0.0000
 30
0.0000
 40
0.0005
 41
0.0005
 70
0
  0
VERTEX
  8
50
 10
13.1242
 20
11.0742
 30
0.0000
 42
1.0000
  0
VERTEX
  8
50
 10
13.1242
 20
11.0747
 30
0.0000
  0
SEQEND
  8
0
  0
POLYLINE
  8
50
 66
1
 10
0.0000
 20
0.0000
 30
0.0000
 40
0.0010
 41
0.0010
 70
0
  0
VERTEX
  8
50
 10
34.8488
 20
33.5839
 30
0.0000
  0
VERTEX
  8
50
 10
34.8488
 20
31.6154
 30
0.0000
  0
SEQEND
  8
0
  0
POLYLINE
  8
50
 66
1
 10
0.0000
 20
0.0000
 30
0.0000
 40
0.0005
 41
0.0005
 70
0
  0
VERTEX
  8
50
 10
34.8486
 20
31.6154
 30
0.0000
 42
1.0000
  0
VERTEX
  8
50
 10
34.8491
 20
31.6154
 30
0.0000
  0
SEQEND
  8
0
  0
POLYLINE
  8
50
 66
1
 10
0.0000
 20
0.0000
 30
0.0000
 40
0.0005
 41
0.0005
 70
0
  0
VERTEX
  8
50
 10
34.8491
 20
33.5839
 30
0.0000
 42
1.0000
  0
VERTEX
  8
50
 10
34.8486
 20
33.5839
 30
0.0000
  0
SEQEND
  8
0
  0
POLYLINE
  8
50
 66
1
 10
0.0000
 20
0.0000
 30
0.0000
 40
0.0010
 41
0.0010
 70
0
  0
VERTEX
  8
50
 10
34.8488
 20
31.6154
 30
0.0000
  0
VERTEX
  8
50
 10
44.2468
 20
31.6154
 30
0.0000
  0
SEQEND
  8
0
  0
POLYLINE
  8
50
 66
1
 10
0.0000
 20
0.0000
 30
0.0000
 40
0.0005
 41
0.0005
 70
0
  0
VERTEX
  8
50
 10
44.2468
 20
31.6151
 30
0.0000
 42
1.0000
  0
VERTEX
  8
50
 10
44.2468
 20
31.6156
 30
0.0000
  0
SEQEND
  8
0
  0
POLYLINE
  8
50
 66
1
 10
0.0000
 20
0.0000
 30
0.0000
 40
0.0005
 41
0.0005
 70
0
  0
VERTEX
  8
50
 10
34.8488
 20
31.6156
 30
0.0000
 42
1.0000
  0
VERTEX
  8
50
 10
34.8488
 20
31.6151
 30
0.0000
  0
SEQEND
  8
0
  0
POLYLINE
  8
50
 66
1
 10
0.0000
 20
0.0000
 30
0.0000
 40
0.0010
 41
0.0010
 70
0
  0
VERTEX
  8
50
 10
44.2468
 20
31.6154
 30
0.0000
  0
VERTEX
  8
50
 10
44.2468
 20
33.5839
 30
0.0000
  0
SEQEND
  8
0
  0
POLYLINE
  8
50
 66
1
 10
0.0000
 20
0.0000
 30
0.0000
 40
0.0005
 41
0.0005
 70
0
  0
VERTEX
  8
50
 10
44.2471
 20
33.5839
 30
0.0000
 42
1.0000
  0
VERTEX
  8
50
 10
44.2465
 20
33.5839
 30
0.0000
  0
SEQEND
  8
0
  0
POLYLINE
  8
50
 66
1
 10
0.0000
 20
0.0000
 30
0.0000
 40
0.0005
 41
0.0005
 70
0
  0
VERTEX
  8
50
 10
44.2465
 20
31.6154
 30
0.0000
 42
1.0000
  0
VERTEX
  8
50
 10
44.2471
 20
31.6154
 30
0.0000
  0
SEQEND
  8
0
  0
POLYLINE
  8
50
 66
1
 10
0.0000
 20
0.0000
 30
0.0000
 40
0.0010
 41
0.0010
 70
0
  0
VERTEX
  8
50
 10
44.2468
 20
33.5839
 30
0.0000
  0
VERTEX
  8
50
 10
34.8488
 20
33.5839
 30
0.0000
  0
SEQEND
  8
0
  0
POLYLINE
  8
50
 66
1
 10
0.0000
 20
0.0000
 30
0.0000
 40
0.0005
 41
0.0005
 70
0
  0
VERTEX
  8
50
 10
34.8488
 20
33.5841
 30
0.0000
 42
1.0000
  0
VERTEX
  8
50
 10
34.8488
 20
33.5836
 30
0.0000
  0
SEQEND
  8
0
  0
POLYLINE
  8
50
 66
1
 10
0.0000
 20
0.0000
 30
0.0000
 40
0.0005
 41
0.0005
 70
0
  0
VERTEX
  8
50
 10
44.2468
 20
33.5836
 30
0.0000
 42
1.0000
  0
VERTEX
  8
50
 10
44.2468
 20
33.5841
 30
0.0000
  0
SEQEND
  8
0
  0
POLYLINE
  8
50
 66
1
 10
0.0000
 20
0.0000
 30
0.0000
 40
0.0010
 41
0.0010
 70
0
  0
VERTEX
  8
50
 10
34.8488
 20
26.0934
 30
0.0000
  0
VERTEX
  8
50
 10
34.8488
 20
24.1249
 30
0.0000
  0
SEQEND
  8
0
  0
POLYLINE
  8
50
 66
1
 10
0.0000
 20
0.0000
 30
0.0000
 40
0.0005
 41
0.0005
 70
0
  0
VERTEX
  8
50
 10
34.8486
 20
24.1249
 30
0.0000
 42
1.0000
  0
VERTEX
  8
50
 10
34.8491
 20
24.1249
 30
0.0000
  0
SEQEND
  8
0
  0
POLYLINE
  8
50
 66
1
 10
0.0000
 20
0.0000
 30
0.0000
 40
0.0005
 41
0.0005
 70
0
  0
VERTEX
  8
50
 10
34.8491
 20
26.0934
 30
0.0000
 42
1.0000
  0
VERTEX
  8
50
 10
34.8486
 20
26.0934
 30
0.0000
  0
SEQEND
  8
0
  0
POLYLINE
  8
50
 66
1
 10
0.0000
 20
0.0000
 30
0.0000
 40
0.0010
 41
0.0010
 70
0
  0
VERTEX
  8
50
 10
34.8488
 20
24.1249
 30
0.0000
  0
VERTEX
  8
50
 10
44.2468
 20
24.1249
 30
0.0000
  0
SEQEND
  8
0
  0
POLYLINE
  8
50
 66
1
 10
0.0000
 20
0.0000
 30
0.0000
 40
0.0005
 41
0.0005
 70
0
  0
VERTEX
  8
50
 10
44.2468
 20
24.1247
 30
0.0000
 42
1.0000
  0
VERTEX
  8
50
 10
44.2468
 20
24.1252
 30
0.0000
  0
SEQEND
  8
0
  0
POLYLINE
  8
50
 66
1
 10
0.0000
 20
0.0000
 30
0.0000
 40
0.0005
 41
0.0005
 70
0
  0
VERTEX
  8
50
 10
34.8488
 20
24.1252
 30
0.0000
 42
1.0000
  0
VERTEX
  8
50
 10
34.8488
 20
24.1247
 30
0.0000
  0
SEQEND
  8
0
  0
POLYLINE
  8
50
 66
1
 10
0.0000
 20
0.0000
 30
0.0000
 40
0.0010
 41
0.0010
 70
0
  0
VERTEX
  8
50
 10
44.2468
 20
24.1249
 30
0.0000
  0
VERTEX
  8
50
 10
44.2468
 20
26.0934
 30
0.0000
  0
SEQEND
  8
0
  0
POLYLINE
  8
50
 66
1
 10
0.0000
 20
0.0000
 30
0.0000
 40
0.0005
 41
0.0005
 70
0
  0
VERTEX
  8
50
 10
44.2471
 20
26.0934
 30
0.0000
 42
1.0000
  0
VERTEX
  8
50
 10
44.2465
 20
26.0934
 30
0.0000
  0
SEQEND
  8
0
  0
POLYLINE
  8
50
 66
1
 10
0.0000
 20
0.0000
 30
0.0000
 40
0.0005
 41
0.0005
 70
0
  0
VERTEX
  8
50
 10
44.2465
 20
24.1249
 30
0.0000
 42
1.0000
  0
VERTEX
  8
50
 10
44.2471
 20
24.1249
 30
0.0000
  0
SEQEND
  8
0
  0
POLYLINE
  8
50
 66
1
 10
0.0000
 20
0.0000
 30
0.0000
 40
0.0010
 41
0.0010
 70
0
  0
VERTEX
  8
50
 10
44.2468
 20
26.0934
 30
0.0000
  0
VERTEX
  8
50
 10
34.8488
 20
26.0934
 30
0.0000
  0
SEQEND
  8
0
  0
POLYLINE
  8
50
 66
1
 10
0.0000
 20
0.0000
 30
0.0000
 40
0.0005
 41
0.0005
 70
0
  0
VERTEX
  8
50
 10
34.8488
 20
26.0937
 30
0.0000
 42
1.0000
  0
VERTEX
  8
50
 10
34.8488
 20
26.0932
 30
0.0000
  0
SEQEND
  8
0
  0
POLYLINE
  8
50
 66
1
 10
0.0000
 20
0.0000
 30
0.0000
 40
0.0005
 41
0.0005
 70
0
  0
VERTEX
  8
50
 10
44.2468
 20
26.0932
 30
0.0000
 42
1.0000
  0
VERTEX
  8
50
 10
44.2468
 20
26.0937
 30
0.0000
  0
SEQEND
  8
0
  0
POLYLINE
  8
50
 66
1
 10
0.0000
 20
0.0000
 30
0.0000
 40
0.0010
 41
0.0010
 70
0
  0
VERTEX
  8
50
 10
34.8564
 20
18.5826
 30
0.0000
  0
VERTEX
  8
50
 10
34.8564
 20
16.6141
 30
0.0000
  0
SEQEND
  8
0
  0
POLYLINE
  8
50
 66
1
 10
0.0000
 20
0.0000
 30
0.0000
 40
0.0005
 41
0.0005
 70
0
  0
VERTEX
  8
50
 10
34.8562
 20
16.6141
 30
0.0000
 42
1.0000
  0
VERTEX
  8
50
 10
34.8567
 20
16.6141
 30
0.0000
  0
SEQEND
  8
0
  0
POLYLINE
  8
50
 66
1
 10
0.0000
 20
0.0000
 30
0.0000
 40
0.0005
 41
0.0005
 70
0
  0
VERTEX
  8
50
 10
34.8567
 20
18.5826
 30
0.0000
 42
1.0000
  0
VERTEX
  8
50
 10
34.8562
 20
18.5826
 30
0.0000
  0
SEQEND
  8
0
  0
POLYLINE
  8
50
 66
1
 10
0.0000
 20
0.0000
 30
0.0000
 40
0.0010
 41
0.0010
 70
0
  0
VERTEX
  8
50
 10
34.8564
 20
16.6141
 30
0.0000
  0
VERTEX
  8
50
 10
44.2544
 20
16.6141
 30
0.0000
  0
SEQEND
  8
0
  0
POLYLINE
  8
50
 66
1
 10
0.0000
 20
0.0000
 30
0.0000
 40
0.0005
 41
0.0005
 70
0
  0
VERTEX
  8
50
 10
44.2544
 20
16.6139
 30
0.0000
 42
1.0000
  0
VERTEX
  8
50
 10
44.2544
 20
16.6144
 30
0.0000
  0
SEQEND
  8
0
  0
POLYLINE
  8
50
 66
1
 10
0.0000
 20
0.0000
 30
0.0000
 40
0.0005
 41
0.0005
 70
0
  0
VERTEX
  8
50
 10
34.8564
 20
16.6144
 30
0.0000
 42
1.0000
  0
VERTEX
  8
50
 10
34.8564
 20
16.6139
 30
0.0000
  0
SEQEND
  8
0
  0
POLYLINE
  8
50
 66
1
 10
0.0000
 20
0.0000
 30
0.0000
 40
0.0010
 41
0.0010
 70
0
  0
VERTEX
  8
50
 10
44.2544
 20
16.6141
 30
0.0000
  0
VERTEX
  8
50
 10
44.2544
 20
18.5826
 30
0.0000
  0
SEQEND
  8
0
  0
POLYLINE
  8
50
 66
1
 10
0.0000
 20
0.0000
 30
0.0000
 40
0.0005
 41
0.0005
 70
0
  0
VERTEX
  8
50
 10
44.2547
 20
18.5826
 30
0.0000
 42
1.0000
  0
VERTEX
  8
50
 10
44.2542
 20
18.5826
 30
0.0000
  0
SEQEND
  8
0
  0
POLYLINE
  8
50
 66
1
 10
0.0000
 20
0.0000
 30
0.0000
 40
0.0005
 41
0.0005
 70
0
  0
VERTEX
  8
50
 10
44.2542
 20
16.6141
 30
0.0000
 42
1.0000
  0
VERTEX
  8
50
 10
44.2547
 20
16.6141
 30
0.0000
  0
SEQEND
  8
0
  0
POLYLINE
  8
50
 66
1
 10
0.0000
 20
0.0000
 30
0.0000
 40
0.0010
 41
0.0010
 70
0
  0
VERTEX
  8
50
 10
44.2544
 20
18.5826
 30
0.0000
  0
VERTEX
  8
50
 10
34.8564
 20
18.5826
 30
0.0000
  0
SEQEND
  8
0
  0
POLYLINE
  8
50
 66
1
 10
0.0000
 20
0.0000
 30
0.0000
 40
0.0005
 41
0.0005
 70
0
  0
VERTEX
  8
50
 10
34.8564
 20
18.5829
 30
0.0000
 42
1.0000
  0
VERTEX
  8
50
 10
34.8564
 20
18.5824
 30
0.0000
  0
SEQEND
  8
0
  0
POLYLINE
  8
50
 66
1
 10
0.0000
 20
0.0000
 30
0.0000
 40
0.0005
 41
0.0005
 70
0
  0
VERTEX
  8
50
 10
44.2544
 20
18.5824
 30
0.0000
 42
1.0000
  0
VERTEX
  8
50
 10
44.2544
 20
18.5829
 30
0.0000
  0
SEQEND
  8
0
  0
POLYLINE
  8
50
 66
1
 10
0.0000
 20
0.0000
 30
0.0000
 40
0.0010
 41
0.0010
 70
0
  0
VERTEX
  8
50
 10
34.8209
 20
11.0719
 30
0.0000
  0
VERTEX
  8
50
 10
34.8209
 20
9.1034
 30
0.0000
  0
SEQEND
  8
0
  0
POLYLINE
  8
50
 66
1
 10
0.0000
 20
0.0000
 30
0.0000
 40
0.0005
 41
0.0005
 70
0
  0
VERTEX
  8
50
 10
34.8206
 20
9.1034
 30
0.0000
 42
1.0000
  0
VERTEX
  8
50
 10
34.8211
 20
9.1034
 30
0.0000
  0
SEQEND
  8
0
  0
POLYLINE
  8
50
 66
1
 10
0.0000
 20
0.0000
 30
0.0000
 40
0.0005
 41
0.0005
 70
0
  0
VERTEX
  8
50
 10
34.8211
 20
11.0719
 30
0.0000
 42
1.0000
  0
VERTEX
  8
50
 10
34.8206
 20
11.0719
 30
0.0000
  0
SEQEND
  8
0
  0
POLYLINE
  8
50
 66
1
 10
0.0000
 20
0.0000
 30
0.0000
 40
0.0010
 41
0.0010
 70
0
  0
VERTEX
  8
50
 10
34.8209
 20
9.1034
 30
0.0000
  0
VERTEX
  8
50
 10
44.2189
 20
9.1034
 30
0.0000
  0
SEQEND
  8
0
  0
POLYLINE
  8
50
 66
1
 10
0.0000
 20
0.0000
 30
0.0000
 40
0.0005
 41
0.0005
 70
0
  0
VERTEX
  8
50
 10
44.2189
 20
9.1031
 30
0.0000
 42
1.0000
  0
VERTEX
  8
50
 10
44.2189
 20
9.1036
 30
0.0000
  0
SEQEND
  8
0
  0
POLYLINE
  8
50
 66
1
 10
0.0000
 20
0.0000
 30
0.0000
 40
0.0005
 41
0.0005
 70
0
  0
VERTEX
  8
50
 10
34.8209
 20
9.1036
 30
0.0000
 42
1.0000
  0
VERTEX
  8
50
 10
34.8209
 20
9.1031
 30
0.0000
  0
SEQEND
  8
0
  0
POLYLINE
  8
50
 66
1
 10
0.0000
 20
0.0000
 30
0.0000
 40
0.0010
 41
0.0010
 70
0
  0
VERTEX
  8
50
 10
44.2189
 20
9.1034
 30
0.0000
  0
VERTEX
  8
50
 10
44.2189
 20
11.0719
 30
0.0000
  0
SEQEND
  8
0
  0
POLYLINE
  8
50
 66
1
 10
0.0000
 20
0.0000
 30
0.0000
 40
0.0005
 41
0.0005
 70
0
  0
VERTEX
  8
50
 10
44.2191
 20
11.0719
 30
0.0000
 42
1.0000
  0
VERTEX
  8
50
 10
44.2186
 20
11.0719
 30
0.0000
  0
SEQEND
  8
0
  0
POLYLINE
  8
50
 66
1
 10
0.0000
 20
0.0000
 30
0.0000
 40
0.0005
 41
0.0005
 70
0
  0
VERTEX
  8
50
 10
44.2186
 20
9.1034
 30
0.0000
 42
1.0000
  0
VERTEX
  8
50
 10
44.2191
 20
9.1034
 30
0.0000
  0
SEQEND
  8
0
  0
POLYLINE
  8
50
 66
1
 10
0.0000
 20
0.0000
 30
0.0000
 40
0.0010
 41
0.0010
 70
0
  0
VERTEX
  8
50
 10
44.2189
 20
11.0719
 30
0.0000
  0
VERTEX
  8
50
 10
34.8209
 20
11.0719
 30
0.0000
  0
SEQEND
  8
0
  0
POLYLINE
  8
50
 66
1
 10
0.0000
 20
0.0000
 30
0.0000
 40
0.0005
 41
0.0005
 70
0
  0
VERTEX
  8
50
 10
34.8209
 20
11.0721
 30
0.0000
 42
1.0000
  0
VERTEX
  8
50
 10
34.8209
 20
11.0716
 30
0.0000
  0
SEQEND
  8
0
  0
POLYLINE
  8
50
 66
1
 10
0.0000
 20
0.0000
 30
0.0000
 40
0.0005
 41
0.0005
 70
0
  0
VERTEX
  8
50
 10
44.2189
 20
11.0716
 30
0.0000
 42
1.0000
  0
VERTEX
  8
50
 10
44.2189
 20
11.0721
 30
0.0000
  0
SEQEND
  8
0
  0
POLYLINE
  8
50
 66
1
 10
0.0000
 20
0.0000
 30
0.0000
 40
0.0010
 41
0.0010
 70
0
  0
VERTEX
  8
50
 10
28.8646
 20
37.0789
 30
0.0000
  0
VERTEX
  8
50
 10
28.8646
 20
35.1104
 30
0.0000
  0
SEQEND
  8
0
  0
POLYLINE
  8
50
 66
1
 10
0.0000
 20
0.0000
 30
0.0000
 40
0.0005
 41
0.0005
 70
0
  0
VERTEX
  8
50
 10
28.8643
 20
35.1104
 30
0.0000
 42
1.0000
  0
VERTEX
  8
50
 10
28.8648
 20
35.1104
 30
0.0000
  0
SEQEND
  8
0
  0
POLYLINE
  8
50
 66
1
 10
0.0000
 20
0.0000
 30
0.0000
 40
0.0005
 41
0.0005
 70
0
  0
VERTEX
  8
50
 10
28.8648
 20
37.0789
 30
0.0000
 42
1.0000
  0
VERTEX
  8
50
 10
28.8643
 20
37.0789
 30
0.0000
  0
SEQEND
  8
0
  0
POLYLINE
  8
50
 66
1
 10
0.0000
 20
0.0000
 30
0.0000
 40
0.0010
 41
0.0010
 70
0
  0
VERTEX
  8
50
 10
28.8646
 20
35.1104
 30
0.0000
  0
VERTEX
  8
50
 10
38.2626
 20
35.1104
 30
0.0000
  0
SEQEND
  8
0
  0
POLYLINE
  8
50
 66
1
 10
0.0000
 20
0.0000
 30
0.0000
 40
0.0005
 41
0.0005
 70
0
  0
VERTEX
  8
50
 10
38.2626
 20
35.1102
 30
0.0000
 42
1.0000
  0
VERTEX
  8
50
 10
38.2626
 20
35.1107
 30
0.0000
  0
SEQEND
  8
0
  0
POLYLINE
  8
50
 66
1
 10
0.0000
 20
0.0000
 30
0.0000
 40
0.0005
 41
0.0005
 70
0
  0
VERTEX
  8
50
 10
28.8646
 20
35.1107
 30
0.0000
 42
1.0000
  0
VERTEX
  8
50
 10
28.8646
 20
35.1102
 30
0.0000
  0
SEQEND
  8
0
  0
POLYLINE
  8
50
 66
1
 10
0.0000
 20
0.0000
 30
0.0000
 40
0.0010
 41
0.0010
 70
0
  0
VERTEX
  8
50
 10
38.2626
 20
35.1104
 30
0.0000
  0
VERTEX
  8
50
 10
38.2626
 20
37.0789
 30
0.0000
  0
SEQEND
  8
0
  0
POLYLINE
  8
50
 66
1
 10
0.0000
 20
0.0000
 30
0.0000
 40
0.0005
 41
0.0005
 70
0
  0
VERTEX
  8
50
 10
38.2628
 20
37.0789
 30
0.0000
 42
1.0000
  0
VERTEX
  8
50
 10
38.2623
 20
37.0789
 30
0.0000
  0
SEQEND
  8
0
  0
POLYLINE
  8
50
 66
1
 10
0.0000
 20
0.0000
 30
0.0000
 40
0.0005
 41
0.0005
 70
0
  0
VERTEX
  8
50
 10
38.2623
 20
35.1104
 30
0.0000
 42
1.0000
  0
VERTEX
  8
50
 10
38.2628
 20
35.1104
 30
0.0000
  0
SEQEND
  8
0
  0
POLYLINE
  8
50
 66
1
 10
0.0000
 20
0.0000
 30
0.0000
 40
0.0010
 41
0.0010
 70
0
  0
VERTEX
  8
50
 10
38.2626
 20
37.0789
 30
0.0000
  0
VERTEX
  8
50
 10
28.8646
 20
37.0789
 30
0.0000
  0
SEQEND
  8
0
  0
POLYLINE
  8
50
 66
1
 10
0.0000
 20
0.0000
 30
0.0000
 40
0.0005
 41
0.0005
 70
0
  0
VERTEX
  8
50
 10
28.8646
 20
37.0792
 30
0.0000
 42
1.0000
  0
VERTEX
  8
50
 10
28.8646
 20
37.0787
 30
0.0000
  0
SEQEND
  8
0
  0
POLYLINE
  8
50
 66
1
 10
0.0000
 20
0.0000
 30
0.0000
 40
0.0005
 41
0.0005
 70
0
  0
VERTEX
  8
50
 10
38.2626
 20
37.0787
 30
0.0000
 42
1.0000
  0
VERTEX
  8
50
 10
38.2626
 20
37.0792
 30
0.0000
  0
SEQEND
  8
0
  0
POLYLINE
  8
50
 66
1
 10
0.0000
 20
0.0000
 30
0.0000
 40
0.0010
 41
0.0010
 70
0
  0
VERTEX
  8
50
 10
28.8544
 20
28.5928
 30
0.0000
  0
VERTEX
  8
50
 10
28.8544
 20
26.6243
 30
0.0000
  0
SEQEND
  8
0
  0
POLYLINE
  8
50
 66
1
 10
0.0000
 20
0.0000
 30
0.0000
 40
0.0005
 41
0.0005
 70
0
  0
VERTEX
  8
50
 10
28.8542
 20
26.6243
 30
0.0000
 42
1.0000
  0
VERTEX
  8
50
 10
28.8547
 20
26.6243
 30
0.0000
  0
SEQEND
  8
0
  0
POLYLINE
  8
50
 66
1
 10
0.0000
 20
0.0000
 30
0.0000
 40
0.0005
 41
0.0005
 70
0
  0
VERTEX
  8
50
 10
28.8547
 20
28.5928
 30
0.0000
 42
1.0000
  0
VERTEX
  8
50
 10
28.8542
 20
28.5928
 30
0.0000
  0
SEQEND
  8
0
  0
POLYLINE
  8
50
 66
1
 10
0.0000
 20
0.0000
 30
0.0000
 40
0.0010
 41
0.0010
 70
0
  0
VERTEX
  8
50
 10
28.8544
 20
26.6243
 30
0.0000
  0
VERTEX
  8
50
 10
38.2524
 20
26.6243
 30
0.0000
  0
SEQEND
  8
0
  0
POLYLINE
  8
50
 66
1
 10
0.0000
 20
0.0000
 30
0.0000
 40
0.0005
 41
0.0005
 70
0
  0
VERTEX
  8
50
 10
38.2524
 20
26.6240
 30
0.0000
 42
1.0000
  0
VERTEX
  8
50
 10
38.2524
 20
26.6245
 30
0.0000
  0
SEQEND
  8
0
  0
POLYLINE
  8
50
 66
1
 10
0.0000
 20
0.0000
 30
0.0000
 40
0.0005
 41
0.0005
 70
0
  0
VERTEX
  8
50
 10
28.8544
 20
26.6245
 30
0.0000
 42
1.0000
  0
VERTEX
  8
50
 10
28.8544
 20
26.6240
 30
0.0000
  0
SEQEND
  8
0
  0
POLYLINE
  8
50
 66
1
 10
0.0000
 20
0.0000
 30
0.0000
 40
0.0010
 41
0.0010
 70
0
  0
VERTEX
  8
50
 10
38.2524
 20
26.6243
 30
0.0000
  0
VERTEX
  8
50
 10
38.2524
 20
28.5928
 30
0.0000
  0
SEQEND
  8
0
  0
POLYLINE
  8
50
 66
1
 10
0.0000
 20
0.0000
 30
0.0000
 40
0.0005
 41
0.0005
 70
0
  0
VERTEX
  8
50
 10
38.2527
 20
28.5928
 30
0.0000
 42
1.0000
  0
VERTEX
  8
50
 10
38.2522
 20
28.5928
 30
0.0000
  0
SEQEND
  8
0
  0
POLYLINE
  8
50
 66
1
 10
0.0000
 20
0.0000
 30
0.0000
 40
0.0005
 41
0.0005
 70
0
  0
VERTEX
  8
50
 10
38.2522
 20
26.6243
 30
0.0000
 42
1.0000
  0
VERTEX
  8
50
 10
38.2527
 20
26.6243
 30
0.0000
  0
SEQEND
  8
0
  0
POLYLINE
  8
50
 66
1
 10
0.0000
 20
0.0000
 30
0.0000
 40
0.0010
 41
0.0010
 70
0
  0
VERTEX
  8
50
 10
38.2524
 20
28.5928
 30
0.0000
  0
VERTEX
  8
50
 10
28.8544
 20
28.5928
 30
0.0000
  0
SEQEND
  8
0
  0
POLYLINE
  8
50
 66
1
 10
0.0000
 20
0.0000
 30
0.0000
 40
0.0005
 41
0.0005
 70
0
  0
VERTEX
  8
50
 10
28.8544
 20
28.5930
 30
0.0000
 42
1.0000
  0
VERTEX
  8
50
 10
28.8544
 20
28.5925
 30
0.0000
  0
SEQEND
  8
0
  0
POLYLINE
  8
50
 66
1
 10
0.0000
 20
0.0000
 30
0.0000
 40
0.0005
 41
0.0005
 70
0
  0
VERTEX
  8
50
 10
38.2524
 20
28.5925
 30
0.0000
 42
1.0000
  0
VERTEX
  8
50
 10
38.2524
 20
28.5930
 30
0.0000
  0
SEQEND
  8
0
  0
POLYLINE
  8
50
 66
1
 10
0.0000
 20
0.0000
 30
0.0000
 40
0.0010
 41
0.0010
 70
0
  0
VERTEX
  8
50
 10
28.8620
 20
21.0820
 30
0.0000
  0
VERTEX
  8
50
 10
28.8620
 20
19.1135
 30
0.0000
  0
SEQEND
  8
0
  0
POLYLINE
  8
50
 66
1
 10
0.0000
 20
0.0000
 30
0.0000
 40
0.0005
 41
0.0005
 70
0
  0
VERTEX
  8
50
 10
28.8618
 20
19.1135
 30
0.0000
 42
1.0000
  0
VERTEX
  8
50
 10
28.8623
 20
19.1135
 30
0.0000
  0
SEQEND
  8
0
  0
POLYLINE
  8
50
 66
1
 10
0.0000
 20
0.0000
 30
0.0000
 40
0.0005
 41
0.0005
 70
0
  0
VERTEX
  8
50
 10
28.8623
 20
21.0820
 30
0.0000
 42
1.0000
  0
VERTEX
  8
50
 10
28.8618
 20
21.0820
 30
0.0000
  0
SEQEND
  8
0
  0
POLYLINE
  8
50
 66
1
 10
0.0000
 20
0.0000
 30
0.0000
 40
0.0010
 41
0.0010
 70
0
  0
VERTEX
  8
50
 10
28.8620
 20
19.1135
 30
0.0000
  0
VERTEX
  8
50
 10
38.2600
 20
19.1135
 30
0.0000
  0
SEQEND
  8
0
  0
POLYLINE
  8
50
 66
1
 10
0.0000
 20
0.0000
 30
0.0000
 40
0.0005
 41
0.0005
 70
0
  0
VERTEX
  8
50
 10
38.2600
 20
19.1133
 30
0.0000
 42
1.0000
  0
VERTEX
  8
50
 10
38.2600
 20
19.1138
 30
0.0000
  0
SEQEND
  8
0
  0
POLYLINE
  8
50
 66
1
 10
0.0000
 20
0.0000
 30
0.0000
 40
0.0005
 41
0.0005
 70
0
  0
VERTEX
  8
50
 10
28.8620
 20
19.1138
 30
0.0000
 42
1.0000
  0
VERTEX
  8
50
 10
28.8620
 20
19.1133
 30
0.0000
  0
SEQEND
  8
0
  0
POLYLINE
  8
50
 66
1
 10
0.0000
 20
0.0000
 30
0.0000
 40
0.0010
 41
0.0010
 70
0
  0
VERTEX
  8
50
 10
38.2600
 20
19.1135
 30
0.0000
  0
VERTEX
  8
50
 10
38.2600
 20
21.0820
 30
0.0000
  0
SEQEND
  8
0
  0
POLYLINE
  8
50
 66
1
 10
0.0000
 20
0.0000
 30
0.0000
 40
0.0005
 41
0.0005
 70
0
  0
VERTEX
  8
50
 10
38.2603
 20
21.0820
 30
0.0000
 42
1.0000
  0
VERTEX
  8
50
 10
38.2598
 20
21.0820
 30
0.0000
  0
SEQEND
  8
0
  0
POLYLINE
  8
50
 66
1
 10
0.0000
 20
0.0000
 30
0.0000
 40
0.0005
 41
0.0005
 70
0
  0
VERTEX
  8
50
 10
38.2598
 20
19.1135
 30
0.0000
 42
1.0000
  0
VERTEX
  8
50
 10
38.2603
 20
19.1135
 30
0.0000
  0
SEQEND
  8
0
  0
POLYLINE
  8
50
 66
1
 10
0.0000
 20
0.0000
 30
0.0000
 40
0.0010
 41
0.0010
 70
0
  0
VERTEX
  8
50
 10
38.2600
 20
21.0820
 30
0.0000
  0
VERTEX
  8
50
 10
28.8620
 20
21.0820
 30
0.0000
  0
SEQEND
  8
0
  0
POLYLINE
  8
50
 66
1
 10
0.0000
 20
0.0000
 30
0.0000
 40
0.0005
 41
0.0005
 70
0
  0
VERTEX
  8
50
 10
28.8620
 20
21.0823
 30
0.0000
 42
1.0000
  0
VERTEX
  8
50
 10
28.8620
 20
21.0817
 30
0.0000
  0
SEQEND
  8
0
  0
POLYLINE
  8
50
 66
1
 10
0.0000
 20
0.0000
 30
0.0000
 40
0.0005
 41
0.0005
 70
0
  0
VERTEX
  8
50
 10
38.2600
 20
21.0817
 30
0.0000
 42
1.0000
  0
VERTEX
  8
50
 10
38.2600
 20
21.0823
 30
0.0000
  0
SEQEND
  8
0
  0
POLYLINE
  8
50
 66
1
 10
0.0000
 20
0.0000
 30
0.0000
 40
0.0010
 41
0.0010
 70
0
  0
VERTEX
  8
50
 10
28.8265
 20
13.5712
 30
0.0000
  0
VERTEX
  8
50
 10
28.8265
 20
11.6027
 30
0.0000
  0
SEQEND
  8
0
  0
POLYLINE
  8
50
 66
1
 10
0.0000
 20
0.0000
 30
0.0000
 40
0.0005
 41
0.0005
 70
0
  0
VERTEX
  8
50
 10
28.8262
 20
11.6027
 30
0.0000
 42
1.0000
  0
VERTEX
  8
50
 10
28.8267
 20
11.6027
 30
0.0000
  0
SEQEND
  8
0
  0
POLYLINE
  8
50
 66
1
 10
0.0000
 20
0.0000
 30
0.0000
 40
0.0005
 41
0.0005
 70
0
  0
VERTEX
  8
50
 10
28.8267
 20
13.5712
 30
0.0000
 42
1.0000
  0
VERTEX
  8
50
 10
28.8262
 20
13.5712
 30
0.0000
  0
SEQEND
  8
0
  0
POLYLINE
  8
50
 66
1
 10
0.0000
 20
0.0000
 30
0.0000
 40
0.0010
 41
0.0010
 70
0
  0
VERTEX
  8
50
 10
28.8265
 20
11.6027
 30
0.0000
  0
VERTEX
  8
50
 10
38.2245
 20
11.6027
 30
0.0000
  0
SEQEND
  8
0
  0
POLYLINE
  8
50
 66
1
 10
0.0000
 20
0.0000
 30
0.0000
 40
0.0005
 41
0.0005
 70
0
  0
VERTEX
  8
50
 10
38.2245
 20
11.6025
 30
0.0000
 42
1.0000
  0
VERTEX
  8
50
 10
38.2245
 20
11.6030
 30
0.0000
  0
SEQEND
  8
0
  0
POLYLINE
  8
50
 66
1
 10
0.0000
 20
0.0000
 30
0.0000
 40
0.0005
 41
0.0005
 70
0
  0
VERTEX
  8
50
 10
28.8265
 20
11.6030
 30
0.0000
 42
1.0000
  0
VERTEX
  8
50
 10
28.8265
 20
11.6025
 30
0.0000
  0
SEQEND
  8
0
  0
POLYLINE
  8
50
 66
1
 10
0.0000
 20
0.0000
 30
0.0000
 40
0.0010
 41
0.0010
 70
0
  0
VERTEX
  8
50
 10
38.2245
 20
11.6027
 30
0.0000
  0
VERTEX
  8
50
 10
38.2245
 20
13.5712
 30
0.0000
  0
SEQEND
  8
0
  0
POLYLINE
  8
50
 66
1
 10
0.0000
 20
0.0000
 30
0.0000
 40
0.0005
 41
0.0005
 70
0
  0
VERTEX
  8
50
 10
38.2247
 20
13.5712
 30
0.0000
 42
1.0000
  0
VERTEX
  8
50
 10
38.2242
 20
13.5712
 30
0.0000
  0
SEQEND
  8
0
  0
POLYLINE
  8
50
 66
1
 10
0.0000
 20
0.0000
 30
0.0000
 40
0.0005
 41
0.0005
 70
0
  0
VERTEX
  8
50
 10
38.2242
 20
11.6027
 30
0.0000
 42
1.0000
  0
VERTEX
  8
50
 10
38.2247
 20
11.6027
 30
0.0000
  0
SEQEND
  8
0
  0
POLYLINE
  8
50
 66
1
 10
0.0000
 20
0.0000
 30
0.0000
 40
0.0010
 41
0.0010
 70
0
  0
VERTEX
  8
50
 10
38.2245
 20
13.5712
 30
0.0000
  0
VERTEX
  8
50
 10
28.8265
 20
13.5712
 30
0.0000
  0
SEQEND
  8
0
  0
POLYLINE
  8
50
 66
1
 10
0.0000
 20
0.0000
 30
0.0000
 40
0.0005
 41
0.0005
 70
0
  0
VERTEX
  8
50
 10
28.8265
 20
13.5715
 30
0.0000
 42
1.0000
  0
VERTEX
  8
50
 10
28.8265
 20
13.5710
 30
0.0000
  0
SEQEND
  8
0
  0
POLYLINE
  8
50
 66
1
 10
0.0000
 20
0.0000
 30
0.0000
 40
0.0005
 41
0.0005
 70
0
  0
VERTEX
  8
50
 10
38.2245
 20
13.5710
 30
0.0000
 42
1.0000
  0
VERTEX
  8
50
 10
38.2245
 20
13.5715
 30
0.0000
  0
SEQEND
  8
0
  0
POLYLINE
  8
50
 66
1
 10
0.0000
 20
0.0000
 30
0.0000
 40
0.0010
 41
0.0010
 70
0
  0
VERTEX
  8
50
 10
9.7968
 20
21.0896
 30
0.0000
  0
VERTEX
  8
50
 10
9.7968
 20
19.1211
 30
0.0000
  0
SEQEND
  8
0
  0
POLYLINE
  8
50
 66
1
 10
0.0000
 20
0.0000
 30
0.0000
 40
0.0005
 41
0.0005
 70
0
  0
VERTEX
  8
50
 10
9.7965
 20
19.1211
 30
0.0000
 42
1.0000
  0
VERTEX
  8
50
 10
9.7970
 20
19.1211
 30
0.0000
  0
SEQEND
  8
0
  0
POLYLINE
  8
50
 66
1
 10
0.0000
 20
0.0000
 30
0.0000
 40
0.0005
 41
0.0005
 70
0
  0
VERTEX
  8
50
 10
9.7970
 20
21.0896
 30
0.0000
 42
1.0000
  0
VERTEX
  8
50
 10
9.7965
 20
21.0896
 30
0.0000
  0
SEQEND
  8
0
  0
POLYLINE
  8
50
 66
1
 10
0.0000
 20
0.0000
 30
0.0000
 40
0.0010
 41
0.0010
 70
0
  0
VERTEX
  8
50
 10
9.7968
 20
19.1211
 30
0.0000
  0
VERTEX
  8
50
 10
19.1948
 20
19.1211
 30
0.0000
  0
SEQEND
  8
0
  0
POLYLINE
  8
50
 66
1
 10
0.0000
 20
0.0000
 30
0.0000
 40
0.0005
 41
0.0005
 70
0
  0
VERTEX
  8
50
 10
19.1948
 20
19.1209
 30
0.0000
 42
1.0000
  0
VERTEX
  8
50
 10
19.1948
 20
19.1214
 30
0.0000
  0
SEQEND
  8
0
  0
POLYLINE
  8
50
 66
1
 10
0.0000
 20
0.0000
 30
0.0000
 40
0.0005
 41
0.0005
 70
0
  0
VERTEX
  8
50
 10
9.7968
 20
19.1214
 30
0.0000
 42
1.0000
  0
VERTEX
  8
50
 10
9.7968
 20
19.1209
 30
0.0000
  0
SEQEND
  8
0
  0
POLYLINE
  8
50
 66
1
 10
0.0000
 20
0.0000
 30
0.0000
 40
0.0010
 41
0.0010
 70
0
  0
VERTEX
  8
50
 10
19.1948
 20
19.1211
 30
0.0000
  0
VERTEX
  8
50
 10
19.1948
 20
21.0896
 30
0.0000
  0
SEQEND
  8
0
  0
POLYLINE
  8
50
 66
1
 10
0.0000
 20
0.0000
 30
0.0000
 40
0.0005
 41
0.0005
 70
0
  0
VERTEX
  8
50
 10
19.1950
 20
21.0896
 30
0.0000
 42
1.0000
  0
VERTEX
  8
50
 10
19.1945
 20
21.0896
 30
0.0000
  0
SEQEND
  8
0
  0
POLYLINE
  8
50
 66
1
 10
0.0000
 20
0.0000
 30
0.0000
 40
0.0005
 41
0.0005
 70
0
  0
VERTEX
  8
50
 10
19.1945
 20
19.1211
 30
0.0000
 42
1.0000
  0
VERTEX
  8
50
 10
19.1950
 20
19.1211
 30
0.0000
  0
SEQEND
  8
0
  0
POLYLINE
  8
50
 66
1
 10
0.0000
 20
0.0000
 30
0.0000
 40
0.0010
 41
0.0010
 70
0
  0
VERTEX
  8
50
 10
19.1948
 20
21.0896
 30
0.0000
  0
VERTEX
  8
50
 10
9.7968
 20
21.0896
 30
0.0000
  0
SEQEND
  8
0
  0
POLYLINE
  8
50
 66
1
 10
0.0000
 20
0.0000
 30
0.0000
 40
0.0005
 41
0.0005
 70
0
  0
VERTEX
  8
50
 10
9.7968
 20
21.0899
 30
0.0000
 42
1.0000
  0
VERTEX
  8
50
 10
9.7968
 20
21.0894
 30
0.0000
  0
SEQEND
  8
0
  0
POLYLINE
  8
50
 66
1
 10
0.0000
 20
0.0000
 30
0.0000
 40
0.0005
 41
0.0005
 70
0
  0
VERTEX
  8
50
 10
19.1948
 20
21.0894
 30
0.0000
 42
1.0000
  0
VERTEX
  8
50
 10
19.1948
 20
21.0899
 30
0.0000
  0
SEQEND
  8
0
  0
POLYLINE
  8
50
 66
1
 10
0.0000
 20
0.0000
 30
0.0000
 40
0.0010
 41
0.0010
 70
0
  0
VERTEX
  8
50
 10
9.7612
 20
13.5788
 30
0.0000
  0
VERTEX
  8
50
 10
9.7612
 20
11.6103
 30
0.0000
  0
SEQEND
  8
0
  0
POLYLINE
  8
50
 66
1
 10
0.0000
 20
0.0000
 30
0.0000
 40
0.0005
 41
0.0005
 70
0
  0
VERTEX
  8
50
 10
9.7610
 20
11.6103
 30
0.0000
 42
1.0000
  0
VERTEX
  8
50
 10
9.7615
 20
11.6103
 30
0.0000
  0
SEQEND
  8
0
  0
POLYLINE
  8
50
 66
1
 10
0.0000
 20
0.0000
 30
0.0000
 40
0.0005
 41
0.0005
 70
0
  0
VERTEX
  8
50
 10
9.7615
 20
13.5788
 30
0.0000
 42
1.0000
  0
VERTEX
  8
50
 10
9.7610
 20
13.5788
 30
0.0000
  0
SEQEND
  8
0
  0
POLYLINE
  8
50
 66
1
 10
0.0000
 20
0.0000
 30
0.0000
 40
0.0010
 41
0.0010
 70
0
  0
VERTEX
  8
50
 10
9.7612
 20
11.6103
 30
0.0000
  0
VERTEX
  8
50
 10
19.1592
 20
11.6103
 30
0.0000
  0
SEQEND
  8
0
  0
POLYLINE
  8
50
 66
1
 10
0.0000
 20
0.0000
 30
0.0000
 40
0.0005
 41
0.0005
 70
0
  0
VERTEX
  8
50
 10
19.1592
 20
11.6101
 30
0.0000
 42
1.0000
  0
VERTEX
  8
50
 10
19.1592
 20
11.6106
 30
0.0000
  0
SEQEND
  8
0
  0
POLYLINE
  8
50
 66
1
 10
0.0000
 20
0.0000
 30
0.0000
 40
0.0005
 41
0.0005
 70
0
  0
VERTEX
  8
50
 10
9.7612
 20
11.6106
 30
0.0000
 42
1.0000
  0
VERTEX
  8
50
 10
9.7612
 20
11.6101
 30
0.0000
  0
SEQEND
  8
0
  0
POLYLINE
  8
50
 66
1
 10
0.0000
 20
0.0000
 30
0.0000
 40
0.0010
 41
0.0010
 70
0
  0
VERTEX
  8
50
 10
19.1592
 20
11.6103
 30
0.0000
  0
VERTEX
  8
50
 10
19.1592
 20
13.5788
 30
0.0000
  0
SEQEND
  8
0
  0
POLYLINE
  8
50
 66
1
 10
0.0000
 20
0.0000
 30
0.0000
 40
0.0005
 41
0.0005
 70
0
  0
VERTEX
  8
50
 10
19.1595
 20
13.5788
 30
0.0000
 42
1.0000
  0
VERTEX
  8
50
 10
19.1590
 20
13.5788
 30
0.0000
  0
SEQEND
  8
0
  0
POLYLINE
  8
50
 66
1
 10
0.0000
 20
0.0000
 30
0.0000
 40
0.0005
 41
0.0005
 70
0
  0
VERTEX
  8
50
 10
19.1590
 20
11.6103
 30
0.0000
 42
1.0000
  0
VERTEX
  8
50
 10
19.1595
 20
11.6103
 30
0.0000
  0
SEQEND
  8
0
  0
POLYLINE
  8
50
 66
1
 10
0.0000
 20
0.0000
 30
0.0000
 40
0.0010
 41
0.0010
 70
0
  0
VERTEX
  8
50
 10
19.1592
 20
13.5788
 30
0.0000
  0
VERTEX
  8
50
 10
9.7612
 20
13.5788
 30
0.0000
  0
SEQEND
  8
0
  0
POLYLINE
  8
50
 66
1
 10
0.0000
 20
0.0000
 30
0.0000
 40
0.0005
 41
0.0005
 70
0
  0
VERTEX
  8
50
 10
9.7612
 20
13.5791
 30
0.0000
 42
1.0000
  0
VERTEX
  8
50
 10
9.7612
 20
13.5786
 30
0.0000
  0
SEQEND
  8
0
  0
POLYLINE
  8
50
 66
1
 10
0.0000
 20
0.0000
 30
0.0000
 40
0.0005
 41
0.0005
 70
0
  0
VERTEX
  8
50
 10
19.1592
 20
13.5786
 30
0.0000
 42
1.0000
  0
VERTEX
  8
50
 10
19.1592
 20
13.5791
 30
0.0000
  0
SEQEND
  8
0
  0
POLYLINE
  8
50
 66
1
 10
0.0000
 20
0.0000
 30
0.0000
 40
0.0010
 41
0.0010
 70
0
  0
VERTEX
  8
50
 10
15.7658
 20
16.0934
 30
0.0000
  0
VERTEX
  8
50
 10
15.7658
 20
14.1224
 30
0.0000
  0
SEQEND
  8
0
  0
POLYLINE
  8
50
 66
1
 10
0.0000
 20
0.0000
 30
0.0000
 40
0.0005
 41
0.0005
 70
0
  0
VERTEX
  8
50
 10
15.7655
 20
14.1224
 30
0.0000
 42
1.0000
  0
VERTEX
  8
50
 10
15.7660
 20
14.1224
 30
0.0000
  0
SEQEND
  8
0
  0
POLYLINE
  8
50
 66
1
 10
0.0000
 20
0.0000
 30
0.0000
 40
0.0005
 41
0.0005
 70
0
  0
VERTEX
  8
50
 10
15.7660
 20
16.0934
 30
0.0000
 42
1.0000
  0
VERTEX
  8
50
 10
15.7655
 20
16.0934
 30
0.0000
  0
SEQEND
  8
0
  0
POLYLINE
  8
50
 66
1
 10
0.0000
 20
0.0000
 30
0.0000
 40
0.0010
 41
0.0010
 70
0
  0
VERTEX
  8
50
 10
15.7658
 20
14.1224
 30
0.0000
  0
VERTEX
  8
50
 10
32.2555
 20
14.1224
 30
0.0000
  0
SEQEND
  8
0
  0
POLYLINE
  8
50
 66
1
 10
0.0000
 20
0.0000
 30
0.0000
 40
0.0005
 41
0.0005
 70
0
  0
VERTEX
  8
50
 10
32.2555
 20
14.1221
 30
0.0000
 42
1.0000
  0
VERTEX
  8
50
 10
32.2555
 20
14.1226
 30
0.0000
  0
SEQEND
  8
0
  0
POLYLINE
  8
50
 66
1
 10
0.0000
 20
0.0000
 30
0.0000
 40
0.0005
 41
0.0005
 70
0
  0
VERTEX
  8
50
 10
15.7658
 20
14.1226
 30
0.0000
 42
1.0000
  0
VERTEX
  8
50
 10
15.7658
 20
14.1221
 30
0.0000
  0
SEQEND
  8
0
  0
POLYLINE
  8
50
 66
1
 10
0.0000
 20
0.0000
 30
0.0000
 40
0.0010
 41
0.0010
 70
0
  0
VERTEX
  8
50
 10
32.2555
 20
14.1224
 30
0.0000
  0
VERTEX
  8
50
 10
32.2555
 20
16.0934
 30
0.0000
  0
SEQEND
  8
0
  0
POLYLINE
  8
50
 66
1
 10
0.0000
 20
0.0000
 30
0.0000
 40
0.0005
 41
0.0005
 70
0
  0
VERTEX
  8
50
 10
32.2557
 20
16.0934
 30
0.0000
 42
1.0000
  0
VERTEX
  8
50
 10
32.2552
 20
16.0934
 30
0.0000
  0
SEQEND
  8
0
  0
POLYLINE
  8
50
 66
1
 10
0.0000
 20
0.0000
 30
0.0000
 40
0.0005
 41
0.0005
 70
0
  0
VERTEX
  8
50
 10
32.2552
 20
14.1224
 30
0.0000
 42
1.0000
  0
VERTEX
  8
50
 10
32.2557
 20
14.1224
 30
0.0000
  0
SEQEND
  8
0
  0
POLYLINE
  8
50
 66
1
 10
0.0000
 20
0.0000
 30
0.0000
 40
0.0010
 41
0.0010
 70
0
  0
VERTEX
  8
50
 10
32.2555
 20
16.0934
 30
0.0000
  0
VERTEX
  8
50
 10
15.7658
 20
16.0934
 30
0.0000
  0
SEQEND
  8
0
  0
POLYLINE
  8
50
 66
1
 10
0.0000
 20
0.0000
 30
0.0000
 40
0.0005
 41
0.0005
 70
0
  0
VERTEX
  8
50
 10
15.7658
 20
16.0937
 30
0.0000
 42
1.0000
  0
VERTEX
  8
50
 10
15.7658
 20
16.0932
 30
0.0000
  0
SEQEND
  8
0
  0
POLYLINE
  8
50
 66
1
 10
0.0000
 20
0.0000
 30
0.0000
 40
0.0005
 41
0.0005
 70
0
  0
VERTEX
  8
50
 10
32.2555
 20
16.0932
 30
0.0000
 42
1.0000
  0
VERTEX
  8
50
 10
32.2555
 20
16.0937
 30
0.0000
  0
SEQEND
  8
0
  0
POLYLINE
  8
50
 66
1
 10
0.0000
 20
0.0000
 30
0.0000
 40
0.0010
 41
0.0010
 70
0
  0
VERTEX
  8
50
 10
15.7683
 20
23.5941
 30
0.0000
  0
VERTEX
  8
50
 10
15.7683
 20
21.6230
 30
0.0000
  0
SEQEND
  8
0
  0
POLYLINE
  8
50
 66
1
 10
0.0000
 20
0.0000
 30
0.0000
 40
0.0005
 41
0.0005
 70
0
  0
VERTEX
  8
50
 10
15.7681
 20
21.6230
 30
0.0000
 42
1.0000
  0
VERTEX
  8
50
 10
15.7686
 20
21.6230
 30
0.0000
  0
SEQEND
  8
0
  0
POLYLINE
  8
50
 66
1
 10
0.0000
 20
0.0000
 30
0.0000
 40
0.0005
 41
0.0005
 70
0
  0
VERTEX
  8
50
 10
15.7686
 20
23.5941
 30
0.0000
 42
1.0000
  0
VERTEX
  8
50
 10
15.7681
 20
23.5941
 30
0.0000
  0
SEQEND
  8
0
  0
POLYLINE
  8
50
 66
1
 10
0.0000
 20
0.0000
 30
0.0000
 40
0.0010
 41
0.0010
 70
0
  0
VERTEX
  8
50
 10
15.7683
 20
21.6230
 30
0.0000
  0
VERTEX
  8
50
 10
32.2580
 20
21.6230
 30
0.0000
  0
SEQEND
  8
0
  0
POLYLINE
  8
50
 66
1
 10
0.0000
 20
0.0000
 30
0.0000
 40
0.0005
 41
0.0005
 70
0
  0
VERTEX
  8
50
 10
32.2580
 20
21.6228
 30
0.0000
 42
1.0000
  0
VERTEX
  8
50
 10
32.2580
 20
21.6233
 30
0.0000
  0
SEQEND
  8
0
  0
POLYLINE
  8
50
 66
1
 10
0.0000
 20
0.0000
 30
0.0000
 40
0.0005
 41
0.0005
 70
0
  0
VERTEX
  8
50
 10
15.7683
 20
21.6233
 30
0.0000
 42
1.0000
  0
VERTEX
  8
50
 10
15.7683
 20
21.6228
 30
0.0000
  0
SEQEND
  8
0
  0
POLYLINE
  8
50
 66
1
 10
0.0000
 20
0.0000
 30
0.0000
 40
0.0010
 41
0.0010
 70
0
  0
VERTEX
  8
50
 10
32.2580
 20
21.6230
 30
0.0000
  0
VERTEX
  8
50
 10
32.2580
 20
23.5941
 30
0.0000
  0
SEQEND
  8
0
  0
POLYLINE
  8
50
 66
1
 10
0.0000
 20
0.0000
 30
0.0000
 40
0.0005
 41
0.0005
 70
0
  0
VERTEX
  8
50
 10
32.2583
 20
23.5941
 30
0.0000
 42
1.0000
  0
VERTEX
  8
50
 10
32.2578
 20
23.5941
 30
0.0000
  0
SEQEND
  8
0
  0
POLYLINE
  8
50
 66
1
 10
0.0000
 20
0.0000
 30
0.0000
 40
0.0005
 41
0.0005
 70
0
  0
VERTEX
  8
50
 10
32.2578
 20
21.6230
 30
0.0000
 42
1.0000
  0
VERTEX
  8
50
 10
32.2583
 20
21.6230
 30
0.0000
  0
SEQEND
  8
0
  0
POLYLINE
  8
50
 66
1
 10
0.0000
 20
0.0000
 30
0.0000
 40
0.0010
 41
0.0010
 70
0
  0
VERTEX
  8
50
 10
32.2580
 20
23.5941
 30
0.0000
  0
VERTEX
  8
50
 10
15.7683
 20
23.5941
 30
0.0000
  0
SEQEND
  8
0
  0
POLYLINE
  8
50
 66
1
 10
0.0000
 20
0.0000
 30
0.0000
 40
0.0005
 41
0.0005
 70
0
  0
VERTEX
  8
50
 10
15.7683
 20
23.5943
 30
0.0000
 42
1.0000
  0
VERTEX
  8
50
 10
15.7683
 20
23.5938
 30
0.0000
  0
SEQEND
  8
0
  0
POLYLINE
  8
50
 66
1
 10
0.0000
 20
0.0000
 30
0.0000
 40
0.0005
 41
0.0005
 70
0
  0
VERTEX
  8
50
 10
32.2580
 20
23.5938
 30
0.0000
 42
1.0000
  0
VERTEX
  8
50
 10
32.2580
 20
23.5943
 30
0.0000
  0
SEQEND
  8
0
  0
POLYLINE
  8
50
 66
1
 10
0.0000
 20
0.0000
 30
0.0000
 40
0.0010
 41
0.0010
 70
0
  0
VERTEX
  8
50
 10
15.7683
 20
31.0744
 30
0.0000
  0
VERTEX
  8
50
 10
15.7683
 20
29.1033
 30
0.0000
  0
SEQEND
  8
0
  0
POLYLINE
  8
50
 66
1
 10
0.0000
 20
0.0000
 30
0.0000
 40
0.0005
 41
0.0005
 70
0
  0
VERTEX
  8
50
 10
15.7681
 20
29.1033
 30
0.0000
 42
1.0000
  0
VERTEX
  8
50
 10
15.7686
 20
29.1033
 30
0.0000
  0
SEQEND
  8
0
  0
POLYLINE
  8
50
 66
1
 10
0.0000
 20
0.0000
 30
0.0000
 40
0.0005
 41
0.0005
 70
0
  0
VERTEX
  8
50
 10
15.7686
 20
31.0744
 30
0.0000
 42
1.0000
  0
VERTEX
  8
50
 10
15.7681
 20
31.0744
 30
0.0000
  0
SEQEND
  8
0
  0
POLYLINE
  8
50
 66
1
 10
0.0000
 20
0.0000
 30
0.0000
 40
0.0010
 41
0.0010
 70
0
  0
VERTEX
  8
50
 10
15.7683
 20
29.1033
 30
0.0000
  0
VERTEX
  8
50
 10
32.2580
 20
29.1033
 30
0.0000
  0
SEQEND
  8
0
  0
POLYLINE
  8
50
 66
1
 10
0.0000
 20
0.0000
 30
0.0000
 40
0.0005
 41
0.0005
 70
0
  0
VERTEX
  8
50
 10
32.2580
 20
29.1031
 30
0.0000
 42
1.0000
  0
VERTEX
  8
50
 10
32.2580
 20
29.1036
 30
0.0000
  0
SEQEND
  8
0
  0
POLYLINE
  8
50
 66
1
 10
0.0000
 20
0.0000
 30
0.0000
 40
0.0005
 41
0.0005
 70
0
  0
VERTEX
  8
50
 10
15.7683
 20
29.1036
 30
0.0000
 42
1.0000
  0
VERTEX
  8
50
 10
15.7683
 20
29.1031
 30
0.0000
  0
SEQEND
  8
0
  0
POLYLINE
  8
50
 66
1
 10
0.0000
 20
0.0000
 30
0.0000
 40
0.0010
 41
0.0010
 70
0
  0
VERTEX
  8
50
 10
32.2580
 20
29.1033
 30
0.0000
  0
VERTEX
  8
50
 10
32.2580
 20
31.0744
 30
0.0000
  0
SEQEND
  8
0
  0
POLYLINE
  8
50
 66
1
 10
0.0000
 20
0.0000
 30
0.0000
 40
0.0005
 41
0.0005
 70
0
  0
VERTEX
  8
50
 10
32.2583
 20
31.0744
 30
0.0000
 42
1.0000
  0
VERTEX
  8
50
 10
32.2578
 20
31.0744
 30
0.0000
  0
SEQEND
  8
0
  0
POLYLINE
  8
50
 66
1
 10
0.0000
 20
0.0000
 30
0.0000
 40
0.0005
 41
0.0005
 70
0
  0
VERTEX
  8
50
 10
32.2578
 20
29.1033
 30
0.0000
 42
1.0000
  0
VERTEX
  8
50
 10
32.2583
 20
29.1033
 30
0.0000
  0
SEQEND
  8
0
  0
POLYLINE
  8
50
 66
1
 10
0.0000
 20
0.0000
 30
0.0000
 40
0.0010
 41
0.0010
 70
0
  0
VERTEX
  8
50
 10
32.2580
 20
31.0744
 30
0.0000
  0
VERTEX
  8
50
 10
15.7683
 20
31.0744
 30
0.0000
  0
SEQEND
  8
0
  0
POLYLINE
  8
50
 66
1
 10
0.0000
 20
0.0000
 30
0.0000
 40
0.0005
 41
0.0005
 70
0
  0
VERTEX
  8
50
 10
15.7683
 20
31.0746
 30
0.0000
 42
1.0000
  0
VERTEX
  8
50
 10
15.7683
 20
31.0741
 30
0.0000
  0
SEQEND
  8
0
  0
POLYLINE
  8
50
 66
1
 10
0.0000
 20
0.0000
 30
0.0000
 40
0.0005
 41
0.0005
 70
0
  0
VERTEX
  8
50
 10
32.2580
 20
31.0741
 30
0.0000
 42
1.0000
  0
VERTEX
  8
50
 10
32.2580
 20
31.0746
 30
0.0000
  0
SEQEND
  8
0
  0
POLYLINE
  8
50
 66
1
 10
0.0000
 20
0.0000
 30
0.0000
 40
0.0010
 41
0.0010
 70
0
  0
VERTEX
  8
50
 10
4.7600
 20
40.0000
 30
0.0000
 42
1.0000
  0
VERTEX
  8
50
 10
4.7600
 20
43.0000
 30
0.0000
 42
1.0000
  0
VERTEX
  8
50
 10
4.7600
 20
40.0000
 30
0.0000
  0
SEQEND
  8
0
  0
POLYLINE
  8
50
 66
1
 10
0.0000
 20
0.0000
 30
0.0000
 40
0.0010
 41
0.0010
 70
0
  0
VERTEX
  8
50
 10
44.2600
 20
40.0000
 30
0.0000
 42
1.0000
  0
VERTEX
  8
50
 10
44.2600
 20
43.0000
 30
0.0000
 42
1.0000
  0
VERTEX
  8
50
 10
44.2600
 20
40.0000
 30
0.0000
  0
SEQEND
  8
0
  0
POLYLINE
  8
50
 66
1
 10
0.0000
 20
0.0000
 30
0.0000
 40
0.0010
 41
0.0010
 70
0
  0
VERTEX
  8
50
 10
44.2600
 20
2.0000
 30
0.0000
 42
1.0000
  0
VERTEX
  8
50
 10
44.2600
 20
5.0000
 30
0.0000
 42
1.0000
  0
VERTEX
  8
50
 10
44.2600
 20
2.0000
 30
0.0000
  0
SEQEND
  8
0
  0
POLYLINE
  8
50
 66
1
 10
0.0000
 20
0.0000
 30
0.0000
 40
0.0010
 41
0.0010
 70
0
  0
VERTEX
  8
50
 10
4.7600
 20
2.0000
 30
0.0000
 42
1.0000
  0
VERTEX
  8
50
 10
4.7600
 20
5.0000
 30
0.0000
 42
1.0000
  0
VERTEX
  8
50
 10
4.7600
 20
2.0000
 30
0.0000
  0
SEQEND
  8
0
  0
ENDSEC
  0
EOF
