  0
SECTION
  2
HEADER
  9
$ACADVER
  1
AC1009
  9
$FILLMODE
 70
0
  9
$EXTMIN
 10
-0.0716
 20
-0.1270
 30
0.0000
  9
$EXTMAX
 10
206.3824
 20
296.6642
 30
0.0000
  0
ENDSEC
  0
SECTION
  2
TABLES
  0
TABLE
  2
LTYPE
 70
1
  0
LTYPE
  2
CONTINUOUS
 70
64
  3
Solid line
 72
65
 73
0
 40
0
  0
ENDTAB
  0
TABLE
  2
LAYER
 70
255
  0
LAYER
  2
1
 70
64
 62
22
  6
CONTINUOUS
  0
LAYER
  2
16
 70
64
 62
175
  6
CONTINUOUS
  0
LAYER
  2
17
 70
64
 62
82
  6
CONTINUOUS
  0
LAYER
  2
18
 70
64
 62
82
  6
CONTINUOUS
  0
LAYER
  2
19
 70
64
 62
53
  6
CONTINUOUS
  0
LAYER
  2
20
 70
64
 62
30
  6
CONTINUOUS
  0
LAYER
  2
21
 70
64
 62
32
  6
CONTINUOUS
  0
LAYER
  2
22
 70
64
 62
2
  6
CONTINUOUS
  0
LAYER
  2
23
 70
64
 62
7
  6
CONTINUOUS
  0
LAYER
  2
24
 70
64
 62
7
  6
CONTINUOUS
  0
LAYER
  2
25
 70
64
 62
253
  6
CONTINUOUS
  0
LAYER
  2
26
 70
64
 62
253
  6
CONTINUOUS
  0
LAYER
  2
27
 70
64
 62
253
  6
CONTINUOUS
  0
LAYER
  2
28
 70
64
 62
253
  6
CONTINUOUS
  0
LAYER
  2
29
 70
64
 62
253
  6
CONTINUOUS
  0
LAYER
  2
30
 70
64
 62
253
  6
CONTINUOUS
  0
LAYER
  2
31
 70
64
 62
253
  6
CONTINUOUS
  0
LAYER
  2
32
 70
64
 62
253
  6
CONTINUOUS
  0
LAYER
  2
33
 70
64
 62
53
  6
CONTINUOUS
  0
LAYER
  2
34
 70
64
 62
53
  6
CONTINUOUS
  0
LAYER
  2
35
 70
64
 62
253
  6
CONTINUOUS
  0
LAYER
  2
36
 70
64
 62
253
  6
CONTINUOUS
  0
LAYER
  2
37
 70
64
 62
253
  6
CONTINUOUS
  0
LAYER
  2
38
 70
64
 62
253
  6
CONTINUOUS
  0
LAYER
  2
39
 70
64
 62
22
  6
CONTINUOUS
  0
LAYER
  2
40
 70
64
 62
175
  6
CONTINUOUS
  0
LAYER
  2
41
 70
64
 62
22
  6
CONTINUOUS
  0
LAYER
  2
42
 70
64
 62
175
  6
CONTINUOUS
  0
LAYER
  2
43
 70
64
 62
82
  6
CONTINUOUS
  0
LAYER
  2
44
 70
64
 62
253
  6
CONTINUOUS
  0
LAYER
  2
45
 70
64
 62
253
  6
CONTINUOUS
  0
LAYER
  2
46
 70
64
 62
140
  6
CONTINUOUS
  0
LAYER
  2
47
 70
64
 62
253
  6
CONTINUOUS
  0
LAYER
  2
48
 70
64
 62
253
  6
CONTINUOUS
  0
LAYER
  2
49
 70
64
 62
253
  6
CONTINUOUS
  0
LAYER
  2
51
 70
64
 62
53
  6
CONTINUOUS
  0
LAYER
  2
52
 70
64
 62
253
  6
CONTINUOUS
  0
ENDTAB
  0
ENDSEC
  0
SECTION
  2
BLOCKS
  0
BLOCK
  8
0
  2
RECT
 70
64
 10
0.0000
 20
0.0000
 30
0.0000
  3
RECT
  0
SOLID
  8
0
 10
-0.5000
 20
-0.5000
 30
0.0000
 11
0.5000
 21
-0.5000
 31
0.0000
 12
-0.5000
 22
0.5000
 32
0.0000
 13
0.5000
 23
0.5000
 33
0.0000
  0
ENDBLK
  8
0
  0
BLOCK
  8
0
  2
PIE
 70
64
 10
0.0000
 20
0.0000
 30
0.0000
  3
PIE
  0
CIRCLE
  8
0
 10
0.0000
 20
0.0000
 30
0.0000
 40
0.5000
  0
ENDBLK
  8
0
  0
BLOCK
  8
0
  2
OCTAGONP
 70
64
 10
0.0000
 20
0.0000
 30
0.0000
  3
OCTAGONP
  0
POLYLINE
  8
0
 66
1
 10
0.0000
 20
0.0000
 30
0.0000
 40
0.0000
 41
0.0000
 70
1
  0
VERTEX
  8
0
 10
-0.5000
 20
-0.2071
 30
0.0000
  0
VERTEX
  8
0
 10
-0.5000
 20
0.2071
 30
0.0000
  0
VERTEX
  8
0
 10
-0.2071
 20
0.5000
 30
0.0000
  0
VERTEX
  8
0
 10
0.2071
 20
0.5000
 30
0.0000
  0
VERTEX
  8
0
 10
0.5000
 20
0.2071
 30
0.0000
  0
VERTEX
  8
0
 10
0.5000
 20
-0.2071
 30
0.0000
  0
VERTEX
  8
0
 10
0.2071
 20
-0.5000
 30
0.0000
  0
VERTEX
  8
0
 10
-0.2071
 20
-0.5000
 30
0.0000
  0
SEQEND
  8
0
  0
ENDBLK
  8
0
  0
BLOCK
  8
0
  2
SQUAREP
 70
64
 10
0.0000
 20
0.0000
 30
0.0000
  3
SQUAREP
  0
SOLID
  8
0
 10
-0.5000
 20
-0.5000
 30
0.0000
 11
0.5000
 21
-0.5000
 31
0.0000
 12
-0.5000
 22
0.5000
 32
0.0000
 13
0.5000
 23
0.5000
 33
0.0000
  0
ENDBLK
  8
0
  0
BLOCK
  8
0
  2
ROUNDP
 70
64
 10
0.0000
 20
0.0000
 30
0.0000
  3
ROUNDP
  0
CIRCLE
  8
0
 10
0.0000
 20
0.0000
 30
0.0000
 40
0.5000
  0
ENDBLK
  8
0
  0
BLOCK
  8
0
  2
ANNULUSP
 70
64
 10
0.0000
 20
0.0000
 30
0.0000
  3
ANNULUSP
  0
CIRCLE
  8
0
 10
0.0000
 20
0.0000
 30
0.0000
 40
0.5000
  0
ENDBLK
  8
0
  0
BLOCK
  8
0
  2
THERMALP
 70
64
 10
0.0000
 20
0.0000
 30
0.0000
  3
THERMALP
  0
LINE
  8
0
 10
-0.2379
 20
0.4500
 30
0.0000
 11
0.2379
 21
0.4500
 31
0.0000
  0
LINE
  8
0
 10
0.4500
 20
0.2379
 30
0.0000
 11
0.4500
 21
-0.2379
 31
0.0000
  0
LINE
  8
0
 10
0.2379
 20
-0.4500
 30
0.0000
 11
-0.2379
 21
-0.4500
 31
0.0000
  0
LINE
  8
0
 10
-0.4500
 20
-0.2379
 30
0.0000
 11
-0.4500
 21
0.2379
 31
0.0000
  0
ENDBLK
  8
0
  0
BLOCK
  8
0
  2
OCTAGONV
 70
64
 10
0.0000
 20
0.0000
 30
0.0000
  3
OCTAGONV
  0
POLYLINE
  8
0
 66
1
 10
0.0000
 20
0.0000
 30
0.0000
 40
0.0000
 41
0.0000
 70
1
  0
VERTEX
  8
0
 10
-0.5000
 20
-0.2071
 30
0.0000
  0
VERTEX
  8
0
 10
-0.5000
 20
0.2071
 30
0.0000
  0
VERTEX
  8
0
 10
-0.2071
 20
0.5000
 30
0.0000
  0
VERTEX
  8
0
 10
0.2071
 20
0.5000
 30
0.0000
  0
VERTEX
  8
0
 10
0.5000
 20
0.2071
 30
0.0000
  0
VERTEX
  8
0
 10
0.5000
 20
-0.2071
 30
0.0000
  0
VERTEX
  8
0
 10
0.2071
 20
-0.5000
 30
0.0000
  0
VERTEX
  8
0
 10
-0.2071
 20
-0.5000
 30
0.0000
  0
SEQEND
  8
0
  0
ENDBLK
  8
0
  0
BLOCK
  8
0
  2
SQUAREV
 70
64
 10
0.0000
 20
0.0000
 30
0.0000
  3
SQUAREV
  0
SOLID
  8
0
 10
-0.5000
 20
-0.5000
 30
0.0000
 11
0.5000
 21
-0.5000
 31
0.0000
 12
-0.5000
 22
0.5000
 32
0.0000
 13
0.5000
 23
0.5000
 33
0.0000
  0
ENDBLK
  8
0
  0
BLOCK
  8
0
  2
ROUNDV
 70
64
 10
0.0000
 20
0.0000
 30
0.0000
  3
ROUNDV
  0
CIRCLE
  8
0
 10
0.0000
 20
0.0000
 30
0.0000
 40
0.5000
  0
ENDBLK
  8
0
  0
BLOCK
  8
0
  2
ANNULUSV
 70
64
 10
0.0000
 20
0.0000
 30
0.0000
  3
ANNULUSV
  0
CIRCLE
  8
0
 10
0.0000
 20
0.0000
 30
0.0000
 40
0.5000
  0
ENDBLK
  8
0
  0
BLOCK
  8
0
  2
THERMALV
 70
64
 10
0.0000
 20
0.0000
 30
0.0000
  3
THERMALV
  0
LINE
  8
0
 10
-0.2379
 20
0.4500
 30
0.0000
 11
0.2379
 21
0.4500
 31
0.0000
  0
LINE
  8
0
 10
0.4500
 20
0.2379
 30
0.0000
 11
0.4500
 21
-0.2379
 31
0.0000
  0
LINE
  8
0
 10
0.2379
 20
-0.4500
 30
0.0000
 11
-0.2379
 21
-0.4500
 31
0.0000
  0
LINE
  8
0
 10
-0.4500
 20
-0.2379
 30
0.0000
 11
-0.4500
 21
0.2379
 31
0.0000
  0
ENDBLK
  8
0
  0
ENDSEC
  0
SECTION
  2
ENTITIES
  0
LINE
  8
20
 10
206.2554
 20
120.7516
 30
0.0000
 11
206.2554
 21
176.0499
 31
0.0000
  0
LINE
  8
20
 10
95.5548
 20
118.7526
 30
0.0000
 11
103.1547
 21
118.1506
 31
0.0000
  0
LINE
  8
20
 10
95.5548
 20
59.4523
 30
0.0000
 11
103.1547
 21
60.0520
 31
0.0000
  0
LINE
  8
20
 10
0.0554
 20
61.4517
 30
0.0000
 11
0.0554
 21
116.7511
 31
0.0000
  0
LINE
  8
20
 10
0.0554
 20
116.7511
 30
0.0000
 11
0.0859
 21
117.0991
 31
0.0000
  0
LINE
  8
20
 10
0.0859
 20
117.0991
 30
0.0000
 11
0.1753
 21
117.4369
 31
0.0000
  0
LINE
  8
20
 10
0.7691
 20
118.2827
 30
0.0000
 11
1.0544
 21
118.4834
 31
0.0000
  0
LINE
  8
20
 10
1.0544
 20
59.7197
 30
0.0000
 11
0.7691
 21
59.9196
 31
0.0000
  0
LINE
  8
20
 10
0.5225
 20
60.1663
 30
0.0000
 11
0.3228
 21
60.4512
 31
0.0000
  0
LINE
  8
20
 10
2.0549
 20
59.4523
 30
0.0000
 11
1.7074
 21
59.4825
 31
0.0000
  0
LINE
  8
20
 10
1.3714
 20
59.5721
 30
0.0000
 11
1.0544
 21
59.7197
 31
0.0000
  0
LINE
  8
20
 10
0.1753
 20
60.7685
 30
0.0000
 11
0.0859
 21
61.1045
 31
0.0000
  0
LINE
  8
20
 10
1.7074
 20
59.4825
 30
0.0000
 11
1.3714
 21
59.5721
 31
0.0000
  0
LINE
  8
20
 10
0.7691
 20
59.9196
 30
0.0000
 11
0.5225
 21
60.1663
 31
0.0000
  0
LINE
  8
20
 10
1.3714
 20
118.6307
 30
0.0000
 11
1.7074
 21
118.7221
 31
0.0000
  0
LINE
  8
20
 10
0.0859
 20
61.1045
 30
0.0000
 11
0.0554
 21
61.4517
 31
0.0000
  0
LINE
  8
20
 10
0.3228
 20
60.4512
 30
0.0000
 11
0.1753
 21
60.7685
 31
0.0000
  0
LINE
  8
20
 10
0.1753
 20
117.4369
 30
0.0000
 11
0.3228
 21
117.7519
 31
0.0000
  0
LINE
  8
20
 10
0.3228
 20
117.7519
 30
0.0000
 11
0.5225
 21
118.0363
 31
0.0000
  0
LINE
  8
20
 10
0.5225
 20
118.0363
 30
0.0000
 11
0.7691
 21
118.2827
 31
0.0000
  0
LINE
  8
20
 10
1.0544
 20
118.4834
 30
0.0000
 11
1.3714
 21
118.6307
 31
0.0000
  0
LINE
  8
20
 10
1.7074
 20
118.7221
 30
0.0000
 11
2.0549
 21
118.7526
 31
0.0000
  0
LINE
  8
20
 10
103.1547
 20
60.0520
 30
0.0000
 11
103.1547
 21
118.1506
 31
0.0000
  0
LINE
  8
20
 10
95.5548
 20
178.0515
 30
0.0000
 11
103.1547
 21
177.4520
 31
0.0000
  0
LINE
  8
20
 10
103.1547
 20
119.3521
 30
0.0000
 11
103.1547
 21
177.4520
 31
0.0000
  0
LINE
  8
20
 10
95.5548
 20
118.7526
 30
0.0000
 11
103.1547
 21
119.3521
 31
0.0000
  0
LINE
  8
20
 10
1.3714
 20
118.8720
 30
0.0000
 11
1.0544
 21
119.0193
 31
0.0000
  0
LINE
  8
20
 10
1.7074
 20
118.7831
 30
0.0000
 11
1.3714
 21
118.8720
 31
0.0000
  0
LINE
  8
20
 10
0.1753
 20
120.0683
 30
0.0000
 11
0.0859
 21
120.4036
 31
0.0000
  0
LINE
  8
20
 10
0.3228
 20
177.0507
 30
0.0000
 11
0.5225
 21
177.3377
 31
0.0000
  0
LINE
  8
20
 10
1.7074
 20
178.0210
 30
0.0000
 11
2.0549
 21
178.0515
 31
0.0000
  0
LINE
  8
20
 10
0.0554
 20
120.7516
 30
0.0000
 11
0.0554
 21
176.0499
 31
0.0000
  0
LINE
  8
20
 10
1.3714
 20
177.9295
 30
0.0000
 11
1.7074
 21
178.0210
 31
0.0000
  0
LINE
  8
20
 10
0.0859
 20
120.4036
 30
0.0000
 11
0.0554
 21
120.7516
 31
0.0000
  0
LINE
  8
20
 10
0.3228
 20
119.7508
 30
0.0000
 11
0.1753
 21
120.0683
 31
0.0000
  0
LINE
  8
20
 10
0.0554
 20
176.0499
 30
0.0000
 11
0.0859
 21
176.4005
 31
0.0000
  0
LINE
  8
20
 10
0.7691
 20
177.5841
 30
0.0000
 11
1.0544
 21
177.7822
 31
0.0000
  0
LINE
  8
20
 10
2.0549
 20
178.0515
 30
0.0000
 11
95.5548
 21
178.0515
 31
0.0000
  0
LINE
  8
20
 10
2.0549
 20
118.7526
 30
0.0000
 11
1.7074
 21
118.7831
 31
0.0000
  0
LINE
  8
20
 10
2.0549
 20
118.7526
 30
0.0000
 11
95.5548
 21
118.7526
 31
0.0000
  0
LINE
  8
20
 10
1.0544
 20
177.7822
 30
0.0000
 11
1.3714
 21
177.9295
 31
0.0000
  0
LINE
  8
20
 10
1.0544
 20
119.0193
 30
0.0000
 11
0.7691
 21
119.2200
 31
0.0000
  0
LINE
  8
20
 10
0.0859
 20
176.4005
 30
0.0000
 11
0.1753
 21
176.7357
 31
0.0000
  0
LINE
  8
20
 10
0.5225
 20
119.4664
 30
0.0000
 11
0.3228
 21
119.7508
 31
0.0000
  0
LINE
  8
20
 10
0.5225
 20
177.3377
 30
0.0000
 11
0.7691
 21
177.5841
 31
0.0000
  0
LINE
  8
20
 10
0.7691
 20
119.2200
 30
0.0000
 11
0.5225
 21
119.4664
 31
0.0000
  0
LINE
  8
20
 10
0.1753
 20
176.7357
 30
0.0000
 11
0.3228
 21
177.0507
 31
0.0000
  0
LINE
  8
20
 10
110.7547
 20
178.0515
 30
0.0000
 11
103.1547
 21
177.4520
 31
0.0000
  0
LINE
  8
20
 10
110.7547
 20
118.7526
 30
0.0000
 11
103.1547
 21
119.3521
 31
0.0000
  0
LINE
  8
20
 10
205.7870
 20
177.3377
 30
0.0000
 11
205.9866
 21
177.0507
 31
0.0000
  0
LINE
  8
20
 10
205.2549
 20
177.7822
 30
0.0000
 11
205.5401
 21
177.5841
 31
0.0000
  0
LINE
  8
20
 10
204.2544
 20
178.0515
 30
0.0000
 11
110.7547
 21
178.0515
 31
0.0000
  0
LINE
  8
20
 10
204.6016
 20
178.0210
 30
0.0000
 11
204.9391
 21
177.9295
 31
0.0000
  0
LINE
  8
20
 10
206.2251
 20
176.4005
 30
0.0000
 11
206.2554
 21
176.0499
 31
0.0000
  0
LINE
  8
20
 10
204.2544
 20
178.0515
 30
0.0000
 11
204.6016
 21
178.0210
 31
0.0000
  0
LINE
  8
20
 10
206.1339
 20
176.7357
 30
0.0000
 11
206.2251
 21
176.4005
 31
0.0000
  0
LINE
  8
20
 10
205.5401
 20
177.5841
 30
0.0000
 11
205.7870
 21
177.3377
 31
0.0000
  0
LINE
  8
20
 10
205.9866
 20
177.0507
 30
0.0000
 11
206.1339
 21
176.7357
 31
0.0000
  0
LINE
  8
20
 10
204.9391
 20
177.9295
 30
0.0000
 11
205.2549
 21
177.7822
 31
0.0000
  0
LINE
  8
20
 10
205.9866
 20
119.7508
 30
0.0000
 11
205.7870
 21
119.4664
 31
0.0000
  0
LINE
  8
20
 10
204.2544
 20
118.7526
 30
0.0000
 11
110.7547
 21
118.7526
 31
0.0000
  0
LINE
  8
20
 10
206.1339
 20
120.0683
 30
0.0000
 11
205.9866
 21
119.7508
 31
0.0000
  0
LINE
  8
20
 10
204.9391
 20
118.8720
 30
0.0000
 11
204.6016
 21
118.7831
 31
0.0000
  0
LINE
  8
20
 10
205.2549
 20
119.0193
 30
0.0000
 11
204.9391
 21
118.8720
 31
0.0000
  0
LINE
  8
20
 10
204.6016
 20
118.7831
 30
0.0000
 11
204.2544
 21
118.7526
 31
0.0000
  0
LINE
  8
20
 10
205.5401
 20
119.2200
 30
0.0000
 11
205.2549
 21
119.0193
 31
0.0000
  0
LINE
  8
20
 10
205.7870
 20
119.4664
 30
0.0000
 11
205.5401
 21
119.2200
 31
0.0000
  0
LINE
  8
20
 10
206.2251
 20
120.4036
 30
0.0000
 11
206.1339
 21
120.0683
 31
0.0000
  0
LINE
  8
20
 10
206.2554
 20
120.7516
 30
0.0000
 11
206.2251
 21
120.4036
 31
0.0000
  0
LINE
  8
20
 10
206.2554
 20
61.4517
 30
0.0000
 11
206.2554
 21
116.7511
 31
0.0000
  0
LINE
  8
20
 10
110.7547
 20
118.7526
 30
0.0000
 11
103.1547
 21
118.1506
 31
0.0000
  0
LINE
  8
20
 10
205.2549
 20
118.4834
 30
0.0000
 11
205.5401
 21
118.2827
 31
0.0000
  0
LINE
  8
20
 10
205.5401
 20
118.2827
 30
0.0000
 11
205.7870
 21
118.0363
 31
0.0000
  0
LINE
  8
20
 10
205.9866
 20
117.7519
 30
0.0000
 11
206.1339
 21
117.4369
 31
0.0000
  0
LINE
  8
20
 10
204.6016
 20
118.7221
 30
0.0000
 11
204.9391
 21
118.6307
 31
0.0000
  0
LINE
  8
20
 10
110.7547
 20
59.4523
 30
0.0000
 11
103.1547
 21
60.0520
 31
0.0000
  0
LINE
  8
20
 10
204.2544
 20
118.7526
 30
0.0000
 11
204.6016
 21
118.7221
 31
0.0000
  0
LINE
  8
20
 10
204.9391
 20
118.6307
 30
0.0000
 11
205.2549
 21
118.4834
 31
0.0000
  0
LINE
  8
20
 10
205.7870
 20
118.0363
 30
0.0000
 11
205.9866
 21
117.7519
 31
0.0000
  0
LINE
  8
20
 10
206.1339
 20
117.4369
 30
0.0000
 11
206.2251
 21
117.0991
 31
0.0000
  0
LINE
  8
20
 10
206.2251
 20
117.0991
 30
0.0000
 11
206.2554
 21
116.7511
 31
0.0000
  0
LINE
  8
20
 10
204.6016
 20
59.4825
 30
0.0000
 11
204.2544
 21
59.4523
 31
0.0000
  0
LINE
  8
20
 10
205.5401
 20
59.9196
 30
0.0000
 11
205.2549
 21
59.7197
 31
0.0000
  0
LINE
  8
20
 10
206.2554
 20
61.4517
 30
0.0000
 11
206.2251
 21
61.1045
 31
0.0000
  0
LINE
  8
20
 10
205.9866
 20
60.4512
 30
0.0000
 11
205.7870
 21
60.1663
 31
0.0000
  0
LINE
  8
20
 10
205.2549
 20
59.7197
 30
0.0000
 11
204.9391
 21
59.5721
 31
0.0000
  0
LINE
  8
20
 10
204.9391
 20
59.5721
 30
0.0000
 11
204.6016
 21
59.4825
 31
0.0000
  0
LINE
  8
20
 10
206.2251
 20
61.1045
 30
0.0000
 11
206.1339
 21
60.7685
 31
0.0000
  0
LINE
  8
20
 10
206.1339
 20
60.7685
 30
0.0000
 11
205.9866
 21
60.4512
 31
0.0000
  0
LINE
  8
20
 10
205.7870
 20
60.1663
 30
0.0000
 11
205.5401
 21
59.9196
 31
0.0000
  0
LINE
  8
20
 10
205.9866
 20
236.3546
 30
0.0000
 11
206.1339
 21
236.0371
 31
0.0000
  0
LINE
  8
20
 10
110.7547
 20
237.3528
 30
0.0000
 11
103.1547
 21
236.7534
 31
0.0000
  0
LINE
  8
20
 10
206.2554
 20
235.3513
 30
0.0000
 11
206.2554
 21
180.0504
 31
0.0000
  0
LINE
  8
20
 10
204.2544
 20
237.3528
 30
0.0000
 11
204.6016
 21
237.3198
 31
0.0000
  0
LINE
  8
20
 10
204.6016
 20
237.3198
 30
0.0000
 11
204.9391
 21
237.2335
 31
0.0000
  0
LINE
  8
20
 10
204.9391
 20
237.2335
 30
0.0000
 11
205.2549
 21
237.0836
 31
0.0000
  0
LINE
  8
20
 10
205.2549
 20
237.0836
 30
0.0000
 11
205.5401
 21
236.8829
 31
0.0000
  0
LINE
  8
20
 10
110.7547
 20
178.0515
 30
0.0000
 11
103.1547
 21
178.6509
 31
0.0000
  0
LINE
  8
20
 10
205.5401
 20
236.8829
 30
0.0000
 11
205.7870
 21
236.6366
 31
0.0000
  0
LINE
  8
20
 10
206.2251
 20
235.6968
 30
0.0000
 11
206.2554
 21
235.3513
 31
0.0000
  0
LINE
  8
20
 10
206.1339
 20
236.0371
 30
0.0000
 11
206.2251
 21
235.6968
 31
0.0000
  0
LINE
  8
20
 10
205.7870
 20
236.6366
 30
0.0000
 11
205.9866
 21
236.3546
 31
0.0000
  0
LINE
  8
20
 10
206.2554
 20
180.0504
 30
0.0000
 11
206.2251
 21
179.7050
 31
0.0000
  0
LINE
  8
20
 10
204.6016
 20
178.0819
 30
0.0000
 11
204.2544
 21
178.0515
 31
0.0000
  0
LINE
  8
20
 10
204.9391
 20
178.1734
 30
0.0000
 11
204.6016
 21
178.0819
 31
0.0000
  0
LINE
  8
20
 10
205.2549
 20
178.3182
 30
0.0000
 11
204.9391
 21
178.1734
 31
0.0000
  0
LINE
  8
20
 10
205.5401
 20
178.5188
 30
0.0000
 11
205.2549
 21
178.3182
 31
0.0000
  0
LINE
  8
20
 10
205.7870
 20
178.7652
 30
0.0000
 11
205.5401
 21
178.5188
 31
0.0000
  0
LINE
  8
20
 10
205.9866
 20
179.0522
 30
0.0000
 11
205.7870
 21
178.7652
 31
0.0000
  0
LINE
  8
20
 10
206.1339
 20
179.3672
 30
0.0000
 11
205.9866
 21
179.0522
 31
0.0000
  0
LINE
  8
20
 10
206.2251
 20
179.7050
 30
0.0000
 11
206.1339
 21
179.3672
 31
0.0000
  0
LINE
  8
20
 10
0.5225
 20
236.6366
 30
0.0000
 11
0.7691
 21
236.8829
 31
0.0000
  0
LINE
  8
20
 10
0.7691
 20
236.8829
 30
0.0000
 11
1.0544
 21
237.0836
 31
0.0000
  0
LINE
  8
20
 10
103.1547
 20
178.6509
 30
0.0000
 11
103.1547
 21
236.7534
 31
0.0000
  0
LINE
  8
20
 10
95.5548
 20
178.0515
 30
0.0000
 11
103.1547
 21
178.6509
 31
0.0000
  0
LINE
  8
20
 10
0.0554
 20
180.0504
 30
0.0000
 11
0.0554
 21
235.3513
 31
0.0000
  0
LINE
  8
20
 10
95.5548
 20
237.3528
 30
0.0000
 11
103.1547
 21
236.7534
 31
0.0000
  0
LINE
  8
20
 10
0.3228
 20
236.3546
 30
0.0000
 11
0.5225
 21
236.6366
 31
0.0000
  0
LINE
  8
20
 10
0.0554
 20
235.3513
 30
0.0000
 11
0.0859
 21
235.6968
 31
0.0000
  0
LINE
  8
20
 10
1.7074
 20
178.0819
 30
0.0000
 11
1.3714
 21
178.1734
 31
0.0000
  0
LINE
  8
20
 10
0.0859
 20
235.6968
 30
0.0000
 11
0.1753
 21
236.0371
 31
0.0000
  0
LINE
  8
20
 10
0.1753
 20
236.0371
 30
0.0000
 11
0.3228
 21
236.3546
 31
0.0000
  0
LINE
  8
20
 10
0.0859
 20
179.7050
 30
0.0000
 11
0.0554
 21
180.0504
 31
0.0000
  0
LINE
  8
20
 10
1.0544
 20
178.3182
 30
0.0000
 11
0.7691
 21
178.5188
 31
0.0000
  0
LINE
  8
20
 10
1.3714
 20
237.2335
 30
0.0000
 11
1.7074
 21
237.3198
 31
0.0000
  0
LINE
  8
20
 10
1.3714
 20
178.1734
 30
0.0000
 11
1.0544
 21
178.3182
 31
0.0000
  0
LINE
  8
20
 10
0.5225
 20
178.7652
 30
0.0000
 11
0.3228
 21
179.0522
 31
0.0000
  0
LINE
  8
20
 10
2.0549
 20
178.0515
 30
0.0000
 11
1.7074
 21
178.0819
 31
0.0000
  0
LINE
  8
20
 10
0.1753
 20
179.3672
 30
0.0000
 11
0.0859
 21
179.7050
 31
0.0000
  0
LINE
  8
20
 10
0.7691
 20
178.5188
 30
0.0000
 11
0.5225
 21
178.7652
 31
0.0000
  0
LINE
  8
20
 10
1.0544
 20
237.0836
 30
0.0000
 11
1.3714
 21
237.2335
 31
0.0000
  0
LINE
  8
20
 10
0.3228
 20
179.0522
 30
0.0000
 11
0.1753
 21
179.3672
 31
0.0000
  0
LINE
  8
20
 10
1.7074
 20
237.3198
 30
0.0000
 11
2.0549
 21
237.3528
 31
0.0000
  0
LINE
  8
20
 10
95.5548
 20
0.1514
 30
0.0000
 11
103.1547
 21
0.7521
 31
0.0000
  0
LINE
  8
20
 10
95.5548
 20
59.4523
 30
0.0000
 11
103.1547
 21
58.8516
 31
0.0000
  0
LINE
  8
20
 10
0.0554
 20
2.1524
 30
0.0000
 11
0.0554
 21
57.4518
 31
0.0000
  0
LINE
  8
20
 10
2.0549
 20
0.1514
 30
0.0000
 11
95.5548
 21
0.1514
 31
0.0000
  0
LINE
  8
20
 10
0.1753
 20
58.1350
 30
0.0000
 11
0.3228
 21
58.4518
 31
0.0000
  0
LINE
  8
20
 10
1.7074
 20
59.4218
 30
0.0000
 11
2.0549
 21
59.4523
 31
0.0000
  0
LINE
  8
20
 10
1.3714
 20
59.3314
 30
0.0000
 11
1.7074
 21
59.4218
 31
0.0000
  0
LINE
  8
20
 10
1.3714
 20
0.2728
 30
0.0000
 11
1.0544
 21
0.4199
 31
0.0000
  0
LINE
  8
20
 10
2.0549
 20
59.4523
 30
0.0000
 11
95.5548
 21
59.4523
 31
0.0000
  0
LINE
  8
20
 10
1.0544
 20
59.1838
 30
0.0000
 11
1.3714
 21
59.3314
 31
0.0000
  0
LINE
  8
20
 10
0.7691
 20
58.9836
 30
0.0000
 11
1.0544
 21
59.1838
 31
0.0000
  0
LINE
  8
20
 10
0.5225
 20
58.7373
 30
0.0000
 11
0.7691
 21
58.9836
 31
0.0000
  0
LINE
  8
20
 10
0.3228
 20
58.4518
 30
0.0000
 11
0.5225
 21
58.7373
 31
0.0000
  0
LINE
  8
20
 10
0.0859
 20
57.7987
 30
0.0000
 11
0.1753
 21
58.1350
 31
0.0000
  0
LINE
  8
20
 10
0.0554
 20
57.4518
 30
0.0000
 11
0.0859
 21
57.7987
 31
0.0000
  0
LINE
  8
20
 10
0.0859
 20
1.8049
 30
0.0000
 11
0.0554
 21
2.1524
 31
0.0000
  0
LINE
  8
20
 10
0.1753
 20
1.4671
 30
0.0000
 11
0.0859
 21
1.8049
 31
0.0000
  0
LINE
  8
20
 10
0.3228
 20
1.1519
 30
0.0000
 11
0.1753
 21
1.4671
 31
0.0000
  0
LINE
  8
20
 10
0.5225
 20
0.8664
 30
0.0000
 11
0.3228
 21
1.1519
 31
0.0000
  0
LINE
  8
20
 10
0.7691
 20
0.6198
 30
0.0000
 11
0.5225
 21
0.8664
 31
0.0000
  0
LINE
  8
20
 10
1.0544
 20
0.4199
 30
0.0000
 11
0.7691
 21
0.6198
 31
0.0000
  0
LINE
  8
20
 10
1.7074
 20
0.1816
 30
0.0000
 11
1.3714
 21
0.2728
 31
0.0000
  0
LINE
  8
20
 10
2.0549
 20
0.1514
 30
0.0000
 11
1.7074
 21
0.1816
 31
0.0000
  0
LINE
  8
20
 10
206.2251
 20
57.7987
 30
0.0000
 11
206.2554
 21
57.4518
 31
0.0000
  0
LINE
  8
20
 10
205.2549
 20
0.4199
 30
0.0000
 11
204.9391
 21
0.2728
 31
0.0000
  0
LINE
  8
20
 10
204.2544
 20
0.1514
 30
0.0000
 11
110.7547
 21
0.1514
 31
0.0000
  0
LINE
  8
20
 10
204.2544
 20
59.4523
 30
0.0000
 11
204.6016
 21
59.4218
 31
0.0000
  0
LINE
  8
20
 10
205.5401
 20
0.6198
 30
0.0000
 11
205.2549
 21
0.4199
 31
0.0000
  0
LINE
  8
20
 10
206.2554
 20
2.1524
 30
0.0000
 11
206.2251
 21
1.8049
 31
0.0000
  0
LINE
  8
20
 10
205.9866
 20
1.1519
 30
0.0000
 11
205.7870
 21
0.8664
 31
0.0000
  0
LINE
  8
20
 10
205.7870
 20
0.8664
 30
0.0000
 11
205.5401
 21
0.6198
 31
0.0000
  0
LINE
  8
20
 10
205.5401
 20
58.9836
 30
0.0000
 11
205.7870
 21
58.7373
 31
0.0000
  0
LINE
  8
20
 10
204.6016
 20
59.4218
 30
0.0000
 11
204.9391
 21
59.3314
 31
0.0000
  0
LINE
  8
20
 10
205.7870
 20
58.7373
 30
0.0000
 11
205.9866
 21
58.4518
 31
0.0000
  0
LINE
  8
20
 10
206.2251
 20
1.8049
 30
0.0000
 11
206.1339
 21
1.4671
 31
0.0000
  0
LINE
  8
20
 10
204.9391
 20
0.2728
 30
0.0000
 11
204.6016
 21
0.1816
 31
0.0000
  0
LINE
  8
20
 10
206.1339
 20
58.1350
 30
0.0000
 11
206.2251
 21
57.7987
 31
0.0000
  0
LINE
  8
20
 10
205.2549
 20
59.1838
 30
0.0000
 11
205.5401
 21
58.9836
 31
0.0000
  0
LINE
  8
20
 10
205.9866
 20
58.4518
 30
0.0000
 11
206.1339
 21
58.1350
 31
0.0000
  0
LINE
  8
20
 10
204.9391
 20
59.3314
 30
0.0000
 11
205.2549
 21
59.1838
 31
0.0000
  0
LINE
  8
20
 10
204.6016
 20
0.1816
 30
0.0000
 11
204.2544
 21
0.1514
 31
0.0000
  0
LINE
  8
20
 10
206.1339
 20
1.4671
 30
0.0000
 11
205.9866
 21
1.1519
 31
0.0000
  0
LINE
  8
20
 10
204.2544
 20
59.4523
 30
0.0000
 11
110.7547
 21
59.4523
 31
0.0000
  0
LINE
  8
20
 10
110.7547
 20
59.4523
 30
0.0000
 11
103.1547
 21
58.8516
 31
0.0000
  0
LINE
  8
20
 10
103.1547
 20
58.8516
 30
0.0000
 11
103.1547
 21
0.7521
 31
0.0000
  0
LINE
  8
20
 10
110.7547
 20
0.1514
 30
0.0000
 11
103.1547
 21
0.7521
 31
0.0000
  0
LINE
  8
20
 10
206.2554
 20
57.4518
 30
0.0000
 11
206.2554
 21
2.1524
 31
0.0000
  0
LINE
  8
20
 10
110.7547
 20
296.6517
 30
0.0000
 11
103.1547
 21
296.0522
 31
0.0000
  0
LINE
  8
20
 10
205.9866
 20
295.6535
 30
0.0000
 11
206.1339
 21
295.3360
 31
0.0000
  0
LINE
  8
20
 10
204.9391
 20
296.5298
 30
0.0000
 11
205.2549
 21
296.3824
 31
0.0000
  0
LINE
  8
20
 10
205.7870
 20
295.9379
 30
0.0000
 11
205.9866
 21
295.6535
 31
0.0000
  0
LINE
  8
20
 10
206.1339
 20
295.3360
 30
0.0000
 11
206.2251
 21
295.0007
 31
0.0000
  0
LINE
  8
20
 10
205.5401
 20
296.1843
 30
0.0000
 11
205.7870
 21
295.9379
 31
0.0000
  0
LINE
  8
20
 10
206.2554
 20
294.6502
 30
0.0000
 11
206.2554
 21
239.3518
 31
0.0000
  0
LINE
  8
20
 10
204.6016
 20
296.6237
 30
0.0000
 11
204.9391
 21
296.5298
 31
0.0000
  0
LINE
  8
20
 10
204.2544
 20
296.6517
 30
0.0000
 11
204.6016
 21
296.6237
 31
0.0000
  0
LINE
  8
20
 10
205.2549
 20
296.3824
 30
0.0000
 11
205.5401
 21
296.1843
 31
0.0000
  0
LINE
  8
20
 10
206.2251
 20
295.0007
 30
0.0000
 11
206.2554
 21
294.6502
 31
0.0000
  0
LINE
  8
20
 10
110.7547
 20
237.3528
 30
0.0000
 11
103.1547
 21
237.9523
 31
0.0000
  0
LINE
  8
20
 10
204.2544
 20
296.6517
 30
0.0000
 11
110.7547
 21
296.6517
 31
0.0000
  0
LINE
  8
20
 10
206.1339
 20
238.6686
 30
0.0000
 11
205.9866
 21
238.3511
 31
0.0000
  0
LINE
  8
20
 10
204.9391
 20
237.4722
 30
0.0000
 11
204.6016
 21
237.3808
 31
0.0000
  0
LINE
  8
20
 10
205.9866
 20
238.3511
 30
0.0000
 11
205.7870
 21
238.0640
 31
0.0000
  0
LINE
  8
20
 10
206.2251
 20
239.0038
 30
0.0000
 11
206.1339
 21
238.6686
 31
0.0000
  0
LINE
  8
20
 10
205.5401
 20
237.8227
 30
0.0000
 11
205.2549
 21
237.6195
 31
0.0000
  0
LINE
  8
20
 10
204.2544
 20
237.3528
 30
0.0000
 11
110.7547
 21
237.3528
 31
0.0000
  0
LINE
  8
20
 10
205.7870
 20
238.0640
 30
0.0000
 11
205.5401
 21
237.8227
 31
0.0000
  0
LINE
  8
20
 10
206.2554
 20
239.3518
 30
0.0000
 11
206.2251
 21
239.0038
 31
0.0000
  0
LINE
  8
20
 10
205.2549
 20
237.6195
 30
0.0000
 11
204.9391
 21
237.4722
 31
0.0000
  0
LINE
  8
20
 10
204.6016
 20
237.3808
 30
0.0000
 11
204.2544
 21
237.3528
 31
0.0000
  0
LINE
  8
20
 10
95.5548
 20
296.6517
 30
0.0000
 11
103.1547
 21
296.0522
 31
0.0000
  0
LINE
  8
20
 10
0.0554
 20
239.3518
 30
0.0000
 11
0.0554
 21
294.6502
 31
0.0000
  0
LINE
  8
20
 10
103.1547
 20
237.9523
 30
0.0000
 11
103.1547
 21
296.0522
 31
0.0000
  0
LINE
  8
20
 10
95.5548
 20
237.3528
 30
0.0000
 11
103.1547
 21
237.9523
 31
0.0000
  0
LINE
  8
20
 10
0.0859
 20
295.0007
 30
0.0000
 11
0.1753
 21
295.3360
 31
0.0000
  0
LINE
  8
20
 10
1.7074
 20
296.6237
 30
0.0000
 11
2.0549
 21
296.6517
 31
0.0000
  0
LINE
  8
20
 10
0.1753
 20
295.3360
 30
0.0000
 11
0.3228
 21
295.6535
 31
0.0000
  0
LINE
  8
20
 10
1.0544
 20
237.6195
 30
0.0000
 11
0.7691
 21
237.8227
 31
0.0000
  0
LINE
  8
20
 10
1.3714
 20
237.4722
 30
0.0000
 11
1.0544
 21
237.6195
 31
0.0000
  0
LINE
  8
20
 10
2.0549
 20
237.3528
 30
0.0000
 11
1.7074
 21
237.3808
 31
0.0000
  0
LINE
  8
20
 10
2.0549
 20
237.3528
 30
0.0000
 11
95.5548
 21
237.3528
 31
0.0000
  0
LINE
  8
20
 10
1.7074
 20
237.3808
 30
0.0000
 11
1.3714
 21
237.4722
 31
0.0000
  0
LINE
  8
20
 10
0.1753
 20
238.6686
 30
0.0000
 11
0.0859
 21
239.0038
 31
0.0000
  0
LINE
  8
20
 10
0.7691
 20
237.8227
 30
0.0000
 11
0.5225
 21
238.0640
 31
0.0000
  0
LINE
  8
20
 10
0.3228
 20
238.3511
 30
0.0000
 11
0.1753
 21
238.6686
 31
0.0000
  0
LINE
  8
20
 10
0.5225
 20
238.0640
 30
0.0000
 11
0.3228
 21
238.3511
 31
0.0000
  0
LINE
  8
20
 10
0.0554
 20
294.6502
 30
0.0000
 11
0.0859
 21
295.0007
 31
0.0000
  0
LINE
  8
20
 10
0.5225
 20
295.9379
 30
0.0000
 11
0.7691
 21
296.1843
 31
0.0000
  0
LINE
  8
20
 10
0.0859
 20
239.0038
 30
0.0000
 11
0.0554
 21
239.3518
 31
0.0000
  0
LINE
  8
20
 10
0.3228
 20
295.6535
 30
0.0000
 11
0.5225
 21
295.9379
 31
0.0000
  0
LINE
  8
20
 10
0.7691
 20
296.1843
 30
0.0000
 11
1.0544
 21
296.3824
 31
0.0000
  0
LINE
  8
20
 10
1.0544
 20
296.3824
 30
0.0000
 11
1.3714
 21
296.5298
 31
0.0000
  0
LINE
  8
20
 10
1.3714
 20
296.5298
 30
0.0000
 11
1.7074
 21
296.6237
 31
0.0000
  0
LINE
  8
20
 10
2.0549
 20
296.6517
 30
0.0000
 11
95.5548
 21
296.6517
 31
0.0000
  0
LINE
  8
46
 10
65.4276
 20
45.3923
 30
0.0000
 11
66.9463
 21
44.5465
 31
0.0000
  0
LINE
  8
46
 10
76.0829
 20
34.4830
 30
0.0000
 11
76.3115
 21
33.8557
 31
0.0000
  0
LINE
  8
46
 10
74.5393
 20
33.5712
 30
0.0000
 11
74.2031
 21
34.4018
 31
0.0000
  0
LINE
  8
46
 10
70.2371
 20
39.8856
 30
0.0000
 11
69.2313
 21
40.7645
 31
0.0000
  0
LINE
  8
46
 10
69.2313
 20
40.7645
 30
0.0000
 11
67.9387
 21
41.7551
 31
0.0000
  0
LINE
  8
46
 10
16.5047
 20
40.9931
 30
0.0000
 11
17.6360
 21
42.0345
 31
0.0000
  0
LINE
  8
46
 10
21.7315
 20
44.8793
 30
0.0000
 11
23.1938
 21
45.6590
 31
0.0000
  0
LINE
  8
46
 10
75.3509
 20
31.4046
 30
0.0000
 11
75.1952
 21
31.7246
 31
0.0000
  0
LINE
  8
46
 10
58.5043
 20
48.2346
 30
0.0000
 11
60.4421
 21
47.5894
 31
0.0000
  0
LINE
  8
46
 10
11.1577
 20
30.9677
 30
0.0000
 11
11.1935
 21
31.3487
 31
0.0000
  0
LINE
  8
46
 10
18.8542
 20
42.9743
 30
0.0000
 11
20.3218
 21
43.9979
 31
0.0000
  0
LINE
  8
46
 10
70.9359
 20
41.6357
 30
0.0000
 11
71.9818
 21
40.6375
 31
0.0000
  0
LINE
  8
46
 10
72.9313
 20
36.7487
 30
0.0000
 11
72.2092
 21
37.7292
 31
0.0000
  0
LINE
  8
46
 10
28.2537
 20
47.7952
 30
0.0000
 11
30.2217
 21
48.4124
 31
0.0000
  0
LINE
  8
46
 10
12.8224
 20
36.1975
 30
0.0000
 11
13.6108
 21
37.5361
 31
0.0000
  0
LINE
  8
46
 10
54.8404
 20
49.1820
 30
0.0000
 11
56.7682
 21
48.7375
 31
0.0000
  0
LINE
  8
46
 10
30.2217
 20
48.4124
 30
0.0000
 11
32.0749
 21
48.9204
 31
0.0000
  0
LINE
  8
46
 10
11.1935
 20
31.3487
 30
0.0000
 11
11.4099
 21
32.4510
 31
0.0000
  0
LINE
  8
46
 10
71.2432
 20
38.8468
 30
0.0000
 11
70.2371
 21
39.8856
 31
0.0000
  0
LINE
  8
46
 10
44.4637
 20
50.3174
 30
0.0000
 11
46.4713
 21
50.2539
 31
0.0000
  0
LINE
  8
46
 10
11.1359
 20
30.5410
 30
0.0000
 11
11.1577
 21
30.9677
 31
0.0000
  0
LINE
  8
46
 10
74.0281
 20
38.2626
 30
0.0000
 11
74.7710
 21
37.1272
 31
0.0000
  0
LINE
  8
46
 10
11.1288
 20
30.0736
 30
0.0000
 11
11.1359
 21
30.5410
 31
0.0000
  0
LINE
  8
46
 10
75.4997
 20
35.7835
 30
0.0000
 11
76.0829
 21
34.4830
 31
0.0000
  0
LINE
  8
46
 10
58.9278
 20
46.2458
 30
0.0000
 11
57.1249
 21
46.8097
 31
0.0000
  0
LINE
  8
46
 10
60.4421
 20
47.5894
 30
0.0000
 11
62.1853
 21
46.9341
 31
0.0000
  0
LINE
  8
46
 10
46.4713
 20
50.2539
 30
0.0000
 11
48.7451
 21
50.0990
 31
0.0000
  0
LINE
  8
46
 10
24.8305
 20
44.4983
 30
0.0000
 11
23.2639
 21
43.7134
 31
0.0000
  0
LINE
  8
46
 10
76.3115
 20
33.8557
 30
0.0000
 11
76.6823
 21
32.8117
 31
0.0000
  0
LINE
  8
46
 10
45.3786
 20
48.5318
 30
0.0000
 11
43.4881
 21
48.5419
 31
0.0000
  0
LINE
  8
46
 10
14.0904
 20
34.8132
 30
0.0000
 11
13.6573
 21
33.7922
 31
0.0000
  0
LINE
  8
46
 10
20.0269
 20
17.6708
 30
0.0000
 11
21.3871
 21
16.7488
 31
0.0000
  0
LINE
  8
46
 10
63.7258
 20
46.2458
 30
0.0000
 11
65.4276
 21
45.3923
 31
0.0000
  0
LINE
  8
46
 10
75.1952
 20
31.7246
 30
0.0000
 11
74.8274
 21
32.7635
 31
0.0000
  0
LINE
  8
46
 10
68.2582
 20
43.6956
 30
0.0000
 11
69.6831
 21
42.6542
 31
0.0000
  0
LINE
  8
46
 10
62.1853
 20
46.9341
 30
0.0000
 11
63.7258
 21
46.2458
 31
0.0000
  0
LINE
  8
46
 10
74.7710
 20
37.1272
 30
0.0000
 11
75.4997
 21
35.7835
 31
0.0000
  0
LINE
  8
46
 10
14.4224
 20
38.7096
 30
0.0000
 11
15.3525
 21
39.7993
 31
0.0000
  0
LINE
  8
46
 10
15.9576
 20
21.5341
 30
0.0000
 11
16.7541
 21
20.5943
 31
0.0000
  0
LINE
  8
46
 10
19.2979
 20
41.1048
 30
0.0000
 11
18.2809
 21
40.2438
 31
0.0000
  0
LINE
  8
46
 10
69.6831
 20
42.6542
 30
0.0000
 11
70.9359
 21
41.6357
 31
0.0000
  0
LINE
  8
46
 10
42.3416
 20
50.2768
 30
0.0000
 11
44.4637
 21
50.3174
 31
0.0000
  0
LINE
  8
46
 10
11.7793
 20
33.7515
 30
0.0000
 11
12.2273
 21
34.9783
 31
0.0000
  0
LINE
  8
46
 10
74.2031
 20
34.4018
 30
0.0000
 11
73.5983
 21
35.6210
 31
0.0000
  0
LINE
  8
46
 10
66.9463
 20
44.5465
 30
0.0000
 11
68.2582
 21
43.6956
 31
0.0000
  0
LINE
  8
46
 10
11.4099
 20
32.4510
 30
0.0000
 11
11.7793
 21
33.7515
 31
0.0000
  0
LINE
  8
46
 10
52.7098
 20
49.5935
 30
0.0000
 11
54.8404
 21
49.1820
 31
0.0000
  0
LINE
  8
46
 10
13.9385
 20
24.8564
 30
0.0000
 11
14.4336
 21
23.8379
 31
0.0000
  0
LINE
  8
46
 10
30.8430
 20
12.5755
 30
0.0000
 11
32.7652
 21
12.0650
 31
0.0000
  0
LINE
  8
46
 10
71.9818
 20
40.6375
 30
0.0000
 11
73.0842
 21
39.4310
 31
0.0000
  0
LINE
  8
46
 10
38.0901
 20
49.9821
 30
0.0000
 11
40.0594
 21
50.1574
 31
0.0000
  0
LINE
  8
46
 10
31.6563
 20
46.9900
 30
0.0000
 11
29.7736
 21
46.4363
 31
0.0000
  0
LINE
  8
46
 10
38.5808
 20
11.0769
 30
0.0000
 11
40.4205
 21
10.9068
 31
0.0000
  0
LINE
  8
46
 10
17.8097
 20
19.5377
 30
0.0000
 11
18.9575
 21
18.5039
 31
0.0000
  0
LINE
  8
46
 10
40.4205
 20
10.9068
 30
0.0000
 11
42.5440
 21
10.8153
 31
0.0000
  0
LINE
  8
46
 10
36.0716
 20
49.7002
 30
0.0000
 11
38.0901
 21
49.9821
 31
0.0000
  0
LINE
  8
46
 10
41.3024
 20
48.4657
 30
0.0000
 11
39.1912
 21
48.3235
 31
0.0000
  0
LINE
  8
46
 10
16.2082
 20
38.1102
 30
0.0000
 11
15.4696
 21
37.1500
 31
0.0000
  0
LINE
  8
46
 10
29.7736
 20
46.4363
 30
0.0000
 11
27.9781
 21
45.8368
 31
0.0000
  0
LINE
  8
46
 10
66.6295
 20
42.6644
 30
0.0000
 11
65.3672
 21
43.4188
 31
0.0000
  0
LINE
  8
46
 10
74.8274
 20
32.7635
 30
0.0000
 11
74.5393
 21
33.5712
 31
0.0000
  0
LINE
  8
46
 10
20.3218
 20
43.9979
 30
0.0000
 11
21.7315
 21
44.8793
 31
0.0000
  0
LINE
  8
46
 10
33.9161
 20
49.3192
 30
0.0000
 11
36.0716
 21
49.7002
 31
0.0000
  0
LINE
  8
46
 10
25.7703
 20
14.3993
 30
0.0000
 11
27.4749
 21
13.6881
 31
0.0000
  0
LINE
  8
46
 10
32.0749
 20
48.9204
 30
0.0000
 11
33.9161
 21
49.3192
 31
0.0000
  0
LINE
  8
46
 10
29.0060
 20
13.1343
 30
0.0000
 11
30.8430
 21
12.5755
 31
0.0000
  0
LINE
  8
46
 10
12.9065
 20
30.6781
 30
0.0000
 11
12.9012
 21
29.5656
 31
0.0000
  0
LINE
  8
46
 10
17.6360
 20
42.0345
 30
0.0000
 11
18.8542
 21
42.9743
 31
0.0000
  0
LINE
  8
46
 10
40.0594
 20
50.1574
 30
0.0000
 11
42.3416
 21
50.2768
 31
0.0000
  0
LINE
  8
46
 10
67.9387
 20
41.7551
 30
0.0000
 11
66.6295
 21
42.6644
 31
0.0000
  0
LINE
  8
46
 10
13.6108
 20
37.5361
 30
0.0000
 11
14.4224
 21
38.7096
 31
0.0000
  0
LINE
  8
46
 10
72.2092
 20
37.7292
 30
0.0000
 11
71.2432
 21
38.8468
 31
0.0000
  0
LINE
  8
46
 10
76.6823
 20
32.8117
 30
0.0000
 11
76.9620
 21
32.0243
 31
0.0000
  0
LINE
  8
46
 10
26.5836
 20
47.1983
 30
0.0000
 11
28.2537
 21
47.7952
 31
0.0000
  0
LINE
  8
46
 10
73.5983
 20
35.6210
 30
0.0000
 11
72.9313
 21
36.7487
 31
0.0000
  0
LINE
  8
46
 10
12.2273
 20
34.9783
 30
0.0000
 11
12.8224
 21
36.1975
 31
0.0000
  0
LINE
  8
46
 10
50.8137
 20
49.8856
 30
0.0000
 11
52.7098
 21
49.5935
 31
0.0000
  0
LINE
  8
46
 10
35.3090
 20
47.7850
 30
0.0000
 11
33.3291
 21
47.3989
 31
0.0000
  0
LINE
  8
46
 10
18.9575
 20
18.5039
 30
0.0000
 11
20.0269
 21
17.6708
 31
0.0000
  0
LINE
  8
46
 10
56.7682
 20
48.7375
 30
0.0000
 11
58.5043
 21
48.2346
 31
0.0000
  0
LINE
  8
46
 10
23.1938
 20
45.6590
 30
0.0000
 11
24.9339
 21
46.4922
 31
0.0000
  0
LINE
  8
46
 10
13.0183
 20
31.5620
 30
0.0000
 11
12.9065
 21
30.6781
 31
0.0000
  0
LINE
  8
46
 10
24.9339
 20
46.4922
 30
0.0000
 11
26.5836
 21
47.1983
 31
0.0000
  0
LINE
  8
46
 10
48.7451
 20
50.0990
 30
0.0000
 11
50.8137
 21
49.8856
 31
0.0000
  0
LINE
  8
46
 10
73.0842
 20
39.4310
 30
0.0000
 11
74.0281
 21
38.2626
 31
0.0000
  0
LINE
  8
46
 10
15.3525
 20
39.7993
 30
0.0000
 11
16.5047
 21
40.9931
 31
0.0000
  0
LINE
  8
46
 10
65.3672
 20
43.4188
 30
0.0000
 11
63.7974
 21
44.2493
 31
0.0000
  0
LINE
  8
46
 10
21.1884
 20
14.7930
 30
0.0000
 11
19.6616
 21
15.7759
 31
0.0000
  0
LINE
  8
46
 10
58.1985
 20
12.8372
 30
0.0000
 11
59.9595
 21
13.4442
 31
0.0000
  0
LINE
  8
46
 10
73.6534
 20
20.6019
 30
0.0000
 11
72.6211
 21
19.3675
 31
0.0000
  0
LINE
  8
46
 10
41.3383
 20
9.0957
 30
0.0000
 11
39.3510
 21
9.2227
 31
0.0000
  0
LINE
  8
46
 10
59.9595
 20
13.4442
 30
0.0000
 11
61.7235
 21
14.1249
 31
0.0000
  0
LINE
  8
46
 10
13.1562
 20
27.3228
 30
0.0000
 11
13.4976
 21
26.0807
 31
0.0000
  0
LINE
  8
46
 10
74.5297
 20
21.8008
 30
0.0000
 11
73.6534
 21
20.6019
 31
0.0000
  0
LINE
  8
46
 10
72.6211
 20
19.3675
 30
0.0000
 11
71.6328
 21
18.3363
 31
0.0000
  0
LINE
  8
46
 10
16.7541
 20
20.5943
 30
0.0000
 11
17.8097
 21
19.5377
 31
0.0000
  0
LINE
  8
46
 10
33.2450
 20
10.1422
 30
0.0000
 11
31.3571
 21
10.6070
 31
0.0000
  0
LINE
  8
46
 10
42.5440
 20
10.8153
 30
0.0000
 11
44.7350
 21
10.7874
 31
0.0000
  0
LINE
  8
46
 10
51.4624
 20
48.0136
 30
0.0000
 11
49.6560
 21
48.2422
 31
0.0000
  0
LINE
  8
46
 10
49.6560
 20
48.2422
 30
0.0000
 11
47.5023
 21
48.4251
 31
0.0000
  0
LINE
  8
46
 10
13.4976
 20
26.0807
 30
0.0000
 11
13.9385
 21
24.8564
 31
0.0000
  0
LINE
  8
46
 10
27.9781
 20
45.8368
 30
0.0000
 11
26.4859
 21
45.2501
 31
0.0000
  0
LINE
  8
46
 10
26.4859
 20
45.2501
 30
0.0000
 11
24.8305
 21
44.4983
 31
0.0000
  0
LINE
  8
46
 10
33.3291
 20
47.3989
 30
0.0000
 11
31.6563
 21
46.9900
 31
0.0000
  0
LINE
  8
46
 10
12.9012
 20
29.5656
 30
0.0000
 11
12.9809
 21
28.3870
 31
0.0000
  0
LINE
  8
46
 10
62.2221
 20
45.0012
 30
0.0000
 11
60.7370
 21
45.6082
 31
0.0000
  0
LINE
  8
46
 10
23.2639
 20
43.7134
 30
0.0000
 11
21.9918
 21
42.9743
 31
0.0000
  0
LINE
  8
46
 10
14.4336
 20
23.8379
 30
0.0000
 11
15.1486
 21
22.6771
 31
0.0000
  0
LINE
  8
46
 10
13.2885
 20
32.6492
 30
0.0000
 11
13.0183
 21
31.5620
 31
0.0000
  0
LINE
  8
46
 10
75.2157
 20
28.0340
 30
0.0000
 11
75.3344
 21
28.3108
 31
0.0000
  0
LINE
  8
46
 10
17.1978
 20
39.1897
 30
0.0000
 11
16.2082
 21
38.1102
 31
0.0000
  0
LINE
  8
46
 10
69.9051
 20
19.1516
 30
0.0000
 11
70.8558
 21
20.0508
 31
0.0000
  0
LINE
  8
46
 10
46.6202
 20
10.8433
 30
0.0000
 11
48.7261
 21
11.0033
 31
0.0000
  0
LINE
  8
46
 10
15.1486
 20
22.6771
 30
0.0000
 11
15.9576
 21
21.5341
 31
0.0000
  0
LINE
  8
46
 10
21.9918
 20
42.9743
 30
0.0000
 11
20.6002
 21
42.0548
 31
0.0000
  0
LINE
  8
46
 10
54.5963
 20
11.9024
 30
0.0000
 11
56.5668
 21
12.3723
 31
0.0000
  0
LINE
  8
46
 10
44.7350
 20
10.7874
 30
0.0000
 11
46.6202
 21
10.8433
 31
0.0000
  0
LINE
  8
46
 10
71.6328
 20
18.3363
 30
0.0000
 11
70.4395
 21
17.2898
 31
0.0000
  0
LINE
  8
46
 10
72.6912
 20
22.2504
 30
0.0000
 11
73.3527
 21
23.2486
 31
0.0000
  0
LINE
  8
46
 10
76.3585
 20
25.6540
 30
0.0000
 11
75.8525
 21
24.3281
 31
0.0000
  0
LINE
  8
46
 10
47.7490
 20
9.1516
 30
0.0000
 11
45.7535
 21
9.0424
 31
0.0000
  0
LINE
  8
46
 10
37.3047
 20
9.4590
 30
0.0000
 11
35.1165
 21
9.7866
 31
0.0000
  0
LINE
  8
46
 10
37.3764
 20
48.1127
 30
0.0000
 11
35.3090
 21
47.7850
 31
0.0000
  0
LINE
  8
46
 10
60.7370
 20
45.6082
 30
0.0000
 11
58.9278
 21
46.2458
 31
0.0000
  0
LINE
  8
46
 10
29.3467
 20
11.1760
 30
0.0000
 11
27.6377
 21
11.7373
 31
0.0000
  0
LINE
  8
46
 10
18.2809
 20
40.2438
 30
0.0000
 11
17.1978
 21
39.1897
 31
0.0000
  0
LINE
  8
46
 10
27.6377
 20
11.7373
 30
0.0000
 11
25.9453
 21
12.4028
 31
0.0000
  0
LINE
  8
46
 10
74.4774
 20
25.6286
 30
0.0000
 11
74.7601
 21
26.4592
 31
0.0000
  0
LINE
  8
46
 10
25.9453
 20
12.4028
 30
0.0000
 11
24.1569
 21
13.1928
 31
0.0000
  0
LINE
  8
46
 10
34.4698
 20
11.6942
 30
0.0000
 11
36.4823
 21
11.3563
 31
0.0000
  0
LINE
  8
46
 10
57.1249
 20
46.8097
 30
0.0000
 11
55.4591
 21
47.2415
 31
0.0000
  0
LINE
  8
46
 10
15.4696
 20
37.1500
 30
0.0000
 11
14.7323
 21
35.9893
 31
0.0000
  0
LINE
  8
46
 10
43.4881
 20
48.5419
 30
0.0000
 11
41.3024
 21
48.4657
 31
0.0000
  0
LINE
  8
46
 10
21.3871
 20
16.7488
 30
0.0000
 11
22.8366
 21
15.8598
 31
0.0000
  0
LINE
  8
46
 10
48.7261
 20
11.0033
 30
0.0000
 11
50.8579
 21
11.2370
 31
0.0000
  0
LINE
  8
46
 10
20.6002
 20
42.0548
 30
0.0000
 11
19.2979
 21
41.1048
 31
0.0000
  0
LINE
  8
46
 10
24.1539
 20
15.1511
 30
0.0000
 11
25.7703
 21
14.3993
 31
0.0000
  0
LINE
  8
46
 10
13.6573
 20
33.7922
 30
0.0000
 11
13.2885
 21
32.6492
 31
0.0000
  0
LINE
  8
46
 10
39.1912
 20
48.3235
 30
0.0000
 11
37.3764
 21
48.1127
 31
0.0000
  0
LINE
  8
46
 10
64.6892
 20
15.5473
 30
0.0000
 11
66.2132
 21
16.4109
 31
0.0000
  0
LINE
  8
46
 10
14.7323
 20
35.9893
 30
0.0000
 11
14.0904
 21
34.8132
 31
0.0000
  0
LINE
  8
46
 10
27.4749
 20
13.6881
 30
0.0000
 11
29.0060
 21
13.1343
 31
0.0000
  0
LINE
  8
46
 10
36.4823
 20
11.3563
 30
0.0000
 11
38.5808
 21
11.0769
 31
0.0000
  0
LINE
  8
46
 10
47.5023
 20
48.4251
 30
0.0000
 11
45.3786
 21
48.5318
 31
0.0000
  0
LINE
  8
46
 10
32.7652
 20
12.0650
 30
0.0000
 11
34.4698
 21
11.6942
 31
0.0000
  0
LINE
  8
46
 10
53.4513
 20
47.6631
 30
0.0000
 11
51.4624
 21
48.0136
 31
0.0000
  0
LINE
  8
46
 10
22.8366
 20
15.8598
 30
0.0000
 11
24.1539
 21
15.1511
 31
0.0000
  0
LINE
  8
46
 10
12.9809
 20
28.3870
 30
0.0000
 11
13.1562
 21
27.3228
 31
0.0000
  0
LINE
  8
46
 10
55.4591
 20
47.2415
 30
0.0000
 11
53.4513
 21
47.6631
 31
0.0000
  0
LINE
  8
46
 10
63.7974
 20
44.2493
 30
0.0000
 11
62.2221
 21
45.0012
 31
0.0000
  0
LINE
  8
46
 10
61.4977
 20
12.1361
 30
0.0000
 11
59.6044
 21
11.4478
 31
0.0000
  0
LINE
  8
46
 10
17.2019
 20
17.6962
 30
0.0000
 11
15.9822
 21
18.8570
 31
0.0000
  0
LINE
  8
46
 10
70.4395
 20
17.2898
 30
0.0000
 11
69.0753
 21
16.2128
 31
0.0000
  0
LINE
  8
46
 10
14.9916
 20
19.9187
 30
0.0000
 11
14.1122
 21
21.0668
 31
0.0000
  0
LINE
  8
46
 10
53.9158
 20
9.9543
 30
0.0000
 11
52.0471
 21
9.6215
 31
0.0000
  0
LINE
  8
46
 10
18.3924
 20
16.6903
 30
0.0000
 11
17.2019
 21
17.6962
 31
0.0000
  0
LINE
  8
46
 10
14.1122
 20
21.0668
 30
0.0000
 11
13.2453
 21
22.3799
 31
0.0000
  0
LINE
  8
46
 10
31.3571
 20
10.6070
 30
0.0000
 11
29.3467
 21
11.1760
 31
0.0000
  0
LINE
  8
46
 10
76.7885
 20
27.1221
 30
0.0000
 11
76.5305
 21
26.2331
 31
0.0000
  0
LINE
  8
46
 10
39.3510
 20
9.2227
 30
0.0000
 11
37.3047
 21
9.4590
 31
0.0000
  0
LINE
  8
46
 10
75.8525
 20
24.3281
 30
0.0000
 11
75.2048
 21
22.9565
 31
0.0000
  0
LINE
  8
46
 10
45.7535
 20
9.0424
 30
0.0000
 11
43.6311
 21
9.0272
 31
0.0000
  0
LINE
  8
46
 10
11.5987
 20
26.2788
 30
0.0000
 11
11.3081
 21
27.5844
 31
0.0000
  0
LINE
  8
46
 10
12.0521
 20
24.8463
 30
0.0000
 11
11.5987
 21
26.2788
 31
0.0000
  0
LINE
  8
46
 10
35.1165
 20
9.7866
 30
0.0000
 11
33.2450
 21
10.1422
 31
0.0000
  0
LINE
  8
46
 10
59.6044
 20
11.4478
 30
0.0000
 11
57.9036
 21
10.9042
 31
0.0000
  0
LINE
  8
46
 10
61.7235
 20
14.1249
 30
0.0000
 11
63.1624
 21
14.7599
 31
0.0000
  0
LINE
  8
46
 10
73.9483
 20
24.3942
 30
0.0000
 11
74.4774
 21
25.6286
 31
0.0000
  0
LINE
  8
46
 10
68.6745
 20
18.1331
 30
0.0000
 11
69.9051
 21
19.1516
 31
0.0000
  0
LINE
  8
46
 10
63.1980
 20
12.8346
 30
0.0000
 11
61.4977
 21
12.1361
 31
0.0000
  0
LINE
  8
46
 10
11.3081
 20
27.5844
 30
0.0000
 11
11.2103
 21
28.3743
 31
0.0000
  0
LINE
  8
46
 10
19.6616
 20
15.7759
 30
0.0000
 11
18.3924
 21
16.6903
 31
0.0000
  0
LINE
  8
46
 10
43.6311
 20
9.0272
 30
0.0000
 11
41.3383
 21
9.0957
 31
0.0000
  0
LINE
  8
46
 10
76.9826
 20
27.7952
 30
0.0000
 11
76.7885
 21
27.1221
 31
0.0000
  0
LINE
  8
46
 10
12.5786
 20
23.5763
 30
0.0000
 11
12.0521
 21
24.8463
 31
0.0000
  0
LINE
  8
46
 10
66.3456
 20
14.4501
 30
0.0000
 11
64.6958
 21
13.5534
 31
0.0000
  0
LINE
  8
46
 10
76.5305
 20
26.2331
 30
0.0000
 11
76.3585
 21
25.6540
 31
0.0000
  0
LINE
  8
46
 10
11.1481
 20
29.2252
 30
0.0000
 11
11.1288
 21
30.0736
 31
0.0000
  0
LINE
  8
46
 10
52.6407
 20
11.5087
 30
0.0000
 11
54.5963
 21
11.9024
 31
0.0000
  0
LINE
  8
46
 10
74.7601
 20
26.4592
 30
0.0000
 11
74.9597
 21
27.1501
 31
0.0000
  0
LINE
  8
46
 10
57.9036
 20
10.9042
 30
0.0000
 11
56.0103
 21
10.4165
 31
0.0000
  0
LINE
  8
46
 10
67.8144
 20
15.3289
 30
0.0000
 11
66.3456
 21
14.4501
 31
0.0000
  0
LINE
  8
46
 10
74.9597
 20
27.1501
 30
0.0000
 11
75.2157
 21
28.0340
 31
0.0000
  0
LINE
  8
46
 10
66.2132
 20
16.4109
 30
0.0000
 11
67.4233
 21
17.1907
 31
0.0000
  0
LINE
  8
46
 10
24.1569
 20
13.1928
 30
0.0000
 11
22.6479
 21
13.9421
 31
0.0000
  0
LINE
  8
46
 10
67.4233
 20
17.1907
 30
0.0000
 11
68.6745
 21
18.1331
 31
0.0000
  0
LINE
  8
46
 10
56.5668
 20
12.3723
 30
0.0000
 11
58.1985
 21
12.8372
 31
0.0000
  0
LINE
  8
46
 10
64.6958
 20
13.5534
 30
0.0000
 11
63.1980
 21
12.8346
 31
0.0000
  0
LINE
  8
46
 10
22.6479
 20
13.9421
 30
0.0000
 11
21.1884
 21
14.7930
 31
0.0000
  0
LINE
  8
46
 10
70.8558
 20
20.0508
 30
0.0000
 11
71.7941
 21
21.1099
 31
0.0000
  0
LINE
  8
46
 10
56.0103
 20
10.4165
 30
0.0000
 11
53.9158
 21
9.9543
 31
0.0000
  0
LINE
  8
46
 10
73.3527
 20
23.2486
 30
0.0000
 11
73.9483
 21
24.3942
 31
0.0000
  0
LINE
  8
46
 10
50.0019
 20
9.3599
 30
0.0000
 11
47.7490
 21
9.1516
 31
0.0000
  0
LINE
  8
46
 10
71.7941
 20
21.1099
 30
0.0000
 11
72.6912
 21
22.2504
 31
0.0000
  0
LINE
  8
46
 10
69.0753
 20
16.2128
 30
0.0000
 11
67.8144
 21
15.3289
 31
0.0000
  0
LINE
  8
46
 10
52.0471
 20
9.6215
 30
0.0000
 11
50.0019
 21
9.3599
 31
0.0000
  0
LINE
  8
46
 10
50.8579
 20
11.2370
 30
0.0000
 11
52.6407
 21
11.5087
 31
0.0000
  0
LINE
  8
46
 10
63.1624
 20
14.7599
 30
0.0000
 11
64.6892
 21
15.5473
 31
0.0000
  0
LINE
  8
46
 10
75.2048
 20
22.9565
 30
0.0000
 11
74.5297
 21
21.8008
 31
0.0000
  0
LINE
  8
46
 10
13.2453
 20
22.3799
 30
0.0000
 11
12.5786
 21
23.5763
 31
0.0000
  0
LINE
  8
46
 10
15.9822
 20
18.8570
 30
0.0000
 11
14.9916
 21
19.9187
 31
0.0000
  0
LINE
  8
46
 10
11.2103
 20
28.3743
 30
0.0000
 11
11.1481
 21
29.2252
 31
0.0000
  0
LINE
  8
51
 10
11.3030
 20
296.2631
 30
0.0000
 11
11.3030
 21
0.0000
 31
0.0000
  0
LINE
  8
51
 10
77.3430
 20
296.2631
 30
0.0000
 11
77.3430
 21
0.0000
 31
0.0000
  0
LINE
  8
51
 10
0.0554
 20
267.0023
 30
0.0000
 11
206.2554
 21
267.0023
 31
0.0000
  0
LINE
  8
51
 10
0.0554
 20
207.7022
 30
0.0000
 11
206.2554
 21
207.7022
 31
0.0000
  0
LINE
  8
51
 10
0.0554
 20
148.4020
 30
0.0000
 11
206.2554
 21
148.4020
 31
0.0000
  0
LINE
  8
51
 10
0.0554
 20
89.1024
 30
0.0000
 11
206.2554
 21
89.1024
 31
0.0000
  0
LINE
  8
51
 10
0.0554
 20
29.8018
 30
0.0000
 11
206.2554
 21
29.8018
 31
0.0000
  0
LINE
  8
51
 10
128.9665
 20
296.2631
 30
0.0000
 11
128.9665
 21
0.0000
 31
0.0000
  0
LINE
  8
51
 10
195.0077
 20
296.2631
 30
0.0000
 11
195.0077
 21
0.0000
 31
0.0000
  0
LINE
  8
46
 10
12.0105
 20
89.6646
 30
0.0000
 11
77.5941
 21
89.5910
 31
0.0000
  0
LINE
  8
46
 10
77.5913
 20
87.8257
 30
0.0000
 11
14.2732
 21
87.8968
 31
0.0000
  0
LINE
  8
46
 10
14.2732
 20
87.8968
 30
0.0000
 11
17.5363
 21
74.9098
 31
0.0000
  0
LINE
  8
46
 10
15.8261
 20
74.4805
 30
0.0000
 11
12.0105
 21
89.6646
 31
0.0000
  0
LINE
  8
46
 10
70.5714
 20
135.9433
 30
0.0000
 11
72.2320
 21
134.3762
 31
0.0000
  0
LINE
  8
46
 10
40.1155
 20
162.4406
 30
0.0000
 11
41.6326
 21
161.4272
 31
0.0000
  0
LINE
  8
46
 10
36.9308
 20
164.2999
 30
0.0000
 11
38.4383
 21
163.4642
 31
0.0000
  0
LINE
  8
46
 10
23.5900
 20
164.1627
 30
0.0000
 11
25.8293
 21
164.9019
 31
0.0000
  0
LINE
  8
46
 10
19.0439
 20
161.7802
 30
0.0000
 11
21.1783
 21
163.0477
 31
0.0000
  0
LINE
  8
46
 10
12.3289
 20
152.8420
 30
0.0000
 11
13.2436
 21
155.0213
 31
0.0000
  0
LINE
  8
46
 10
11.7457
 20
142.0419
 30
0.0000
 11
11.3490
 21
144.0434
 31
0.0000
  0
LINE
  8
46
 10
60.7570
 20
145.2169
 30
0.0000
 11
62.9110
 21
143.2027
 31
0.0000
  0
LINE
  8
46
 10
54.7337
 20
150.7287
 30
0.0000
 11
56.8848
 21
148.7907
 31
0.0000
  0
LINE
  8
46
 10
56.8848
 20
148.7907
 30
0.0000
 11
58.7644
 21
147.0685
 31
0.0000
  0
LINE
  8
46
 10
21.1783
 20
163.0477
 30
0.0000
 11
23.5900
 21
164.1627
 31
0.0000
  0
LINE
  8
46
 10
48.8676
 20
155.8188
 30
0.0000
 11
50.9344
 21
154.0688
 31
0.0000
  0
LINE
  8
46
 10
75.2582
 20
131.6380
 30
0.0000
 11
75.2582
 21
165.1000
 31
0.0000
  0
LINE
  8
46
 10
30.3878
 20
165.6740
 30
0.0000
 11
32.1020
 21
165.6690
 31
0.0000
  0
LINE
  8
46
 10
13.5067
 20
137.6223
 30
0.0000
 11
12.5191
 21
139.7813
 31
0.0000
  0
LINE
  8
46
 10
58.7644
 20
147.0685
 30
0.0000
 11
60.7570
 21
145.2169
 31
0.0000
  0
LINE
  8
46
 10
17.3848
 20
160.4162
 30
0.0000
 11
19.0439
 21
161.7802
 31
0.0000
  0
LINE
  8
46
 10
46.9727
 20
157.3809
 30
0.0000
 11
48.8676
 21
155.8188
 31
0.0000
  0
LINE
  8
46
 10
11.3172
 20
148.6713
 30
0.0000
 11
11.6467
 21
150.6601
 31
0.0000
  0
LINE
  8
46
 10
24.2336
 20
162.5219
 30
0.0000
 11
22.0218
 21
161.4957
 31
0.0000
  0
LINE
  8
46
 10
74.9897
 20
131.8362
 30
0.0000
 11
75.0860
 21
131.7549
 31
0.0000
  0
LINE
  8
46
 10
15.7310
 20
155.8315
 30
0.0000
 11
14.8201
 21
154.2313
 31
0.0000
  0
LINE
  8
46
 10
11.6467
 20
150.6601
 30
0.0000
 11
12.3289
 21
152.8420
 31
0.0000
  0
LINE
  8
46
 10
11.3490
 20
144.0434
 30
0.0000
 11
11.2235
 21
146.3294
 31
0.0000
  0
LINE
  8
46
 10
66.7131
 20
139.6111
 30
0.0000
 11
68.7896
 21
137.6401
 31
0.0000
  0
LINE
  8
46
 10
68.7896
 20
137.6401
 30
0.0000
 11
70.5714
 21
135.9433
 31
0.0000
  0
LINE
  8
46
 10
35.5389
 20
164.8993
 30
0.0000
 11
36.9308
 21
164.2999
 31
0.0000
  0
LINE
  8
46
 10
12.5191
 20
139.7813
 30
0.0000
 11
11.7457
 21
142.0419
 31
0.0000
  0
LINE
  8
46
 10
64.7797
 20
141.4424
 30
0.0000
 11
66.7131
 21
139.6111
 31
0.0000
  0
LINE
  8
46
 10
75.0860
 20
131.7549
 30
0.0000
 11
75.1769
 21
131.6787
 31
0.0000
  0
LINE
  8
46
 10
62.9110
 20
143.2027
 30
0.0000
 11
64.7797
 21
141.4424
 31
0.0000
  0
LINE
  8
46
 10
33.8219
 20
165.3819
 30
0.0000
 11
35.5389
 21
164.8993
 31
0.0000
  0
LINE
  8
46
 10
73.8403
 20
132.8852
 30
0.0000
 11
74.9897
 21
131.8362
 31
0.0000
  0
LINE
  8
46
 10
50.9344
 20
154.0688
 30
0.0000
 11
52.7533
 21
152.4914
 31
0.0000
  0
LINE
  8
46
 10
43.3677
 20
160.1673
 30
0.0000
 11
45.2735
 21
158.7246
 31
0.0000
  0
LINE
  8
46
 10
15.6952
 20
158.6433
 30
0.0000
 11
17.3848
 21
160.4162
 31
0.0000
  0
LINE
  8
46
 10
28.1650
 20
165.3972
 30
0.0000
 11
30.3878
 21
165.6740
 31
0.0000
  0
LINE
  8
46
 10
72.2320
 20
134.3762
 30
0.0000
 11
73.8403
 21
132.8852
 31
0.0000
  0
LINE
  8
46
 10
14.2578
 20
156.8018
 30
0.0000
 11
15.6952
 21
158.6433
 31
0.0000
  0
LINE
  8
46
 10
45.2735
 20
158.7246
 30
0.0000
 11
46.9727
 21
157.3809
 31
0.0000
  0
LINE
  8
46
 10
13.2436
 20
155.0213
 30
0.0000
 11
14.2578
 21
156.8018
 31
0.0000
  0
LINE
  8
46
 10
41.6326
 20
161.4272
 30
0.0000
 11
43.3677
 21
160.1673
 31
0.0000
  0
LINE
  8
46
 10
52.7533
 20
152.4914
 30
0.0000
 11
54.7337
 21
150.7287
 31
0.0000
  0
LINE
  8
46
 10
38.4383
 20
163.4642
 30
0.0000
 11
40.1155
 21
162.4406
 31
0.0000
  0
LINE
  8
46
 10
25.8293
 20
164.9019
 30
0.0000
 11
28.1650
 21
165.3972
 31
0.0000
  0
LINE
  8
46
 10
32.1020
 20
165.6690
 30
0.0000
 11
33.8219
 21
165.3819
 31
0.0000
  0
LINE
  8
46
 10
75.1769
 20
131.6787
 30
0.0000
 11
75.2582
 21
131.6380
 31
0.0000
  0
LINE
  8
46
 10
11.2235
 20
146.3294
 30
0.0000
 11
11.3172
 21
148.6713
 31
0.0000
  0
LINE
  8
46
 10
23.5679
 20
130.9751
 30
0.0000
 11
26.2082
 21
129.8931
 31
0.0000
  0
LINE
  8
46
 10
36.1330
 20
162.7251
 30
0.0000
 11
34.9242
 21
163.2407
 31
0.0000
  0
LINE
  8
46
 10
13.4546
 20
142.4838
 30
0.0000
 11
14.1575
 21
140.4315
 31
0.0000
  0
LINE
  8
46
 10
18.2418
 20
132.1156
 30
0.0000
 11
16.3469
 21
133.8961
 31
0.0000
  0
LINE
  8
46
 10
74.6382
 20
129.9032
 30
0.0000
 11
73.8584
 21
130.4823
 31
0.0000
  0
LINE
  8
46
 10
73.8584
 20
130.4823
 30
0.0000
 11
72.6524
 21
131.5796
 31
0.0000
  0
LINE
  8
46
 10
14.6660
 20
135.8290
 30
0.0000
 11
13.5067
 21
137.6223
 31
0.0000
  0
LINE
  8
46
 10
44.1932
 20
157.3327
 30
0.0000
 11
42.3245
 21
158.7475
 31
0.0000
  0
LINE
  8
46
 10
33.4292
 20
163.6598
 30
0.0000
 11
31.9423
 21
163.9113
 31
0.0000
  0
LINE
  8
46
 10
26.2082
 20
129.8931
 30
0.0000
 11
27.7089
 21
129.4232
 31
0.0000
  0
LINE
  8
46
 10
18.5781
 20
159.1158
 30
0.0000
 11
17.0373
 21
157.5003
 31
0.0000
  0
LINE
  8
46
 10
77.0219
 20
130.7719
 30
0.0000
 11
76.9437
 21
130.2944
 31
0.0000
  0
LINE
  8
46
 10
76.7118
 20
129.9032
 30
0.0000
 11
76.3468
 21
129.6314
 31
0.0000
  0
LINE
  8
46
 10
63.5671
 20
140.1623
 30
0.0000
 11
61.7027
 21
141.9200
 31
0.0000
  0
LINE
  8
46
 10
13.3650
 20
150.2664
 30
0.0000
 11
13.0701
 21
148.4732
 31
0.0000
  0
LINE
  8
46
 10
14.8201
 20
154.2313
 30
0.0000
 11
13.9865
 21
152.2451
 31
0.0000
  0
LINE
  8
46
 10
16.0919
 20
136.8679
 30
0.0000
 11
17.6286
 21
135.1077
 31
0.0000
  0
LINE
  8
46
 10
31.9423
 20
163.9113
 30
0.0000
 11
30.4376
 21
163.9087
 31
0.0000
  0
LINE
  8
46
 10
30.4376
 20
163.9087
 30
0.0000
 11
28.3992
 21
163.6471
 31
0.0000
  0
LINE
  8
46
 10
20.0721
 20
160.3451
 30
0.0000
 11
18.5781
 21
159.1158
 31
0.0000
  0
LINE
  8
46
 10
17.0373
 20
157.5003
 30
0.0000
 11
15.7310
 21
155.8315
 31
0.0000
  0
LINE
  8
46
 10
13.0975
 20
144.2695
 30
0.0000
 11
13.4546
 21
142.4838
 31
0.0000
  0
LINE
  8
46
 10
13.9865
 20
152.2451
 30
0.0000
 11
13.3650
 21
150.2664
 31
0.0000
  0
LINE
  8
46
 10
26.2621
 20
163.1925
 30
0.0000
 11
24.2336
 21
162.5219
 31
0.0000
  0
LINE
  8
46
 10
21.1356
 20
132.2324
 30
0.0000
 11
23.5679
 21
130.9751
 31
0.0000
  0
LINE
  8
46
 10
30.9928
 20
126.6546
 30
0.0000
 11
29.1323
 21
127.1829
 31
0.0000
  0
LINE
  8
46
 10
17.6286
 20
135.1077
 30
0.0000
 11
19.3581
 21
133.4795
 31
0.0000
  0
LINE
  8
46
 10
67.5742
 20
136.3599
 30
0.0000
 11
65.4987
 21
138.3309
 31
0.0000
  0
LINE
  8
46
 10
28.3992
 20
163.6471
 30
0.0000
 11
26.2621
 21
163.1925
 31
0.0000
  0
LINE
  8
46
 10
14.1575
 20
140.4315
 30
0.0000
 11
15.0503
 21
138.4757
 31
0.0000
  0
LINE
  8
46
 10
29.6162
 20
128.8796
 30
0.0000
 11
31.4767
 21
128.3513
 31
0.0000
  0
LINE
  8
46
 10
16.3469
 20
133.8961
 30
0.0000
 11
14.6660
 21
135.8290
 31
0.0000
  0
LINE
  8
46
 10
15.0503
 20
138.4757
 30
0.0000
 11
16.0919
 21
136.8679
 31
0.0000
  0
LINE
  8
46
 10
20.1920
 20
130.7440
 30
0.0000
 11
18.2418
 21
132.1156
 31
0.0000
  0
LINE
  8
46
 10
57.5683
 20
145.7706
 30
0.0000
 11
55.6969
 21
147.4851
 31
0.0000
  0
LINE
  8
46
 10
19.3581
 20
133.4795
 30
0.0000
 11
21.1356
 21
132.2324
 31
0.0000
  0
LINE
  8
46
 10
61.7027
 20
141.9200
 30
0.0000
 11
59.5556
 21
143.9266
 31
0.0000
  0
LINE
  8
46
 10
47.7390
 20
154.4599
 30
0.0000
 11
45.8617
 21
156.0119
 31
0.0000
  0
LINE
  8
46
 10
29.1323
 20
127.1829
 30
0.0000
 11
27.2252
 21
127.7315
 31
0.0000
  0
LINE
  8
46
 10
34.9242
 20
163.2407
 30
0.0000
 11
33.4292
 21
163.6598
 31
0.0000
  0
LINE
  8
46
 10
22.0218
 20
161.4957
 30
0.0000
 11
20.0721
 21
160.3451
 31
0.0000
  0
LINE
  8
46
 10
45.8617
 20
156.0119
 30
0.0000
 11
44.1932
 21
157.3327
 31
0.0000
  0
LINE
  8
46
 10
51.5892
 20
151.1656
 30
0.0000
 11
49.7850
 21
152.7327
 31
0.0000
  0
LINE
  8
46
 10
27.7089
 20
129.4232
 30
0.0000
 11
29.6162
 21
128.8796
 31
0.0000
  0
LINE
  8
46
 10
25.6311
 20
128.2268
 30
0.0000
 11
22.8003
 21
129.3851
 31
0.0000
  0
LINE
  8
46
 10
13.0701
 20
148.4732
 30
0.0000
 11
12.9860
 21
146.3472
 31
0.0000
  0
LINE
  8
46
 10
22.8003
 20
129.3851
 30
0.0000
 11
20.1920
 21
130.7440
 31
0.0000
  0
LINE
  8
46
 10
55.6969
 20
147.4851
 30
0.0000
 11
53.5584
 21
149.4130
 31
0.0000
  0
LINE
  8
46
 10
75.5089
 20
129.5425
 30
0.0000
 11
74.6382
 21
129.9032
 31
0.0000
  0
LINE
  8
46
 10
49.7850
 20
152.7327
 30
0.0000
 11
47.7390
 21
154.4599
 31
0.0000
  0
LINE
  8
46
 10
76.9437
 20
130.2944
 30
0.0000
 11
76.7118
 21
129.9032
 31
0.0000
  0
LINE
  8
46
 10
53.5584
 20
149.4130
 30
0.0000
 11
51.5892
 21
151.1656
 31
0.0000
  0
LINE
  8
46
 10
12.9860
 20
146.3472
 30
0.0000
 11
13.0975
 21
144.2695
 31
0.0000
  0
LINE
  8
46
 10
42.3245
 20
158.7475
 30
0.0000
 11
40.6253
 21
159.9768
 31
0.0000
  0
LINE
  8
46
 10
27.2252
 20
127.7315
 30
0.0000
 11
25.6311
 21
128.2268
 31
0.0000
  0
LINE
  8
46
 10
72.6524
 20
131.5796
 30
0.0000
 11
71.0303
 21
133.0858
 31
0.0000
  0
LINE
  8
46
 10
59.5556
 20
143.9266
 30
0.0000
 11
57.5683
 21
145.7706
 31
0.0000
  0
LINE
  8
46
 10
71.0303
 20
133.0858
 30
0.0000
 11
69.3562
 21
134.6657
 31
0.0000
  0
LINE
  8
46
 10
40.6253
 20
159.9768
 30
0.0000
 11
39.1729
 21
160.9471
 31
0.0000
  0
LINE
  8
46
 10
37.5674
 20
161.9275
 30
0.0000
 11
36.1330
 21
162.7251
 31
0.0000
  0
LINE
  8
46
 10
76.3468
 20
129.6314
 30
0.0000
 11
75.5089
 21
129.5425
 31
0.0000
  0
LINE
  8
46
 10
39.1729
 20
160.9471
 30
0.0000
 11
37.5674
 21
161.9275
 31
0.0000
  0
LINE
  8
46
 10
65.4987
 20
138.3309
 30
0.0000
 11
63.5671
 21
140.1623
 31
0.0000
  0
LINE
  8
46
 10
77.0219
 20
165.1000
 30
0.0000
 11
77.0219
 21
130.7719
 31
0.0000
  0
LINE
  8
46
 10
69.3562
 20
134.6657
 30
0.0000
 11
67.5742
 21
136.3599
 31
0.0000
  0
LINE
  8
46
 10
74.4047
 20
213.2660
 30
0.0000
 11
73.6991
 21
215.1126
 31
0.0000
  0
LINE
  8
46
 10
48.7619
 20
223.1034
 30
0.0000
 11
47.8389
 21
222.4075
 31
0.0000
  0
LINE
  8
46
 10
68.7436
 20
221.4169
 30
0.0000
 11
66.8114
 21
222.7859
 31
0.0000
  0
LINE
  8
46
 10
73.6991
 20
215.1126
 30
0.0000
 11
72.8007
 21
216.7407
 31
0.0000
  0
LINE
  8
46
 10
45.5402
 20
219.8853
 30
0.0000
 11
44.9616
 21
218.9963
 31
0.0000
  0
LINE
  8
46
 10
59.3814
 20
189.0674
 30
0.0000
 11
60.1792
 21
189.3545
 31
0.0000
  0
LINE
  8
46
 10
77.1152
 20
206.1362
 30
0.0000
 11
77.0021
 21
204.7215
 31
0.0000
  0
LINE
  8
46
 10
74.9861
 20
211.2188
 30
0.0000
 11
74.4047
 21
213.2660
 31
0.0000
  0
LINE
  8
46
 10
77.0021
 20
204.7215
 30
0.0000
 11
76.8192
 21
203.4743
 31
0.0000
  0
LINE
  8
46
 10
70.2140
 20
220.1164
 30
0.0000
 11
68.7436
 21
221.4169
 31
0.0000
  0
LINE
  8
46
 10
49.8028
 20
223.7816
 30
0.0000
 11
48.7619
 21
223.1034
 31
0.0000
  0
LINE
  8
46
 10
61.9100
 20
189.9615
 30
0.0000
 11
62.9902
 21
190.3451
 31
0.0000
  0
LINE
  8
46
 10
13.3507
 20
209.1665
 30
0.0000
 11
13.3148
 21
207.4342
 31
0.0000
  0
LINE
  8
46
 10
54.3362
 20
225.4961
 30
0.0000
 11
53.1787
 21
225.1989
 31
0.0000
  0
LINE
  8
46
 10
13.4223
 20
205.6841
 30
0.0000
 11
13.7227
 21
204.1322
 31
0.0000
  0
LINE
  8
46
 10
33.9524
 20
218.5695
 30
0.0000
 11
33.2496
 21
219.1233
 31
0.0000
  0
LINE
  8
46
 10
15.2372
 20
215.1304
 30
0.0000
 11
14.5757
 21
213.8528
 31
0.0000
  0
LINE
  8
46
 10
47.0850
 20
221.6988
 30
0.0000
 11
46.2636
 21
220.7971
 31
0.0000
  0
LINE
  8
46
 10
62.9519
 20
224.7163
 30
0.0000
 11
60.8490
 21
225.3513
 31
0.0000
  0
LINE
  8
46
 10
75.3100
 20
209.4230
 30
0.0000
 11
74.9861
 21
211.2188
 31
0.0000
  0
LINE
  8
46
 10
27.2496
 20
221.4245
 30
0.0000
 11
26.1485
 21
221.4677
 31
0.0000
  0
LINE
  8
46
 10
51.8930
 20
224.7646
 30
0.0000
 11
50.7477
 21
224.2972
 31
0.0000
  0
LINE
  8
46
 10
41.1224
 20
205.2472
 30
0.0000
 11
41.0355
 21
205.2396
 31
0.0000
  0
LINE
  8
46
 10
29.4284
 20
221.0410
 30
0.0000
 11
28.3863
 21
221.2619
 31
0.0000
  0
LINE
  8
46
 10
42.3446
 20
211.9071
 30
0.0000
 11
42.1005
 21
210.4314
 31
0.0000
  0
LINE
  8
46
 10
17.3124
 20
217.7669
 30
0.0000
 11
16.2060
 21
216.4918
 31
0.0000
  0
LINE
  8
46
 10
74.4944
 20
201.7116
 30
0.0000
 11
75.0372
 21
203.5734
 31
0.0000
  0
LINE
  8
46
 10
13.7227
 20
204.1322
 30
0.0000
 11
14.4862
 21
201.9833
 31
0.0000
  0
LINE
  8
46
 10
15.9469
 20
198.8185
 30
0.0000
 11
16.8232
 21
197.6907
 31
0.0000
  0
LINE
  8
46
 10
36.6878
 20
215.2269
 30
0.0000
 11
36.1833
 21
216.0372
 31
0.0000
  0
LINE
  8
46
 10
62.7451
 20
188.3867
 30
0.0000
 11
61.0116
 21
187.7771
 31
0.0000
  0
LINE
  8
46
 10
60.8490
 20
225.3513
 30
0.0000
 11
58.9925
 21
225.7069
 31
0.0000
  0
LINE
  8
46
 10
65.9864
 20
189.7228
 30
0.0000
 11
63.7057
 21
188.7271
 31
0.0000
  0
LINE
  8
46
 10
73.3298
 20
195.6867
 30
0.0000
 11
71.7603
 21
193.8503
 31
0.0000
  0
LINE
  8
46
 10
47.8389
 20
222.4075
 30
0.0000
 11
47.0850
 21
221.6988
 31
0.0000
  0
LINE
  8
46
 10
77.1540
 20
207.5993
 30
0.0000
 11
77.1152
 21
206.1362
 31
0.0000
  0
LINE
  8
46
 10
73.7182
 20
199.7354
 30
0.0000
 11
74.4944
 21
201.7116
 31
0.0000
  0
LINE
  8
46
 10
71.7105
 20
196.4792
 30
0.0000
 11
72.8736
 21
198.0921
 31
0.0000
  0
LINE
  8
46
 10
37.5547
 20
213.5708
 30
0.0000
 11
37.1744
 21
214.3557
 31
0.0000
  0
LINE
  8
46
 10
72.8007
 20
216.7407
 30
0.0000
 11
71.5437
 21
218.5340
 31
0.0000
  0
LINE
  8
46
 10
43.8041
 20
216.7738
 30
0.0000
 11
43.3893
 21
215.7171
 31
0.0000
  0
LINE
  8
46
 10
67.0212
 20
192.2932
 30
0.0000
 11
68.8124
 21
193.4947
 31
0.0000
  0
LINE
  8
46
 10
71.5437
 20
218.5340
 30
0.0000
 11
70.2140
 21
220.1164
 31
0.0000
  0
LINE
  8
46
 10
36.1833
 20
216.0372
 30
0.0000
 11
35.7149
 21
216.6874
 31
0.0000
  0
LINE
  8
46
 10
61.0116
 20
187.7771
 30
0.0000
 11
59.9712
 21
187.4114
 31
0.0000
  0
LINE
  8
46
 10
57.4411
 20
225.7577
 30
0.0000
 11
55.7705
 21
225.6765
 31
0.0000
  0
LINE
  8
46
 10
66.8114
 20
222.7859
 30
0.0000
 11
64.8492
 21
223.9213
 31
0.0000
  0
LINE
  8
46
 10
71.7603
 20
193.8503
 30
0.0000
 11
70.1533
 21
192.3110
 31
0.0000
  0
LINE
  8
46
 10
74.5315
 20
197.4291
 30
0.0000
 11
73.3298
 21
195.6867
 31
0.0000
  0
LINE
  8
46
 10
60.1792
 20
189.3545
 30
0.0000
 11
61.9100
 21
189.9615
 31
0.0000
  0
LINE
  8
46
 10
72.8736
 20
198.0921
 30
0.0000
 11
73.7182
 21
199.7354
 31
0.0000
  0
LINE
  8
46
 10
68.8124
 20
193.4947
 30
0.0000
 11
70.2498
 21
194.8205
 31
0.0000
  0
LINE
  8
46
 10
63.7057
 20
188.7271
 30
0.0000
 11
62.7451
 21
188.3867
 31
0.0000
  0
LINE
  8
46
 10
75.2947
 20
205.3742
 30
0.0000
 11
75.3900
 21
207.4799
 31
0.0000
  0
LINE
  8
46
 10
23.0452
 20
220.9495
 30
0.0000
 11
21.5417
 21
220.4441
 31
0.0000
  0
LINE
  8
46
 10
64.8492
 20
223.9213
 30
0.0000
 11
62.9519
 21
224.7163
 31
0.0000
  0
LINE
  8
46
 10
34.5133
 20
218.0565
 30
0.0000
 11
33.9524
 21
218.5695
 31
0.0000
  0
LINE
  8
46
 10
14.5757
 20
213.8528
 30
0.0000
 11
13.9970
 21
212.2653
 31
0.0000
  0
LINE
  8
46
 10
53.1787
 20
225.1989
 30
0.0000
 11
51.8930
 21
224.7646
 31
0.0000
  0
LINE
  8
46
 10
37.1744
 20
214.3557
 30
0.0000
 11
36.6878
 21
215.2269
 31
0.0000
  0
LINE
  8
46
 10
62.9902
 20
190.3451
 30
0.0000
 11
64.8604
 21
191.1350
 31
0.0000
  0
LINE
  8
46
 10
70.1533
 20
192.3110
 30
0.0000
 11
68.2986
 21
191.0080
 31
0.0000
  0
LINE
  8
46
 10
50.7477
 20
224.2972
 30
0.0000
 11
49.8028
 21
223.7816
 31
0.0000
  0
LINE
  8
46
 10
70.2498
 20
194.8205
 30
0.0000
 11
71.7105
 21
196.4792
 31
0.0000
  0
LINE
  8
46
 10
75.0372
 20
203.5734
 30
0.0000
 11
75.2947
 21
205.3742
 31
0.0000
  0
LINE
  8
46
 10
75.4604
 20
199.3189
 30
0.0000
 11
74.5315
 21
197.4291
 31
0.0000
  0
LINE
  8
46
 10
68.2986
 20
191.0080
 30
0.0000
 11
65.9864
 21
189.7228
 31
0.0000
  0
LINE
  8
46
 10
55.7705
 20
225.6765
 30
0.0000
 11
54.3362
 21
225.4961
 31
0.0000
  0
LINE
  8
46
 10
64.8604
 20
191.1350
 30
0.0000
 11
67.0212
 21
192.2932
 31
0.0000
  0
LINE
  8
46
 10
46.2636
 20
220.7971
 30
0.0000
 11
45.5402
 21
219.8853
 31
0.0000
  0
LINE
  8
46
 10
58.9925
 20
225.7069
 30
0.0000
 11
57.4411
 21
225.7577
 31
0.0000
  0
LINE
  8
46
 10
76.8192
 20
203.4743
 30
0.0000
 11
76.2815
 21
201.4931
 31
0.0000
  0
LINE
  8
46
 10
76.2815
 20
201.4931
 30
0.0000
 11
75.4604
 21
199.3189
 31
0.0000
  0
LINE
  8
46
 10
28.3863
 20
221.2619
 30
0.0000
 11
27.2496
 21
221.4245
 31
0.0000
  0
LINE
  8
46
 10
13.5574
 20
210.6219
 30
0.0000
 11
13.3507
 21
209.1665
 31
0.0000
  0
LINE
  8
46
 10
75.3900
 20
207.4799
 30
0.0000
 11
75.3100
 21
209.4230
 31
0.0000
  0
LINE
  8
46
 10
40.4099
 20
211.0461
 30
0.0000
 11
40.5448
 21
211.8614
 31
0.0000
  0
LINE
  8
46
 10
32.5427
 20
221.6607
 30
0.0000
 11
33.3309
 21
221.2162
 31
0.0000
  0
LINE
  8
46
 10
13.5477
 20
215.7451
 30
0.0000
 11
14.5813
 21
217.2792
 31
0.0000
  0
LINE
  8
46
 10
18.3558
 20
193.7918
 30
0.0000
 11
16.9337
 21
194.9933
 31
0.0000
  0
LINE
  8
46
 10
30.6560
 20
222.5015
 30
0.0000
 11
31.5930
 21
222.1154
 31
0.0000
  0
LINE
  8
46
 10
34.1384
 20
220.6625
 30
0.0000
 11
34.9557
 21
220.0300
 31
0.0000
  0
LINE
  8
46
 10
15.3488
 20
199.9361
 30
0.0000
 11
15.9469
 21
198.8185
 31
0.0000
  0
LINE
  8
46
 10
41.7340
 20
207.2208
 30
0.0000
 11
41.5727
 21
206.1693
 31
0.0000
  0
LINE
  8
46
 10
26.1485
 20
221.4677
 30
0.0000
 11
24.6657
 21
221.2950
 31
0.0000
  0
LINE
  8
46
 10
39.7485
 20
206.0042
 30
0.0000
 11
39.4508
 21
207.0938
 31
0.0000
  0
LINE
  8
46
 10
41.4543
 20
205.8010
 30
0.0000
 11
41.3855
 21
205.6841
 31
0.0000
  0
LINE
  8
46
 10
40.5173
 20
205.3209
 30
0.0000
 11
40.1356
 21
205.4606
 31
0.0000
  0
LINE
  8
46
 10
40.5448
 20
211.8614
 30
0.0000
 11
40.6855
 21
212.6183
 31
0.0000
  0
LINE
  8
46
 10
35.6281
 20
219.4357
 30
0.0000
 11
36.3060
 21
218.7219
 31
0.0000
  0
LINE
  8
46
 10
17.9423
 20
196.4792
 30
0.0000
 11
19.1453
 21
195.4047
 31
0.0000
  0
LINE
  8
46
 10
37.9542
 20
212.6056
 30
0.0000
 11
37.5547
 21
213.5708
 31
0.0000
  0
LINE
  8
46
 10
41.3855
 20
205.6841
 30
0.0000
 11
41.2422
 21
205.4428
 31
0.0000
  0
LINE
  8
46
 10
13.9970
 20
212.2653
 30
0.0000
 11
13.5574
 21
210.6219
 31
0.0000
  0
LINE
  8
46
 10
40.1356
 20
205.4606
 30
0.0000
 11
39.7485
 21
206.0042
 31
0.0000
  0
LINE
  8
46
 10
39.9288
 20
212.3592
 30
0.0000
 11
40.2194
 21
211.4906
 31
0.0000
  0
LINE
  8
46
 10
41.0355
 20
205.2396
 30
0.0000
 11
40.7558
 21
205.2853
 31
0.0000
  0
LINE
  8
46
 10
39.2029
 20
208.3359
 30
0.0000
 11
38.9245
 21
209.5322
 31
0.0000
  0
LINE
  8
46
 10
41.9133
 20
208.9810
 30
0.0000
 11
41.7340
 21
207.2208
 31
0.0000
  0
LINE
  8
46
 10
40.7558
 20
205.2853
 30
0.0000
 11
40.5173
 21
205.3209
 31
0.0000
  0
LINE
  8
46
 10
38.3360
 20
211.5718
 30
0.0000
 11
37.9542
 21
212.6056
 31
0.0000
  0
LINE
  8
46
 10
43.3893
 20
215.7171
 30
0.0000
 11
42.9621
 21
214.4090
 31
0.0000
  0
LINE
  8
46
 10
35.1221
 20
217.3961
 30
0.0000
 11
34.5133
 21
218.0565
 31
0.0000
  0
LINE
  8
46
 10
39.5072
 20
213.4718
 30
0.0000
 11
39.9288
 21
212.3592
 31
0.0000
  0
LINE
  8
46
 10
13.3148
 20
207.4342
 30
0.0000
 11
13.4223
 21
205.6841
 31
0.0000
  0
LINE
  8
46
 10
30.2026
 20
220.7895
 30
0.0000
 11
29.4284
 21
221.0410
 31
0.0000
  0
LINE
  8
46
 10
40.3380
 20
211.0892
 30
0.0000
 11
40.4099
 21
211.0461
 31
0.0000
  0
LINE
  8
46
 10
44.3428
 20
217.8837
 30
0.0000
 11
43.8041
 21
216.7738
 31
0.0000
  0
LINE
  8
46
 10
21.5417
 20
220.4441
 30
0.0000
 11
19.9088
 21
219.6490
 31
0.0000
  0
LINE
  8
46
 10
44.9616
 20
218.9963
 30
0.0000
 11
44.3428
 21
217.8837
 31
0.0000
  0
LINE
  8
46
 10
19.1453
 20
195.4047
 30
0.0000
 11
20.7919
 21
194.2821
 31
0.0000
  0
LINE
  8
46
 10
32.5290
 20
219.6363
 30
0.0000
 11
31.8689
 21
220.0250
 31
0.0000
  0
LINE
  8
46
 10
42.9621
 20
214.4090
 30
0.0000
 11
42.6022
 21
213.1162
 31
0.0000
  0
LINE
  8
46
 10
19.9088
 20
219.6490
 30
0.0000
 11
18.4178
 21
218.7194
 31
0.0000
  0
LINE
  8
46
 10
16.2060
 20
216.4918
 30
0.0000
 11
15.2372
 21
215.1304
 31
0.0000
  0
LINE
  8
46
 10
38.6281
 20
210.6549
 30
0.0000
 11
38.3360
 21
211.5718
 31
0.0000
  0
LINE
  8
46
 10
33.2496
 20
219.1233
 30
0.0000
 11
32.5290
 21
219.6363
 31
0.0000
  0
LINE
  8
46
 10
14.4862
 20
201.9833
 30
0.0000
 11
15.3488
 21
199.9361
 31
0.0000
  0
LINE
  8
46
 10
39.4508
 20
207.0938
 30
0.0000
 11
39.2029
 21
208.3359
 31
0.0000
  0
LINE
  8
46
 10
41.2422
 20
205.4428
 30
0.0000
 11
41.1224
 21
205.2472
 31
0.0000
  0
LINE
  8
46
 10
11.7136
 20
205.1202
 30
0.0000
 11
11.5633
 21
207.0100
 31
0.0000
  0
LINE
  8
46
 10
15.8215
 20
218.7575
 30
0.0000
 11
17.0701
 21
219.9157
 31
0.0000
  0
LINE
  8
46
 10
14.6047
 20
197.6603
 30
0.0000
 11
13.9198
 21
198.8287
 31
0.0000
  0
LINE
  8
46
 10
22.6192
 20
193.2635
 30
0.0000
 11
23.7604
 21
192.7555
 31
0.0000
  0
LINE
  8
46
 10
12.1421
 20
203.2787
 30
0.0000
 11
11.7136
 21
205.1202
 31
0.0000
  0
LINE
  8
46
 10
18.4178
 20
218.7194
 30
0.0000
 11
17.3124
 21
217.7669
 31
0.0000
  0
LINE
  8
46
 10
42.1005
 20
210.4314
 30
0.0000
 11
41.9133
 21
208.9810
 31
0.0000
  0
LINE
  8
46
 10
24.6657
 20
221.2950
 30
0.0000
 11
23.0452
 21
220.9495
 31
0.0000
  0
LINE
  8
46
 10
42.6022
 20
213.1162
 30
0.0000
 11
42.3446
 21
211.9071
 31
0.0000
  0
LINE
  8
46
 10
16.8232
 20
197.6907
 30
0.0000
 11
17.9423
 21
196.4792
 31
0.0000
  0
LINE
  8
46
 10
35.7149
 20
216.6874
 30
0.0000
 11
35.1221
 21
217.3961
 31
0.0000
  0
LINE
  8
46
 10
38.9245
 20
209.5322
 30
0.0000
 11
38.6281
 21
210.6549
 31
0.0000
  0
LINE
  8
46
 10
31.8689
 20
220.0250
 30
0.0000
 11
31.0462
 21
220.4263
 31
0.0000
  0
LINE
  8
46
 10
31.0462
 20
220.4263
 30
0.0000
 11
30.2026
 21
220.7895
 31
0.0000
  0
LINE
  8
46
 10
37.5422
 20
217.1802
 30
0.0000
 11
38.0906
 21
216.3166
 31
0.0000
  0
LINE
  8
46
 10
14.5813
 20
217.2792
 30
0.0000
 11
15.8215
 21
218.7575
 31
0.0000
  0
LINE
  8
46
 10
15.6603
 20
196.3395
 30
0.0000
 11
14.6047
 21
197.6603
 31
0.0000
  0
LINE
  8
46
 10
16.9337
 20
194.9933
 30
0.0000
 11
15.6603
 21
196.3395
 31
0.0000
  0
LINE
  8
46
 10
41.5727
 20
206.1693
 30
0.0000
 11
41.4543
 21
205.8010
 31
0.0000
  0
LINE
  8
46
 10
28.4800
 20
223.0374
 30
0.0000
 11
29.7091
 21
222.7910
 31
0.0000
  0
LINE
  8
46
 10
74.1332
 20
217.9295
 30
0.0000
 11
75.1876
 21
216.0930
 31
0.0000
  0
LINE
  8
46
 10
53.7975
 20
227.1852
 30
0.0000
 11
55.3286
 21
227.4087
 31
0.0000
  0
LINE
  8
46
 10
47.5798
 20
224.4293
 30
0.0000
 11
48.7416
 21
225.1989
 31
0.0000
  0
LINE
  8
46
 10
22.2377
 20
191.4906
 30
0.0000
 11
20.2408
 21
192.5549
 31
0.0000
  0
LINE
  8
46
 10
20.2408
 20
192.5549
 30
0.0000
 11
18.3558
 21
193.7918
 31
0.0000
  0
LINE
  8
46
 10
40.6855
 20
212.6183
 30
0.0000
 11
40.8452
 21
213.3600
 31
0.0000
  0
LINE
  8
46
 10
60.8973
 20
227.1573
 30
0.0000
 11
63.1985
 21
226.4969
 31
0.0000
  0
LINE
  8
46
 10
11.5633
 20
207.0100
 30
0.0000
 11
11.5730
 21
208.9633
 31
0.0000
  0
LINE
  8
46
 10
22.2611
 20
222.5599
 30
0.0000
 11
24.0871
 21
222.9841
 31
0.0000
  0
LINE
  8
46
 10
42.1185
 20
217.3224
 30
0.0000
 11
42.6850
 21
218.5187
 31
0.0000
  0
LINE
  8
46
 10
36.3060
 20
218.7219
 30
0.0000
 11
36.9867
 21
217.9218
 31
0.0000
  0
LINE
  8
46
 10
40.2194
 20
211.4906
 30
0.0000
 11
40.2778
 21
211.2950
 31
0.0000
  0
LINE
  8
46
 10
18.6809
 20
220.9825
 30
0.0000
 11
20.5191
 21
221.9249
 31
0.0000
  0
LINE
  8
46
 10
12.8270
 20
214.2414
 30
0.0000
 11
13.5477
 21
215.7451
 31
0.0000
  0
LINE
  8
46
 10
20.7919
 20
194.2821
 30
0.0000
 11
22.6192
 21
193.2635
 31
0.0000
  0
LINE
  8
46
 10
29.7091
 20
222.7910
 30
0.0000
 11
30.6560
 21
222.5015
 31
0.0000
  0
LINE
  8
46
 10
13.0282
 20
200.8759
 30
0.0000
 11
12.1421
 21
203.2787
 31
0.0000
  0
LINE
  8
46
 10
25.0033
 20
192.2577
 30
0.0000
 11
26.3606
 21
191.7116
 31
0.0000
  0
LINE
  8
46
 10
44.0119
 20
220.7819
 30
0.0000
 11
44.7932
 21
221.7903
 31
0.0000
  0
LINE
  8
46
 10
58.8963
 20
227.4875
 30
0.0000
 11
60.8973
 21
227.1573
 31
0.0000
  0
LINE
  8
46
 10
25.8412
 20
223.2127
 30
0.0000
 11
27.1971
 21
223.2025
 31
0.0000
  0
LINE
  8
46
 10
20.5191
 20
221.9249
 30
0.0000
 11
22.2611
 21
222.5599
 31
0.0000
  0
LINE
  8
46
 10
75.9699
 20
214.1372
 30
0.0000
 11
76.6328
 21
211.9071
 31
0.0000
  0
LINE
  8
46
 10
25.8674
 20
190.0098
 30
0.0000
 11
24.6479
 21
190.4975
 31
0.0000
  0
LINE
  8
46
 10
48.7416
 20
225.1989
 30
0.0000
 11
49.8328
 21
225.8136
 31
0.0000
  0
LINE
  8
46
 10
11.7590
 20
210.6320
 30
0.0000
 11
12.2028
 21
212.4354
 31
0.0000
  0
LINE
  8
46
 10
43.3631
 20
219.7557
 30
0.0000
 11
44.0119
 21
220.7819
 31
0.0000
  0
LINE
  8
46
 10
45.7055
 20
222.8113
 30
0.0000
 11
46.5737
 21
223.6470
 31
0.0000
  0
LINE
  8
46
 10
77.1401
 20
208.4222
 30
0.0000
 11
77.1540
 21
207.5993
 31
0.0000
  0
LINE
  8
46
 10
27.1971
 20
223.2025
 30
0.0000
 11
28.4800
 21
223.0374
 31
0.0000
  0
LINE
  8
46
 10
63.1985
 20
226.4969
 30
0.0000
 11
65.3509
 21
225.6409
 31
0.0000
  0
LINE
  8
46
 10
77.0311
 20
209.8929
 30
0.0000
 11
77.0999
 21
209.1944
 31
0.0000
  0
LINE
  8
46
 10
11.5730
 20
208.9633
 30
0.0000
 11
11.7590
 21
210.6320
 31
0.0000
  0
LINE
  8
46
 10
38.0906
 20
216.3166
 30
0.0000
 11
38.6418
 21
215.3539
 31
0.0000
  0
LINE
  8
46
 10
41.2133
 20
214.7138
 30
0.0000
 11
41.6679
 21
216.1362
 31
0.0000
  0
LINE
  8
46
 10
41.6679
 20
216.1362
 30
0.0000
 11
42.1185
 21
217.3224
 31
0.0000
  0
LINE
  8
46
 10
34.9557
 20
220.0300
 30
0.0000
 11
35.6281
 21
219.4357
 31
0.0000
  0
LINE
  8
46
 10
49.8328
 20
225.8136
 30
0.0000
 11
51.0634
 21
226.3343
 31
0.0000
  0
LINE
  8
46
 10
36.9867
 20
217.9218
 30
0.0000
 11
37.5422
 21
217.1802
 31
0.0000
  0
LINE
  8
46
 10
52.4812
 20
226.8296
 30
0.0000
 11
53.7975
 21
227.1852
 31
0.0000
  0
LINE
  8
46
 10
77.0999
 20
209.1944
 30
0.0000
 11
77.1401
 21
208.4222
 31
0.0000
  0
LINE
  8
46
 10
23.2753
 20
191.0512
 30
0.0000
 11
22.2377
 21
191.4906
 31
0.0000
  0
LINE
  8
46
 10
67.4594
 20
224.4623
 30
0.0000
 11
69.5881
 21
222.9942
 31
0.0000
  0
LINE
  8
46
 10
17.0701
 20
219.9157
 30
0.0000
 11
18.6809
 21
220.9825
 31
0.0000
  0
LINE
  8
46
 10
42.6850
 20
218.5187
 30
0.0000
 11
43.3631
 21
219.7557
 31
0.0000
  0
LINE
  8
46
 10
39.0815
 20
214.4776
 30
0.0000
 11
39.5072
 21
213.4718
 31
0.0000
  0
LINE
  8
46
 10
51.0634
 20
226.3343
 30
0.0000
 11
52.4812
 21
226.8296
 31
0.0000
  0
LINE
  8
46
 10
69.5881
 20
222.9942
 30
0.0000
 11
71.2833
 21
221.5439
 31
0.0000
  0
LINE
  8
46
 10
46.5737
 20
223.6470
 30
0.0000
 11
47.5798
 21
224.4293
 31
0.0000
  0
LINE
  8
46
 10
40.2778
 20
211.2950
 30
0.0000
 11
40.3380
 21
211.0892
 31
0.0000
  0
LINE
  8
46
 10
24.0871
 20
222.9841
 30
0.0000
 11
25.8412
 21
223.2127
 31
0.0000
  0
LINE
  8
46
 10
75.1876
 20
216.0930
 30
0.0000
 11
75.9699
 21
214.1372
 31
0.0000
  0
LINE
  8
46
 10
33.3309
 20
221.2162
 30
0.0000
 11
34.1384
 21
220.6625
 31
0.0000
  0
LINE
  8
46
 10
44.7932
 20
221.7903
 30
0.0000
 11
45.7055
 21
222.8113
 31
0.0000
  0
LINE
  8
46
 10
76.6328
 20
211.9071
 30
0.0000
 11
77.0311
 21
209.8929
 31
0.0000
  0
LINE
  8
46
 10
13.9198
 20
198.8287
 30
0.0000
 11
13.0282
 21
200.8759
 31
0.0000
  0
LINE
  8
46
 10
40.8452
 20
213.3600
 30
0.0000
 11
41.2133
 21
214.7138
 31
0.0000
  0
LINE
  8
46
 10
38.6418
 20
215.3539
 30
0.0000
 11
39.0815
 21
214.4776
 31
0.0000
  0
LINE
  8
46
 10
65.3509
 20
225.6409
 30
0.0000
 11
67.4594
 21
224.4623
 31
0.0000
  0
LINE
  8
46
 10
31.5930
 20
222.1154
 30
0.0000
 11
32.5427
 21
221.6607
 31
0.0000
  0
LINE
  8
46
 10
23.7604
 20
192.7555
 30
0.0000
 11
25.0033
 21
192.2577
 31
0.0000
  0
LINE
  8
46
 10
24.6479
 20
190.4975
 30
0.0000
 11
23.2753
 21
191.0512
 31
0.0000
  0
LINE
  8
46
 10
12.2028
 20
212.4354
 30
0.0000
 11
12.8270
 21
214.2414
 31
0.0000
  0
LINE
  8
46
 10
57.1447
 20
227.5180
 30
0.0000
 11
58.8963
 21
227.4875
 31
0.0000
  0
LINE
  8
46
 10
55.3286
 20
227.4087
 30
0.0000
 11
57.1447
 21
227.5180
 31
0.0000
  0
LINE
  8
46
 10
71.2833
 20
221.5439
 30
0.0000
 11
72.7332
 21
219.8827
 31
0.0000
  0
LINE
  8
46
 10
72.7332
 20
219.8827
 30
0.0000
 11
74.1332
 21
217.9295
 31
0.0000
  0
LINE
  8
46
 10
60.9824
 20
280.1696
 30
0.0000
 11
77.5228
 21
280.1696
 31
0.0000
  0
LINE
  8
46
 10
77.5228
 20
278.4043
 30
0.0000
 11
15.9410
 21
278.4043
 31
0.0000
  0
LINE
  8
46
 10
60.9824
 20
244.7214
 30
0.0000
 11
10.3449
 21
280.1696
 31
0.0000
  0
LINE
  8
46
 10
59.2183
 20
280.1696
 30
0.0000
 11
59.2183
 21
289.7657
 31
0.0000
  0
LINE
  8
46
 10
10.3449
 20
280.1696
 30
0.0000
 11
59.2183
 21
280.1696
 31
0.0000
  0
LINE
  8
46
 10
59.2183
 20
248.1097
 30
0.0000
 11
59.2183
 21
276.6035
 31
0.0000
  0
LINE
  8
46
 10
60.9824
 20
276.6035
 30
0.0000
 11
60.9824
 21
244.7214
 31
0.0000
  0
LINE
  8
46
 10
15.9410
 20
278.4043
 30
0.0000
 11
59.2183
 21
248.1097
 31
0.0000
  0
LINE
  8
46
 10
60.9824
 20
289.7657
 30
0.0000
 11
60.9824
 21
280.1696
 31
0.0000
  0
LINE
  8
46
 10
165.4358
 20
253.7612
 30
0.0000
 11
164.1201
 21
252.6640
 31
0.0000
  0
LINE
  8
46
 10
131.4163
 20
264.9499
 30
0.0000
 11
131.8616
 21
263.2456
 31
0.0000
  0
LINE
  8
46
 10
138.8593
 20
284.3682
 30
0.0000
 11
141.0391
 21
285.4681
 31
0.0000
  0
LINE
  8
46
 10
129.3383
 20
268.7853
 30
0.0000
 11
129.3467
 21
269.3772
 31
0.0000
  0
LINE
  8
46
 10
135.1979
 20
279.2882
 30
0.0000
 11
133.9025
 21
277.6220
 31
0.0000
  0
LINE
  8
46
 10
133.5288
 20
280.0375
 30
0.0000
 11
134.9827
 21
281.6301
 31
0.0000
  0
LINE
  8
46
 10
140.2192
 20
283.1033
 30
0.0000
 11
138.1826
 21
281.8790
 31
0.0000
  0
LINE
  8
46
 10
133.9025
 20
277.6220
 30
0.0000
 11
132.8799
 21
275.9913
 31
0.0000
  0
LINE
  8
46
 10
129.3879
 20
267.1877
 30
0.0000
 11
129.3383
 21
268.7853
 31
0.0000
  0
LINE
  8
46
 10
155.8326
 20
248.6863
 30
0.0000
 11
153.8150
 21
248.3155
 31
0.0000
  0
LINE
  8
46
 10
131.1006
 20
268.8844
 30
0.0000
 11
131.1793
 21
266.8524
 31
0.0000
  0
LINE
  8
46
 10
159.4978
 20
249.9436
 30
0.0000
 11
157.5907
 21
249.2172
 31
0.0000
  0
LINE
  8
20
 10
164.9745
 20
9.3701
 30
0.0000
 11
163.9288
 21
8.9383
 31
0.0000
  0
LINE
  8
46
 10
141.9751
 20
285.8567
 30
0.0000
 11
143.6355
 21
286.5399
 31
0.0000
  0
LINE
  8
46
 10
136.4917
 20
280.6167
 30
0.0000
 11
135.1979
 21
279.2882
 31
0.0000
  0
LINE
  8
46
 10
157.5907
 20
249.2172
 30
0.0000
 11
155.8326
 21
248.6863
 31
0.0000
  0
LINE
  8
46
 10
131.1575
 20
260.1671
 30
0.0000
 11
130.3236
 21
262.2906
 31
0.0000
  0
LINE
  8
46
 10
131.1201
 20
276.4231
 30
0.0000
 11
132.1425
 21
278.1732
 31
0.0000
  0
LINE
  8
46
 10
132.1907
 20
274.3911
 30
0.0000
 11
131.5956
 21
272.4582
 31
0.0000
  0
LINE
  8
46
 10
168.1770
 20
260.9825
 30
0.0000
 11
168.6966
 21
262.4709
 31
0.0000
  0
LINE
  8
46
 10
132.1425
 20
278.1732
 30
0.0000
 11
133.5288
 21
280.0375
 31
0.0000
  0
LINE
  8
46
 10
129.7612
 20
272.3794
 30
0.0000
 11
130.3746
 21
274.5308
 31
0.0000
  0
LINE
  8
46
 10
129.3467
 20
269.3772
 30
0.0000
 11
129.3713
 21
269.9360
 31
0.0000
  0
LINE
  8
46
 10
132.8799
 20
275.9913
 30
0.0000
 11
132.1907
 21
274.3911
 31
0.0000
  0
LINE
  8
46
 10
138.0447
 20
251.8943
 30
0.0000
 11
136.3055
 21
253.2177
 31
0.0000
  0
LINE
  8
46
 10
146.8145
 20
250.0706
 30
0.0000
 11
149.0028
 21
249.7760
 31
0.0000
  0
LINE
  8
46
 10
167.5458
 20
259.5093
 30
0.0000
 11
168.1770
 21
260.9825
 31
0.0000
  0
LINE
  8
46
 10
167.6558
 20
276.6035
 30
0.0000
 11
167.4193
 21
277.4213
 31
0.0000
  0
LINE
  8
46
 10
193.3166
 20
274.8356
 30
0.0000
 11
193.8691
 21
274.7162
 31
0.0000
  0
LINE
  8
46
 10
129.4128
 20
270.4490
 30
0.0000
 11
129.7612
 21
272.3794
 31
0.0000
  0
LINE
  8
46
 10
142.6213
 20
251.3127
 30
0.0000
 11
144.5339
 21
250.6066
 31
0.0000
  0
LINE
  8
46
 10
195.0103
 20
249.8014
 30
0.0000
 11
194.9331
 21
246.9972
 31
0.0000
  0
LINE
  8
46
 10
130.3746
 20
274.5308
 30
0.0000
 11
131.1201
 21
276.4231
 31
0.0000
  0
LINE
  8
46
 10
167.4193
 20
277.4213
 30
0.0000
 11
167.3888
 21
278.1122
 31
0.0000
  0
LINE
  8
46
 10
167.9151
 20
279.1130
 30
0.0000
 11
168.3273
 21
279.3390
 31
0.0000
  0
LINE
  8
46
 10
190.3811
 20
275.3919
 30
0.0000
 11
192.6923
 21
274.9575
 31
0.0000
  0
LINE
  8
46
 10
131.5956
 20
272.4582
 30
0.0000
 11
131.2111
 21
270.6116
 31
0.0000
  0
LINE
  8
46
 10
166.8953
 20
258.3332
 30
0.0000
 11
167.5458
 21
259.5093
 31
0.0000
  0
LINE
  8
46
 10
168.3273
 20
279.3390
 30
0.0000
 11
168.8023
 21
279.4102
 31
0.0000
  0
LINE
  8
46
 10
145.3634
 20
285.3538
 30
0.0000
 11
144.6637
 21
285.0540
 31
0.0000
  0
LINE
  8
46
 10
169.3593
 20
267.1470
 30
0.0000
 11
169.3248
 21
268.6253
 31
0.0000
  0
LINE
  8
46
 10
193.2450
 20
272.9865
 30
0.0000
 11
193.2434
 21
273.0246
 31
0.0000
  0
LINE
  8
46
 10
169.3248
 20
268.6253
 30
0.0000
 11
169.1277
 21
270.4211
 31
0.0000
  0
LINE
  8
46
 10
129.3713
 20
269.9360
 30
0.0000
 11
129.4128
 21
270.4490
 31
0.0000
  0
LINE
  8
46
 10
144.5339
 20
250.6066
 30
0.0000
 11
146.8145
 21
250.0706
 31
0.0000
  0
LINE
  8
46
 10
193.2434
 20
273.0246
 30
0.0000
 11
193.1510
 21
273.0678
 31
0.0000
  0
LINE
  8
46
 10
192.6923
 20
274.9575
 30
0.0000
 11
193.3166
 21
274.8356
 31
0.0000
  0
LINE
  8
46
 10
136.6873
 20
282.9916
 30
0.0000
 11
138.8593
 21
284.3682
 31
0.0000
  0
LINE
  8
46
 10
168.8023
 20
279.4102
 30
0.0000
 11
170.5816
 21
279.1003
 31
0.0000
  0
LINE
  8
46
 10
131.1793
 20
266.8524
 30
0.0000
 11
131.4163
 21
264.9499
 31
0.0000
  0
LINE
  8
46
 10
135.7600
 20
256.3038
 30
0.0000
 11
137.1890
 21
254.8001
 31
0.0000
  0
LINE
  8
46
 10
140.6233
 20
252.3592
 30
0.0000
 11
142.6213
 21
251.3127
 31
0.0000
  0
LINE
  8
46
 10
143.0099
 20
284.3733
 30
0.0000
 11
141.9060
 21
283.9187
 31
0.0000
  0
LINE
  8
46
 10
193.1510
 20
273.0678
 30
0.0000
 11
192.8193
 21
273.1389
 31
0.0000
  0
LINE
  8
46
 10
165.9969
 20
257.0582
 30
0.0000
 11
166.8953
 21
258.3332
 31
0.0000
  0
LINE
  8
46
 10
138.1826
 20
281.8790
 30
0.0000
 11
136.4917
 21
280.6167
 31
0.0000
  0
LINE
  8
46
 10
164.0030
 20
254.8433
 30
0.0000
 11
164.9773
 21
255.8212
 31
0.0000
  0
LINE
  8
46
 10
167.3888
 20
278.1122
 30
0.0000
 11
167.5719
 21
278.7015
 31
0.0000
  0
LINE
  8
46
 10
137.1890
 20
254.8001
 30
0.0000
 11
138.6746
 21
253.6012
 31
0.0000
  0
LINE
  8
46
 10
192.8193
 20
273.1389
 30
0.0000
 11
192.4248
 21
273.2151
 31
0.0000
  0
LINE
  8
46
 10
169.2410
 20
265.4757
 30
0.0000
 11
169.3593
 21
267.1470
 31
0.0000
  0
LINE
  8
46
 10
164.9773
 20
255.8212
 30
0.0000
 11
165.9969
 21
257.0582
 31
0.0000
  0
LINE
  8
46
 10
170.5816
 20
279.1003
 30
0.0000
 11
180.2653
 21
277.2867
 31
0.0000
  0
LINE
  8
46
 10
134.9827
 20
281.6301
 30
0.0000
 11
136.6873
 21
282.9916
 31
0.0000
  0
LINE
  8
46
 10
193.8691
 20
274.7162
 30
0.0000
 11
194.3418
 21
274.5359
 31
0.0000
  0
LINE
  8
46
 10
194.9798
 20
273.3523
 30
0.0000
 11
195.0103
 21
271.6606
 31
0.0000
  0
LINE
  8
46
 10
161.3377
 20
252.8570
 30
0.0000
 11
162.7378
 21
253.8273
 31
0.0000
  0
LINE
  8
46
 10
160.0479
 20
252.1229
 30
0.0000
 11
161.3377
 21
252.8570
 31
0.0000
  0
LINE
  8
46
 10
149.0028
 20
249.7760
 30
0.0000
 11
150.9240
 21
249.7988
 31
0.0000
  0
LINE
  8
46
 10
193.2463
 20
246.9972
 30
0.0000
 11
193.2463
 21
272.9433
 31
0.0000
  0
LINE
  8
46
 10
193.2463
 20
272.9433
 30
0.0000
 11
193.2450
 21
272.9865
 31
0.0000
  0
LINE
  8
46
 10
150.9240
 20
249.7988
 30
0.0000
 11
153.0833
 21
249.9995
 31
0.0000
  0
LINE
  8
46
 10
156.6537
 20
250.7640
 30
0.0000
 11
158.4259
 21
251.4117
 31
0.0000
  0
LINE
  8
46
 10
168.6966
 20
262.4709
 30
0.0000
 11
169.0134
 21
263.8222
 31
0.0000
  0
LINE
  8
46
 10
153.0833
 20
249.9995
 30
0.0000
 11
155.0553
 21
250.3195
 31
0.0000
  0
LINE
  8
46
 10
155.0553
 20
250.3195
 30
0.0000
 11
156.6537
 21
250.7640
 31
0.0000
  0
LINE
  8
46
 10
169.1277
 20
270.4211
 30
0.0000
 11
168.8203
 21
272.2270
 31
0.0000
  0
LINE
  8
46
 10
134.4094
 20
257.9853
 30
0.0000
 11
135.7600
 21
256.3038
 31
0.0000
  0
LINE
  8
46
 10
141.0391
 20
285.4681
 30
0.0000
 11
141.9751
 21
285.8567
 31
0.0000
  0
LINE
  8
46
 10
141.9060
 20
283.9187
 30
0.0000
 11
140.2192
 21
283.1033
 31
0.0000
  0
LINE
  8
46
 10
131.2111
 20
270.6116
 30
0.0000
 11
131.1006
 21
268.8844
 31
0.0000
  0
LINE
  8
46
 10
168.0294
 20
275.3106
 30
0.0000
 11
167.6558
 21
276.6035
 31
0.0000
  0
LINE
  8
46
 10
195.0103
 20
271.6606
 30
0.0000
 11
195.0103
 21
249.8014
 31
0.0000
  0
LINE
  8
46
 10
144.6637
 20
285.0540
 30
0.0000
 11
143.0099
 21
284.3733
 31
0.0000
  0
LINE
  8
46
 10
158.4259
 20
251.4117
 30
0.0000
 11
160.0479
 21
252.1229
 31
0.0000
  0
LINE
  8
46
 10
133.4326
 20
259.5093
 30
0.0000
 11
134.4094
 21
257.9853
 31
0.0000
  0
LINE
  8
46
 10
192.4248
 20
273.2151
 30
0.0000
 11
191.4962
 21
273.3878
 31
0.0000
  0
LINE
  8
46
 10
168.4472
 20
273.7663
 30
0.0000
 11
168.0294
 21
275.3106
 31
0.0000
  0
LINE
  8
46
 10
142.3289
 20
249.5118
 30
0.0000
 11
140.2042
 21
250.5685
 31
0.0000
  0
LINE
  8
46
 10
170.8061
 20
263.8450
 30
0.0000
 11
170.4838
 21
262.3083
 31
0.0000
  0
LINE
  8
46
 10
133.2532
 20
256.5883
 30
0.0000
 11
132.0861
 21
258.3028
 31
0.0000
  0
LINE
  8
46
 10
194.7756
 20
274.0304
 30
0.0000
 11
194.9798
 21
273.3523
 31
0.0000
  0
LINE
  8
46
 10
167.6326
 20
256.3038
 30
0.0000
 11
166.5150
 21
254.8992
 31
0.0000
  0
LINE
  8
46
 10
131.8616
 20
263.2456
 30
0.0000
 11
132.5890
 21
261.3000
 31
0.0000
  0
LINE
  8
46
 10
170.4838
 20
262.3083
 30
0.0000
 11
169.9575
 21
260.7031
 31
0.0000
  0
LINE
  8
46
 10
147.0531
 20
248.2367
 30
0.0000
 11
144.5285
 21
248.7778
 31
0.0000
  0
LINE
  8
46
 10
140.2042
 20
250.5685
 30
0.0000
 11
138.0447
 21
251.8943
 31
0.0000
  0
LINE
  8
46
 10
170.4642
 20
272.9713
 30
0.0000
 11
170.8132
 21
271.0840
 31
0.0000
  0
LINE
  8
46
 10
171.0352
 20
265.6840
 30
0.0000
 11
170.8061
 21
263.8450
 31
0.0000
  0
LINE
  8
46
 10
162.7378
 20
253.8273
 30
0.0000
 11
164.0030
 21
254.8433
 31
0.0000
  0
LINE
  8
46
 10
169.6430
 20
276.0878
 30
0.0000
 11
170.0637
 21
274.5537
 31
0.0000
  0
LINE
  8
46
 10
130.3236
 20
262.2906
 30
0.0000
 11
129.7625
 21
264.2210
 31
0.0000
  0
LINE
  8
46
 10
136.3055
 20
253.2177
 30
0.0000
 11
134.7663
 21
254.7645
 31
0.0000
  0
LINE
  8
46
 10
169.9575
 20
260.7031
 30
0.0000
 11
169.2752
 21
259.0470
 31
0.0000
  0
LINE
  8
46
 10
172.5150
 20
276.9438
 30
0.0000
 11
169.2808
 21
277.3197
 31
0.0000
  0
LINE
  8
46
 10
164.1201
 20
252.6640
 30
0.0000
 11
162.5933
 21
251.5692
 31
0.0000
  0
LINE
  8
46
 10
183.0667
 20
274.9702
 30
0.0000
 11
172.5150
 21
276.9438
 31
0.0000
  0
LINE
  8
46
 10
171.1300
 20
267.4595
 30
0.0000
 11
171.0352
 21
265.6840
 31
0.0000
  0
LINE
  8
46
 10
191.4962
 20
273.3878
 30
0.0000
 11
183.0667
 21
274.9702
 31
0.0000
  0
LINE
  8
46
 10
132.0861
 20
258.3028
 30
0.0000
 11
131.1575
 21
260.1671
 31
0.0000
  0
LINE
  8
46
 10
132.5890
 20
261.3000
 30
0.0000
 11
133.4326
 21
259.5093
 31
0.0000
  0
LINE
  8
46
 10
180.2653
 20
277.2867
 30
0.0000
 11
190.3811
 21
275.3919
 31
0.0000
  0
LINE
  8
46
 10
169.2752
 20
259.0470
 30
0.0000
 11
168.5669
 21
257.6830
 31
0.0000
  0
LINE
  8
46
 10
167.5719
 20
278.7015
 30
0.0000
 11
167.9151
 21
279.1130
 31
0.0000
  0
LINE
  8
46
 10
138.6746
 20
253.6012
 30
0.0000
 11
140.6233
 21
252.3592
 31
0.0000
  0
LINE
  8
46
 10
169.0134
 20
263.8222
 30
0.0000
 11
169.2410
 21
265.4757
 31
0.0000
  0
LINE
  8
46
 10
170.8132
 20
271.0840
 30
0.0000
 11
171.0543
 21
269.1206
 31
0.0000
  0
LINE
  8
46
 10
162.5933
 20
251.5692
 30
0.0000
 11
161.1640
 21
250.7132
 31
0.0000
  0
LINE
  8
46
 10
161.1640
 20
250.7132
 30
0.0000
 11
159.4978
 21
249.9436
 31
0.0000
  0
LINE
  8
46
 10
169.2808
 20
277.3197
 30
0.0000
 11
169.6430
 21
276.0878
 31
0.0000
  0
LINE
  8
46
 10
151.5039
 20
248.0666
 30
0.0000
 11
149.3736
 21
247.9954
 31
0.0000
  0
LINE
  8
46
 10
168.8203
 20
272.2270
 30
0.0000
 11
168.4472
 21
273.7663
 31
0.0000
  0
LINE
  8
46
 10
168.5669
 20
257.6830
 30
0.0000
 11
167.6326
 21
256.3038
 31
0.0000
  0
LINE
  8
46
 10
170.0637
 20
274.5537
 30
0.0000
 11
170.4642
 21
272.9713
 31
0.0000
  0
LINE
  8
46
 10
194.3418
 20
274.5359
 30
0.0000
 11
194.7756
 21
274.0304
 31
0.0000
  0
LINE
  8
46
 10
149.3736
 20
247.9954
 30
0.0000
 11
147.0531
 21
248.2367
 31
0.0000
  0
LINE
  8
46
 10
171.0543
 20
269.1206
 30
0.0000
 11
171.1300
 21
267.4595
 31
0.0000
  0
LINE
  8
46
 10
129.5339
 20
265.6103
 30
0.0000
 11
129.3879
 21
267.1877
 31
0.0000
  0
LINE
  8
46
 10
129.7625
 20
264.2210
 30
0.0000
 11
129.5339
 21
265.6103
 31
0.0000
  0
LINE
  8
46
 10
166.5150
 20
254.8992
 30
0.0000
 11
165.4358
 21
253.7612
 31
0.0000
  0
LINE
  8
46
 10
153.8150
 20
248.3155
 30
0.0000
 11
151.5039
 21
248.0666
 31
0.0000
  0
LINE
  8
46
 10
144.5285
 20
248.7778
 30
0.0000
 11
142.3289
 21
249.5118
 31
0.0000
  0
LINE
  8
46
 10
134.7663
 20
254.7645
 30
0.0000
 11
133.2532
 21
256.5883
 31
0.0000
  0
LINE
  8
46
 10
130.8255
 20
205.2625
 30
0.0000
 11
131.1120
 21
204.1322
 31
0.0000
  0
LINE
  8
46
 10
138.4046
 20
194.3989
 30
0.0000
 11
139.3002
 21
193.8757
 31
0.0000
  0
LINE
  8
46
 10
147.2710
 20
192.1485
 30
0.0000
 11
148.3431
 21
192.2297
 31
0.0000
  0
LINE
  8
46
 10
146.2032
 20
225.9762
 30
0.0000
 11
145.2149
 21
225.9178
 31
0.0000
  0
LINE
  8
46
 10
160.8600
 20
201.6430
 30
0.0000
 11
161.2882
 21
202.6895
 31
0.0000
  0
LINE
  8
46
 10
132.7562
 20
200.2180
 30
0.0000
 11
133.2591
 21
199.4154
 31
0.0000
  0
LINE
  8
46
 10
139.3002
 20
193.8757
 30
0.0000
 11
140.1316
 21
193.4743
 31
0.0000
  0
LINE
  8
46
 10
130.8270
 20
212.8723
 30
0.0000
 11
130.6492
 21
211.8817
 31
0.0000
  0
LINE
  8
46
 10
147.2339
 20
225.9482
 30
0.0000
 11
146.2032
 21
225.9762
 31
0.0000
  0
LINE
  8
46
 10
146.1491
 20
192.1180
 30
0.0000
 11
147.2710
 21
192.1485
 31
0.0000
  0
LINE
  8
46
 10
140.1316
 20
193.4743
 30
0.0000
 11
141.1458
 21
193.0679
 31
0.0000
  0
LINE
  8
46
 10
149.2720
 20
192.3796
 30
0.0000
 11
150.3469
 21
192.6311
 31
0.0000
  0
LINE
  8
46
 10
130.6353
 20
206.2480
 30
0.0000
 11
130.8255
 21
205.2625
 31
0.0000
  0
LINE
  8
46
 10
131.7970
 20
215.9432
 30
0.0000
 11
131.4486
 21
215.0262
 31
0.0000
  0
LINE
  8
46
 10
161.9222
 20
204.6681
 30
0.0000
 11
162.1579
 21
205.8010
 31
0.0000
  0
LINE
  8
46
 10
161.0761
 20
215.9610
 30
0.0000
 11
160.8407
 21
216.4994
 31
0.0000
  0
LINE
  8
46
 10
162.1442
 20
217.8939
 30
0.0000
 11
162.4432
 21
217.2360
 31
0.0000
  0
LINE
  8
46
 10
157.2961
 20
196.5858
 30
0.0000
 11
158.0472
 21
197.3758
 31
0.0000
  0
LINE
  8
46
 10
142.1585
 20
225.3615
 30
0.0000
 11
141.1082
 21
225.0084
 31
0.0000
  0
LINE
  8
46
 10
131.1011
 20
213.9213
 30
0.0000
 11
130.8270
 21
212.8723
 31
0.0000
  0
LINE
  8
46
 10
160.8407
 20
216.4994
 30
0.0000
 11
160.5443
 21
217.1522
 31
0.0000
  0
LINE
  8
46
 10
163.9880
 20
212.1535
 30
0.0000
 11
164.1521
 21
211.0410
 31
0.0000
  0
LINE
  8
46
 10
159.2986
 20
198.9303
 30
0.0000
 11
159.8978
 21
199.8599
 31
0.0000
  0
LINE
  8
46
 10
152.2237
 20
193.2483
 30
0.0000
 11
153.2118
 21
193.7004
 31
0.0000
  0
LINE
  8
46
 10
136.7526
 20
195.5495
 30
0.0000
 11
137.4922
 21
194.9933
 31
0.0000
  0
LINE
  8
46
 10
145.2149
 20
225.9178
 30
0.0000
 11
144.0932
 21
225.7857
 31
0.0000
  0
LINE
  8
46
 10
162.4693
 20
209.0064
 30
0.0000
 11
162.4637
 21
210.0250
 31
0.0000
  0
LINE
  8
46
 10
160.4437
 20
200.7972
 30
0.0000
 11
160.8600
 21
201.6430
 31
0.0000
  0
LINE
  8
46
 10
163.6380
 20
204.2592
 30
0.0000
 11
163.3499
 21
203.2178
 31
0.0000
  0
LINE
  8
46
 10
162.3992
 20
210.8454
 30
0.0000
 11
162.2504
 21
211.8563
 31
0.0000
  0
LINE
  8
46
 10
161.8521
 20
218.5340
 30
0.0000
 11
162.1442
 21
217.8939
 31
0.0000
  0
LINE
  8
46
 10
160.5443
 20
217.1522
 30
0.0000
 11
160.2494
 21
217.7974
 31
0.0000
  0
LINE
  8
46
 10
162.2504
 20
211.8563
 30
0.0000
 11
162.0492
 21
212.9003
 31
0.0000
  0
LINE
  8
46
 10
153.9146
 20
224.0636
 30
0.0000
 11
153.1127
 21
224.4547
 31
0.0000
  0
LINE
  8
46
 10
143.0391
 20
192.4964
 30
0.0000
 11
144.1333
 21
192.2983
 31
0.0000
  0
LINE
  8
46
 10
151.3624
 20
192.9206
 30
0.0000
 11
152.2237
 21
193.2483
 31
0.0000
  0
LINE
  8
46
 10
145.1971
 20
192.1612
 30
0.0000
 11
146.1491
 21
192.1180
 31
0.0000
  0
LINE
  8
46
 10
140.1755
 20
224.6427
 30
0.0000
 11
139.3254
 21
224.2185
 31
0.0000
  0
LINE
  8
46
 10
130.4272
 20
209.5779
 30
0.0000
 11
130.4343
 21
208.5518
 31
0.0000
  0
LINE
  8
46
 10
135.9423
 20
221.8334
 30
0.0000
 11
135.2090
 21
221.1349
 31
0.0000
  0
LINE
  8
46
 10
162.6954
 20
216.6595
 30
0.0000
 11
163.1267
 21
215.5114
 31
0.0000
  0
LINE
  8
46
 10
135.2090
 20
221.1349
 30
0.0000
 11
134.5738
 21
220.4237
 31
0.0000
  0
LINE
  8
46
 10
141.1082
 20
225.0084
 30
0.0000
 11
140.1755
 21
224.6427
 31
0.0000
  0
LINE
  8
46
 10
163.8955
 20
205.5012
 30
0.0000
 11
163.6380
 21
204.2592
 31
0.0000
  0
LINE
  8
46
 10
138.3728
 20
223.6724
 30
0.0000
 11
137.5283
 21
223.1288
 31
0.0000
  0
LINE
  8
46
 10
150.3109
 20
225.4707
 30
0.0000
 11
149.3312
 21
225.7069
 31
0.0000
  0
LINE
  8
46
 10
162.9408
 20
202.0722
 30
0.0000
 11
162.4709
 21
200.9292
 31
0.0000
  0
LINE
  8
46
 10
162.4282
 20
207.9168
 30
0.0000
 11
162.4693
 21
209.0064
 31
0.0000
  0
LINE
  8
46
 10
160.7510
 20
197.9320
 30
0.0000
 11
160.1335
 21
197.0964
 31
0.0000
  0
LINE
  8
46
 10
162.0091
 20
199.9818
 30
0.0000
 11
161.4109
 21
198.9531
 31
0.0000
  0
LINE
  8
46
 10
162.4709
 20
200.9292
 30
0.0000
 11
162.0091
 21
199.9818
 31
0.0000
  0
LINE
  8
46
 10
132.2449
 20
216.8957
 30
0.0000
 11
131.7970
 21
215.9432
 31
0.0000
  0
LINE
  8
46
 10
141.1458
 20
193.0679
 30
0.0000
 11
142.1348
 21
192.7301
 31
0.0000
  0
LINE
  8
46
 10
149.3312
 20
225.7069
 30
0.0000
 11
148.3612
 21
225.8492
 31
0.0000
  0
LINE
  8
46
 10
153.2118
 20
193.7004
 30
0.0000
 11
154.1419
 21
194.1855
 31
0.0000
  0
LINE
  8
46
 10
133.8791
 20
219.5551
 30
0.0000
 11
133.2771
 21
218.7143
 31
0.0000
  0
LINE
  8
46
 10
164.0914
 20
206.7382
 30
0.0000
 11
163.8955
 21
205.5012
 31
0.0000
  0
LINE
  8
46
 10
131.1120
 20
204.1322
 30
0.0000
 11
131.4305
 21
203.0933
 31
0.0000
  0
LINE
  8
46
 10
130.6492
 20
211.8817
 30
0.0000
 11
130.5060
 21
210.6955
 31
0.0000
  0
LINE
  8
46
 10
148.3431
 20
192.2297
 30
0.0000
 11
149.2720
 21
192.3796
 31
0.0000
  0
LINE
  8
46
 10
142.1348
 20
192.7301
 30
0.0000
 11
143.0391
 21
192.4964
 31
0.0000
  0
LINE
  8
46
 10
150.3469
 20
192.6311
 30
0.0000
 11
151.3624
 21
192.9206
 31
0.0000
  0
LINE
  8
46
 10
137.5283
 20
223.1288
 30
0.0000
 11
136.7772
 21
222.5523
 31
0.0000
  0
LINE
  8
46
 10
139.3254
 20
224.2185
 30
0.0000
 11
138.3728
 21
223.6724
 31
0.0000
  0
LINE
  8
46
 10
154.9192
 20
194.6707
 30
0.0000
 11
155.7983
 21
195.3006
 31
0.0000
  0
LINE
  8
46
 10
162.1579
 20
205.8010
 30
0.0000
 11
162.3385
 21
206.9313
 31
0.0000
  0
LINE
  8
46
 10
159.3687
 20
196.2074
 30
0.0000
 11
158.5420
 21
195.3336
 31
0.0000
  0
LINE
  8
46
 10
163.1267
 20
215.5114
 30
0.0000
 11
163.5072
 21
214.3303
 31
0.0000
  0
LINE
  8
46
 10
148.5745
 20
190.4822
 30
0.0000
 11
147.3838
 21
190.3882
 31
0.0000
  0
LINE
  8
46
 10
158.5420
 20
195.3336
 30
0.0000
 11
157.7884
 21
194.6351
 31
0.0000
  0
LINE
  8
46
 10
161.2882
 20
202.6895
 30
0.0000
 11
161.6619
 21
203.7334
 31
0.0000
  0
LINE
  8
46
 10
155.9072
 20
193.2102
 30
0.0000
 11
155.0363
 21
192.6666
 31
0.0000
  0
LINE
  8
46
 10
158.0472
 20
197.3758
 30
0.0000
 11
158.7434
 21
198.1835
 31
0.0000
  0
LINE
  8
46
 10
161.4109
 20
198.9531
 30
0.0000
 11
160.7510
 21
197.9320
 31
0.0000
  0
LINE
  8
46
 10
150.8125
 20
190.9267
 30
0.0000
 11
149.6190
 21
190.6524
 31
0.0000
  0
LINE
  8
46
 10
161.4676
 20
214.9119
 30
0.0000
 11
161.0761
 21
215.9610
 31
0.0000
  0
LINE
  8
46
 10
147.3838
 20
190.3882
 30
0.0000
 11
146.1381
 21
190.3552
 31
0.0000
  0
LINE
  8
46
 10
154.0055
 20
192.1256
 30
0.0000
 11
152.9113
 21
191.6227
 31
0.0000
  0
LINE
  8
46
 10
149.6190
 20
190.6524
 30
0.0000
 11
148.5745
 21
190.4822
 31
0.0000
  0
LINE
  8
46
 10
164.2334
 20
209.0166
 30
0.0000
 11
164.1892
 21
207.8253
 31
0.0000
  0
LINE
  8
46
 10
157.7884
 20
194.6351
 30
0.0000
 11
156.8801
 21
193.9087
 31
0.0000
  0
LINE
  8
46
 10
152.9113
 20
191.6227
 30
0.0000
 11
151.9426
 21
191.2544
 31
0.0000
  0
LINE
  8
46
 10
163.7690
 20
213.2965
 30
0.0000
 11
163.9880
 21
212.1535
 31
0.0000
  0
LINE
  8
46
 10
164.1521
 20
211.0410
 30
0.0000
 11
164.2252
 21
210.1291
 31
0.0000
  0
LINE
  8
46
 10
156.8801
 20
193.9087
 30
0.0000
 11
155.9072
 21
193.2102
 31
0.0000
  0
LINE
  8
46
 10
158.7434
 20
198.1835
 30
0.0000
 11
159.2986
 21
198.9303
 31
0.0000
  0
LINE
  8
46
 10
155.0363
 20
192.6666
 30
0.0000
 11
154.0055
 21
192.1256
 31
0.0000
  0
LINE
  8
46
 10
162.4637
 20
210.0250
 30
0.0000
 11
162.3992
 21
210.8454
 31
0.0000
  0
LINE
  8
46
 10
155.7983
 20
195.3006
 30
0.0000
 11
156.6225
 21
195.9610
 31
0.0000
  0
LINE
  8
46
 10
163.5072
 20
214.3303
 30
0.0000
 11
163.7690
 21
213.2965
 31
0.0000
  0
LINE
  8
46
 10
145.0660
 20
190.4035
 30
0.0000
 11
143.8839
 21
190.5533
 31
0.0000
  0
LINE
  8
46
 10
146.1381
 20
190.3552
 30
0.0000
 11
145.0660
 21
190.4035
 31
0.0000
  0
LINE
  8
46
 10
164.2252
 20
210.1291
 30
0.0000
 11
164.2334
 21
209.0166
 31
0.0000
  0
LINE
  8
46
 10
161.6619
 20
203.7334
 30
0.0000
 11
161.9222
 21
204.6681
 31
0.0000
  0
LINE
  8
46
 10
151.9426
 20
191.2544
 30
0.0000
 11
150.8125
 21
190.9267
 31
0.0000
  0
LINE
  8
46
 10
154.1419
 20
194.1855
 30
0.0000
 11
154.9192
 21
194.6707
 31
0.0000
  0
LINE
  8
46
 10
164.1892
 20
207.8253
 30
0.0000
 11
164.0914
 21
206.7382
 31
0.0000
  0
LINE
  8
46
 10
159.8978
 20
199.8599
 30
0.0000
 11
160.4437
 21
200.7972
 31
0.0000
  0
LINE
  8
46
 10
162.3385
 20
206.9313
 30
0.0000
 11
162.4282
 21
207.9168
 31
0.0000
  0
LINE
  8
46
 10
160.1335
 20
197.0964
 30
0.0000
 11
159.3687
 21
196.2074
 31
0.0000
  0
LINE
  8
46
 10
162.0492
 20
212.9003
 30
0.0000
 11
161.8135
 21
213.8375
 31
0.0000
  0
LINE
  8
46
 10
162.4432
 20
217.2360
 30
0.0000
 11
162.6954
 21
216.6595
 31
0.0000
  0
LINE
  8
46
 10
161.8135
 20
213.8375
 30
0.0000
 11
161.4676
 21
214.9119
 31
0.0000
  0
LINE
  8
46
 10
163.3499
 20
203.2178
 30
0.0000
 11
162.9408
 21
202.0722
 31
0.0000
  0
LINE
  8
46
 10
156.6225
 20
195.9610
 30
0.0000
 11
157.2961
 21
196.5858
 31
0.0000
  0
LINE
  8
46
 10
133.2220
 20
221.5540
 30
0.0000
 11
133.9304
 21
222.3491
 31
0.0000
  0
LINE
  8
46
 10
128.6703
 20
208.4781
 30
0.0000
 11
128.6647
 21
209.6160
 31
0.0000
  0
LINE
  8
46
 10
143.8839
 20
190.5533
 30
0.0000
 11
142.6682
 21
190.7743
 31
0.0000
  0
LINE
  8
46
 10
133.9246
 20
195.7603
 30
0.0000
 11
133.2177
 21
196.5249
 31
0.0000
  0
LINE
  8
46
 10
136.4988
 20
224.5614
 30
0.0000
 11
137.4346
 21
225.1685
 31
0.0000
  0
LINE
  8
46
 10
161.3654
 20
221.4550
 30
0.0000
 11
170.0474
 21
215.9203
 31
0.0000
  0
LINE
  8
46
 10
132.5054
 20
197.4317
 30
0.0000
 11
131.7970
 21
198.4299
 31
0.0000
  0
LINE
  8
46
 10
130.6586
 20
217.6628
 30
0.0000
 11
131.2418
 21
218.7600
 31
0.0000
  0
LINE
  8
46
 10
146.1618
 20
227.7389
 30
0.0000
 11
147.3093
 21
227.7085
 31
0.0000
  0
LINE
  8
46
 10
137.4346
 20
225.1685
 30
0.0000
 11
138.4889
 21
225.7704
 31
0.0000
  0
LINE
  8
46
 10
149.6507
 20
227.4392
 30
0.0000
 11
150.7437
 21
227.1827
 31
0.0000
  0
LINE
  8
46
 10
139.4412
 20
226.2429
 30
0.0000
 11
140.4800
 21
226.6594
 31
0.0000
  0
LINE
  8
46
 10
128.7488
 20
210.8403
 30
0.0000
 11
128.9032
 21
212.1357
 31
0.0000
  0
LINE
  8
46
 10
142.6682
 20
190.7743
 30
0.0000
 11
141.6497
 21
191.0334
 31
0.0000
  0
LINE
  8
46
 10
131.7970
 20
198.4299
 30
0.0000
 11
131.2347
 21
199.3265
 31
0.0000
  0
LINE
  8
46
 10
131.2347
 20
199.3265
 30
0.0000
 11
130.6932
 21
200.3603
 31
0.0000
  0
LINE
  8
46
 10
129.1016
 20
213.2355
 30
0.0000
 11
129.4006
 21
214.3862
 31
0.0000
  0
LINE
  8
46
 10
129.1072
 20
204.8688
 30
0.0000
 11
128.8948
 21
205.9584
 31
0.0000
  0
LINE
  8
46
 10
135.6568
 20
194.1652
 30
0.0000
 11
134.7942
 21
194.9171
 31
0.0000
  0
LINE
  8
46
 10
129.7729
 20
202.4939
 30
0.0000
 11
129.4211
 21
203.6293
 31
0.0000
  0
LINE
  8
46
 10
129.4211
 20
203.6293
 30
0.0000
 11
129.1072
 21
204.8688
 31
0.0000
  0
LINE
  8
46
 10
185.8366
 20
205.8568
 30
0.0000
 11
194.3062
 21
200.4543
 31
0.0000
  0
LINE
  8
46
 10
143.8082
 20
227.5281
 30
0.0000
 11
145.0523
 21
227.6754
 31
0.0000
  0
LINE
  8
46
 10
147.3093
 20
227.7085
 30
0.0000
 11
148.5608
 21
227.6018
 31
0.0000
  0
LINE
  8
46
 10
150.7437
 20
227.1827
 30
0.0000
 11
151.9235
 21
226.8296
 31
0.0000
  0
LINE
  8
46
 10
148.5608
 20
227.6018
 30
0.0000
 11
149.6507
 21
227.4392
 31
0.0000
  0
LINE
  8
46
 10
151.9235
 20
226.8296
 30
0.0000
 11
152.9430
 21
226.4588
 31
0.0000
  0
LINE
  8
46
 10
152.9430
 20
226.4588
 30
0.0000
 11
153.8704
 21
226.0498
 31
0.0000
  0
LINE
  8
46
 10
128.9032
 20
212.1357
 30
0.0000
 11
129.1016
 21
213.2355
 31
0.0000
  0
LINE
  8
46
 10
170.0474
 20
215.9203
 30
0.0000
 11
185.8366
 21
205.8568
 31
0.0000
  0
LINE
  8
46
 10
154.7607
 20
225.6130
 30
0.0000
 11
155.4386
 21
225.2269
 31
0.0000
  0
LINE
  8
46
 10
130.1669
 20
216.6163
 30
0.0000
 11
130.6586
 21
217.6628
 31
0.0000
  0
LINE
  8
46
 10
130.1697
 20
201.4880
 30
0.0000
 11
129.7729
 21
202.4939
 31
0.0000
  0
LINE
  8
46
 10
128.8948
 20
205.9584
 30
0.0000
 11
128.7544
 21
207.1675
 31
0.0000
  0
LINE
  8
46
 10
134.7391
 20
223.1238
 30
0.0000
 11
135.6584
 21
223.9162
 31
0.0000
  0
LINE
  8
46
 10
140.4800
 20
226.6594
 30
0.0000
 11
141.6431
 21
227.0481
 31
0.0000
  0
LINE
  8
46
 10
133.2177
 20
196.5249
 30
0.0000
 11
132.5054
 21
197.4317
 31
0.0000
  0
LINE
  8
46
 10
132.4600
 20
220.5990
 30
0.0000
 11
133.2220
 21
221.5540
 31
0.0000
  0
LINE
  8
46
 10
141.6431
 20
227.0481
 30
0.0000
 11
142.6891
 21
227.3275
 31
0.0000
  0
LINE
  8
46
 10
133.9304
 20
222.3491
 30
0.0000
 11
134.7391
 21
223.1238
 31
0.0000
  0
LINE
  8
46
 10
131.2418
 20
218.7600
 30
0.0000
 11
131.7986
 21
219.6770
 31
0.0000
  0
LINE
  8
46
 10
153.8704
 20
226.0498
 30
0.0000
 11
154.7607
 21
225.6130
 31
0.0000
  0
LINE
  8
46
 10
128.7544
 20
207.1675
 30
0.0000
 11
128.6703
 21
208.4781
 31
0.0000
  0
LINE
  8
46
 10
135.6584
 20
223.9162
 30
0.0000
 11
136.4988
 21
224.5614
 31
0.0000
  0
LINE
  8
46
 10
129.4006
 20
214.3862
 30
0.0000
 11
129.7810
 21
215.5977
 31
0.0000
  0
LINE
  8
46
 10
145.0523
 20
227.6754
 30
0.0000
 11
146.1618
 21
227.7389
 31
0.0000
  0
LINE
  8
46
 10
158.7419
 20
223.1288
 30
0.0000
 11
161.3654
 21
221.4550
 31
0.0000
  0
LINE
  8
46
 10
141.6497
 20
191.0334
 30
0.0000
 11
140.5489
 21
191.4068
 31
0.0000
  0
LINE
  8
46
 10
130.6932
 20
200.3603
 30
0.0000
 11
130.1697
 21
201.4880
 31
0.0000
  0
LINE
  8
46
 10
138.4889
 20
192.3085
 30
0.0000
 11
137.4966
 21
192.8876
 31
0.0000
  0
LINE
  8
46
 10
140.5489
 20
191.4068
 30
0.0000
 11
139.4244
 21
191.8614
 31
0.0000
  0
LINE
  8
46
 10
134.7942
 20
194.9171
 30
0.0000
 11
133.9246
 21
195.7603
 31
0.0000
  0
LINE
  8
46
 10
137.4966
 20
192.8876
 30
0.0000
 11
136.4879
 21
193.5455
 31
0.0000
  0
LINE
  8
46
 10
129.7810
 20
215.5977
 30
0.0000
 11
130.1669
 21
216.6163
 31
0.0000
  0
LINE
  8
46
 10
155.4386
 20
225.2269
 30
0.0000
 11
156.6017
 21
224.4903
 31
0.0000
  0
LINE
  8
46
 10
138.4889
 20
225.7704
 30
0.0000
 11
139.4412
 21
226.2429
 31
0.0000
  0
LINE
  8
46
 10
136.4879
 20
193.5455
 30
0.0000
 11
135.6568
 21
194.1652
 31
0.0000
  0
LINE
  8
46
 10
131.7986
 20
219.6770
 30
0.0000
 11
132.4600
 21
220.5990
 31
0.0000
  0
LINE
  8
46
 10
142.6891
 20
227.3275
 30
0.0000
 11
143.8082
 21
227.5281
 31
0.0000
  0
LINE
  8
46
 10
132.7767
 20
217.8939
 30
0.0000
 11
132.2449
 21
216.8957
 31
0.0000
  0
LINE
  8
46
 10
148.3612
 20
225.8492
 30
0.0000
 11
147.2339
 21
225.9482
 31
0.0000
  0
LINE
  8
46
 10
151.3749
 20
225.1532
 30
0.0000
 11
150.3109
 21
225.4707
 31
0.0000
  0
LINE
  8
46
 10
133.2771
 20
218.7143
 30
0.0000
 11
132.7767
 21
217.8939
 31
0.0000
  0
LINE
  8
46
 10
137.4922
 20
194.9933
 30
0.0000
 11
138.4046
 21
194.3989
 31
0.0000
  0
LINE
  8
46
 10
130.4343
 20
208.5518
 30
0.0000
 11
130.5098
 21
207.3529
 31
0.0000
  0
LINE
  8
46
 10
169.3154
 20
214.2947
 30
0.0000
 11
160.4244
 21
219.9640
 31
0.0000
  0
LINE
  8
46
 10
130.5098
 20
207.3529
 30
0.0000
 11
130.6353
 21
206.2480
 31
0.0000
  0
LINE
  8
46
 10
131.4486
 20
215.0262
 30
0.0000
 11
131.1011
 21
213.9213
 31
0.0000
  0
LINE
  8
46
 10
130.5060
 20
210.6955
 30
0.0000
 11
130.4272
 21
209.5779
 31
0.0000
  0
LINE
  8
46
 10
135.1826
 20
196.9948
 30
0.0000
 11
135.9710
 21
196.2328
 31
0.0000
  0
LINE
  8
46
 10
156.6017
 20
224.4903
 30
0.0000
 11
158.7419
 21
223.1288
 31
0.0000
  0
LINE
  8
46
 10
143.0889
 20
225.6079
 30
0.0000
 11
142.1585
 21
225.3615
 31
0.0000
  0
LINE
  8
46
 10
185.1007
 20
204.2338
 30
0.0000
 11
169.3154
 21
214.2947
 31
0.0000
  0
LINE
  8
46
 10
193.3583
 20
198.9658
 30
0.0000
 11
185.1007
 21
204.2338
 31
0.0000
  0
LINE
  8
46
 10
134.5738
 20
220.4237
 30
0.0000
 11
133.8791
 21
219.5551
 31
0.0000
  0
LINE
  8
46
 10
132.2626
 20
201.1604
 30
0.0000
 11
132.7562
 21
200.2180
 31
0.0000
  0
LINE
  8
46
 10
135.9710
 20
196.2328
 30
0.0000
 11
136.7526
 21
195.5495
 31
0.0000
  0
LINE
  8
46
 10
152.2814
 20
224.8256
 30
0.0000
 11
151.3749
 21
225.1532
 31
0.0000
  0
LINE
  8
46
 10
155.6855
 20
222.9790
 30
0.0000
 11
154.5072
 21
223.7308
 31
0.0000
  0
LINE
  8
46
 10
134.5502
 20
197.6831
 30
0.0000
 11
135.1826
 21
196.9948
 31
0.0000
  0
LINE
  8
46
 10
133.2591
 20
199.4154
 30
0.0000
 11
133.9040
 21
198.5086
 31
0.0000
  0
LINE
  8
46
 10
136.7772
 20
222.5523
 30
0.0000
 11
135.9423
 21
221.8334
 31
0.0000
  0
LINE
  8
46
 10
144.0932
 20
225.7857
 30
0.0000
 11
143.0889
 21
225.6079
 31
0.0000
  0
LINE
  8
46
 10
131.7871
 20
202.1916
 30
0.0000
 11
132.2626
 21
201.1604
 31
0.0000
  0
LINE
  8
46
 10
128.6647
 20
209.6160
 30
0.0000
 11
128.7488
 21
210.8403
 31
0.0000
  0
LINE
  8
46
 10
154.5072
 20
223.7308
 30
0.0000
 11
153.9146
 21
224.0636
 31
0.0000
  0
LINE
  8
46
 10
133.9040
 20
198.5086
 30
0.0000
 11
134.5502
 21
197.6831
 31
0.0000
  0
LINE
  8
46
 10
160.4244
 20
219.9640
 30
0.0000
 11
157.8336
 21
221.6150
 31
0.0000
  0
LINE
  8
46
 10
144.1333
 20
192.2983
 30
0.0000
 11
145.1971
 21
192.1612
 31
0.0000
  0
LINE
  8
46
 10
139.4244
 20
191.8614
 30
0.0000
 11
138.4889
 21
192.3085
 31
0.0000
  0
LINE
  8
46
 10
157.8336
 20
221.6150
 30
0.0000
 11
155.6855
 21
222.9790
 31
0.0000
  0
LINE
  8
46
 10
131.4305
 20
203.0933
 30
0.0000
 11
131.7871
 21
202.1916
 31
0.0000
  0
LINE
  8
46
 10
153.1127
 20
224.4547
 30
0.0000
 11
152.2814
 21
224.8256
 31
0.0000
  0
LINE
  8
46
 10
194.5622
 20
129.1590
 30
0.0000
 11
127.8638
 21
163.9291
 31
0.0000
  0
LINE
  8
46
 10
128.6782
 20
165.4912
 30
0.0000
 11
192.8053
 21
132.0622
 31
0.0000
  0
LINE
  8
46
 10
194.6466
 20
168.8109
 30
0.0000
 11
194.5622
 21
129.1590
 31
0.0000
  0
LINE
  8
46
 10
192.8053
 20
132.0622
 30
0.0000
 11
192.8828
 21
168.8160
 31
0.0000
  0
LINE
  8
46
 10
162.4160
 20
77.0433
 30
0.0000
 11
161.7589
 21
76.0984
 31
0.0000
  0
LINE
  8
46
 10
157.6634
 20
72.1030
 30
0.0000
 11
156.7289
 21
71.4629
 31
0.0000
  0
LINE
  8
46
 10
186.0360
 20
73.3527
 30
0.0000
 11
185.0809
 21
72.8878
 31
0.0000
  0
LINE
  8
46
 10
178.2773
 20
71.6915
 30
0.0000
 11
177.3611
 21
71.7982
 31
0.0000
  0
LINE
  8
46
 10
165.2316
 20
81.9582
 30
0.0000
 11
165.1269
 21
82.2503
 31
0.0000
  0
LINE
  8
46
 10
158.6377
 20
72.8497
 30
0.0000
 11
157.6634
 21
72.1030
 31
0.0000
  0
LINE
  8
46
 10
130.5314
 20
79.6646
 30
0.0000
 11
130.0269
 21
80.8076
 31
0.0000
  0
LINE
  8
46
 10
185.0809
 20
72.8878
 30
0.0000
 11
184.1853
 21
72.5145
 31
0.0000
  0
LINE
  8
46
 10
162.2577
 20
80.3250
 30
0.0000
 11
162.7099
 21
81.3816
 31
0.0000
  0
LINE
  8
46
 10
134.1844
 20
77.0331
 30
0.0000
 11
134.8870
 21
76.1619
 31
0.0000
  0
LINE
  8
46
 10
155.4160
 20
72.7278
 30
0.0000
 11
156.2011
 21
73.2307
 31
0.0000
  0
LINE
  8
46
 10
174.5925
 20
72.4789
 30
0.0000
 11
173.6570
 21
72.8497
 31
0.0000
  0
LINE
  8
46
 10
171.2013
 20
74.2213
 30
0.0000
 11
170.4515
 21
74.7598
 31
0.0000
  0
LINE
  8
46
 10
154.7142
 20
70.3758
 30
0.0000
 11
153.6685
 21
69.9160
 31
0.0000
  0
LINE
  8
46
 10
147.3225
 20
70.4774
 30
0.0000
 11
148.4828
 21
70.5333
 31
0.0000
  0
LINE
  8
46
 10
166.2212
 20
79.8093
 30
0.0000
 11
165.7497
 21
80.7466
 31
0.0000
  0
LINE
  8
46
 10
146.7452
 20
68.7146
 30
0.0000
 11
145.6070
 21
68.7908
 31
0.0000
  0
LINE
  8
46
 10
167.8125
 20
77.3989
 30
0.0000
 11
167.2021
 21
78.2218
 31
0.0000
  0
LINE
  8
46
 10
163.0789
 20
78.1025
 30
0.0000
 11
162.4160
 21
77.0433
 31
0.0000
  0
LINE
  8
46
 10
168.3873
 20
76.7055
 30
0.0000
 11
167.8125
 21
77.3989
 31
0.0000
  0
LINE
  8
46
 10
161.7589
 20
76.0984
 30
0.0000
 11
161.0807
 21
75.2627
 31
0.0000
  0
LINE
  8
46
 10
165.0208
 20
82.5678
 30
0.0000
 11
164.9750
 21
82.4967
 31
0.0000
  0
LINE
  8
46
 10
169.0334
 20
76.0273
 30
0.0000
 11
168.3873
 21
76.7055
 31
0.0000
  0
LINE
  8
46
 10
164.0959
 20
80.1192
 30
0.0000
 11
163.6080
 21
79.0600
 31
0.0000
  0
LINE
  8
46
 10
130.6551
 20
85.0519
 30
0.0000
 11
130.8288
 21
84.2213
 31
0.0000
  0
LINE
  8
46
 10
180.3047
 20
71.6991
 30
0.0000
 11
179.2407
 21
71.6636
 31
0.0000
  0
LINE
  8
46
 10
132.9416
 20
78.8467
 30
0.0000
 11
133.4872
 21
77.9958
 31
0.0000
  0
LINE
  8
46
 10
152.6558
 20
69.5655
 30
0.0000
 11
151.4594
 21
69.2302
 31
0.0000
  0
LINE
  8
46
 10
194.5742
 20
87.8688
 30
0.0000
 11
194.5493
 21
87.2388
 31
0.0000
  0
LINE
  8
46
 10
179.2407
 20
71.6636
 30
0.0000
 11
178.2773
 21
71.6915
 31
0.0000
  0
LINE
  8
46
 10
153.4851
 20
71.7525
 30
0.0000
 11
154.4828
 21
72.2249
 31
0.0000
  0
LINE
  8
46
 10
137.2682
 20
73.9140
 30
0.0000
 11
138.0663
 21
73.3400
 31
0.0000
  0
LINE
  8
46
 10
160.2514
 20
74.3483
 30
0.0000
 11
159.4467
 21
73.5432
 31
0.0000
  0
LINE
  8
46
 10
156.2011
 20
73.2307
 30
0.0000
 11
157.0944
 21
73.8784
 31
0.0000
  0
LINE
  8
46
 10
161.2656
 20
78.5190
 30
0.0000
 11
161.8237
 21
79.4588
 31
0.0000
  0
LINE
  8
46
 10
131.4958
 20
81.9048
 30
0.0000
 11
131.8847
 21
80.9447
 31
0.0000
  0
LINE
  8
46
 10
155.8100
 20
70.9270
 30
0.0000
 11
154.7142
 21
70.3758
 31
0.0000
  0
LINE
  8
46
 10
137.5882
 20
71.5467
 30
0.0000
 11
136.5893
 21
72.2173
 31
0.0000
  0
LINE
  8
46
 10
138.6919
 20
70.8863
 30
0.0000
 11
137.5882
 21
71.5467
 31
0.0000
  0
LINE
  8
46
 10
164.8844
 20
86.3981
 30
0.0000
 11
165.4686
 21
86.2813
 31
0.0000
  0
LINE
  8
46
 10
164.5013
 20
86.2762
 30
0.0000
 11
164.8844
 21
86.3981
 31
0.0000
  0
LINE
  8
46
 10
163.8826
 20
85.1510
 30
0.0000
 11
164.1097
 21
85.8622
 31
0.0000
  0
LINE
  8
46
 10
193.2262
 20
81.4502
 30
0.0000
 11
192.8226
 21
80.5256
 31
0.0000
  0
LINE
  8
46
 10
147.9578
 20
68.7349
 30
0.0000
 11
146.7452
 21
68.7146
 31
0.0000
  0
LINE
  8
46
 10
160.0779
 20
76.8096
 30
0.0000
 11
160.6469
 21
77.5716
 31
0.0000
  0
LINE
  8
46
 10
164.9380
 20
82.3747
 30
0.0000
 11
164.9006
 21
82.2528
 31
0.0000
  0
LINE
  8
46
 10
132.3858
 20
76.4972
 30
0.0000
 11
131.6929
 21
77.5056
 31
0.0000
  0
LINE
  8
46
 10
148.4828
 20
70.5333
 30
0.0000
 11
149.5743
 21
70.6425
 31
0.0000
  0
LINE
  8
46
 10
173.6570
 20
72.8497
 30
0.0000
 11
172.8206
 21
73.2358
 31
0.0000
  0
LINE
  8
46
 10
169.7693
 20
75.3364
 30
0.0000
 11
169.0334
 21
76.0273
 31
0.0000
  0
LINE
  8
46
 10
164.9006
 20
82.2528
 30
0.0000
 11
164.5714
 21
81.3003
 31
0.0000
  0
LINE
  8
46
 10
134.8870
 20
76.1619
 30
0.0000
 11
135.5707
 21
75.4355
 31
0.0000
  0
LINE
  8
46
 10
172.0459
 20
73.6778
 30
0.0000
 11
171.2013
 21
74.2213
 31
0.0000
  0
LINE
  8
46
 10
134.7617
 20
73.7667
 30
0.0000
 11
133.9032
 21
74.6150
 31
0.0000
  0
LINE
  8
46
 10
165.4686
 20
86.2813
 30
0.0000
 11
165.9372
 21
85.7555
 31
0.0000
  0
LINE
  8
46
 10
150.3253
 20
68.9762
 30
0.0000
 11
149.2380
 21
68.8264
 31
0.0000
  0
LINE
  8
46
 10
143.1056
 20
69.1871
 30
0.0000
 11
142.0213
 21
69.4893
 31
0.0000
  0
LINE
  8
46
 10
153.6685
 20
69.9160
 30
0.0000
 11
152.6558
 21
69.5655
 31
0.0000
  0
LINE
  8
46
 10
182.2323
 20
71.9658
 30
0.0000
 11
181.2597
 21
71.7906
 31
0.0000
  0
LINE
  8
46
 10
165.7497
 20
80.7466
 30
0.0000
 11
165.3558
 21
81.6356
 31
0.0000
  0
LINE
  8
46
 10
139.6799
 20
70.3783
 30
0.0000
 11
138.6919
 21
70.8863
 31
0.0000
  0
LINE
  8
46
 10
161.0807
 20
75.2627
 30
0.0000
 11
160.2514
 21
74.3483
 31
0.0000
  0
LINE
  8
46
 10
131.6929
 20
77.5056
 30
0.0000
 11
131.1250
 21
78.4860
 31
0.0000
  0
LINE
  8
46
 10
183.2755
 20
72.2274
 30
0.0000
 11
182.2323
 21
71.9658
 31
0.0000
  0
LINE
  8
46
 10
190.5666
 20
80.0837
 30
0.0000
 11
191.0464
 21
80.9244
 31
0.0000
  0
LINE
  8
46
 10
146.3233
 20
70.5002
 30
0.0000
 11
147.3225
 21
70.4774
 31
0.0000
  0
LINE
  8
46
 10
162.7099
 20
81.3816
 30
0.0000
 11
163.1041
 21
82.4306
 31
0.0000
  0
LINE
  8
46
 10
130.8288
 20
84.2213
 30
0.0000
 11
131.1458
 21
83.0148
 31
0.0000
  0
LINE
  8
46
 10
192.7042
 20
86.3854
 30
0.0000
 11
192.7852
 21
87.2693
 31
0.0000
  0
LINE
  8
46
 10
191.8881
 20
93.7539
 30
0.0000
 11
191.5353
 21
94.6861
 31
0.0000
  0
LINE
  8
46
 10
192.4134
 20
91.9734
 30
0.0000
 11
192.1998
 21
92.8065
 31
0.0000
  0
LINE
  8
46
 10
166.8536
 20
82.6592
 30
0.0000
 11
167.1526
 21
81.9150
 31
0.0000
  0
LINE
  8
46
 10
184.7860
 20
74.6963
 30
0.0000
 11
185.5963
 21
75.1205
 31
0.0000
  0
LINE
  8
46
 10
140.0160
 20
72.1792
 30
0.0000
 11
140.9118
 21
71.7702
 31
0.0000
  0
LINE
  8
46
 10
183.2110
 20
74.0435
 30
0.0000
 11
183.9468
 21
74.3153
 31
0.0000
  0
LINE
  8
46
 10
130.3866
 20
86.5505
 30
0.0000
 11
130.5395
 21
85.6996
 31
0.0000
  0
LINE
  8
46
 10
192.7852
 20
87.2693
 30
0.0000
 11
192.8170
 21
88.2752
 31
0.0000
  0
LINE
  8
46
 10
133.1742
 20
75.4634
 30
0.0000
 11
132.3858
 21
76.4972
 31
0.0000
  0
LINE
  8
46
 10
166.3037
 20
84.4728
 30
0.0000
 11
166.5625
 21
83.5457
 31
0.0000
  0
LINE
  8
46
 10
178.7970
 20
73.4339
 30
0.0000
 11
179.7134
 21
73.4390
 31
0.0000
  0
LINE
  8
46
 10
132.4039
 20
79.8500
 30
0.0000
 11
132.9416
 21
78.8467
 31
0.0000
  0
LINE
  8
46
 10
169.9694
 20
77.5945
 30
0.0000
 11
170.6044
 21
76.9645
 31
0.0000
  0
LINE
  8
46
 10
135.7196
 20
72.9056
 30
0.0000
 11
134.7617
 21
73.7667
 31
0.0000
  0
LINE
  8
46
 10
157.9225
 20
74.5490
 30
0.0000
 11
158.6088
 21
75.1865
 31
0.0000
  0
LINE
  8
46
 10
128.9741
 20
84.4448
 30
0.0000
 11
128.8733
 21
84.9986
 31
0.0000
  0
LINE
  8
46
 10
142.0020
 20
71.3562
 30
0.0000
 11
143.0658
 21
71.0184
 31
0.0000
  0
LINE
  8
46
 10
192.6008
 20
91.0057
 30
0.0000
 11
192.4134
 21
91.9734
 31
0.0000
  0
LINE
  8
46
 10
128.7206
 20
85.8495
 30
0.0000
 11
128.6048
 21
86.4946
 31
0.0000
  0
LINE
  8
46
 10
159.3748
 20
75.9993
 30
0.0000
 11
160.0779
 21
76.8096
 31
0.0000
  0
LINE
  8
46
 10
144.0360
 20
70.7949
 30
0.0000
 11
145.1991
 21
70.6120
 31
0.0000
  0
LINE
  8
46
 10
130.5395
 20
85.6996
 30
0.0000
 11
130.6551
 21
85.0519
 31
0.0000
  0
LINE
  8
46
 10
174.7718
 20
74.2975
 30
0.0000
 11
175.5793
 21
73.9978
 31
0.0000
  0
LINE
  8
46
 10
163.1041
 20
82.4306
 30
0.0000
 11
163.3891
 21
83.3501
 31
0.0000
  0
LINE
  8
46
 10
149.5743
 20
70.6425
 30
0.0000
 11
150.5113
 21
70.8177
 31
0.0000
  0
LINE
  8
46
 10
138.0663
 20
73.3400
 30
0.0000
 11
139.0503
 21
72.7177
 31
0.0000
  0
LINE
  8
46
 10
188.5259
 20
99.2327
 30
0.0000
 11
187.9554
 21
99.7890
 31
0.0000
  0
LINE
  8
46
 10
152.6141
 20
71.4070
 30
0.0000
 11
153.4851
 21
71.7525
 31
0.0000
  0
LINE
  8
46
 10
130.0269
 20
80.8076
 30
0.0000
 11
129.6408
 21
81.8972
 31
0.0000
  0
LINE
  8
46
 10
143.0658
 20
71.0184
 30
0.0000
 11
144.0360
 21
70.7949
 31
0.0000
  0
LINE
  8
46
 10
185.5963
 20
75.1205
 30
0.0000
 11
186.2646
 21
75.5320
 31
0.0000
  0
LINE
  8
46
 10
192.7413
 20
90.0532
 30
0.0000
 11
192.6008
 21
91.0057
 31
0.0000
  0
LINE
  8
46
 10
158.6088
 20
75.1865
 30
0.0000
 11
159.3748
 21
75.9993
 31
0.0000
  0
LINE
  8
46
 10
176.2958
 20
73.7972
 30
0.0000
 11
177.1625
 21
73.6168
 31
0.0000
  0
LINE
  8
46
 10
129.2677
 20
83.1952
 30
0.0000
 11
128.9741
 21
84.4448
 31
0.0000
  0
LINE
  8
46
 10
131.8847
 20
80.9447
 30
0.0000
 11
132.4039
 21
79.8500
 31
0.0000
  0
LINE
  8
46
 10
136.4237
 20
74.6328
 30
0.0000
 11
137.2682
 21
73.9140
 31
0.0000
  0
LINE
  8
46
 10
188.9615
 20
77.8942
 30
0.0000
 11
189.5691
 21
78.6130
 31
0.0000
  0
LINE
  8
46
 10
131.1250
 20
78.4860
 30
0.0000
 11
130.5314
 21
79.6646
 31
0.0000
  0
LINE
  8
46
 10
150.5113
 20
70.8177
 30
0.0000
 11
151.5961
 21
71.0870
 31
0.0000
  0
LINE
  8
46
 10
190.7225
 20
96.2965
 30
0.0000
 11
190.2209
 21
97.1271
 31
0.0000
  0
LINE
  8
46
 10
163.6080
 20
79.0600
 30
0.0000
 11
163.0789
 21
78.1025
 31
0.0000
  0
LINE
  8
46
 10
135.5707
 20
75.4355
 30
0.0000
 11
136.4237
 21
74.6328
 31
0.0000
  0
LINE
  8
46
 10
140.9118
 20
71.7702
 30
0.0000
 11
142.0020
 21
71.3562
 31
0.0000
  0
LINE
  8
46
 10
157.0944
 20
73.8784
 30
0.0000
 11
157.9225
 21
74.5490
 31
0.0000
  0
LINE
  8
46
 10
131.1458
 20
83.0148
 30
0.0000
 11
131.4958
 21
81.9048
 31
0.0000
  0
LINE
  8
46
 10
171.2534
 20
76.3803
 30
0.0000
 11
171.8435
 21
75.9206
 31
0.0000
  0
LINE
  8
46
 10
151.5961
 20
71.0870
 30
0.0000
 11
152.6141
 21
71.4070
 31
0.0000
  0
LINE
  8
46
 10
133.4872
 20
77.9958
 30
0.0000
 11
134.1844
 21
77.0331
 31
0.0000
  0
LINE
  8
46
 10
168.9179
 20
78.8594
 30
0.0000
 11
169.4622
 21
78.1609
 31
0.0000
  0
LINE
  8
46
 10
183.9468
 20
74.3153
 30
0.0000
 11
184.7860
 21
74.6963
 31
0.0000
  0
LINE
  8
46
 10
164.1097
 20
85.8622
 30
0.0000
 11
164.5013
 21
86.2762
 31
0.0000
  0
LINE
  8
46
 10
167.1526
 20
81.9150
 30
0.0000
 11
167.5549
 21
81.0692
 31
0.0000
  0
LINE
  8
46
 10
139.0503
 20
72.7177
 30
0.0000
 11
140.0160
 21
72.1792
 31
0.0000
  0
LINE
  8
46
 10
168.3901
 20
79.6087
 30
0.0000
 11
168.9179
 21
78.8594
 31
0.0000
  0
LINE
  8
46
 10
160.6469
 20
77.5716
 30
0.0000
 11
161.2656
 21
78.5190
 31
0.0000
  0
LINE
  8
46
 10
189.7525
 20
97.7925
 30
0.0000
 11
189.1571
 21
98.5266
 31
0.0000
  0
LINE
  8
46
 10
192.8170
 20
88.2752
 30
0.0000
 11
192.8048
 21
89.2531
 31
0.0000
  0
LINE
  8
46
 10
154.4828
 20
72.2249
 30
0.0000
 11
155.4160
 21
72.7278
 31
0.0000
  0
LINE
  8
46
 10
169.4622
 20
78.1609
 30
0.0000
 11
169.9694
 21
77.5945
 31
0.0000
  0
LINE
  8
46
 10
128.8733
 20
84.9986
 30
0.0000
 11
128.7206
 21
85.8495
 31
0.0000
  0
LINE
  8
46
 10
179.7134
 20
73.4390
 30
0.0000
 11
180.6273
 21
73.4898
 31
0.0000
  0
LINE
  8
46
 10
166.5625
 20
83.5457
 30
0.0000
 11
166.8536
 21
82.6592
 31
0.0000
  0
LINE
  8
46
 10
169.1051
 20
98.0338
 30
0.0000
 11
168.5663
 21
97.3023
 31
0.0000
  0
LINE
  8
46
 10
181.7060
 20
102.9894
 30
0.0000
 11
180.9222
 21
103.1215
 31
0.0000
  0
LINE
  8
46
 10
164.8844
 20
90.4494
 30
0.0000
 11
164.5028
 21
90.5764
 31
0.0000
  0
LINE
  8
46
 10
167.7038
 20
95.8647
 30
0.0000
 11
167.2862
 21
95.0316
 31
0.0000
  0
LINE
  8
46
 10
162.0068
 20
96.9442
 30
0.0000
 11
161.4668
 21
97.8992
 31
0.0000
  0
LINE
  8
46
 10
181.4152
 20
73.6041
 30
0.0000
 11
182.3276
 21
73.8022
 31
0.0000
  0
LINE
  8
46
 10
145.5656
 20
106.1796
 30
0.0000
 11
144.3970
 21
106.0196
 31
0.0000
  0
LINE
  8
46
 10
187.0156
 20
76.0806
 30
0.0000
 11
187.7350
 21
76.6597
 31
0.0000
  0
LINE
  8
46
 10
182.3276
 20
73.8022
 30
0.0000
 11
183.2110
 21
74.0435
 31
0.0000
  0
LINE
  8
46
 10
187.9554
 20
99.7890
 30
0.0000
 11
187.2470
 21
100.3859
 31
0.0000
  0
LINE
  8
46
 10
184.2166
 20
102.2172
 30
0.0000
 11
183.4866
 21
102.5068
 31
0.0000
  0
LINE
  8
46
 10
192.8048
 20
89.2531
 30
0.0000
 11
192.7413
 21
90.0532
 31
0.0000
  0
LINE
  8
46
 10
164.1704
 20
90.9015
 30
0.0000
 11
163.9722
 21
91.3943
 31
0.0000
  0
LINE
  8
46
 10
145.1991
 20
70.6120
 30
0.0000
 11
146.3233
 21
70.5002
 31
0.0000
  0
LINE
  8
46
 10
165.9372
 20
85.7555
 30
0.0000
 11
166.1480
 21
85.1510
 31
0.0000
  0
LINE
  8
46
 10
192.1998
 20
92.8065
 30
0.0000
 11
191.8881
 21
93.7539
 31
0.0000
  0
LINE
  8
46
 10
163.6649
 20
84.3204
 30
0.0000
 11
163.8826
 21
85.1510
 31
0.0000
  0
LINE
  8
46
 10
192.1086
 20
83.5355
 30
0.0000
 11
192.3390
 21
84.3636
 31
0.0000
  0
LINE
  8
46
 10
179.0934
 20
103.2231
 30
0.0000
 11
178.3215
 21
103.1875
 31
0.0000
  0
LINE
  8
46
 10
152.9492
 20
105.2195
 30
0.0000
 11
151.9375
 21
105.5573
 31
0.0000
  0
LINE
  8
46
 10
189.5691
 20
78.6130
 30
0.0000
 11
190.0502
 21
79.2683
 31
0.0000
  0
LINE
  8
46
 10
146.6898
 20
106.2660
 30
0.0000
 11
145.5656
 21
106.1796
 31
0.0000
  0
LINE
  8
46
 10
187.7350
 20
76.6597
 30
0.0000
 11
188.3164
 21
77.2008
 31
0.0000
  0
LINE
  8
46
 10
163.3891
 20
83.3501
 30
0.0000
 11
163.6649
 21
84.3204
 31
0.0000
  0
LINE
  8
46
 10
187.2470
 20
100.3859
 30
0.0000
 11
186.5074
 21
100.9472
 31
0.0000
  0
LINE
  8
46
 10
166.3890
 20
92.5093
 30
0.0000
 11
166.2140
 21
91.8108
 31
0.0000
  0
LINE
  8
46
 10
171.4838
 20
100.4545
 30
0.0000
 11
170.8262
 21
99.8855
 31
0.0000
  0
LINE
  8
46
 10
180.6273
 20
73.4898
 30
0.0000
 11
181.4152
 21
73.6041
 31
0.0000
  0
LINE
  8
46
 10
180.0108
 20
103.1977
 30
0.0000
 11
179.0934
 21
103.2231
 31
0.0000
  0
LINE
  8
46
 10
191.5353
 20
94.6861
 30
0.0000
 11
191.1856
 21
95.4430
 31
0.0000
  0
LINE
  8
46
 10
192.3390
 20
84.3636
 30
0.0000
 11
192.5445
 21
85.3643
 31
0.0000
  0
LINE
  8
46
 10
186.2646
 20
75.5320
 30
0.0000
 11
187.0156
 21
76.0806
 31
0.0000
  0
LINE
  8
46
 10
190.2209
 20
97.1271
 30
0.0000
 11
189.7525
 21
97.7925
 31
0.0000
  0
LINE
  8
46
 10
189.1571
 20
98.5266
 30
0.0000
 11
188.5259
 21
99.2327
 31
0.0000
  0
LINE
  8
46
 10
173.9671
 20
74.6404
 30
0.0000
 11
174.7718
 21
74.2975
 31
0.0000
  0
LINE
  8
46
 10
186.5074
 20
100.9472
 30
0.0000
 11
185.8482
 21
101.3765
 31
0.0000
  0
LINE
  8
46
 10
159.6243
 20
100.4722
 30
0.0000
 11
158.8722
 21
101.2977
 31
0.0000
  0
LINE
  8
46
 10
166.1480
 20
85.1510
 30
0.0000
 11
166.3037
 21
84.4728
 31
0.0000
  0
LINE
  8
46
 10
148.8412
 20
106.1872
 30
0.0000
 11
147.6850
 21
106.2634
 31
0.0000
  0
LINE
  8
46
 10
171.8435
 20
75.9206
 30
0.0000
 11
172.5712
 21
75.4278
 31
0.0000
  0
LINE
  8
46
 10
177.1625
 20
73.6168
 30
0.0000
 11
178.0322
 21
73.4873
 31
0.0000
  0
LINE
  8
46
 10
190.0502
 20
79.2683
 30
0.0000
 11
190.5666
 21
80.0837
 31
0.0000
  0
LINE
  8
46
 10
191.1856
 20
95.4430
 30
0.0000
 11
190.7225
 21
96.2965
 31
0.0000
  0
LINE
  8
46
 10
168.1434
 20
96.6546
 30
0.0000
 11
167.7038
 21
95.8647
 31
0.0000
  0
LINE
  8
46
 10
178.0322
 20
73.4873
 30
0.0000
 11
178.7970
 21
73.4339
 31
0.0000
  0
LINE
  8
46
 10
192.5445
 20
85.3643
 30
0.0000
 11
192.7042
 21
86.3854
 31
0.0000
  0
LINE
  8
46
 10
167.5549
 20
81.0692
 30
0.0000
 11
167.9793
 21
80.2665
 31
0.0000
  0
LINE
  8
46
 10
175.5793
 20
73.9978
 30
0.0000
 11
176.2958
 21
73.7972
 31
0.0000
  0
LINE
  8
46
 10
188.3164
 20
77.2008
 30
0.0000
 11
188.9615
 21
77.8942
 31
0.0000
  0
LINE
  8
46
 10
130.3023
 20
86.8324
 30
0.0000
 11
130.3866
 21
86.5505
 31
0.0000
  0
LINE
  8
46
 10
129.6408
 20
81.8972
 30
0.0000
 11
129.2677
 21
83.1952
 31
0.0000
  0
LINE
  8
46
 10
173.3070
 20
74.9783
 30
0.0000
 11
173.9671
 21
74.6404
 31
0.0000
  0
LINE
  8
46
 10
160.3121
 20
99.6391
 30
0.0000
 11
159.6243
 21
100.4722
 31
0.0000
  0
LINE
  8
46
 10
170.6044
 20
76.9645
 30
0.0000
 11
171.2534
 21
76.3803
 31
0.0000
  0
LINE
  8
46
 10
141.1752
 20
106.9721
 30
0.0000
 11
142.4112
 21
107.3709
 31
0.0000
  0
LINE
  8
46
 10
166.6659
 20
93.4263
 30
0.0000
 11
166.3890
 21
92.5093
 31
0.0000
  0
LINE
  8
46
 10
191.4088
 20
81.6762
 30
0.0000
 11
191.7809
 21
82.5932
 31
0.0000
  0
LINE
  8
46
 10
167.9793
 20
80.2665
 30
0.0000
 11
168.3901
 21
79.6087
 31
0.0000
  0
LINE
  8
46
 10
175.8508
 20
102.7278
 30
0.0000
 11
175.0378
 21
102.4509
 31
0.0000
  0
LINE
  8
46
 10
165.4962
 20
90.5815
 30
0.0000
 11
164.8844
 21
90.4494
 31
0.0000
  0
LINE
  8
46
 10
158.8722
 20
101.2977
 30
0.0000
 11
158.1978
 21
101.9556
 31
0.0000
  0
LINE
  8
46
 10
163.5023
 20
92.9945
 30
0.0000
 11
163.2278
 21
93.9317
 31
0.0000
  0
LINE
  8
46
 10
136.0312
 20
104.0968
 30
0.0000
 11
136.9141
 21
104.7674
 31
0.0000
  0
LINE
  8
46
 10
168.5663
 20
97.3023
 30
0.0000
 11
168.1434
 21
96.6546
 31
0.0000
  0
LINE
  8
46
 10
164.5028
 20
90.5764
 30
0.0000
 11
164.1704
 21
90.9015
 31
0.0000
  0
LINE
  8
46
 10
191.0464
 20
80.9244
 30
0.0000
 11
191.4088
 21
81.6762
 31
0.0000
  0
LINE
  8
46
 10
137.5580
 20
103.0529
 30
0.0000
 11
136.6980
 21
102.3544
 31
0.0000
  0
LINE
  8
46
 10
174.2275
 20
102.1258
 30
0.0000
 11
173.5618
 21
101.8057
 31
0.0000
  0
LINE
  8
46
 10
170.8262
 20
99.8855
 30
0.0000
 11
170.1800
 21
99.2759
 31
0.0000
  0
LINE
  8
46
 10
183.4866
 20
102.5068
 30
0.0000
 11
182.6115
 21
102.7709
 31
0.0000
  0
LINE
  8
46
 10
162.4246
 20
96.0679
 30
0.0000
 11
162.0068
 21
96.9442
 31
0.0000
  0
LINE
  8
46
 10
144.7099
 20
107.8509
 30
0.0000
 11
146.0134
 21
107.9932
 31
0.0000
  0
LINE
  8
46
 10
165.9771
 20
91.1479
 30
0.0000
 11
165.4962
 21
90.5815
 31
0.0000
  0
LINE
  8
46
 10
150.8600
 20
105.8570
 30
0.0000
 11
149.9271
 21
106.0526
 31
0.0000
  0
LINE
  8
46
 10
130.9169
 20
92.9107
 30
0.0000
 11
130.7267
 21
92.0902
 31
0.0000
  0
LINE
  8
46
 10
175.0378
 20
102.4509
 30
0.0000
 11
174.2275
 21
102.1258
 31
0.0000
  0
LINE
  8
46
 10
155.7246
 20
103.8377
 30
0.0000
 11
154.8013
 21
104.3584
 31
0.0000
  0
LINE
  8
46
 10
166.2140
 20
91.8108
 30
0.0000
 11
165.9771
 21
91.1479
 31
0.0000
  0
LINE
  8
46
 10
191.7809
 20
82.5932
 30
0.0000
 11
192.1086
 21
83.5355
 31
0.0000
  0
LINE
  8
46
 10
128.7770
 20
91.3308
 30
0.0000
 11
128.9464
 21
92.1817
 31
0.0000
  0
LINE
  8
46
 10
129.7760
 20
95.2525
 30
0.0000
 11
130.1824
 21
96.3295
 31
0.0000
  0
LINE
  8
46
 10
132.6259
 20
100.5815
 30
0.0000
 11
133.4346
 21
101.5975
 31
0.0000
  0
LINE
  8
46
 10
146.0134
 20
107.9932
 30
0.0000
 11
147.1503
 21
108.0414
 31
0.0000
  0
LINE
  8
46
 10
151.8427
 20
107.4217
 30
0.0000
 11
153.0304
 21
107.0610
 31
0.0000
  0
LINE
  8
46
 10
131.9134
 20
99.5883
 30
0.0000
 11
132.6259
 21
100.5815
 31
0.0000
  0
LINE
  8
46
 10
130.5974
 20
91.4425
 30
0.0000
 11
130.4280
 21
90.5967
 31
0.0000
  0
LINE
  8
46
 10
172.5712
 20
75.4278
 30
0.0000
 11
173.3070
 21
74.9783
 31
0.0000
  0
LINE
  8
46
 10
163.9722
 20
91.3943
 30
0.0000
 11
163.7655
 21
92.0928
 31
0.0000
  0
LINE
  8
46
 10
131.6309
 20
95.2043
 30
0.0000
 11
131.2573
 21
94.1045
 31
0.0000
  0
LINE
  8
46
 10
149.6334
 20
107.8713
 30
0.0000
 11
150.7155
 21
107.6985
 31
0.0000
  0
LINE
  8
46
 10
142.4112
 20
107.3709
 30
0.0000
 11
143.5039
 21
107.6503
 31
0.0000
  0
LINE
  8
46
 10
144.3970
 20
106.0196
 30
0.0000
 11
143.4201
 21
105.8189
 31
0.0000
  0
LINE
  8
46
 10
161.4668
 20
97.8992
 30
0.0000
 11
160.8646
 21
98.8619
 31
0.0000
  0
LINE
  8
46
 10
129.3764
 20
93.9648
 30
0.0000
 11
129.7760
 21
95.2525
 31
0.0000
  0
LINE
  8
46
 10
160.8646
 20
98.8619
 30
0.0000
 11
160.3121
 21
99.6391
 31
0.0000
  0
LINE
  8
46
 10
151.9375
 20
105.5573
 30
0.0000
 11
150.8600
 21
105.8570
 31
0.0000
  0
LINE
  8
46
 10
165.9082
 20
96.2279
 30
0.0000
 11
166.3974
 21
97.1525
 31
0.0000
  0
LINE
  8
46
 10
162.8559
 20
94.9935
 30
0.0000
 11
162.4246
 21
96.0679
 31
0.0000
  0
LINE
  8
46
 10
154.8013
 20
104.3584
 30
0.0000
 11
153.8117
 21
104.8537
 31
0.0000
  0
LINE
  8
46
 10
170.1800
 20
99.2759
 30
0.0000
 11
169.6621
 21
98.7171
 31
0.0000
  0
LINE
  8
46
 10
154.0365
 20
106.6876
 30
0.0000
 11
155.0713
 21
106.2050
 31
0.0000
  0
LINE
  8
46
 10
128.9464
 20
92.1817
 30
0.0000
 11
129.0594
 21
92.7252
 31
0.0000
  0
LINE
  8
46
 10
134.4132
 20
100.0049
 30
0.0000
 11
133.6965
 21
99.0625
 31
0.0000
  0
LINE
  8
46
 10
157.3809
 20
102.6439
 30
0.0000
 11
156.5019
 21
103.3145
 31
0.0000
  0
LINE
  8
46
 10
138.3683
 20
103.6142
 30
0.0000
 11
137.5580
 21
103.0529
 31
0.0000
  0
LINE
  8
46
 10
158.1978
 20
101.9556
 30
0.0000
 11
157.3809
 21
102.6439
 31
0.0000
  0
LINE
  8
46
 10
173.5618
 20
101.8057
 30
0.0000
 11
172.8191
 21
101.3714
 31
0.0000
  0
LINE
  8
46
 10
176.5712
 20
102.9157
 30
0.0000
 11
175.8508
 21
102.7278
 31
0.0000
  0
LINE
  8
46
 10
167.2862
 20
95.0316
 30
0.0000
 11
166.9733
 21
94.3000
 31
0.0000
  0
LINE
  8
46
 10
166.9733
 20
94.3000
 30
0.0000
 11
166.6659
 21
93.4263
 31
0.0000
  0
LINE
  8
46
 10
177.4452
 20
103.0757
 30
0.0000
 11
176.5712
 21
102.9157
 31
0.0000
  0
LINE
  8
46
 10
163.7655
 20
92.0928
 30
0.0000
 11
163.5023
 21
92.9945
 31
0.0000
  0
LINE
  8
46
 10
147.6850
 20
106.2634
 30
0.0000
 11
146.6898
 21
106.2660
 31
0.0000
  0
LINE
  8
46
 10
156.5019
 20
103.3145
 30
0.0000
 11
155.7246
 21
103.8377
 31
0.0000
  0
LINE
  8
46
 10
185.8482
 20
101.3765
 30
0.0000
 11
185.0479
 21
101.8184
 31
0.0000
  0
LINE
  8
46
 10
172.8191
 20
101.3714
 30
0.0000
 11
172.0832
 21
100.8990
 31
0.0000
  0
LINE
  8
46
 10
163.2278
 20
93.9317
 30
0.0000
 11
162.8559
 21
94.9935
 31
0.0000
  0
LINE
  8
46
 10
172.0832
 20
100.8990
 30
0.0000
 11
171.4838
 21
100.4545
 31
0.0000
  0
LINE
  8
46
 10
182.6115
 20
102.7709
 30
0.0000
 11
181.7060
 21
102.9894
 31
0.0000
  0
LINE
  8
46
 10
185.0479
 20
101.8184
 30
0.0000
 11
184.2166
 21
102.2172
 31
0.0000
  0
LINE
  8
46
 10
178.3215
 20
103.1875
 30
0.0000
 11
177.4452
 21
103.0757
 31
0.0000
  0
LINE
  8
46
 10
180.9222
 20
103.1215
 30
0.0000
 11
180.0108
 21
103.1977
 31
0.0000
  0
LINE
  8
46
 10
153.8117
 20
104.8537
 30
0.0000
 11
152.9492
 21
105.2195
 31
0.0000
  0
LINE
  8
46
 10
169.6621
 20
98.7171
 30
0.0000
 11
169.1051
 21
98.0338
 31
0.0000
  0
LINE
  8
46
 10
187.1436
 20
102.6516
 30
0.0000
 11
187.9321
 21
102.0902
 31
0.0000
  0
LINE
  8
46
 10
147.1503
 20
108.0414
 30
0.0000
 11
148.3576
 21
107.9932
 31
0.0000
  0
LINE
  8
46
 10
133.1356
 20
98.2243
 30
0.0000
 11
132.5773
 21
97.2337
 31
0.0000
  0
LINE
  8
46
 10
157.9888
 20
104.4042
 30
0.0000
 11
158.9476
 21
103.6396
 31
0.0000
  0
LINE
  8
46
 10
148.3576
 20
107.9932
 30
0.0000
 11
149.6334
 21
107.8713
 31
0.0000
  0
LINE
  8
46
 10
174.8983
 20
104.2746
 30
0.0000
 11
175.7555
 21
104.5388
 31
0.0000
  0
LINE
  8
46
 10
168.6189
 20
100.1954
 30
0.0000
 11
169.2775
 21
100.8558
 31
0.0000
  0
LINE
  8
46
 10
165.1904
 20
94.5591
 30
0.0000
 11
165.3365
 21
94.9528
 31
0.0000
  0
LINE
  8
46
 10
162.6479
 20
99.3521
 30
0.0000
 11
163.2900
 21
98.2726
 31
0.0000
  0
LINE
  8
46
 10
140.0465
 20
106.5352
 30
0.0000
 11
141.1752
 21
106.9721
 31
0.0000
  0
LINE
  8
46
 10
133.4346
 20
101.5975
 30
0.0000
 11
134.1801
 21
102.4255
 31
0.0000
  0
LINE
  8
46
 10
161.3454
 20
101.1657
 30
0.0000
 11
162.0083
 21
100.3122
 31
0.0000
  0
LINE
  8
46
 10
170.0258
 20
101.5289
 30
0.0000
 11
170.7177
 21
102.0902
 31
0.0000
  0
LINE
  8
46
 10
134.1801
 20
102.4255
 30
0.0000
 11
135.0554
 21
103.2586
 31
0.0000
  0
LINE
  8
46
 10
191.4362
 20
98.4809
 30
0.0000
 11
191.9724
 21
97.6478
 31
0.0000
  0
LINE
  8
46
 10
165.0248
 20
94.0816
 30
0.0000
 11
165.0429
 21
94.1349
 31
0.0000
  0
LINE
  8
46
 10
193.7349
 20
93.8047
 30
0.0000
 11
194.0243
 21
92.8268
 31
0.0000
  0
LINE
  8
46
 10
130.7267
 20
92.0902
 30
0.0000
 11
130.5974
 21
91.4425
 31
0.0000
  0
LINE
  8
46
 10
157.0655
 20
105.0722
 30
0.0000
 11
157.9888
 21
104.4042
 31
0.0000
  0
LINE
  8
46
 10
135.0554
 20
103.2586
 30
0.0000
 11
136.0312
 21
104.0968
 31
0.0000
  0
LINE
  8
46
 10
165.3365
 20
94.9528
 30
0.0000
 11
165.4975
 21
95.3516
 31
0.0000
  0
LINE
  8
46
 10
179.5798
 20
104.9833
 30
0.0000
 11
180.6433
 21
104.9198
 31
0.0000
  0
LINE
  8
46
 10
135.8298
 20
101.5746
 30
0.0000
 11
135.1326
 21
100.8634
 31
0.0000
  0
LINE
  8
46
 10
158.9476
 20
103.6396
 30
0.0000
 11
159.7442
 21
102.9233
 31
0.0000
  0
LINE
  8
46
 10
128.6490
 20
90.6958
 30
0.0000
 11
128.7770
 21
91.3308
 31
0.0000
  0
LINE
  8
46
 10
194.5630
 20
89.4156
 30
0.0000
 11
194.5770
 21
88.9838
 31
0.0000
  0
LINE
  8
46
 10
142.3479
 20
105.5065
 30
0.0000
 11
141.2469
 21
105.1204
 31
0.0000
  0
LINE
  8
46
 10
150.7155
 20
107.6985
 30
0.0000
 11
151.8427
 21
107.4217
 31
0.0000
  0
LINE
  8
46
 10
137.9283
 20
105.4176
 30
0.0000
 11
139.0475
 21
106.0475
 31
0.0000
  0
LINE
  8
46
 10
130.7102
 20
97.4573
 30
0.0000
 11
131.3264
 21
98.6231
 31
0.0000
  0
LINE
  8
46
 10
149.9271
 20
106.0526
 30
0.0000
 11
148.8412
 21
106.1872
 31
0.0000
  0
LINE
  8
46
 10
141.2469
 20
105.1204
 30
0.0000
 11
140.3414
 21
104.7293
 31
0.0000
  0
LINE
  8
46
 10
140.3414
 20
104.7293
 30
0.0000
 11
139.3660
 21
104.2111
 31
0.0000
  0
LINE
  8
46
 10
187.9321
 20
102.0902
 30
0.0000
 11
188.7644
 21
101.4247
 31
0.0000
  0
LINE
  8
46
 10
160.5351
 20
102.1004
 30
0.0000
 11
161.3454
 21
101.1657
 31
0.0000
  0
LINE
  8
46
 10
139.0475
 20
106.0475
 30
0.0000
 11
140.0465
 21
106.5352
 31
0.0000
  0
LINE
  8
46
 10
131.3264
 20
98.6231
 30
0.0000
 11
131.9134
 21
99.5883
 31
0.0000
  0
LINE
  8
46
 10
129.0594
 20
92.7252
 30
0.0000
 11
129.3764
 21
93.9648
 31
0.0000
  0
LINE
  8
46
 10
130.4280
 20
90.5967
 30
0.0000
 11
130.3383
 21
90.3224
 31
0.0000
  0
LINE
  8
46
 10
143.4201
 20
105.8189
 30
0.0000
 11
142.3479
 21
105.5065
 31
0.0000
  0
LINE
  8
46
 10
153.0304
 20
107.0610
 30
0.0000
 11
154.0365
 21
106.6876
 31
0.0000
  0
LINE
  8
46
 10
132.0373
 20
96.1542
 30
0.0000
 11
131.6309
 21
95.2043
 31
0.0000
  0
LINE
  8
46
 10
159.7442
 20
102.9233
 30
0.0000
 11
160.5351
 21
102.1004
 31
0.0000
  0
LINE
  8
46
 10
132.5773
 20
97.2337
 30
0.0000
 11
132.0373
 21
96.1542
 31
0.0000
  0
LINE
  8
46
 10
155.0713
 20
106.2050
 30
0.0000
 11
156.1556
 21
105.6259
 31
0.0000
  0
LINE
  8
46
 10
156.1556
 20
105.6259
 30
0.0000
 11
157.0655
 21
105.0722
 31
0.0000
  0
LINE
  8
46
 10
177.6877
 20
104.8918
 30
0.0000
 11
178.6110
 21
104.9757
 31
0.0000
  0
LINE
  8
46
 10
190.8465
 20
99.2530
 30
0.0000
 11
191.4362
 21
98.4809
 31
0.0000
  0
LINE
  8
46
 10
131.2573
 20
94.1045
 30
0.0000
 11
130.9169
 21
92.9107
 31
0.0000
  0
LINE
  8
46
 10
139.3660
 20
104.2111
 30
0.0000
 11
138.3683
 21
103.6142
 31
0.0000
  0
LINE
  8
46
 10
164.2682
 20
96.2279
 30
0.0000
 11
164.7190
 21
95.0265
 31
0.0000
  0
LINE
  8
46
 10
130.1824
 20
96.3295
 30
0.0000
 11
130.7102
 21
97.4573
 31
0.0000
  0
LINE
  8
46
 10
163.7998
 20
97.3023
 30
0.0000
 11
164.2682
 21
96.2279
 31
0.0000
  0
LINE
  8
46
 10
165.0429
 20
94.1349
 30
0.0000
 11
165.1904
 21
94.5591
 31
0.0000
  0
LINE
  8
46
 10
173.9557
 20
103.9241
 30
0.0000
 11
174.8983
 21
104.2746
 31
0.0000
  0
LINE
  8
46
 10
162.0083
 20
100.3122
 30
0.0000
 11
162.6479
 21
99.3521
 31
0.0000
  0
LINE
  8
46
 10
183.5955
 20
104.3229
 30
0.0000
 11
184.4977
 21
104.0130
 31
0.0000
  0
LINE
  8
46
 10
136.9141
 20
104.7674
 30
0.0000
 11
137.9283
 21
105.4176
 31
0.0000
  0
LINE
  8
46
 10
189.4756
 20
100.7821
 30
0.0000
 11
190.1480
 21
100.0760
 31
0.0000
  0
LINE
  8
46
 10
133.6965
 20
99.0625
 30
0.0000
 11
133.1356
 21
98.2243
 31
0.0000
  0
LINE
  8
46
 10
193.3560
 20
94.8715
 30
0.0000
 11
193.7349
 21
93.8047
 31
0.0000
  0
LINE
  8
46
 10
143.5039
 20
107.6503
 30
0.0000
 11
144.7099
 21
107.8509
 31
0.0000
  0
LINE
  8
46
 10
136.6980
 20
102.3544
 30
0.0000
 11
135.8298
 21
101.5746
 31
0.0000
  0
LINE
  8
46
 10
135.1326
 20
100.8634
 30
0.0000
 11
134.4132
 21
100.0049
 31
0.0000
  0
LINE
  8
46
 10
192.5236
 20
96.6927
 30
0.0000
 11
192.9717
 21
95.8063
 31
0.0000
  0
LINE
  8
46
 10
170.7177
 20
102.0902
 30
0.0000
 11
171.4769
 21
102.6135
 31
0.0000
  0
LINE
  8
46
 10
167.4048
 20
98.7120
 30
0.0000
 11
168.0307
 21
99.5147
 31
0.0000
  0
LINE
  8
46
 10
169.2775
 20
100.8558
 30
0.0000
 11
170.0258
 21
101.5289
 31
0.0000
  0
LINE
  8
46
 10
171.4769
 20
102.6135
 30
0.0000
 11
172.3299
 21
103.1342
 31
0.0000
  0
LINE
  8
46
 10
163.2900
 20
98.2726
 30
0.0000
 11
163.7998
 21
97.3023
 31
0.0000
  0
LINE
  8
46
 10
185.3839
 20
103.6218
 30
0.0000
 11
186.3281
 21
103.1342
 31
0.0000
  0
LINE
  8
46
 10
173.1127
 20
103.5533
 30
0.0000
 11
173.9557
 21
103.9241
 31
0.0000
  0
LINE
  8
46
 10
186.3281
 20
103.1342
 30
0.0000
 11
187.1436
 21
102.6516
 31
0.0000
  0
LINE
  8
46
 10
166.3974
 20
97.1525
 30
0.0000
 11
166.8633
 21
97.9348
 31
0.0000
  0
LINE
  8
46
 10
181.5958
 20
104.8055
 30
0.0000
 11
182.5605
 21
104.6048
 31
0.0000
  0
LINE
  8
46
 10
172.3299
 20
103.1342
 30
0.0000
 11
173.1127
 21
103.5533
 31
0.0000
  0
LINE
  8
46
 10
164.7190
 20
95.0265
 30
0.0000
 11
165.0248
 21
94.0816
 31
0.0000
  0
LINE
  8
46
 10
194.4268
 20
90.7491
 30
0.0000
 11
194.5411
 21
89.7966
 31
0.0000
  0
LINE
  8
46
 10
180.6433
 20
104.9198
 30
0.0000
 11
181.5958
 21
104.8055
 31
0.0000
  0
LINE
  8
46
 10
194.5770
 20
88.9838
 30
0.0000
 11
194.5810
 21
88.5165
 31
0.0000
  0
LINE
  8
46
 10
178.6110
 20
104.9757
 30
0.0000
 11
179.5798
 21
104.9833
 31
0.0000
  0
LINE
  8
46
 10
168.0307
 20
99.5147
 30
0.0000
 11
168.6189
 21
100.1954
 31
0.0000
  0
LINE
  8
46
 10
182.5605
 20
104.6048
 30
0.0000
 11
183.5955
 21
104.3229
 31
0.0000
  0
LINE
  8
46
 10
184.4977
 20
104.0130
 30
0.0000
 11
185.3839
 21
103.6218
 31
0.0000
  0
LINE
  8
46
 10
194.0243
 20
92.8268
 30
0.0000
 11
194.2419
 21
91.8388
 31
0.0000
  0
LINE
  8
46
 10
192.9717
 20
95.8063
 30
0.0000
 11
193.3560
 21
94.8715
 31
0.0000
  0
LINE
  8
46
 10
194.2419
 20
91.8388
 30
0.0000
 11
194.4268
 21
90.7491
 31
0.0000
  0
LINE
  8
46
 10
191.9724
 20
97.6478
 30
0.0000
 11
192.5236
 21
96.6927
 31
0.0000
  0
LINE
  8
46
 10
166.8633
 20
97.9348
 30
0.0000
 11
167.4048
 21
98.7120
 31
0.0000
  0
LINE
  8
46
 10
175.7555
 20
104.5388
 30
0.0000
 11
176.6695
 21
104.7318
 31
0.0000
  0
LINE
  8
46
 10
190.1480
 20
100.0760
 30
0.0000
 11
190.8465
 21
99.2530
 31
0.0000
  0
LINE
  8
46
 10
194.5411
 20
89.7966
 30
0.0000
 11
194.5630
 21
89.4156
 31
0.0000
  0
LINE
  8
46
 10
165.4975
 20
95.3516
 30
0.0000
 11
165.9082
 21
96.2279
 31
0.0000
  0
LINE
  8
46
 10
176.6695
 20
104.7318
 30
0.0000
 11
177.6877
 21
104.8918
 31
0.0000
  0
LINE
  8
46
 10
188.7644
 20
101.4247
 30
0.0000
 11
189.4756
 21
100.7821
 31
0.0000
  0
LINE
  8
46
 10
187.6646
 20
74.3610
 30
0.0000
 11
186.8640
 21
73.8175
 31
0.0000
  0
LINE
  8
46
 10
164.9750
 20
82.4967
 30
0.0000
 11
164.9380
 21
82.3747
 31
0.0000
  0
LINE
  8
46
 10
193.6244
 20
82.5043
 30
0.0000
 11
193.2262
 21
81.4502
 31
0.0000
  0
LINE
  8
46
 10
161.8237
 20
79.4588
 30
0.0000
 11
162.2577
 21
80.3250
 31
0.0000
  0
LINE
  8
46
 10
156.7289
 20
71.4629
 30
0.0000
 11
155.8100
 21
70.9270
 31
0.0000
  0
LINE
  8
46
 10
149.2380
 20
68.8264
 30
0.0000
 11
147.9578
 21
68.7349
 31
0.0000
  0
LINE
  8
46
 10
184.1853
 20
72.5145
 30
0.0000
 11
183.2755
 21
72.2274
 31
0.0000
  0
LINE
  8
46
 10
166.6746
 20
79.0118
 30
0.0000
 11
166.2212
 21
79.8093
 31
0.0000
  0
LINE
  8
46
 10
194.3771
 20
85.6285
 30
0.0000
 11
194.1688
 21
84.4829
 31
0.0000
  0
LINE
  8
46
 10
189.2328
 20
75.6310
 30
0.0000
 11
188.5092
 21
75.0113
 31
0.0000
  0
LINE
  8
46
 10
194.5107
 20
86.6699
 30
0.0000
 11
194.3771
 21
85.6285
 31
0.0000
  0
LINE
  8
46
 10
191.7891
 20
78.7070
 30
0.0000
 11
191.2381
 21
77.8891
 31
0.0000
  0
LINE
  8
46
 10
133.9032
 20
74.6150
 30
0.0000
 11
133.1742
 21
75.4634
 31
0.0000
  0
LINE
  8
46
 10
192.3580
 20
79.6544
 30
0.0000
 11
191.7891
 21
78.7070
 31
0.0000
  0
LINE
  8
46
 10
191.2381
 20
77.8891
 30
0.0000
 11
190.6344
 21
77.1322
 31
0.0000
  0
LINE
  8
46
 10
164.5714
 20
81.3003
 30
0.0000
 11
164.0959
 21
80.1192
 31
0.0000
  0
LINE
  8
46
 10
189.9189
 20
76.3270
 30
0.0000
 11
189.2328
 21
75.6310
 31
0.0000
  0
LINE
  8
46
 10
145.6070
 20
68.7908
 30
0.0000
 11
144.3063
 21
68.9610
 31
0.0000
  0
LINE
  8
46
 10
192.8226
 20
80.5256
 30
0.0000
 11
192.3580
 21
79.6544
 31
0.0000
  0
LINE
  8
46
 10
176.3507
 20
71.9785
 30
0.0000
 11
175.4426
 21
72.1970
 31
0.0000
  0
LINE
  8
46
 10
193.9318
 20
83.4746
 30
0.0000
 11
193.6244
 21
82.5043
 31
0.0000
  0
LINE
  8
46
 10
194.1688
 20
84.4829
 30
0.0000
 11
193.9318
 21
83.4746
 31
0.0000
  0
LINE
  8
46
 10
190.6344
 20
77.1322
 30
0.0000
 11
189.9189
 21
76.3270
 31
0.0000
  0
LINE
  8
46
 10
186.8640
 20
73.8175
 30
0.0000
 11
186.0360
 21
73.3527
 31
0.0000
  0
LINE
  8
46
 10
165.1269
 20
82.2503
 30
0.0000
 11
165.0208
 21
82.5678
 31
0.0000
  0
LINE
  8
46
 10
188.5092
 20
75.0113
 30
0.0000
 11
187.6646
 21
74.3610
 31
0.0000
  0
LINE
  8
46
 10
144.3063
 20
68.9610
 30
0.0000
 11
143.1056
 21
69.1871
 31
0.0000
  0
LINE
  8
46
 10
175.4426
 20
72.1970
 30
0.0000
 11
174.5925
 21
72.4789
 31
0.0000
  0
LINE
  8
46
 10
165.3558
 20
81.6356
 30
0.0000
 11
165.2316
 21
81.9582
 31
0.0000
  0
LINE
  8
46
 10
142.0213
 20
69.4893
 30
0.0000
 11
140.7975
 21
69.9160
 31
0.0000
  0
LINE
  8
46
 10
194.5810
 20
88.5165
 30
0.0000
 11
194.5742
 21
87.8688
 31
0.0000
  0
LINE
  8
46
 10
140.7975
 20
69.9160
 30
0.0000
 11
139.6799
 21
70.3783
 31
0.0000
  0
LINE
  8
46
 10
172.8206
 20
73.2358
 30
0.0000
 11
172.0459
 21
73.6778
 31
0.0000
  0
LINE
  8
46
 10
181.2597
 20
71.7906
 30
0.0000
 11
180.3047
 21
71.6991
 31
0.0000
  0
LINE
  8
46
 10
194.5493
 20
87.2388
 30
0.0000
 11
194.5107
 21
86.6699
 31
0.0000
  0
LINE
  8
46
 10
170.4515
 20
74.7598
 30
0.0000
 11
169.7693
 21
75.3364
 31
0.0000
  0
LINE
  8
46
 10
159.4467
 20
73.5432
 30
0.0000
 11
158.6377
 21
72.8497
 31
0.0000
  0
LINE
  8
46
 10
136.5893
 20
72.2173
 30
0.0000
 11
135.7196
 21
72.9056
 31
0.0000
  0
LINE
  8
46
 10
167.2021
 20
78.2218
 30
0.0000
 11
166.6746
 21
79.0118
 31
0.0000
  0
LINE
  8
46
 10
151.4594
 20
69.2302
 30
0.0000
 11
150.3253
 21
68.9762
 31
0.0000
  0
LINE
  8
46
 10
177.3611
 20
71.7982
 30
0.0000
 11
176.3507
 21
71.9785
 31
0.0000
  0
LINE
  8
46
 10
191.8980
 20
20.7391
 30
0.0000
 11
191.3301
 21
19.7739
 31
0.0000
  0
LINE
  8
46
 10
192.9290
 20
22.8498
 30
0.0000
 11
192.4713
 21
21.8440
 31
0.0000
  0
LINE
  8
46
 10
192.4713
 20
21.8440
 30
0.0000
 11
191.8980
 21
20.7391
 31
0.0000
  0
LINE
  8
46
 10
181.6316
 20
12.3215
 30
0.0000
 11
180.5470
 21
12.0167
 31
0.0000
  0
LINE
  8
46
 10
160.6217
 20
29.4208
 30
0.0000
 11
160.6702
 21
28.5953
 31
0.0000
  0
LINE
  8
46
 10
191.1414
 20
23.1597
 30
0.0000
 11
191.4954
 21
24.0487
 31
0.0000
  0
LINE
  8
46
 10
161.9352
 20
23.5102
 30
0.0000
 11
162.2135
 21
22.8498
 31
0.0000
  0
LINE
  8
46
 10
186.9176
 20
17.3101
 30
0.0000
 11
187.6852
 21
18.0238
 31
0.0000
  0
LINE
  8
46
 10
169.3878
 20
13.1597
 30
0.0000
 11
168.4767
 21
13.5966
 31
0.0000
  0
LINE
  8
46
 10
179.1333
 20
46.8884
 30
0.0000
 11
178.0474
 21
47.0357
 31
0.0000
  0
LINE
  8
46
 10
169.7845
 20
14.9200
 30
0.0000
 11
170.6225
 21
14.5415
 31
0.0000
  0
LINE
  8
46
 10
169.0969
 20
45.1333
 30
0.0000
 11
168.3156
 21
44.6659
 31
0.0000
  0
LINE
  8
46
 10
162.1008
 20
19.6774
 30
0.0000
 11
164.7228
 21
18.0061
 31
0.0000
  0
LINE
  8
46
 10
178.7281
 20
13.4823
 30
0.0000
 11
179.7728
 21
13.6525
 31
0.0000
  0
LINE
  8
46
 10
190.1355
 20
21.2065
 30
0.0000
 11
190.6687
 21
22.1818
 31
0.0000
  0
LINE
  8
46
 10
189.0042
 20
19.5555
 30
0.0000
 11
189.6364
 21
20.4114
 31
0.0000
  0
LINE
  8
46
 10
190.7098
 20
18.8849
 30
0.0000
 11
189.9564
 21
17.9172
 31
0.0000
  0
LINE
  8
46
 10
194.3562
 20
30.0736
 30
0.0000
 11
194.3562
 21
29.9237
 31
0.0000
  0
LINE
  8
46
 10
186.6890
 20
14.8438
 30
0.0000
 11
185.8043
 21
14.2545
 31
0.0000
  0
LINE
  8
46
 10
173.6029
 20
11.8212
 30
0.0000
 11
172.5547
 21
12.0548
 31
0.0000
  0
LINE
  8
46
 10
190.6687
 20
22.1818
 30
0.0000
 11
191.1414
 21
23.1597
 31
0.0000
  0
LINE
  8
46
 10
193.6852
 20
25.1384
 30
0.0000
 11
193.3158
 21
23.9217
 31
0.0000
  0
LINE
  8
46
 10
187.5556
 20
15.5321
 30
0.0000
 11
186.6890
 21
14.8438
 31
0.0000
  0
LINE
  8
46
 10
178.2455
 20
11.6484
 30
0.0000
 11
177.0924
 21
11.5646
 31
0.0000
  0
LINE
  8
46
 10
184.8122
 20
44.7116
 30
0.0000
 11
183.8985
 21
45.2577
 31
0.0000
  0
LINE
  8
46
 10
188.4665
 20
16.3347
 30
0.0000
 11
187.5556
 21
15.5321
 31
0.0000
  0
LINE
  8
46
 10
180.5470
 20
12.0167
 30
0.0000
 11
179.4830
 21
11.8110
 31
0.0000
  0
LINE
  8
46
 10
168.4767
 20
13.5966
 30
0.0000
 11
167.7436
 21
13.9979
 31
0.0000
  0
LINE
  8
46
 10
191.8482
 20
25.1308
 30
0.0000
 11
192.1419
 21
26.2077
 31
0.0000
  0
LINE
  8
46
 10
179.7728
 20
13.6525
 30
0.0000
 11
180.6781
 21
13.8786
 31
0.0000
  0
LINE
  8
46
 10
150.6794
 20
26.9596
 30
0.0000
 11
162.1008
 21
19.6774
 31
0.0000
  0
LINE
  8
46
 10
183.7728
 20
13.1343
 30
0.0000
 11
182.7875
 21
12.7254
 31
0.0000
  0
LINE
  8
46
 10
162.2135
 20
22.8498
 30
0.0000
 11
162.4739
 21
22.2783
 31
0.0000
  0
LINE
  8
46
 10
172.5338
 20
13.8862
 30
0.0000
 11
173.5480
 21
13.6322
 31
0.0000
  0
LINE
  8
46
 10
183.5221
 20
14.9784
 30
0.0000
 11
184.4690
 21
15.5092
 31
0.0000
  0
LINE
  8
46
 10
192.3321
 20
27.1704
 30
0.0000
 11
192.4837
 21
28.3312
 31
0.0000
  0
LINE
  8
46
 10
162.4739
 20
22.2783
 30
0.0000
 11
162.7924
 21
21.5798
 31
0.0000
  0
LINE
  8
46
 10
164.8209
 20
15.8547
 30
0.0000
 11
162.2260
 21
17.5057
 31
0.0000
  0
LINE
  8
46
 10
177.0924
 20
11.5646
 30
0.0000
 11
175.9928
 21
11.5773
 31
0.0000
  0
LINE
  8
46
 10
189.8749
 20
39.6519
 30
0.0000
 11
189.2508
 21
40.5486
 31
0.0000
  0
LINE
  8
46
 10
189.6364
 20
20.4114
 30
0.0000
 11
190.1355
 21
21.2065
 31
0.0000
  0
LINE
  8
46
 10
192.1419
 20
26.2077
 30
0.0000
 11
192.3321
 21
27.1704
 31
0.0000
  0
LINE
  8
46
 10
191.4954
 20
24.0487
 30
0.0000
 11
191.8482
 21
25.1308
 31
0.0000
  0
LINE
  8
46
 10
182.7875
 20
12.7254
 30
0.0000
 11
181.6316
 21
12.3215
 31
0.0000
  0
LINE
  8
46
 10
171.3735
 20
12.3927
 30
0.0000
 11
170.3042
 21
12.7635
 31
0.0000
  0
LINE
  8
46
 10
193.3158
 20
23.9217
 30
0.0000
 11
192.9290
 21
22.8498
 31
0.0000
  0
LINE
  8
46
 10
194.3547
 20
29.8475
 30
0.0000
 11
194.2889
 21
28.6918
 31
0.0000
  0
LINE
  8
46
 10
184.3725
 20
47.0052
 30
0.0000
 11
185.3357
 21
46.4617
 31
0.0000
  0
LINE
  8
46
 10
162.3088
 20
37.7825
 30
0.0000
 11
161.8816
 21
36.7741
 31
0.0000
  0
LINE
  8
46
 10
161.2146
 20
34.7828
 30
0.0000
 11
160.9745
 21
33.6880
 31
0.0000
  0
LINE
  8
46
 10
189.6793
 20
42.8523
 30
0.0000
 11
190.3750
 21
41.9913
 31
0.0000
  0
LINE
  8
46
 10
163.8978
 20
40.4698
 30
0.0000
 11
163.3037
 21
39.5707
 31
0.0000
  0
LINE
  8
46
 10
166.7982
 20
14.5948
 30
0.0000
 11
164.8209
 21
15.8547
 31
0.0000
  0
LINE
  8
46
 10
158.9629
 20
28.0213
 30
0.0000
 11
158.8732
 21
28.9535
 31
0.0000
  0
LINE
  8
46
 10
194.1469
 20
27.3939
 30
0.0000
 11
193.9569
 21
26.2407
 31
0.0000
  0
LINE
  8
46
 10
170.6225
 20
14.5415
 30
0.0000
 11
171.4851
 21
14.2088
 31
0.0000
  0
LINE
  8
46
 10
172.5547
 20
12.0548
 30
0.0000
 11
171.3735
 21
12.3927
 31
0.0000
  0
LINE
  8
46
 10
164.7228
 20
18.0061
 30
0.0000
 11
167.0134
 21
16.5481
 31
0.0000
  0
LINE
  8
46
 10
167.0134
 20
16.5481
 30
0.0000
 11
168.4246
 21
15.6540
 31
0.0000
  0
LINE
  8
46
 10
177.6143
 20
13.3629
 30
0.0000
 11
178.7281
 21
13.4823
 31
0.0000
  0
LINE
  8
46
 10
165.1805
 20
42.0192
 30
0.0000
 11
164.4625
 21
41.2039
 31
0.0000
  0
LINE
  8
46
 10
189.2285
 20
17.0815
 30
0.0000
 11
188.4665
 21
16.3347
 31
0.0000
  0
LINE
  8
46
 10
184.4690
 20
15.5092
 30
0.0000
 11
185.3509
 21
16.0630
 31
0.0000
  0
LINE
  8
46
 10
159.6753
 20
35.8292
 30
0.0000
 11
160.0584
 21
36.9468
 31
0.0000
  0
LINE
  8
46
 10
161.5465
 20
24.5770
 30
0.0000
 11
161.9352
 21
23.5102
 31
0.0000
  0
LINE
  8
46
 10
182.6941
 20
14.5847
 30
0.0000
 11
183.5221
 21
14.9784
 31
0.0000
  0
LINE
  8
46
 10
169.0116
 20
15.3060
 30
0.0000
 11
169.7845
 21
14.9200
 31
0.0000
  0
LINE
  8
46
 10
160.7805
 20
32.5323
 30
0.0000
 11
160.6743
 21
31.5443
 31
0.0000
  0
LINE
  8
46
 10
170.3042
 20
12.7635
 30
0.0000
 11
169.3878
 21
13.1597
 31
0.0000
  0
LINE
  8
46
 10
194.2889
 20
28.6918
 30
0.0000
 11
194.1469
 21
27.3939
 31
0.0000
  0
LINE
  8
46
 10
189.9564
 20
17.9172
 30
0.0000
 11
189.2285
 21
17.0815
 31
0.0000
  0
LINE
  8
46
 10
173.5480
 20
13.6322
 30
0.0000
 11
174.4782
 21
13.4772
 31
0.0000
  0
LINE
  8
46
 10
193.9569
 20
26.2407
 30
0.0000
 11
193.6852
 21
25.1384
 31
0.0000
  0
LINE
  8
46
 10
171.4851
 20
14.2088
 30
0.0000
 11
172.5338
 21
13.8862
 31
0.0000
  0
LINE
  8
46
 10
188.3126
 20
18.7046
 30
0.0000
 11
189.0042
 21
19.5555
 31
0.0000
  0
LINE
  8
46
 10
194.3562
 20
29.9237
 30
0.0000
 11
194.3547
 21
29.8475
 31
0.0000
  0
LINE
  8
46
 10
184.7581
 20
13.6423
 30
0.0000
 11
183.7728
 21
13.1343
 31
0.0000
  0
LINE
  8
46
 10
167.7436
 20
13.9979
 30
0.0000
 11
166.7982
 21
14.5948
 31
0.0000
  0
LINE
  8
46
 10
176.6595
 20
13.3248
 30
0.0000
 11
177.6143
 21
13.3629
 31
0.0000
  0
LINE
  8
46
 10
135.2939
 20
36.7690
 30
0.0000
 11
150.6794
 21
26.9596
 31
0.0000
  0
LINE
  8
46
 10
129.7856
 20
40.2488
 30
0.0000
 11
135.2939
 21
36.7690
 31
0.0000
  0
LINE
  8
46
 10
155.8442
 20
21.5748
 30
0.0000
 11
140.3716
 21
31.4401
 31
0.0000
  0
LINE
  8
46
 10
174.7441
 20
11.6738
 30
0.0000
 11
173.6029
 21
11.8212
 31
0.0000
  0
LINE
  8
46
 10
173.9834
 20
46.8808
 30
0.0000
 11
172.9293
 21
46.6471
 31
0.0000
  0
LINE
  8
46
 10
187.6852
 20
18.0238
 30
0.0000
 11
188.3126
 21
18.7046
 31
0.0000
  0
LINE
  8
46
 10
182.0987
 20
46.0756
 30
0.0000
 11
181.0873
 21
46.4363
 31
0.0000
  0
LINE
  8
46
 10
185.3509
 20
16.0630
 30
0.0000
 11
186.0883
 21
16.6091
 31
0.0000
  0
LINE
  8
46
 10
179.4830
 20
11.8110
 30
0.0000
 11
178.2455
 21
11.6484
 31
0.0000
  0
LINE
  8
46
 10
191.3301
 20
19.7739
 30
0.0000
 11
190.7098
 21
18.8849
 31
0.0000
  0
LINE
  8
46
 10
166.6014
 20
43.3959
 30
0.0000
 11
165.9207
 21
42.7838
 31
0.0000
  0
LINE
  8
46
 10
194.2267
 20
32.4282
 30
0.0000
 11
194.3219
 21
31.2090
 31
0.0000
  0
LINE
  8
46
 10
172.0154
 20
48.2321
 30
0.0000
 11
173.2145
 21
48.5242
 31
0.0000
  0
LINE
  8
46
 10
181.7182
 20
14.2138
 30
0.0000
 11
182.6941
 21
14.5847
 31
0.0000
  0
LINE
  8
46
 10
175.5917
 20
13.3706
 30
0.0000
 11
176.6595
 21
13.3248
 31
0.0000
  0
LINE
  8
46
 10
171.8846
 20
46.3575
 30
0.0000
 11
171.0235
 21
46.0527
 31
0.0000
  0
LINE
  8
46
 10
192.4837
 20
28.3312
 30
0.0000
 11
192.5762
 21
29.4818
 31
0.0000
  0
LINE
  8
46
 10
167.8623
 20
46.4617
 30
0.0000
 11
168.8503
 21
46.9925
 31
0.0000
  0
LINE
  8
46
 10
170.0533
 20
45.6184
 30
0.0000
 11
169.0969
 21
45.1333
 31
0.0000
  0
LINE
  8
46
 10
192.5884
 20
30.4876
 30
0.0000
 11
192.5249
 21
31.6687
 31
0.0000
  0
LINE
  8
46
 10
160.6248
 20
30.4698
 30
0.0000
 11
160.6217
 21
29.4208
 31
0.0000
  0
LINE
  8
46
 10
193.8536
 20
34.6177
 30
0.0000
 11
194.0877
 21
33.4950
 31
0.0000
  0
LINE
  8
46
 10
160.5242
 20
38.1076
 30
0.0000
 11
160.9804
 21
39.0779
 31
0.0000
  0
LINE
  8
46
 10
168.3156
 20
44.6659
 30
0.0000
 11
167.4503
 21
44.0538
 31
0.0000
  0
LINE
  8
46
 10
163.5531
 20
42.8523
 30
0.0000
 11
164.3799
 21
43.7413
 31
0.0000
  0
LINE
  8
46
 10
161.0078
 20
21.2395
 30
0.0000
 11
160.6883
 21
21.9431
 31
0.0000
  0
LINE
  8
46
 10
186.3570
 20
45.8089
 30
0.0000
 11
187.2209
 21
45.1841
 31
0.0000
  0
LINE
  8
46
 10
175.4261
 20
48.8213
 30
0.0000
 11
176.6804
 21
48.8645
 31
0.0000
  0
LINE
  8
46
 10
187.2209
 20
45.1841
 30
0.0000
 11
188.0588
 21
44.4703
 31
0.0000
  0
LINE
  8
46
 10
182.2668
 20
47.8968
 30
0.0000
 11
183.4038
 21
47.4523
 31
0.0000
  0
LINE
  8
46
 10
191.9641
 20
34.8920
 30
0.0000
 11
191.6473
 21
35.9664
 31
0.0000
  0
LINE
  8
46
 10
194.0877
 20
33.4950
 30
0.0000
 11
194.2267
 21
32.4282
 31
0.0000
  0
LINE
  8
46
 10
191.6857
 20
40.0837
 30
0.0000
 11
192.2191
 21
39.0982
 31
0.0000
  0
LINE
  8
46
 10
183.0852
 20
45.6667
 30
0.0000
 11
182.0987
 21
46.0756
 31
0.0000
  0
LINE
  8
46
 10
180.1995
 20
46.6801
 30
0.0000
 11
179.1333
 21
46.8884
 31
0.0000
  0
LINE
  8
46
 10
190.3560
 20
38.8518
 30
0.0000
 11
189.8749
 21
39.6519
 31
0.0000
  0
LINE
  8
46
 10
192.5762
 20
29.4818
 30
0.0000
 11
192.5884
 21
30.4876
 31
0.0000
  0
LINE
  8
46
 10
192.4065
 20
32.8117
 30
0.0000
 11
192.2371
 21
33.7795
 31
0.0000
  0
LINE
  8
46
 10
172.9293
 20
46.6471
 30
0.0000
 11
171.8846
 21
46.3575
 31
0.0000
  0
LINE
  8
46
 10
190.8536
 20
37.8790
 30
0.0000
 11
190.3560
 21
38.8518
 31
0.0000
  0
LINE
  8
46
 10
180.6781
 20
13.8786
 30
0.0000
 11
181.7182
 21
14.2138
 31
0.0000
  0
LINE
  8
46
 10
171.0235
 20
46.0527
 30
0.0000
 11
170.0533
 21
45.6184
 31
0.0000
  0
LINE
  8
46
 10
192.2371
 20
33.7795
 30
0.0000
 11
191.9641
 21
34.8920
 31
0.0000
  0
LINE
  8
46
 10
165.1363
 20
44.4652
 30
0.0000
 11
166.0060
 21
45.1764
 31
0.0000
  0
LINE
  8
46
 10
181.2016
 20
48.2448
 30
0.0000
 11
182.2668
 21
47.8968
 31
0.0000
  0
LINE
  8
46
 10
160.9982
 20
26.5684
 30
0.0000
 11
161.2202
 21
25.6286
 31
0.0000
  0
LINE
  8
46
 10
159.1490
 20
33.5102
 30
0.0000
 11
159.3985
 21
34.7701
 31
0.0000
  0
LINE
  8
46
 10
185.8043
 20
14.2545
 30
0.0000
 11
184.7581
 21
13.6423
 31
0.0000
  0
LINE
  8
46
 10
166.0060
 20
45.1764
 30
0.0000
 11
166.9804
 21
45.8927
 31
0.0000
  0
LINE
  8
46
 10
186.0883
 20
16.6091
 30
0.0000
 11
186.9176
 21
17.3101
 31
0.0000
  0
LINE
  8
46
 10
185.7009
 20
44.1173
 30
0.0000
 11
184.8122
 21
44.7116
 31
0.0000
  0
LINE
  8
46
 10
192.2191
 20
39.0982
 30
0.0000
 11
192.7535
 21
37.9705
 31
0.0000
  0
LINE
  8
46
 10
181.0873
 20
46.4363
 30
0.0000
 11
180.1995
 21
46.6801
 31
0.0000
  0
LINE
  8
46
 10
161.2628
 20
20.6832
 30
0.0000
 11
161.0078
 21
21.2395
 31
0.0000
  0
LINE
  8
46
 10
164.4625
 20
41.2039
 30
0.0000
 11
163.8978
 21
40.4698
 31
0.0000
  0
LINE
  8
46
 10
175.9928
 20
11.5773
 30
0.0000
 11
174.7441
 21
11.6738
 31
0.0000
  0
LINE
  8
46
 10
185.3357
 20
46.4617
 30
0.0000
 11
186.3570
 21
45.8089
 31
0.0000
  0
LINE
  8
46
 10
162.2054
 20
41.1201
 30
0.0000
 11
162.8214
 21
41.9811
 31
0.0000
  0
LINE
  8
46
 10
162.2260
 20
17.5057
 30
0.0000
 11
155.8442
 21
21.5748
 31
0.0000
  0
LINE
  8
46
 10
163.3037
 20
39.5707
 30
0.0000
 11
162.7386
 21
38.6232
 31
0.0000
  0
LINE
  8
46
 10
177.1061
 20
47.0967
 30
0.0000
 11
176.0078
 21
47.0814
 31
0.0000
  0
LINE
  8
46
 10
160.0446
 20
23.5306
 30
0.0000
 11
159.6479
 21
24.7218
 31
0.0000
  0
LINE
  8
46
 10
183.8985
 20
45.2577
 30
0.0000
 11
183.0852
 21
45.6667
 31
0.0000
  0
LINE
  8
46
 10
178.0474
 20
47.0357
 30
0.0000
 11
177.1061
 21
47.0967
 31
0.0000
  0
LINE
  8
46
 10
174.2796
 20
48.7147
 30
0.0000
 11
175.4261
 21
48.8213
 31
0.0000
  0
LINE
  8
46
 10
160.9745
 20
33.6880
 30
0.0000
 11
160.7805
 21
32.5323
 31
0.0000
  0
LINE
  8
46
 10
183.4038
 20
47.4523
 30
0.0000
 11
184.3725
 21
47.0052
 31
0.0000
  0
LINE
  8
46
 10
164.3799
 20
43.7413
 30
0.0000
 11
165.1363
 21
44.4652
 31
0.0000
  0
LINE
  8
46
 10
170.9324
 20
47.9044
 30
0.0000
 11
172.0154
 21
48.2321
 31
0.0000
  0
LINE
  8
46
 10
162.7924
 20
21.5798
 30
0.0000
 11
162.8394
 21
21.3538
 31
0.0000
  0
LINE
  8
46
 10
174.4782
 20
13.4772
 30
0.0000
 11
175.5917
 21
13.3706
 31
0.0000
  0
LINE
  8
46
 10
168.4246
 20
15.6540
 30
0.0000
 11
169.0116
 21
15.3060
 31
0.0000
  0
LINE
  8
46
 10
161.2202
 20
25.6286
 30
0.0000
 11
161.5465
 21
24.5770
 31
0.0000
  0
LINE
  8
46
 10
189.2508
 20
40.5486
 30
0.0000
 11
188.5932
 21
41.4045
 31
0.0000
  0
LINE
  8
46
 10
192.7535
 20
37.9705
 30
0.0000
 11
193.1782
 21
36.9392
 31
0.0000
  0
LINE
  8
46
 10
192.5249
 20
31.6687
 30
0.0000
 11
192.4065
 21
32.8117
 31
0.0000
  0
LINE
  8
46
 10
187.2168
 20
42.8473
 30
0.0000
 11
186.4203
 21
43.5610
 31
0.0000
  0
LINE
  8
46
 10
167.4503
 20
44.0538
 30
0.0000
 11
166.6014
 21
43.3959
 31
0.0000
  0
LINE
  8
46
 10
166.9804
 20
45.8927
 30
0.0000
 11
167.8623
 21
46.4617
 31
0.0000
  0
LINE
  8
46
 10
160.9804
 20
39.0779
 30
0.0000
 11
161.5478
 21
40.0837
 31
0.0000
  0
LINE
  8
46
 10
180.1503
 20
48.4937
 30
0.0000
 11
181.2016
 21
48.2448
 31
0.0000
  0
LINE
  8
46
 10
174.9069
 20
47.0103
 30
0.0000
 11
173.9834
 21
46.8808
 31
0.0000
  0
LINE
  8
46
 10
176.0078
 20
47.0814
 30
0.0000
 11
174.9069
 21
47.0103
 31
0.0000
  0
LINE
  8
46
 10
191.6473
 20
35.9664
 30
0.0000
 11
191.3120
 21
36.8630
 31
0.0000
  0
LINE
  8
46
 10
160.8054
 20
27.6225
 30
0.0000
 11
160.9982
 21
26.5684
 31
0.0000
  0
LINE
  8
46
 10
177.7799
 20
48.8315
 30
0.0000
 11
178.9222
 21
48.7045
 31
0.0000
  0
LINE
  8
46
 10
160.6883
 20
21.9431
 30
0.0000
 11
160.4744
 21
22.4231
 31
0.0000
  0
LINE
  8
46
 10
188.0588
 20
44.4703
 30
0.0000
 11
188.9407
 21
43.6347
 31
0.0000
  0
LINE
  8
46
 10
158.8732
 20
28.9535
 30
0.0000
 11
158.8541
 21
30.0177
 31
0.0000
  0
LINE
  8
46
 10
161.8816
 20
36.7741
 30
0.0000
 11
161.4901
 21
35.7124
 31
0.0000
  0
LINE
  8
46
 10
160.6743
 20
31.5443
 30
0.0000
 11
160.6248
 21
30.4698
 31
0.0000
  0
LINE
  8
46
 10
165.9207
 20
42.7838
 30
0.0000
 11
165.1805
 21
42.0192
 31
0.0000
  0
LINE
  8
46
 10
162.8214
 20
41.9811
 30
0.0000
 11
163.5531
 21
42.8523
 31
0.0000
  0
LINE
  8
46
 10
178.9222
 20
48.7045
 30
0.0000
 11
180.1503
 21
48.4937
 31
0.0000
  0
LINE
  8
46
 10
160.0584
 20
36.9468
 30
0.0000
 11
160.5242
 21
38.1076
 31
0.0000
  0
LINE
  8
46
 10
191.3120
 20
36.8630
 30
0.0000
 11
190.8536
 21
37.8790
 31
0.0000
  0
LINE
  8
46
 10
193.5269
 20
35.8521
 30
0.0000
 11
193.8536
 21
34.6177
 31
0.0000
  0
LINE
  8
46
 10
159.1406
 20
26.8884
 30
0.0000
 11
158.9629
 21
28.0213
 31
0.0000
  0
LINE
  8
46
 10
186.4203
 20
43.5610
 30
0.0000
 11
185.7009
 21
44.1173
 31
0.0000
  0
LINE
  8
46
 10
173.2145
 20
48.5242
 30
0.0000
 11
174.2796
 21
48.7147
 31
0.0000
  0
LINE
  8
46
 10
159.3667
 20
25.7708
 30
0.0000
 11
159.1406
 21
26.8884
 31
0.0000
  0
LINE
  8
46
 10
194.3219
 20
31.2090
 30
0.0000
 11
194.3562
 21
30.0736
 31
0.0000
  0
LINE
  8
46
 10
191.0944
 20
41.0007
 30
0.0000
 11
191.6857
 21
40.0837
 31
0.0000
  0
LINE
  8
46
 10
168.8503
 20
46.9925
 30
0.0000
 11
169.9499
 21
47.5132
 31
0.0000
  0
LINE
  8
46
 10
159.3985
 20
34.7701
 30
0.0000
 11
159.6753
 21
35.8292
 31
0.0000
  0
LINE
  8
46
 10
193.1782
 20
36.9392
 30
0.0000
 11
193.5269
 21
35.8521
 31
0.0000
  0
LINE
  8
46
 10
160.6702
 20
28.5953
 30
0.0000
 11
160.8054
 21
27.6225
 31
0.0000
  0
LINE
  8
46
 10
140.3716
 20
31.4401
 30
0.0000
 11
128.8527
 21
38.7833
 31
0.0000
  0
LINE
  8
46
 10
158.8869
 20
31.2090
 30
0.0000
 11
158.9712
 21
32.3012
 31
0.0000
  0
LINE
  8
46
 10
159.6479
 20
24.7218
 30
0.0000
 11
159.3667
 21
25.7708
 31
0.0000
  0
LINE
  8
46
 10
161.5478
 20
40.0837
 30
0.0000
 11
162.2054
 21
41.1201
 31
0.0000
  0
LINE
  8
46
 10
190.3750
 20
41.9913
 30
0.0000
 11
191.0944
 21
41.0007
 31
0.0000
  0
LINE
  8
46
 10
169.9499
 20
47.5132
 30
0.0000
 11
170.9324
 21
47.9044
 31
0.0000
  0
LINE
  8
46
 10
188.9407
 20
43.6347
 30
0.0000
 11
189.6793
 21
42.8523
 31
0.0000
  0
LINE
  8
46
 10
188.5932
 20
41.4045
 30
0.0000
 11
187.9844
 21
42.0929
 31
0.0000
  0
LINE
  8
46
 10
158.9712
 20
32.3012
 30
0.0000
 11
159.1490
 21
33.5102
 31
0.0000
  0
LINE
  8
46
 10
161.4901
 20
35.7124
 30
0.0000
 11
161.2146
 21
34.7828
 31
0.0000
  0
LINE
  8
46
 10
158.8541
 20
30.0177
 30
0.0000
 11
158.8869
 21
31.2090
 31
0.0000
  0
LINE
  8
46
 10
187.9844
 20
42.0929
 30
0.0000
 11
187.2168
 21
42.8473
 31
0.0000
  0
LINE
  8
46
 10
162.7386
 20
38.6232
 30
0.0000
 11
162.3088
 21
37.7825
 31
0.0000
  0
LINE
  8
46
 10
176.6804
 20
48.8645
 30
0.0000
 11
177.7799
 21
48.8315
 31
0.0000
  0
LINE
  8
46
 10
160.4744
 20
22.4231
 30
0.0000
 11
160.0446
 21
23.5306
 31
0.0000
  0
ENDSEC
  0
EOF
